/* XPM */
static char *bulldog_pixmap[] = {
/* columns rows colors chars-per-pixel */
"40 40 32 1 ",
"  c #6D4B33",
". c #2B1910",
"X c #916B4E",
"o c black",
"O c #BB9475",
"+ c #C5AE9C",
"@ c #533523",
"# c #645D58",
"$ c #472B1B",
"% c #392316",
"& c #190C08",
"* c #352F2C",
"= c #613F2A",
"- c #9D7657",
"; c #856044",
": c #070302",
"> c #21130C",
", c #8C837D",
"< c #1B1613",
"1 c #AB8362",
"2 c #7A563C",
"3 c #501B19",
"4 c #0E0604",
"5 c #110B08",
"6 c #7E3634",
"7 c #9F514B",
"8 c #060B0E",
"9 c #101113",
"0 c #1B1D1E",
"q c #4C4643",
"w c #28221E",
"e c None",
/* pixels */
"eeeeeeeeeee$.<@:eeeeeeeeeeeeeeeeeeeeeeee",
"eew..:eeee 45*ee*eeeeeeeeeeeeeeeeeeeeeee",
"e%5 X-1O1@&>:,w+,eeeeeeeeeeeeeeeeeeeeeee",
"ee-;-+1++1O+=&4w*:+eeeeeeeeeeeeeeeeeeeee",
"e5&X 2-&&2XO++X=*,:eeeeeeeeeeeeeeeeeeeee",
"e#qw>,,$@&%%-O-;wqeeeeeeeeeeeeeeeeeeeeee",
"%@9.@$ -=;O+O-; *#19eeeeeeeeeeeeeeeeeeee",
"%54>5>>.%% -1O+=0,,&eeeeeeeeeeeeeeeeeeee",
"w:>3&:&>>@$;11O-**1Xeeeeeeeeeeeeeeeeeeee",
"e O@;+45&>> XXX1q01-O%&eeeeeeeeeeeeeeeee",
"ew.&&@o&<5&% 2;;#O;-O1 X;eeeeeeeeeeeeeee",
"eee.>66:3w05$ ;w0#,X1OX2;-eeeeeeeeeeeeee",
"eee&-6@1 6#55509@;$-1OO$=-X>eeeeeeeeeeee",
"eeqw77.@3+<>&8,  =@-1-OX$=1;;4eeeeeeeeee",
"ee,27O$wwo*<8*@+=$;;;-112$21-1>eeeeeeeee",
"eeXq>-*ww.:#2$@.$$ = 2-1-%=XX11>eeeeeeee",
"eeXow5w&5&:,%$$%%=@@@=;--%=2;-1@4eeeeeee",
"ee55>.45&4.q&&>.%%%$$==;2 $@ ;-1=eeeeeee",
"eeeqe5%&>&%&.$$ @%$@2@==22=$@=;114eeeeee",
"eee:e%5.>.%>%%$$.$$$@2@=2X 2$= -1@eeeeee",
"eee:e$>>.>%.%%$$= 2 $@;= 1X&%$=X-;eeeeee",
"eeee:@.>&..%%$%====@=@  ;-1..>%=2-&eeeee",
"eeee%=%%%.&.%%$===@$$@%;=-1@e4.$= $eeeee",
"eeee.=%..@@$.%%@@$%%%.%@221@.ee>>$$eeeee",
"eeee&=%$==%$@..%$%...>.%==-==ee&.>.eeeee",
"eeee@ 2@.5&.%@%$%%%%%$:>%=X2Xeee>$%eeeee",
"eeee;  ..&e:.%$%$@$%%:4e.%;21eee4$%%eeee",
"eeeeX2%=.eeee&>>&::4:4:ee$2;1eeee:.%$:ee",
"eeee; =$.eeeeeeeeee.>&eee$ X;>eeeee>$$@e",
"eeeeX@=%4eeeeeeeee>%>>eee:$;2%eeeee>.%X:",
"eee:;@@:eeeeeeeee<$>$:eeee$ 2=eeeee:%=$%",
"eee42@%eeeeeeeeee%.weeeeee4=2-eeeeee4@we",
"eee4 %.eeeeeeeeee:4eeeeeeee=2-eeeeeee<:e",
"eeee@$>eeeeeeeeeeeeeeeeeeee==X.eeeeeeeee",
"eee>$$&eeeeeeeeeeeeeeeeeeee4=2Oeeeeeeeee",
"ee>$$@Xeeeeeeeeeeeeeeeeeeeee==2@eeeeeeee",
"e5 -- :weeeeeeeeeeeeeeeeeeee@@==2eeeeeee",
"ee=%=.eeeeeeeeeeeeeeeeeeeeee $>1 %eeeeee",
"eeee:eeeeeeeeeeeeeeeeeeeeeee @ 2 5eeeeee",
"eeeeeeeeeeeeeeeeeeeeeeeeeeee:o*oweeeeeee"
};
