/* XPM */
static char *1347167119397[] = {
/* columns rows colors chars-per-pixel */
"100 56 256 2",
"gX c #A2A09C",
"a  c #34241A",
"@. c #68353A",
"9. c #3E3F40",
"O  c #0B0605",
"9X c #85827A",
"'. c #5C676A",
"F. c #73544C",
"0X c #8B867C",
";X c #81493C",
"^  c #552C24",
"-. c #44423C",
"n. c #654B45",
"C  c #3A3936",
"<  c #161619",
"f  c #1E1F20",
"y  c #21201E",
":  c #121212",
"0. c #423F40",
" . c #612E25",
"n  c #372725",
"N  c #262939",
"-  c #190E11",
"j. c #545452",
"GX c #E8E6E5",
"y. c #494643",
"-X c #804D2D",
"v  c #28272A",
":X c #814838",
"l  c #2B2A27",
"t  c #2E2115",
"jX c #A9A9A7",
"yX c #8B8B89",
"S. c #6A534C",
"e. c #743E45",
"FX c #E4E4E3",
"hX c #A6A6A5",
"5X c #817F7C",
"=X c #667479",
"*X c #7A737A",
"3  c #191918",
"I  c #592A12",
"2  c #1D1C1C",
"K. c #615F59",
"j  c #222222",
"NX c #DDDDDC",
"7  c #2C1B14",
"/. c #73635C",
"&  c #0E0E12",
"OX c #7B746D",
"(. c #7A665D",
"w. c #6A3841",
"x  c #27292A",
"R  c #471E20",
"Z  c #373738",
"b  c #302F2B",
"V. c #74454C",
"k. c #595651",
"k  c #2C2423",
"g. c #585348",
"4X c #817D75",
"G  c #4A1B1D",
"M  c #3E352F",
"mX c #D0D0CF",
"t. c #444343",
"L  c #51271A",
"1  c #161919",
"N. c #734243",
"u  c #272418",
",X c #83514E",
">X c #854E47",
"p. c #48434A",
"rX c #838483",
"a. c #534E46",
"[  c #572A33",
"E. c #7E5A5B",
"   c #020202",
",  c #1D1916",
"P  c #51281D",
"9  c #271618",
"oX c #76726A",
"8  c #211E1B",
"~. c #6A635D",
"ZX c #F4DDCF",
"8. c #7C5133",
"E  c #4C2B22",
"d. c #5A4943",
"HX c #EBEBEA",
"1X c #835954",
"AX c #F7E9DE",
">. c #6E482B",
"@  c #1B0F0E",
"u. c #4C4A43",
"q. c #6C3C43",
"=. c #454312",
"L. c #675855",
"_. c #474861",
"x. c #57585B",
"{. c #6C6B6C",
"&X c #7D7C7B",
"`  c #55332C",
"pX c #92918F",
"$X c #787773",
"CX c #E0DFDE",
"sX c #9A9897",
"DX c #C8DBEE",
"U. c #745A52",
"X. c #6A352C",
"nX c #BCC5C9",
"T. c #7C5659",
"G. c #7B544A",
"*. c #504F10",
"c  c #2C2C2C",
"Y  c #532D0D",
"|. c #756562",
"R. c #765C5A",
"}  c #573934",
"cX c #B2B1AE",
"c. c #4A4E51",
"UX c #F8F7F5",
"J. c #6D5B54",
"H  c #551E1C",
"d  c #0F1020",
"i  c #322116",
"MX c #D8D7D5",
"LX c #F2F0EF",
"aX c #959494",
".X c #7C6A64",
"3X c #826067",
"B. c #734B46",
"2. c #754135",
"w  c #1D230B",
"SX c #D1DFEE",
";  c #0F1011",
"bX c #F3D4BE",
"5  c #351C0D",
"7X c #7F807F",
"q  c #1F201F",
"+X c #7B786F",
"/  c #5A2B26",
"tX c #8C8984",
"e  c #2A250B",
"$  c #10100F",
"4  c #2A170D",
"'  c #5C322D",
"kX c #ADADAB",
"z  c #272628",
"{  c #453935",
"`. c #745A60",
"V  c #343434",
"6X c #867172",
"1. c #684536",
"Y. c #7B5C54",
"@X c #736B72",
"J  c #423B0D",
"qX c #AB8777",
"]  c #553926",
"z. c #5C5B5A",
"i. c #4C4B4B",
"<. c #78482C",
"4. c #7D4A32",
"IX c #FEFEFE",
"VX c #D0CFCD",
"v. c #654444",
"D  c #3B3B3B",
"uX c #888782",
"S  c #373838",
"vX c #B4B3B1",
"_  c #5E3226",
"B  c #302E32",
"K  c #49281C",
"p  c #3A2416",
"PX c #F3F3F3",
"JX c #F0EFEE",
"XX c #716D6A",
"H. c #784D52",
"O. c #663828",
"5. c #7D4639",
">  c #1B1513",
"!. c #65635C",
"fX c #989796",
"xX c #AFB0AE",
"dX c #9C9B9A",
"m. c #6B4E4A",
"U  c #53321B",
"zX c #B0AEAB",
"iX c #918E89",
"). c #7B7C4B",
"F  c #3C3533",
"Q  c #4A2D2D",
"g  c #12122A",
":. c #54473B",
"#X c #777673",
"BX c #D4D4D4",
"}. c #6E6165",
"6. c #714A3D",
"<X c #815C5E",
"M. c #694A48",
"#  c #0E100F",
"A. c #794749",
"%  c #1B120F",
"T  c #612E08",
"0  c #371913",
")  c #4A322B",
"$. c #602E38",
"KX c #F7EBE4",
"P. c #735453",
"7. c #7A473A",
"8X c #838077",
"s  c #39271B",
"~  c #552623",
"|  c #4C2930",
"b. c #6A4243",
",. c #67432A",
"^. c #6D685F",
"r. c #3D4143",
"m  c #33322E",
"=  c #100F11",
"s. c #514E4A",
"]. c #646463",
"!  c #472527",
"o. c #6B382D",
"X  c #060909",
"Q. c #6B4F50",
"A  c #393738",
"r  c #312A0C",
"*  c #0A0B18",
"wX c #817981",
"I. c #7B5355",
"lX c #A4AAAB",
"W. c #745658",
"%. c #3C443C",
"[. c #6C6962",
"f. c #54524C",
"#. c #723D32",
"%X c #7D7A73",
" X c #736C65",
"Z. c #7B4C4A",
"(  c #542E2C",
"l. c #5D5B56",
"o  c #0C0C0C",
".. c #64342B",
"C. c #734C4C",
".  c #060608",
"D. c #685547",
"+. c #713B2E",
"3. c #7C4435",
"h. c #504E50",
"6  c #211A14",
"&. c #48450E",
"+  c #120E0E",
"2X c #84695D",
"eX c #788489",
";. c #4A413C",
"h  c #391F24",
"W  c #452C2C",
/* pixels */
"iXsXl.^.^.!.^.!.l.!.!.K.a.u.a.u.u.a.u.u.u.a.a.a.u.a.a.u.u.a.u.u.s.a.u.a.u.u.u.u.u.u.u.u.u.u.u.:.u.u.g.f.f.a.f.g.f.f.f.a.f.g.f.f.g.f.f.f.f.a.f.a.f.f.f.u.[.gXa.oXoXa.oXf. XoXf.!.^.~. Xg.oX[.!.[.^.f.+X!.",
"XXOXu.l.k.j.f.j.K.!.].!.j.j.k.g.k.j.k.f.j.u.g.g.f.j.f.j.j.f.f.f.f.f.j.y.k.K.l.l.l.l.K.l.l.l.l.l.l.f.9.-.-.-.-.-.-.-.t.-.-.-.-.-.-.-.-.-.-.-.u.-.-.-.-.-.f.oX-.l.k.-.j.-.k.l.%.f.f.s.j.t.k.k.f.j.f.-.l.a.",
"C M C m -.D y ].eX9XuXuXpXtXtXuXyXtXyXpXdXpXeXeXtXuXpXuX9XdXdXdXdXdXdXgXnXnXMXBXNXMXBXMXNXMXVXCXJXCXj.u.m B m b m b b b b b m b B b c m m b b b b b b m c k c c l b l b l l m b c l c b l b l l l b l l ",
"7XeX7X9X&X8X&XkXlXcXcXxXvXxXvXxXcXzXxXxXvXvXlXkXxXkXxXkXkXvXvXvXvXvXkXmXFXBXGXCXGXFXFXFXFXFXFXHXHXPXjX7X%X#X#X$X#X#X#X#X#X#X#X#X#X#X+X$X#X#X#X#X#X#X#X#X$X$X$X#X$X$X$X$X$X#X#X+X#X#X+X#X#X#X#X%X%X%X7X7X",
"AXbXUXLXUXDXPXJXHXFXGXFXHXCXFXHXGXHXPXPXPXPXHXHXJXPXIXIXIXIXIXIXIXIXIXIXIXIXUXIXIXUXIXIXUXIXIXUXUXUXIXIXIXIXIXIXIXIXIXIXIXIXIXIXIXIXIXIXIXIXIXIXIXIXIXIXIXIXIXIXIXIXIXIXIXIXIXIXIXIXIXIXIXIXIXPXPXJXmXIX",
"KXZXUXLXPXSXPXPXPXGXFXGXHXHXFXHXGXCXPXPXPXUXUXPXUXUXIXIXIXIXIXIXIXIXIXIXIXIXIXIXIXIXIXIXIXIXIXIXIXIXIXIXIXIXIXIXIXIXIXIXIXIXIXIXIXIXIXIXIXIXIXIXIXIXIXIXIXIXIXIXIXIXIXIXIXIXIXIXIXIXIXIXIXIXIXPXJXUXMXPX",
"i.c.y.i.i.i.y.y.i.i.i.i.i.i.c.u.i.i.i.y.i.p.y.i.i.h.i.i.i.i.h.i.i.i.i.h.j.j.j.h.p.i.i.i.i.i.s.i.i.i.i.h.i.i.h.p.y.p.y.t.t.y.y.p.y.t.t.y.y.p.y.y.y.y.t.y.y.y.t.y.y.i.s.f.j.s.s.s.s.s.f.u.i.s.u.u.i.i.j.f.",
"                                                  . . .     . .   .   X X o # o   . . . . . .   .   . .   . . .                                                     6 p a i i 7 7 a 4 4 4 p i       .   ",
"; o $ $ o $ $ ; o o ; $ o ; $ o o $ $ $ $ $ ; $ $ $ # # $ $ $ o ; $ $ $ + o o o $ o o o + # o + o + $ $ $ $ $ = o $ $ $ $ $ $ $ & $ o $ $ o $ $ $ o $ $ o # $ $ o   p >.F. X>./.D.g.1.} ^ 8.>., & o & & ",
"o o o o o o o o o o o o o o o o o $ 2 , w , 8 2 , 3 % , q 2 > - 6 > , 2 > 2 $ $ 3 3 3 8 y 2 , 6 6 6 , , > , 6 > > > : > > , > o o o o o o o o o o o o o o o o o o   8 ] d.j.g.L.i.r. XJ.^ >.O..     .   ",
"o o o o o o o o o o o o o o o o o $ , % > > 8 8 3 : q 3 , , , - 6 6 8 8 , : > , j 3 3 7 y 8 6 6 6 6 6 6 6 8 > > 2 > o 2 y > > o o o o o o o o o o o o o o o o o   2 OX|.S.].XXoX%X%XOX` _ 8. .O         ",
"o o o o o o o o o o o o o o o o o : , > 8 , 2 2 : 2 u , > % > $ % 6 : 3 : o o 3 2 o $ 3 8 3 , 6 6 > 2 , , , 2 3 > > > j y : > o o o o X o X o o o o o o o o # O c %X0XOX} /.0X4X4X7XQ.G o.>._ O     *   ",
"o o o o o o o o o o o o o o o o o ; 2 > u y q 8 , 2 6 8 x V x B b l c c x B x x B c c j q j q j 8 j 8 j y j 8 f f 8 j f y z v z z z v v z z c j o o o o o o o X l.0Xx.n H [ /.$X+X/.v.P >.,./ +   * d N ",
"o o o o o o o o o o o o o o o o o $ 2 2 3 2 y y y u , $ B i.V C -.V t.t.V r.D Z t.9.t.l j j j j j j j j j j j j j j j j j v B c c c c v c B v j o o o o o o X : OX%XN R ' J.} m.F.U.M.U >. ./ + * g d _.",
"o o o o o o o o o o o o o o o o o o - ; X = : : $ > $ o f z V t.c Z B V Z Z V V V Z j 2 2 2 q 2 2 f 2 8 2 2 j j j j j j j f f f 2 j f f j : #X{.  o o o o #   V 0Xj.7 ^ J.m.m.U.G.Y.S.,.1.( ' k z v * : ",
"o o o o o o o o o o o o o o o o o o o o o o o O o X + % j c D D Z Z Z D C V Z Z V D V m D S V V S B V V Z V j f j j j f j j j j j j j j z : dXpX  $ o o o + X l.tX-.0 @.Y.n.%X/.(.%XD.<.,.G / 9 . = o * ",
"o o o o o o o o o o o o o o o o o o o o o o o o o o @ + j c D t.D t.D D t.D B Z V S C c x m x B m v B c B B y q j q j j q q j j j q j j j : fXyX  o o o o X , %X%Xn } Y.m.oX4X4X#XD.>.,.n.L.~ 7 . . o o ",
"o o o o o o o o o o o o o o o o o o o o o o o o o o + @ j c D t.C r.t.V V V V D V S S x 2 q q 2 2 f q q 2 2 q j j j q j j j j q q j j q j : fXyX  o o o #   -.0X[.{ Y.C./.8XOX4X$XJ.>.1. X$XP.0 X X o X ",
"o o o o o o o o o o o o o o o o o o o o o o o o o o o $ j c Z D t.D r.D B S m Z V V S S y q j j j j q j j j j j q j j j j j j q j j j j j ; dXyX  ; o o X # ^.8X XU.U.H.W.OX4X%X9XD.,.}.OX+X4Xu.q X o o ",
"o o o o o o o o o o o o o o o X o o o o o o o o o o o o y c D t.D t.9.S S D C Z S S V V D V j y q j q q y j j j j q q q q q q j q y j j j 3 fXyX  ; o o O y 4X7X(.U.U.E.<XP.}.+X7XD.n. X4X%X4X!.; o o o ",
"o o ; ; o = = = # o o ; $ # ; ; ; = = o $ ; o o o o o o j x V Z V S Z c c B c c c B x x V B j j j j j j x j j j j j j j j j x j j j j j j : fXyX  o o o   m 8X%X(.F.n v.T.T.I.H.U.Q.m.F.R.4X%X4X8 . o o ",
"o o ; 3 u , 6 , > q x x c c x c j : < 3 : : o o o o o = q V D m c j Z D Z Z D D V D Z V D D Z Z S D r.D D D D Z D D D D D Z D D Z 9.9.z j : fXyX  $ o $   b tX6Xn.8   ! w.q.3X<XE.H.b.F.0 !.4X8XK.. o o ",
"o o X e *.&.&.J K U } } u.j.'.=X9.  3 - @ @ > @ > 3 2 3 j D D D c j j j j j j j j j y j j j j j j j j j j j j j j j j j j j q j j j j j z ; hXaX  o o o X > y.k X X X h w.[ V.H.H.w.$.Q O h 4X4X9XV . o ",
"o o X e J &.=.K E L L L L E ` K.r.. = o o o $ o o o o o q B c c l j j j j x j j j j j j j j j j j j j j j j j j j j j j j j j j j j j j z ; hXaX  o o o = o   X o o . W e.w.e.w.w.q.$.> X O F 9X4X X= o ",
"o o o e r e p L O.2.#.X._ ^ L ` C X 2 3 3 > 3 3 3 2 3 < j c x x j j j j j j j j j q j y j j j j j j j j j j j j j j j j j j j j j j j j c ; hXaX  $ o o o o ; o o o X | I.H.E.E.<XI.| X $ o   l.9X9X{   ",
"o o X k :.:.U _ ;X;X5.5.5.3.O.U u X o o o o o o o o o X j Z 9.t.B j x j c j j c x x x x c j j j j j j j j j j j j j j q j j j j q j j j j = hXaX  ; o o o o o o o o o | I.I.T.E.<XV.> . o + X - oX4X|.3 ",
"o o X p ,.] E #.#.5.5.3.3.3.3.,.w o o o o o o o o o o o 2 V i.9.9.t.-.t.Z S D D S D Z Z D Z q j j j j j j j j j j j j j j q j j j q j q j : kXaX  o o o o o o o o o + q.H.E.<X<XT.V.9 X o o o + D.6X.Xl ",
"o o X 5 T I P _ ..O.X.3.3.3.5._ 4 X o o o o o o o o o o 2 t.h.D D 9.9.9.D m Z Z m V D B 3 2 2 2 2 j j j 2 j f j j j j j j j j j j q j j j : hXpX  o o o o o o o = X - H.T.E.E.E.T.3X$.X o $   { Y.1X{ . ",
"o o X i I O.2. .B.I. ... .X.+.U t o o o o o o o o o o o j j V t.D D D Z D V Z Z V S Z V B V V V j j j j j f j j j y f j q q j j j 8 j j j ; hXpX  $ o o o o o o o X k V.<X<X<XE.E.<XV.9 X X 8 Y.Y.D.o o ",
"o o X 5 T X.>X+...#.o.#.o.G.` a 6 o o o o o o o o o o o j j S t.D D t.V V Z V V S C c c m m B B j j j j j j j y j j j j j j j f j j j q j ; hXfX  o o o o o o o X > C.U.W.I.T.E.I.P.R.v.i X n.Y.F.> X o ",
"o o X r &.O.;X5.2.#.#.#...B.! i 6 X o o o o o o o o o o j B D t.D V Z V Z V B V 9.x q q 2 2 2 2 f j q j f j j j f j j j f j j j j j j j j : hXaX  o o o o o o o X n A.B.(.oX.XR.Q.M./.9Xd.n 1XU.8 . o o ",
"o $ X 7 i O.:X3.7.5.;X5.2.#.s i 6 X $ o o o o o o o o o j 2 D 9.9.D D 9.V V Z Z B S D V S S D D V Z V Z D Z Z Z A Z j 2 j j j f j j j j j ; hXaX  $ o o o o o o X ( A.A.Z.R.|.P.b.M.U.|.oXI.Y.z . o o o ",
"o o o 6 p +.;X3.3.3.:X#.:X7.s t 6 X o o o o o o o o o o j q D t.-.r.t.D D D D Z D S V S D Z S B Z D V Z D V V Z Z Z V l q j j q j j j j j : jXfX  = o o o o o $ X 9 N.C.Z.N.A.A.C.v.@.m.R.R.{   # o o o ",
"o + . y } 3.3.3.N.B.A.6.;X' i i 6 o o o o o o o o o o o q j V D Z V Z V Z S Z v m c c B V x m x c c c B B c c B m x B x j j j j j j j j j 3 dXpX  o o o o o o o X { N.,XZ.N.N.,X1X,XG.N.N.C.> X o o o o ",
"o o   y.G.<.3.;X3.3.7.6.#.E i a 6 o o o o o o o o o o o j j j q 2 j 8 q j 2 q j q j j j j j q j j j j j j j q j q j j j x j j j j j j j z ; fXyX  ; o o o o o o ; F Q Q W n l W W Q ) W ) W > o o o $ o ",
"o o   { <.<.-X4.4.7.:X:X#.a t a 6 X $ o o o o o o o o X x t.D j j j j j j j j j j q j j j j j j j j j j j j j j j j j j j j j j j j j j j 3 dXyX  o o o o o o o o : 1 : 1 3 o o # X o # o # ; ; ; : ; : ",
"o o   p.G.-X-X4.<.3.4.3.K i i i 7 X o o o o o o o o o o j v r.t.B S V V S V D V Z S B B D B f j j q y j j q q j j j q j j y q j y j q q j ; fXyX  o o o o o o o o 3 3 3 1 3 ; ; ; ; % ; ; : $ $ $ $ ; : ",
"o $   p..X<.-X-X4.3.<.U.{ i i { { . o o o o o o o o o o q c D t.D Z V V Z B Z V V V V Z V S x q q q q q q q j j q q j j j j q j j j j j z ; dXyX  o o o o o o o o ; ; : 3 ; ; - $ 3 3 : ; $ ; 3 3 : $ $ ",
"o o O p.wXR.8.8.-X4.Y.*X~.i s U.{   o o o o o o o o o o q c D t.D D D V Z m Z V V V V V V S m x x x x x x j j q j j j q j j j j y j j j j : fXyX  o o o o o o o o ; $ ; : : ; ; $ ; ; $ $ ; $ : ; $ $ ; ",
"o o . { @X{./.F.B.W.{.{.[.n :./.C . = o o o o o o o o o j c D t.9.D Z V Z Z V V m Z D V D Z B Z Z V Z V D m j j j q j j q q j q j j j j j : fXyX  o o o o o o o $ : 3 : 3 : ; : ; : ; : - : : ; : : $ : ",
"o o o ; 3 : > < < < : : > = - : $ o o o o o o o o X o o j B D D D t.S D V Z m V Z V Z V Z m S V D D D D Z D D D Z D V D D D Z D D D 9.A j : fXyX  $ o o o o o o o ; - ; : ; ; % ; : ; ; : ; : $ ; : : $ ",
"o o o o X X X X o O X o X o o X o o o + + o $ o $ = o ; y c D t.t.D r.D D Z V Z Z V S V S Z S Z j j j j j j j j j j j j j j j j j j j j j : fXyX  $ o o o o o o o ; ; : ; : ; ; : ; ; : $ : $ : : $ : $ ",
"o o o o o o o $ o o o o o o $ o o o $ % > > ; : 2 1 1 1 j c V V Z V V x B x c m c c c c c c c c j j j j j j j j j j j j j j j j j j j j z 3 fXyX  o o o o o o o # ; ; ; % ; ; : ; : ; ; ; ; ; ; $ : $ ; ",
"o o o o o o o o o o o o o o o o o o + @ @ - 3 : < f f 1 j j j j y j y j q j j j q j j j j j j q z j j j j j j j j j z j z j j j j j j j z : fXyX  o o o o o o o o : ; % ; ; ; ; ; : ; % : ; : : : ; : $ ",
"o o o o o o o o o o o o o o o o o o $ > , , 8 = 3 2 2 f z 9.9.D D c 2 j j j j j j j q j j j j j j j j j j j j j q j j j j j j j j j j j j : fXyX  o o o o o o o o $ ; : ; : ; : ; ; ; : ; : : : ; : ; $ ",
"o o o o o o o o o o o o o o o o o o $ 8 , , > > > > 1 1 j c Z -.D D r.i.V Z D C Z D S m S V D B D D Z Z D D Z D 9.c 2 j j j q j j j f j j ; fXyX  o o o o o o o $ : : : : : : : ; 3 : : : : : : : : : : ",
"o o o o o o o o o o o o o o o o o o $ , 2 2 > , : 3 1 f j v C 9.t.D D D Z Z V V Z V Z V V V V Z Z Z j 8 j j j j j j j j j j j q j j f j j 3 dXyX  $ o o o o o o o o . $ $ X o o X X O o o X . X o X X o ",
"o o o o o o o o o o o o o o o o o o o $ ; ; o @ $ ; $ ; j c V D D D D C B V B x V Z B V V B c V V Z x j j j x j j c j j j j j j j j j j j 3 fXuX  ; o o o o o o o t.j.j Z h.y.i.j.j.k.j.h.j.k.j.k.h.j.t.",
"o o o o o o o o o o o o o o o o o o o o o o o X o o o O : 3 3 3 3 3 3 3 > , 3 : 3 , 3 2 > 3 , 3 3 3 2 3 3 3 2 2 3 2 > 3 3 3 3 - - 3 3 3 3 ; j j o o o o o o o o o {.yXt.i.D i.z.yXrXeX&XyXyX&X#XeXuXyX{.",
"o o o o o o o o o o o o o o o o o o o o o o o o o o o o o O X X X X X o X X o o X X X X X X X X   X o X O X X X O X o X X X X X o o . X o X   O o o o o o o o o o {.rX&X7X#X7X&XrX&Xs.i.i.j.D l.C l.yX].",
"o o o o o o o o o o o o o o o o o o o o o o o o o o o o o o o o o o o o o o o o $ o o $ o o # o o o o o o o + o o o o $ o o o o o o o o o o $ o o o o o o o o o o j.].].].].].].].].j.x.p.9.Z z.c.i.].h.",
"o o o o o o o o o o o o o o o o o o o o o o o o o o o o o o o o o o o o o o o o o o o o o o o o o o o o o o o o o o o o o o o o o o o o o o o o o o o o o o o o X & = = = = o = $ o : ; : < : o 3 2 : = ",
"$ o o o o o o $ o $ o o o o o o o o o $ o o o o o o o o o o + o o o o o o o o o o o o o o o o o o o o o o o o o o o o o o o o o o o o o o o o o o o + o o o o o o : 3 : 3 ; ; 3 ; : : : ; : ; ; 3 3 3 ; ",
"    X . X O   O . . X X X X O o o X O X X X o X X o X X X o X X X o X O X X o X X o X O o . X X X o X o o X X X X X o X o X o X X X X o o X X X X o X X X X X X X ; 2 2 3 $ $ o $ o o = $ o $ $ o X X X ",
"`.@XF } m C V m m V m m m V D c l C -.-.-.-.-.-.-.-.-.{ -.-.-.-.-.{ -.-.-.-.-.-.-.{ -.-.-.-.-.-.-.{ -.-.-.-.-.-.-.-.-.-.{ -.-.-.%.-.-.-.-.-.-.-.-.-.-.-.-.-.-.-.-.-.-.-.-.-.-.-.-.-.-.-.-.-.-.-.D :.2XqX",
"3X6X%.).g.K.K.l.s.!.k.l.k.l.!.;.C -.u.u.u.u.u.u.u.u.u.u.u.u.u.y.y.u.u.u.u.u.y.u.y.u.u.u.u.u.;.u.u.u.y.u.u.u.y.u.u.u.y.u.u.u.u.u.u.u.:.y.u.u.u.u.u.u.y.u.:.y.u.u.u.y.u.y.u.u.u.y.u.u.u.u.u.u.u.u.y.C ;.d."
};
