/* XPM */
static char *1347167022513[] = {
/* columns rows colors chars-per-pixel */
"72 100 256 2",
"gX c #BAD3DC",
"a  c #735146",
"@. c #B65945",
"9. c #E97449",
"O  c #763925",
"9X c #D8B4A6",
"'. c #FB8573",
"F. c #F9865B",
"0X c #D0B2AE",
";X c #D79885",
"^  c #847724",
"-. c #987969",
"n. c #A78F32",
"C  c #926F17",
"<  c #62432E",
"f  c #8A2C16",
"y  c #746B31",
":  c #5E422D",
"0. c #EB6C53",
" . c #AB5544",
"n  c #A64A16",
"N  c #B65818",
"-  c #7C7518",
"j. c #89851A",
"GX c #EDDCEB",
"y. c #C77766",
"-X c #C79384",
"v  c #9B4815",
":X c #D3958E",
"l  c #8A3925",
"t  c #7C7425",
"jX c #BACACC",
"yX c #E7C6B5",
"S. c #C98955",
"e. c #E97658",
"FX c #EBD6EA",
"hX c #B9D1D4",
"5X c #E7A79A",
"=X c #AC9B92",
"*X c #B5A7A7",
"3  c #695724",
"I  c #B35B24",
"2  c #754827",
"K. c #FEA15D",
"j  c #9B3310",
"NX c #ECD3DC",
"7  c #6A4A35",
"/. c #FE9B63",
"&  c #68581B",
"OX c #FEA262",
"(. c #FD936D",
"w. c #EC745B",
"x  c #9B3A31",
"R  c #A3553D",
"Z  c #B0691D",
"b  c #965615",
"V. c #AF8C75",
"k. c #93871D",
"k  c #A23A12",
"g. c #7A8632",
"4X c #D1AA94",
"G  c #875536",
"M  c #B45B1B",
"mX c #EBD2C6",
"t. c #F26F4D",
"L  c #A6462A",
"1  c #67472B",
"N. c #A09F1E",
"u  c #5E6B13",
",X c #E69885",
">X c #FB8C83",
"p. c #E87967",
"rX c #DAC6B2",
"a. c #F47C64",
"[  c #875448",
"E. c #F58365",
"   c #73341B",
",  c #5F4A2C",
"P  c #AA5724",
"9  c #67483A",
"oX c #E89570",
"8  c #6B4C3A",
"~. c #F88967",
"ZX c #FFE2D1",
"8. c #E56A4B",
"E  c #AB543C",
"d. c #EF7670",
"HX c #E5D9E7",
"1X c #FE9A83",
"AX c #E6D6E4",
">. c #C65B49",
"@  c #4F3D09",
"u. c #D87866",
"q. c #E66A55",
"=. c #B66C4F",
"L. c #FEA256",
"_. c #F59967",
"x. c #938B24",
"{. c #F58976",
"&X c #B2928B",
"`  c #C76825",
"pX c #F4C6AE",
"$X c #D3A67E",
"CX c #F1CDD0",
"sX c #F2BFC3",
"DX c #EBDAE5",
"U. c #DA8877",
"X. c #AA5A42",
"nX c #E9CAC7",
"T. c #CA8A70",
"G. c #FE9C5D",
"*. c #A76349",
"c  c #A63E2A",
"Y  c #A74A35",
"|. c #FD9A73",
"R. c #E8846A",
"}  c #91564F",
"cX c #C3D3DB",
"c. c #959424",
"UX c #EFE1EE",
"J. c #EE9156",
"H  c #9C5B3C",
"d  c #7D6B65",
"i  c #6D4D42",
"MX c #F9D4C8",
"LX c #ECDDF3",
"aX c #CFBDC3",
".X c #FE9A7C",
"3X c #F0948D",
"B. c #97856F",
"2. c #D96449",
"w  c #6C5334",
"SX c #EBD5E3",
";  c #707311",
"bX c #D2D1D1",
"5  c #6B4533",
"7X c #DCBBA6",
"q  c #6D513C",
"+X c #FEA56A",
"/  c #8F6D30",
"tX c #E1C2AD",
"e  c #755731",
"$  c #525210",
"4  c #644531",
"'  c #D66937",
"kX c #B7D6E0",
"z  c #963A26",
"{  c #995844",
"`. c #EA8776",
"V  c #857A18",
"6X c #F2A88F",
"1. c #C7654B",
"Y. c #D5947B",
"@X c #FEA374",
"J  c #985738",
"qX c #E7B8A8",
"]  c #CB7130",
"z. c #8B8823",
"i. c #D37069",
"<. c #D25D56",
"4. c #D76957",
"IX c #F4E1EA",
"VX c #F7D8D8",
"v. c #9B9929",
"D  c #884A35",
"uX c #F9C8B8",
"S  c #98452A",
"vX c #C9D3D6",
"_  c #CC5B32",
"B  c #AB5011",
"K  c #8A5429",
"p  c #6D4240",
"PX c #EDD6EA",
"JX c #F2DDEA",
"XX c #F49277",
"H. c #FC9A57",
"O. c #AA5B4A",
"5. c #C77559",
">  c #5D4722",
"!. c #FD8C6D",
"fX c #B5D2DD",
"xX c #C8D2CA",
"dX c #B9CDD7",
"m. c #A4A927",
"U  c #B75825",
"zX c #D7C8C5",
"iX c #F9D3BC",
"). c #FD9A6B",
"F  c #974834",
"Q  c #AA593C",
"g  c #8A361B",
":. c #B0796A",
"#X c #EDA47B",
"BX c #E6D6D8",
"}. c #FE9274",
"6. c #D9755A",
"<X c #FE9382",
"M. c #A6A638",
"#  c #594B19",
"A. c #D78659",
"%  c #694A1A",
"T  c #B34B35",
"0  c #724937",
")  c #C3641C",
"$. c #896658",
"KX c #F3D8E5",
"P. c #FEA44E",
"7. c #C9754E",
"8X c #DEBEA9",
"s  c #7B6850",
"~  c #B34826",
"|  c #A35542",
"b. c #938D34",
",. c #D95B46",
"^. c #FE9564",
"r. c #F37759",
"m  c #AB5418",
"=  c #756819",
"s. c #F57A68",
"]. c #FD8D74",
"!  c #B7553A",
"o. c #A45B4A",
"X  c #5C3C33",
"Q. c #FC856C",
"A  c #894327",
"r  c #786625",
"*  c #755117",
"wX c #F8BAA9",
"I. c #D68468",
"lX c #C9C9C7",
"W. c #FA8365",
"%. c #976558",
"[. c #FD8D7A",
"f. c #E65B51",
"#. c #A8564C",
"%X c #C1903C",
" X c #FE927B",
"Z. c #A9904B",
"(  c #B06F30",
"l. c #97951B",
"o  c #6A3A27",
".. c #A55B43",
"C. c #B9A574",
".  c #5C3D29",
"D. c #E98558",
"+. c #A85449",
"3. c #CA6856",
"h. c #7A801F",
"6  c #654A35",
"&. c #8F6F4D",
"+  c #6B3A2F",
"2X c #FC9788",
"eX c #EBB7B1",
";. c #8C7068",
"h  c #96361C",
"W  c #A55A3E",
/* pixels */
"b.v.m.N.N.v.v.v.v.j.; ; V j.j.j.k.x.x.V - V ^ ^ V ; V - t ^ t y y B.hXxXjXjXjXjXdXjXdXfXdXfXfXfXfXfXfXfXkXfXfXfXdXfXfXkXkXkXkXkXkXkXkXkXkXkXkXkX",
"v.v.c.N.N.v.v.v.v.N.j.; ; j.; j.k.c.v.z.V V V V - - - ^ ^ ^ ^ / g.&.B.B.aXlX=XB.*XaXaX*XjXhXhXgXdXdXfXdXdXdXfXfXfXfXfXgXkXkXfXkXkXkXfXkXkXfXkXgX",
"l.l.l.l.v.m.v.m.v.v.v.l.j.j.j.j.k.x.v.k.V V V V - V - / ^ * * * 3 2 G [ } $.a a a &X;.a s *XlXvXxXhXvXxXcXcXfXdXfXfXfXgXfXgXgXgXgXgXkXgXgXgXgXkX",
"l.j.l.N.v.v.v.v.v.c.v.v.l.j.j.j.k.k.k.l.k.V V ^ - r r * * K H J G { *.*.{ { o.O.+.+.%.o.} $.-.:.;.;.0XzX*X*XaXxXjXdXdXdXdXgXgXgXgXgXgXkXgXgXgXcX",
"j.j.k.l.c.c.l.v.c.c.c.c.l.k.k.j.V V j.k.k.k.C ^ r % r K W ..R X...H | W |  .+. . .@.#.O.*.o.{ { [ } %.%.%.[ ;.aXbXvXaXdXdXgXcXgXgXcXgXcXcXcXcXcX",
"j.j.j.x.z.j.j.j.z.c.x.v.l.l.c.k.V V V V C x.n.r * J { H R R | R R H | | | |  .| ....O.O.......X.o.o.{ | o.o.D ;.-.;.aXdXdXgXcXcXcXcXcXcXcXcXcXcX",
"h.V j.V j.j.j.j.j.c.c.c.c.c.c.z.k.k.V ^ b.( ^ * H ..H | | | | H R H | | | | ....*.......| *...W R W W W o.o...J } G -.nXbXcXbXcXcXcXcXcXcXcXvXcX",
"- - - - - - h.V j.c.v.v.c.c.c.k.c.k.V z.^ * K *.H | #.| | | | | R R R | R | ....X...| | | X...X.....X.X.......*.o.=.} :.eX0X*XaXbXcXcXcXcXcXvXvX",
"; = = = ; - - j.j.z.v.v.x.z.j.j.c.k.V C % A H H | +.+.+.| | | R R R R H R W ....X.X.......W X.X.X.W X.Q  .......#...| D } %.s $.0XbXbXvXvXvXvXvX",
"C C = = = - - t h.z.b.z.z.^ - j.^ ^ ^ % K { { ..+.+. .| #.....R R R R R H R W R X.X.W W X...Q ..X...Q @.X.....*.{ o.*...W H o.D $.0XaXlXxXxXvXvX",
"- r r = = = t t ^ t z.t - - ; - - ^ = % H { H H | +. .X.O.o...| R Q | R Q W R R ..Q X.X. .Q X.X.Q X.Q X.X.X.*.H o.o.*.X.Q Q W ..D %.s &XbXxXxXvX",
"^ r = & = = = = r t t = ; = = = r ^ % K H H ..| R R | ....X.Q R W E S Q E E R T E X.X.Q Q X.X.X.X.X.X.W X.......o.o...W W W W ..#.o.[ %.zXlXvXvX",
"K = = & u 3 & & & = y = = = = 3 r 2 % H H H R R | R R R R Y Y Y Y Y L Y v h L E ! Q X.X.X.X.X.Q Q  .X.X.X...*...o.......W W W Q O.o.%.a *XxXxXxX",
"= & & & & # # $ & & r = = = r r r * K H H R R W R R Y L >.<.1.3.e.R.R.R.6.u.>.T T L z R X.! @.X.X.E X.X.X...o.{ X.*.X.X.Q *...*.#.o.%.} V.mXxXxX",
"3 = & & # & # # $ # 3 3 r r r r 2 % J H R R W W W  .F >.2X[. X<X1X X X X X X>X`.p.p.u.1.E L L E ! E E X.......*.X.O.X.X.X...*.O.#.o.o.%.;.rXxXxX",
"y 3 & & 3 , > # # # # % 3 % % % %   H R R R W W X.Y Y {.[.[.[. X}. X X X[.[. X<X>X>X<X[.`.R.4.>.! L Y E ! X.X.X...X.O.O. .....X.o...o.%.[ 0XrXxX",
"y y 3 3 3 3 > # # # # , & # * G 2 A ..R R Q W X.X.L 3.>X].[.[.[. X].]. X].[.[.[.[.{.'.[. X>X<X[.R.R.u.>.! Y Y !  .X.X.X.X.X.O.....| O.o.} 4XxXxX",
"y y y = r 3 3 3 # , , 3 3 3 2 G O J W R R Q Q @.T @.[.].[.].].[.[. X].[.].].].'.[.[.[.[.[.]. X X X X}.{.R.p.1.! E T ! E  .X.o.O.O... .O.D &XrXrX",
"y w 3 = 3 # 3 , # > # # 6 3 G G   Q Q W E E Q E T `.[.[.].].].[.].}.[.}.].].].].].'.{.]. X X X].].].}. X<X.X XXXu.! T E Y  .O.O. . .X.O.G -.B.s ",
"C.C.C.&.&.Z.V.V.&.B.C.s q V.4XJ O X.W W  .@.@.L p. X[.].].].].].[.].}.].].[.].].].[. X[.}.}.}.].].].].].}.}.}. X X{.6.>.L @.@.@...X.Q *.2 / ^ y ",
"&XV.C.4XyXiXiXyXyXrXiX9X4XiX9XG F *...W E @.T ,.<X X].].].].].].].].}.}.}.}.].Q.q.q.E.].}.}.}.}.}.].].].}.}.}.}.}..X.X}.1.T E E  ...W / & b.h.; ",
"&X&X&X&XV.=X9XrXyXmXmXrXyXmX:XD H W W ..X.@.c {.[.].].].].].].}.].}.(.}.}.}.(.!.!.a.2.e. X}.}.].}.].].!.!.(.].}.}.}.(.}.|.D.4.>.R ..H * t v.h.h.",
"&X&X&X&X&XV.V.=X=X9XrXyXrX9X-.A *.H W W @.T <.[.].].].].].(.].].].].].].}.|.XX}.|.}.!.2.r.}.].}.].].].}.].(.}.(.].}.(.}.}. X<X>X@.W J r b.g.g.h.",
"&.&.$.&.;.B.B.B.B.-.B.V.B.-.[ 2 W H W E T T {.<X[.].}.].}.].].}.].].[. X}.XX}.}.XX}.}.}.2.W.!.}.}.].].(.].!.].!.!.].!.(.}.[.{.<X6.S e b.g.; u h.",
"( ( &.&./ &.&.&.&.[ [ s d $.i D *...R E L >. X[.[.].[.].}.!.}.!.[.].[. X X].]. X X X}.[.d.2.~.}.].].].(.}.].].].].Q.!.~.}.}.'.'.>XJ * ^ u u u u ",
"S.%X%X%Xn.Z n.Z.n.Z./ -.-.%.+ o.| ..X.! L 6.<X[.[.[.].].].].]. X[. X[.[. XQ.w.8.e. X X X.Xe.8.}.].].].].].E.r.r.a.r.e.r.!.}.].'.1X=.r t g.b.g.g.",
"Z ] ) %X%XZ ) n.Z %Xn.=.V.J O O.+.+.@.E c {. X[.[.[.{.[.]. X[.>X[.[.[. X X X].s.e.,.E.}.|. Xr.q.Q.!.Q.a.0.r.a.E.Q.Q.E.W.].].[.'.1XS.y y g.g.g.u ",
"B N ) N ) ] ) ` ] Z I Z ( F S X.E +.@.! T }.[.>X[.[.{.[.[.'.w.q.'.[.[.<X>X X[. X Xa.8.E.}.[. Xa.0.t.0.r.W.].].}.].}.(.!.}.].[.[.<XI.* & , u $ $ ",
"B M ` N N ` N ) ` N U U P ~ S X. . .@.Y <.<X'.'.XX@. . .>.w.d.s.q.'.[.[. X X X{.}..XE.2.].[.[.}.}.!.].].].!.}.}.}. X}.}.].}.].]. XI.% y * # $ @ ",
"B ) ` N ) ` N ) ) N U U P v P X. . .>.c 6. X'.<Xi.l x l f h c >.>.2.<X<X X[.[. X[.[.].q.q.].}. X.XXXXX}.XX}.}.}.}.}.].}.].}.].[.|.5.J $X=.2 2 G ",
"B I ` N N ) m ) ) m U ! Y g R X.O. . .c >X X X,XF f +.i.+.x g z c z  .u.u.!. X<X<X[.[.[.w.r.Q.]. XXX X|. X}.!.!.].].].].].}.}.[..X1.A =.=.K =.#X",
"n M I m M ) B ) M B U ~ L h Q X...O.R Y d.i.@.F   l i.2X>X3Xu.3.@.x l z S Y =.u.{.<X[.[.Q.f.t.].}.[. XQ.r.q.q.f.q.w.].]. X X].}.}.! P P m b P ] ",
"m ~ P B M M m M ) k n ~ e.6.E H J G D l l   O O O F >X>X>X>X>X<X{.d.5.Y x z z g S ! p.].Q.s.0.q.a.0.8.2.w.a.!.].Q.'.[.[.]. X].}.6.~ L L I v I Z ",
"n n m m m M m M U n k a.!..XI.A l   O O z Y R D l +.>Xd.d.d.{.s.{. X2Xp.3.u.i.X.A h 6.]. X X XE.q.e.W.Q.!.}.].!.'.[.].[.[.[.]. X_ ~ ~ P P v P ( ",
"v n P m M M m ~ U k ~ }.8.p.2X@.g g A R.d.d.2X| g 3.>X<.f.i.`.,XXX6.`.d.<.2X2X`.S v 6.].s. X[.[.[.'.E.[. X}.}.{.{.].}.}.].].[.{.~ T P n P v K b ",
"v n Z n P M m N U k ! .Xq.f.1XR.T L q.<X[.>X{.l A I.>Xi.`.sXMXuXiXwXy.<.f.4.>Xp.h S XX!.q.s.s. X6.k c T 1.p.].<X X X].].}.]..Xq.k U v b b C C / ",
"v n I P I I m P U k _ XX'.,.[.1X<.2.].{.[. Xu.l S p.u.5XuXeX:XeXMXMX5X<.4.f.d.<.g K A.2.>.{.3.1X@.S S f f h L >.6.6.e.w.e.{.<X>.~ ` K / ( n.b.Z.",
"n n U n I M m U U j _  Xs.,.[.>X}.}.}. X{.<X3.z E p.,XuXwX} :.0XMXnXsXi.<.'.d.Y f A A f h L Y U.F F U.`.6.! c z h c @.4.1.p.{.z b J K ( Z.C.C.C.",
"v P I P I P B I U k U  Xq.f.[. X X[. X X X[.T x @.>Xu.uXiX%.:.yXmXmXCXi.<.d.>Xx A 7.6.@.S z l A z @.>X{.'.w.4.4.>.T x z z R o.2 y b.&./ &.y y G ",
"v P P n I M B N M j !  X,.s. X X X].[. X>X>Xx l i.3X3Xy.5XpXqXMXMXZXMXy.p.>Xd.f @.1X.X1X{.d.5.l g 1.q.q.4.s.>X>X>X>X`.i.+.F 2 e y y y w 0 0 q 8 ",
"v P I v M m M N m h 1.!.,.{.[. X[.].].].<XXXY z 3.3X>Xd.i.U.;X;X5X5X,X>.{.>X3.f <.[.{.[.<X<X2XF l `.[.e.6.p.d.XX>X>X>X>X2Xu.o 2 > 7 w 8 i a i i ",
"v P M v m M B N U f 4.}.8.].]. X[.].].]. X Xz z Y U.>Xf.d.u.6.p.i.i.p.{.>X>X+.z 4.[.].[.'.[.R.A S R.q.7.5.y.,X6XU.p.w.s.2X5.  0 7 a q i i i i i ",
"v P I v M M B N U j 4.].!.].].].[.[.}.[.[.[.>.l l x <.d.p.s.s.r.q.d.>X{.{.{.x c '.].].].[. X3.g 1.`.4.=.6XiXuXuXpX,X3.6.1XD o 7 5 a i i i i i i ",
"k P I m M M B ) _ j 2.}.XX}.[. X].}.].].[.>X[.7.Y z f z  .>.q.E.<X2X2X<X<X3.x >.<X{.!.XX[.<X@.F U.>X3.pXtX:.9XCXMXpX>.>XY.o 4 8 0 a p i i i 8 8 ",
"b ) Z B m M B b P   ] @X}.}.}.].}.}.].].[.[.[.<X[.p.>.T c f h L ! 3.3.5.=.F z 6. X{.!.XX[.>XY x ,Xu.6XMX%.:.nXsXsXsXi.>Xi.o p . 7 q 0 q 8 8 8 7 ",
"b k.Z B C C C C k.C ( D.E.~.].}.!.!.!.].}. X X[.[. X>X[.p.1.E Y x z g l z x >. X].].].].[.`.F S d.i.6XMX-X%.9XCXCXsXi.3XF . 0 . 0 7 7 7 8 8 7 7 ",
"C k.C C N.N.N.m.m.M.C 1.E.!.].].}.!.}.].]. X].].].{.{.!.[.1XXX`.p.4.>.>.T <.].[.[.}.}.'.[.p.S J `.>X5.;XuXyXyXmXnXsXi.3X+ o + o 0 7 5 7 4 4 4 4 ",
"N.N.N.N.N.m.m.m.M.Z.Z D.(.}.}.].(.].!.].].}.].].!.!.!.].].]..X<X X X[.{.R.[.[. X X}.].].[.p.S A u.2Xp.3.p.3XwXuXuX3Xi.i.o . 4 4 0 7 5 4 4 4 4 4 ",
"m.m.m.m.m.m.M.b.^ / P D.^.].}.].!.}.}.].].}.}.].].].}.].}.}.!.].].].].{.[.[.[. X}.}.!.].].].@.S  .I.{.d.w.d.d.u.d.u.3X<.+ + X < 7 4 < < 4 4 4 . ",
"N.l.j.- ^ r y 3 1 K S E.(.}.}.!.!.}.!.}.]. X].].}.].].}.}.(.}.!.].]. X{.[.[.[.[.].].(.!.]. XE.L g S T <.4.6.p.d.[.>X>X+.  + . 4 4 1 < < . < < 4 ",
"= & & 3 e w w i i 2 Y (.(.}.}.].].!.].].].}. X[.[.}.}.].}.}.|. XQ.s.8.a.{.].>X[.}.}.].].'.].}.R.1.F l g z Y E @.i.u.-XD + + 4 4 4 5 < : 4 : : : ",
"w w q i 8 i q i i o Y }.].].].(.].].Q.[.].}. X X X}.}.].]. X Xs.f.r.W.].].]. X X}.].}.].]. X'.].1XXXu.6.@.L z g l D D 0 5 . 4 4 4 < < < : < : : ",
"8 i 8 9 i 8 7 9 7 o X.}.!.!.!.].].].r.r.].].].XX}. X].].].}.Q.0.a.}.}.].]. X[.}.}.}.}. XQ.0.].!.XX X X.X X{.p.4.@.| J o 1 , < < < < < < : : : : ",
"8 9 9 7 7 7 7 9 7 % u. XE.].!.}.!.].Q.w.0.a.!.!.].Q.Q.s.w.}.r.f.}.XXR.r.E. X].}.}. X}. X!.,.w. X}.].].].}.]. X].[.2X`.D o 6 4 < < < o : X : : : ",
"6 7 7 7 7 7 8 5 1 O XXQ.8.!.!.].{.].'.].a.r.0.t.0.0.0.r.Q.].Q.q.!.XX(.~.8.a.}.].}. X].].].W.,.a. X}.(.(.(.].!.].'.[.2XF 2 5 5 1 4 . < . , : : : ",
"4 4 4 9 9 9 8 0 2 S  XQ.,.].!.!.].].].].].!.W.W.Q.!.].[. X}.}.!.].}. X].Q.,.W.}.].}.].}.}.(.r.,.(.(.(.(.(.!.(.!.{.[.<Xl o 1 4 4 4 < . < , : : : ",
"4 4 4 5 5 9 7 w O ! 1XE.2.}.}.].].].].].].]..X.X X1X<X X X}.].].].].[. X Xr.8.W.!.!.W.t.a.Q.].2.W.(.(.}.!.}.}.].].[.`.l + 4 4 4 4 X , : : : : : ",
"4 4 4 7 5 7 8 0   <.<Xw.2.}.].}.].}.].}.].].}..X X[.q.'.].}.}. X}.]. X}.}.}.W.a.0.0.r.a.a.Q.Q.w.Q.}.!.}.}.}.!.}.[.>Xd.O . 4 < 4 4 : , : : X 4 : ",
"4 4 4 5 7 7 8 + l d.].q.2.}.}.}.}.[.}.].].!.}.XX}.q.w.[.].}.}.}.}. X XXX X}.}.}.].Q.!.}.].'.a.s.!.}.}.!.!.}.!.!.[.<Xy.o 5 . < < 4 4 : 6 , , < : ",
"X 4 4 5 5 7 0 + F {.].q.8. X}.}.].}.].}.].}. X}.e.w.[.[.}. X X]. X]. X X}.}.}.].[.].].{.].[.].].].].e.W.!.}.].[.[.>XF o 4 < X < 4 : 6 : 4 X : 6 ",
": < 4 4 4 5 0 o =. X}.8.e.}.}.}.]. X}. X}. XXXe.w.}. X!.w.2.2.w.Q.].].].[.[.[.[. X X X[.].[.[. X].].r.t.a.Q.].].{.<.  5 X 4 4 4 4 4 4 4 6 : 4 4 ",
". < 4 4 1 + + O p.}.|.0.r.}.}.}.}.}.}.}.}.}.D.8. X X'.u.,.i.>X>.p.'.'.[. X X[. X X].XX[.[.[.}.}.}. X].r.r.a.s.[.d.x O 4 4 4 < < 4 X , : X , 4 , ",
"1 X 4 9 < 5 0 F `. X).8.e.}.}.(.}.}.}.}.}.Q.8.XX.X X4.6X,XqXiXY.wX2Xi.4.d.{.XX>X1X.X X].[.{.].!.}. X[.].'.s.s.[.+.  5 4 4 4 4 4 4 6 4 : 4 , 6 4 ",
"1 4 4 4 5 o o J .X X}.8.D.|.}.(.}.}.}.!.].8.0..XXX{.4.5X:.9X4X-XuXpXY.6X;Xy.U.,X4.u.R.E.]. X[.].]. X].]. X>X>Xd.  + 4 4 4 4 4 4 4 4 , : 6 6 7 3 ",
"< : . . > 5 D 5..X!..X9.D.}.(.(.}.}.}.!.!.,.r.].XXR.oXqXT.pX-X-X5X-XT.pXpXT.pXwXY.,X,X@.A.p.{.].].{.[. X{.[.2X@.o 1 1 , 4 4 4 4 4 < : 6 6 6 6 6 ",
"8 d d -.B.5XT.`..X(.(.e.9.).(.(.(.}.}.(.}.' W.].|.R.I.6X;XZX4XqXiX5XY.5X-XT.5X5XT.MXpX;XwXoX1.[.].e.Q.[.[.>X>XD 2 1 , 4 4 4 4 4 4 4 4 4 6 6 6 8 ",
"rXzXBXZXZXiXy.6X}.^._.F.9.^.(.(.^.!.(.~.}.e.E.!.}.!.e.3.7.wXY.U.`.u.y.U.y.y.eX:X:.9X&X7XZX#X6.`.[.q.'.>X'.2X3.+ w 1 < : 4 4 4 9 4 4 4 6 6 6 6 6 ",
"BXBXbXzXZX;X`.1X_.^.^.|.0.r.(._.(.(.(.(.(.~.~.(.(.(.!.q.q.p.6.a.R. X X<X>Xu.3XU.wXuXV.-X4X:.oXR. Xw.p.[.[.>X..O 0 6 < 4 4 4 4 4 4 < X 6 6 6 6 6 ",
"SXJXaX0XMX5.XX|.).).).|.F.8.~.).^.(.(.(.}.(.(.].}.E.!.!.(.}. X X]. X.X X>X>X>X3.,XwX4XpXT.S.I.e.>Xw.s.[.>X>Xl 5 5 4 4 1 4 < 4 4 4 : X 6 6 6 6 6 ",
"PXJX0XqXoX6.@X).@X_.|.|.(.r.9.^.^.(.(.(.|.}.).}.}.(.!.!.(.}.!.}.].].XX}.[.[. X[.p.y.Y.uX$X6X6.{.[.q.w.[.[.u.O 7 1 5 4 6 4 4 4 4 4 4 , 6 9 6 6 6 ",
"LXIX0Xy.A.|._.D.D.' |.(.).).9.9.^.(.|.|.).(.}.(.(.}.~.a.~.(..X}.a.f.f.t.0.s.Q.}.<XXXu.5.7.A.R.}.].w.w.[.<XO.  4 1 4 4 5 4 4 4 4 4 4 6 , 6 6 6 q ",
"JXIXeX=.@X+X@X' _ ' @X^.).+XF.t.^.}.).(.}.|.}.}.}.(.!.e.t.8.8.e.t.f.t.t.r.a._.!.}.XX X}.~.~.(.!.!.0.Q.[.>XF O 4 + 5 5 4 4 1 4 4 4 4 6 , 6 6 6 6 ",
"JXIXqXI.@X_.@X] _ 9.+X_.+X_.^.^.^.(.).}.|.}.}.}.(.}.!.!.W.r.r.~.].}.(.!.(.~.~.!.}.!.].}.|.(.}.}.r.w.]. Xu.O O 5 4 + 4 4 < 5 4 4 4 4 6 6 6 6 6 6 ",
"JXIXeXI.+XG.+X_ ' ' +X_.)./.)././.^.^.(.|.|.|.(.!.!.].!.!. X}.}.!.].}.}.}.(.!.F.Q.}.(.!.(.}.}.!.!.[.].<X=.o 0 5 4 4 + 4 4 4 + < 4 : : 6 6 6 6 q ",
"DXIXyXy./.G./.` 9.' _ ' J./.^.H.^.^.(.^.(.|.(.(.(.(.}.}.}.}.}.}.}.}.}.}.(.}.!.r.9.E.!.(.W.r.W.].].].].[.F + 7 4 4 4 4 4 4 4 4 5 4 6 6 6 6 6 6 q ",
"DXIXmX5.+XK.' ' F.' ' H.^.^.^.^.^.^.(.^.^.^.)./.^.(.(.(.(.(.}.(.(.(.].(.}.^.(.~.W.t.9.r.8.r.W.].].[.<Xu.l + 4 4 5 4 4 4 4 4 4 4 6 6 6 6 6 q 6 6 ",
"DXIXKXy._.+X_ ' ` 9.D.H.^.^.^.^.^./.^.^.^.D.r.^.^.).^.(.(.(.}.(.(.(.].}.}.(.(.(.|.(.W.W.~.].!.].]. X2X=.O 5 4 < 4 4 4 4 4 4 4 4 6 9 6 6 6 8 6 q ",
"IXDXIX:XI.@X9.` H.G.G./.G.G./././.)./.).^.^.9.F.^.(.^.^.(.!.(.(.(.(.!.(.(.).(._.}.}.}.(.|.(.}.}.!.1Xu.l + + 4 4 4 4 4 + 5 4 4 6 6 6 6 6 6 q 6 q ",
"UXHXJXeX1.+X9.' /.H.H./.G././././.)./.).^.^.F.F.W.^.^._.(.(.(.].(.}.}.(.(.}.}.|.(.(.(.(.}.}.}.!. XR.F O 5 5 5 5 5 4 4 4 4 4 4 4 6 6 6 6 6 6 q q ",
"UXHXJXCX=._.J.J.G.G.K.G.G.G././././././.^.^.H.F.r.F.).^.(.~.(.(.}.}.).}.}.).}.(.(.(.(.(.(.(.}.}.I.R o 5 5 1 6 1 4 4 4 4 4 X 4 4 6 6 7 6 6 q 6 q ",
"LXJXIXKXY.oXOXH.L.K.K.K.G.G.G././././././.^.(.^.F.9.t.F.F./.).^.(._.}.).}.).(.(.(.!.!.^.}.(.(.7.A O 5 5 5 5 5 < 4 4 4 4 4 4 6 6 6 q 6 6 6 6 q 3 ",
"LXJXLXKX8X7.+XL.L.K.OX/.K.G.G./././././././.^.^.^.^.F.t.t.9.F.(.).).^.(.^.(.^.^.(.^.~.(.|.F.6.S O 0 5 5 5 5 5 5 4 4 4 4 , 4 6 6 6 6 6 6 9 8 4 ;.",
"JXJXLXKXVXS._.G.L.L.G.K.G.G.G./.G./././.G.^.^.^.^.^.^.F.F.t.9.t.F.F.F.W.(.^.W.F.r.e.F.).).(.7.O 0 0 0 0 5 5 5 < 4 4 4 4 4 4 6 6 6 6 6 6 q , s 9X",
"JXJXLXJXKX5X7.+XL.L.K.K.K.K.K.G./.G./.G.^.^.^.^.^.).^.~.^.^.^.F.r.9.9.9.8.9.t.r.F._.^.).@X6.5.{ 0 0 0 5 5 0 5 5 5 7 6 4 : 6 6 6 6 8 6 a 6 q 4XyX",
"PXLXLXPXKXCXY.J.P.P.K./.K.OXG.K.G././.G.^.^.^.^.^.^.^././.^.^.(.(.(.~.~.~.~._.}.).!._.1XR.Y.iX4X0 p 8 0 7 0 5 5 7 5 4 4 4 4 6 6 6 6 q q w V.yXyX",
"JXJXLXLXGXBXuX7.H.P.K.OX/.OX/./././././.^.G.^.^././._.^.^.^.^.).^.~.^.(.^.^.!.(.(.(..XI.;XMXyXmXV.p p 7 7 0 0 5 7 7 8 4 4 6 6 6 q 6 q : B.yXtXtX",
"JXJXJXLXGXHXVXY.A.+XL.OX).OXOX/.OX/./.G.G.G.^.G./.^.^./.^.^.^.^.^.~.^._.(.~.(.^.(.1Xu.;XMXmXmXBXzXa p 0 7 0 0 7 7 7 7 4 6 6 7 8 8 6 : $.tXyXrXrX",
"JXJXUXLXHXHXBXZXI.A.+XK.OX+X/.OX/./././.^.^.^.G.^././.^././.^.).^.^.^.(.^.^._.@X.Xu.5XCXbXBXBXBXKX&Xp a 7 7 7 7 7 9 7 8 6 7 7 8 8 8 8 4XyXtXtXrX",
"GXJXJXUXUXDXSXVXpXS.J.OXOXOXOXK.K./././.G.^./././.G.^.G.^.^.^./.^.^./.^.^._.).1Xy.5XVXBXBXBXNXVXKXCXd X p 4 5 5 7 7 6 9 6 8 0 q q 8 -XtXtX8XtXrX",
"GXGXJXIXIXUXGXIXVXpX5.J.+XK.K.K.OX/./.G././././.G.^.^.G.H.^.^.^.^.^.G.^.^.|.XXy.qXMXNXNXNXNXKXNXNXKX*XX p p 7 4 7 7 7 7 7 6 7 7 < V.tX7X8XtXtXtX",
"JXIXDXUXUXGXUXUXKXVXuX:.oX+XP.K./././././.G././.^.^././.H.G.H.^.^.^./.(.)._.y.5XVXVXAXSXSXNXDXNXNXNXaX} X 8 4 8 8 7 7 6 8 8 w < ;.tXtX7X7X8XtXtX",
"IXDXIXIXIXUXGXUXJXKXIXeXT.A.+XP.L.K./.OX/././././././.^.^.^.^.G.G.G.^.|.oXI.eXVXCXSXGXDXDXDXDXSXPXCXKX&XX 8 6 9 6 7 7 7 8 8 7 8 9XtX7XtXtX7X7XtX",
"IXIXIXIXDXIXIXUXGXLXHXSXnXY.oXK.K.OXOXOXOXOX/./././.)././.^.G.G.G.G.).XXy.tXVXBXAXHXHXDXDXDXDXSXSXNXVX0X6 9 6 6 7 8 7 8 8 0 w &XtX7X7X7X7X7X7X7X",
"UXDXUXDXDXIXIXDXUXUXLXFXKXMXY.A.oX@X+X+XK.K.L.H.K./.OX/./.G.G./.G./.@Xy.9XVXBXHXAXDXDXSXDXDXDXDXAXSXNXnXa 6 6 q 7 8 7 w q 1 B.yX7X7X7X7X7X7X7X7X",
"DXDXUXDXDXIXUXIXDXUXLXLXGXNXMXqXY.7.J.+XK.P.P.L.L.H.K.G.G.G.G.G.G.).7.-XVXBXHXHXNXDXSXDXDXHXHXDXAXSXNXCX;.: q q 8 8 5 a 6 &.tXtX8X7X7X7X7X7X7X7X",
"BXIXNXJXIXDXUXDXGXUXUXGXDXDXKXKXVXqXT.T.A.J._.OXOXK.K.K.K.OX+X_.oXI.T.nXDXGXFXDXDXDXAXDXHXSXGXAXSXPXSXNXB.> 6 q 8 8 7 4 s 7XtX7X7X7X7X7X7X7X7X7X",
"aXbXaXNXDXJXGXGXDXIXUXGXGXGXFXPXFXJXVXsXqX5XY.T.S.A.S.A.S.T.T.-X:XqXCXCXAXFXGXDXAXDXDXDXAXDXDXAXAXFXAXPX&X+ w 8 8 q , 8 4XrX7X8X7X7X7X8X7X8X7X7X",
"=XzX*XNXSXGXGXDXDXDXGXGXGXGXFXFXFXFXFXFXVXBXCXMXyXpXyXyXqX8XnXVXNXNXAXHXHXDXSXSXAXDXDXDXDXDXHXAXAXSXSXNX0X9 6 8 8 8 4 V.8X7X8X8XtX8XtX8X8X7XqX8X",
"&X0X&XCXJXJXPXFXUXDXDXGXLXFXFXGXFXFXHXAXAXSXPXPXJXKXSXKXKXKXKXSXNXAXAXAXHXDXSXDXDXDXDXHXDXDXDXHXAXSXNXNX0Xi 6 6 w , -.7X7X9X7X7X8X7X7X8X7X7X7X7X",
"*X0X&XnXLXPXDXAXDXDXDXUXFXFXHXGXFXFXHXHXAXSXFXHXFXPXPXPXKXSXKXSXDXAXHXAXAXAXSXDXDXDXDXDXDXDXHXHXSXAXSXDXaXa 9 8 4 s 9X7X8X9X7X7X7X7X7X7X7X7X7X7X"
};
