/* XPM */
static char *1347171574966[] = {
/* columns rows colors chars-per-pixel */
"100 68 256 2",
"gX c #CED1CE",
"a  c #55433B",
"@. c #B58F77",
"9. c #2C47D4",
"O  c #0E1113",
"9X c #A9CBE3",
"'. c #AAB2B2",
"F. c #6493FE",
"0X c #B2CFE3",
";X c #82A7FE",
"^  c #A36D52",
"-. c #2D3491",
"n. c #7EB3C8",
"C  c #786457",
"<  c #1D2735",
"f  c #764D38",
"y  c #653B2B",
":  c #1A1C23",
"0. c #3958F7",
" . c #BB845C",
"n  c #495356",
"N  c #795548",
"-  c #28221C",
"j. c #748A94",
"GX c #EBF3FB",
"y. c #5778FE",
"-X c #A0BFD2",
"v  c #3A4B6A",
":X c #829EFD",
"l  c #493945",
"t  c #492E2C",
"jX c #C1DDEB",
"yX c #B9D8E9",
"S. c #6B8BFE",
"e. c #4458F7",
"FX c #E4F1FA",
"hX c #C4D5E4",
"5X c #B5CCD9",
"=X c #A4BCC8",
"*X c #8FB2C9",
"3  c #382A26",
"I  c #845C57",
"2  c #262726",
"K. c #749CFE",
"j  c #312D6F",
"NX c #DBEEF4",
"7  c #363838",
"/. c #8E9AAE",
"&  c #12110F",
"OX c #E2C6AD",
"(. c #87A6B8",
"w. c #3D65FC",
"x  c #3C4346",
"R  c #886659",
"Z  c #50576C",
"b  c #444949",
"V. c #5289F2",
"k. c #5C8AA2",
"k  c #16225E",
"g. c #688799",
"4X c #A9C8D8",
"G  c #88573D",
"M  c #524B4D",
"mX c #C9EBF5",
"t. c #4B76FE",
"L  c #895946",
"1  c #252A2D",
"N. c #5C93FE",
"u  c #6C3D31",
",X c #9CC1CE",
">X c #98C4D7",
"p. c #677CFE",
"rX c #B5D5EA",
"a. c #727EFF",
"[  c #A87C63",
"E. c #72CFF3",
"   c #0A0C0C",
",  c #1D2125",
"P  c #945D45",
"9  c #241F21",
"oX c #BDC2BE",
"8  c #36302E",
"~. c #AA8A86",
"ZX c #D3F0FA",
"8. c #303DE3",
"E  c #986B54",
"d. c #8B7D85",
"HX c #EDF2F4",
"1X c #A4C3D5",
"AX c #D9E5E9",
">. c #394E8D",
"@  c #121415",
"u. c #556AFE",
"q. c #334BEA",
"=. c #C28F6C",
"L. c #7896FE",
"_. c #99B3BD",
"x. c #789AB5",
"{. c #CAA388",
"&X c #93BDD2",
"`  c #B47C57",
"pX c #AFD6F0",
"$X c #98B8CA",
"CX c #DDF0F5",
"sX c #BFE2F8",
"DX c #E2F0F6",
"U. c #77A6FE",
"X. c #AB846A",
"nX c #CCEAF4",
"T. c #75B4FE",
"G. c #639CFE",
"*. c #C59877",
"c  c #3A4753",
"Y  c #8B634A",
"|. c #D5B399",
"R. c #67C5FA",
"}  c #7C817E",
"cX c #CEE9EF",
"c. c #6A90A8",
"UX c #E3D9D1",
"J. c #6B93FE",
"H  c #925A3E",
"d  c #764936",
"i  c #44261C",
"MX c #D4ECF3",
"LX c #FEFEFE",
"aX c #BDE2F4",
".X c #CFB7A3",
"3X c #ABCADD",
"B. c #5B97FD",
"2. c #55698D",
"w  c #57362A",
"SX c #E7EAE9",
";  c #37241B",
"bX c #CAE6F1",
"5  c #2D3335",
"7X c #AFCDD5",
"q  c #49352B",
"+X c #87AAC5",
"/  c #A37454",
"tX c #BCDBEC",
"e  c #493936",
"$  c #1B1B1C",
"4  c #292C32",
"'  c #AF724D",
"kX c #C4D9E5",
"z  c #43376A",
"{  c #AF7F67",
"`. c #8EA2AC",
"V  c #6A4F4B",
"6X c #B9D2DC",
"1. c #557A96",
"Y. c #68B8FD",
"@X c #8BB4CB",
"J  c #824C38",
"qX c #ACD2E7",
"]  c #8D716B",
"z. c #7997A7",
"i. c #637CFD",
"<. c #59768A",
"4. c #6F768B",
"IX c #E4EFF3",
"VX c #D7EEF9",
"v. c #7AA3BB",
"D  c #716C6F",
"uX c #BCDDF1",
"S  c #59676F",
"vX c #C3E4F2",
"_  c #A77658",
"B  c #795756",
"K  c #90613F",
"p  c #3E433E",
"PX c #F2F5F5",
"JX c #F2F6FB",
"XX c #E1BEA3",
"H. c #6B9BFE",
"O. c #AB8774",
"5. c #5372A9",
">  c #0E112E",
"!. c #BA9883",
"fX c #C4D2DC",
"xX c #CAE4EE",
"dX c #9ECEE0",
"m. c #5B8CFD",
"U  c #915B50",
"zX c #C4E2EE",
"iX c #B5DAF1",
"). c #97A9B7",
"F  c #59605A",
"Q  c #97735B",
"g  c #383C43",
":. c #1D2F9D",
"#X c #94B4CB",
"BX c #D3EFF9",
"}. c #CBAA93",
"6. c #4E5A90",
"<X c #A9C3CB",
"M. c #5687FD",
"#  c #141619",
"A. c #648CFE",
"%  c #191818",
"T  c #986549",
"0  c #462B23",
")  c #AA7B5C",
"$. c #B79379",
"KX c #F5F9FC",
"P. c #5EBBFC",
"7. c #2E3ACF",
"8X c #ADCDE2",
"s  c #684637",
"~  c #A56949",
"|  c #A9815E",
"b. c #7CACC2",
",. c #3547B0",
"^. c #8699A7",
"r. c #4869FE",
"m  c #55595A",
"=  c #301912",
"s. c #4C71D2",
"]. c #B7A492",
"!  c #987151",
"o. c #B58869",
"X  c #170C0B",
"Q. c #8C8B93",
"A  c #705A6C",
"r  c #553D38",
"*  c #241B18",
"wX c #B4D2E5",
"I. c #68A4FE",
"lX c #C0DFF0",
"W. c #5FC6FF",
"%. c #B69273",
"[. c #C39C84",
"f. c #5A849B",
"#. c #BB947B",
"%X c #9CBDD3",
" X c #D2AB90",
"Z. c #6C85FE",
"(  c #A57B5B",
"l. c #7395AC",
"o  c #0A0D12",
".. c #AD8364",
"C. c #6483FE",
".  c #060606",
"D. c #7488FE",
"+. c #B38C73",
"3. c #657B93",
"h. c #76899A",
"6  c #343A3C",
"&. c #918477",
"+  c #0F141A",
"2X c #A5C5DA",
"eX c #BBD5E4",
";. c #2D34B0",
"h  c #33324E",
"W  c #9D7252",
/* pixels */
"M.t.t.t.y.y.y.t.u.u.e.,.2.3.^././.)./././.~.Q.&.[ Q C C B C ] Q.`.'.=X<X<X$X@Xb.n.b.b.b.v.c.c.k.f.1.1.<.z.cXJXLXLXLXLXLXLXLXLXLXLXLXLXLXLXLXLXLXLXLXLXLXLXLXKXFXnXwX8XwXyXyXyXtXzXzXzXmXcXzXzX6XqXqXjXxX",
"t.t.t.t.t.t.M.M.t.u.e.,.6.A 3.^./././.Q.d.d.] Q Q R Y I L L ] Q.'.'.=X<X<X,X@Xb.n.n.b.b.b.v.k.k.f.f.1.<.z.yXGXKXLXLXLXLXLXLXLXLXLXLXLXLXLXLXLXLXLXLXLXLXLXLXLXJXNXzXyXjXbXmXmXmXmXmXMXMXcXmXzXyXzXyXzXxX",
"t.r.r.t.t.M.C.M.y.r.q.7.j Z 4.4.h.d.4.d.d.] ] E T Y L G G G Q &.'.oX<X7XdXdX,X&Xn.n.n.n.v.v.k.k.f.1.1.1.g.7XIXLXLXLXLXLXLXLXLXLXLXLXLXLXLXLXLXLXLXLXLXLXLXLXLXJXFXMXzXbXcXBXNXMXMXMXMXMXMXmXmXzXyXjXyXxX",
"t.t.t.t.y.y.y.M.y.r.e.8.-.z 6.A ] 4.] ] I U U P H H H H K K ! ] C S F n n c n Z S f.v.n.n.v.v.k.f.1.1.1.f.,XCXKXLXLXLXLXLXLXLXLXLXLXLXLXLXLXLXLXLXLXLXLXLXLXLXLXJXFXMXmXmXMXNXCXCXCXMXCXMXcXzXzXzXyXkXzX",
"M.t.y.u.u.i.i.C.p.u.e.8.;.h M A B I I I L G H H H H K T G w ; %     . . .         & $ x f.v.b.k.f.f.1.1.1.n.cXPXLXLXLXLXLXLXLXLXLXLXLXLXLXLXLXLXLXLXLXLXLXLXLXLXKXGXCXCXMXMXNXCXCXCXBXNXNXMXbXzXyXyXtXzX",
"y.y.u.u.y.i.Z.S.D.p.u.e.;.h t V V B I J G G H H K T Y w *   & % % % - - - - - - 2 $ $ @ @ 5 f.x.f.f.f.f.f.k.zXHXLXLXLXLXLXLXLXLXLXLXLXLXLXLXLXLXLXLXLXLXLXLXLXLXKXGXDXCXCXNXMXCXNXNXNXMXMXnXzXjXzXyXyXtX",
"C.i.y.i.i.p.Z.S.S.p.u.e.7.j t r V N L L G P P K ~ s *   & $ $ - - - ; 3 q 3 3 a q q q 8 2 - $ v k.f.f.f.f.k.dXIXLXLXLXLXLXLXLXLXLXLXLXLXLXLXLXLXLXLXLXLXLXLXLXLXKXJXDXCXCXNXMXMXnXcXmXmXbXvXuXyXwX6XqX7X",
"S.C.i.p.p.p.D.L.L.D.a.e.8.-.3 l V N I L L L P P 0   O % * $ ; 3 q w s f G G K K T T ! K C s s 2 c f.f.f.f.f.7XMXLXLXLXLXLXLXLXLXLXLXLXLXLXLXLXLXLXLXLXLXLXLXLXLXKXJXDXNXNXNXMXmXzXzXzXyXyXwXrXqXdX7X4X4X",
"J.Z.a.a.a.D.D.:XL.D.p.u.q.;.t t V B I U U L U 3   & % % 9 3 q f K H ~ ~ ~ ' ' ' '  .'  . .| / Y a c f.f.f.f._.MXKXLXLXLXLXLXLXLXLXLXLXLXLXLXLXLXLXLXLXLXLXLXLXLXLXJXFXMXcXnXbXlXyXrXwX9X2X2X1X,X$X>X,X4X",
"L.D.D.D.a.a.a.D.L.D.D.u.e.;.h t r I I U U U 0 o & % $ - - q Y T ~ ~ ~ ~ ~ ' ' '  . . . . .o. .' ) D 6.k.f.f.(.cXJXLXLXLXLXLXLXLXLXLXLXLXLXLXLXLXLXLXLXLXLXLXLXLXLXJXFXnXvXjXjXyX9X2X2X1X-X>X&X%X%X,X4X7X",
":XL.D.a.a.a.D.L.L.L.D.u.e.7.j t V V I I U r o & % * - - 3 s T ~ ' ' ~ ' ` ` ` ` =.=.*.*.*.*.*. .) { Q.k.f.f.z.yXGXLXLXLXLXLXLXLXLXLXLXLXLXLXLXLXLXLXLXLXLXLXLXLXLXJXDXbXyXyXrXwX9X1X1X2X2X4X1X1X4X3X7X7X",
":XL.D.a.a.D.D.D.:XD.D.p.e.7.-.t M B I ] I # o X % - - 2 q V E W ' ' ' ' `  . .=.=.*.*. X{.{.{.#.X.{ ~.h.k.f.c.3XFXKXLXLXLXLXLXLXLXLXLXLXLXLXLXLXLXLXLXLXLXLXLXLXLXJXDXcXyXrXwXrXrX3X9X8XwXeXeXeXeXeXeX6X",
";XL.D.D.a.D.D.D.L.L.D.i.e.8.;.t M B B ] r   % % * 9 - q a N W W | ` ` o.o. .=.=.=.*.*. X|. X X*.+.o.{ Q.k.f.f.$XCXKXLXLXLXLXLXLXLXLXLXLXLXLXLXLXLXLXLXLXLXLXLXKXJXGXDXcXjXeXkXjXlXkXkXtXlXzXzXxXxXxXxXjX",
";XU.J.S.Z.Z.Z.D.D.L.D.i.e.e.;.z l V I I 9 o % % $ - 8 r N I ! ( /  ...o.o. . . .=.*.*. X X|. X*.*.+.+.d.c.f.f._.cXJXLXLXLXLXLXLXLXLXLXLXLXLXLXKXKXLXLXLXLXKXKXKXJXGXIXMXxXzXzXzXbXcXxXxXMXNXCXCXNXNXNXcX",
";X:XL.S.Z.Z.Z.S.S.L.D.i.e.8.;.j l V B B o # % $ * 3 e V Y Y Q ) | o. .` { `  .=.*. X XXXXX|.|.{.[.#.+.{ h.f.g.x.zXFXLXLXLXLXLXLXLXLXLXLXLXLXJXGXHXJXJXKXKXKXJXJXFXDXNXMXcXcXcXcXcXcXMXNXIXDXDXGXPXFXIXcX",
";XU.L.Z.Z.Z.Z.Z.Z.S.a.a.u.e.8.j l V I e o % $ - 2 8 s N I E [ [  .| _ / ` =.*. XXXXXOXOXXXXX|.{.}.[.!.O.Q.k.k.c.7XCXJXLXLXLXLXLXLXLXLXLXKXJXHXFXNXDXFXGXGXJXGXFXCXNXNXMXMXNXNXNXMXNXNXFXGXGXJXJXKXJXPXIX",
"U.U.L.Z.p.p.i.i.p.Z.S.C.y.e.8.-.8 a A 9 X % * 9 t e N N Y Q [ ) ` ) ) o.*.~.s 8 b } R &.].XXXX X|.}.[.!.~.k.k.c.,XcXDXKXLXLXLXLXLXLXKXKXJXGXIXNXMXNXDXDXFXFXFXDXNXMXMXNXNXCXIXCXNXNXDXGXPXKXKXKXKXKXKXJX",
"U.L.S.p.p.i.i.p.C.S.S.Z.u.w.8.;.l l V * > * 9 3 e a f Y Y ! _ ` _ ^ N ] Q.A Z X & S , & ; e C O.!.{.}.{.~.c.k.g.(.eXMXGXKXKXLXLXKXKXKXJXGXIXNXbXxXbXcXMXVXCXNXMXcXMXMXNXCXIXFXDXFXDXFXGXJXKXLXLXLXLXKXKX",
"L.L.D.Z.C.i.i.i.C.C.C.C.i.r.e.7.j r M : : : 3 3 w s f L T _ _ Q I s q ] ] * h 3 * b 7 ; % X ; Y K Q ] R O.h.c.k.z.1XzXNXHXJXKXKXJXJXGXGXIXNXbXbXbXbXnXbXnXnXnXnXcXMXCXIXDXFXFXGXGXFXFXGXJXLXKXLXLXLXLXKX",
"L.U.J.S.C.i.i.y.i.C.A.A.i.r.e.8.j l l * # 9 9 0 w f N Y ^ f V r s y f d V & X * * * i = * ; 8 Q | ] 5 $ , x S g.z._.6XzXNXIXFXHXFXFXNXFXMXxXxXzXlXnXvXbXvXvXvXvXnXNXCXIXDXFXGXGXGXGXGXJXJXLXLXLXLXLXLXKX",
"K.K.J.A.p.i.i.i.C.S.S.S.C.y.0.8.-.l l : % 9 3 0 w V N s = X 0 u d Q L s l * * = X = X X X = 3 E K F ; = & & c 1.1.(.,X6XzXMXMXMXVXxXxXxXsXhXuXuXlXvXvXvXvXsXaXaXnXVXIXDXFXFXFXGXGXGXGXJXKXLXLXLXLXLXLXLX",
"L.L.L.J.C.i.i.C.C.C.J.J.A.t.r.q.;.l r 9 # * i u J d 0 = w G P ^ ..!.+.{ V r t 3 X X X X X X 0 I = a ; = = - 5 2.>.3._.,X7XyXjXjXjXuXjXuXhXuXuXuXuXvXsXsXsXsXsXsXvXVXFXFXDXDXFXGXGXGXGXJXKXKXLXLXLXLXLXKX",
"L.K.K.L.C.C.C.i.C.A.J.J.F.M.t.0.;.j l 9 * L U J y u u J U ~ ^ ^ _ ) _ ( N N u 0 = X X X * * Y *.y w =   & % 2 n >.6./.$X1X5XeXyXhXuXuXuXuXuXuXrXiXsXsXuXsXaXaXsXvXnXNXFXIXIXFXDXGXGXGXGXJXLXLXLXKXLXLXKX",
"U.U.K.L.J.A.C.C.C.A.F.H.F.m.t.0.7.j l > u J { { U ^ P J P ~ ^ ^ _ ..) { L I L u w i 0 0 ; 0  .=.| M & .   . < v v v h.*X-X7XeXyXuXuXhXuXhXuXhXuXuXsXsXsXsXaXaXsXvXnXMXVXNXDXNXFXFXGXFXGXJXJXLXLXLXLXKXKX",
"K.U.K.K.S.A.C.C.m.F.G.G.I.N.t.w.8.-.t r ~ ^ [.{ [.{ U J P ~ ~ ^ _ +.+.+.[ I T U U L U L f ] *.=.=.[ = .   # h < > 5.z.(.$X4X5XrXhXrXuXuXhXuXuXuXuXuXsXsXsXsXsXsXsXvXnXVXMXNXNXIXGXFXGXGXGXKXLXKXLXKXKXKX",
"L.U.U.U.H.F.A.A.A.F.G.G.G.B.M.w.8.-.h Q ' =.=.^ #.{ ~ J P U U ^ ( { ~.$.#.( R ! Q Q ] U ^ +.=. X|.XX+.% O + < 5 6.6.l.`._.,X3XwXrXuXhXuXhXhXhXhXhXuXuXuXiXiXsXsXiXaXvXnXnXMXMXNXNXDXNXGXGXJXKXKXPXKXKXPX",
"U.U.U.U.K.G.A.m.N.F.G.G.I.G.M.t.q.;.z ^ =.=.J y ` { ~ ~ P ~ ~ ^ ( { ~.@.+.$.%.o.) / _ T @.|. X*.{.{.*.f 4 h n 1.<.D c.z.).-X4XwXhXhXhXhXhXhXhXhXrXuXuXiXiXiXiXiXiXiXvXbXbXcXcXMXNXNXNXNXGXJXKXKXKXKXKXJX",
"U.U.U.U.H.B.m.m.N.B.B.I.I.G.B.t.e.7.z ^ [.' P U =.o.^ _ U ~ U U Q { ~.!.+.%.$.#.{.[.{.) { P 0 w T T L T l 2.<.<.j.3.g.c.(.$X4X5XhXhXhXhXhXhXhXhX0XhXiXiXpXpXpXpXiXiXiXlXzXjXbXnXnXNXNXFXGXGXJXKXKXKXKXJX",
"H.K.;XU.K.G.B.F.m.F.G.G.H.G.N.t.w.9.j Q =._ [.#.@.+._ { ~ ~ U ^ [ X.O.!.{.[.[.[.*.{.*.` P J [ { P = X d B z <.j.<.1.3.g./.$X=X5XfXhXhXhXhXhXhXhXhXhX0X0XpXqXpXpXpXyXyXuXuXlXzXcXnXMXNXFXGXJXJXKXKXKXKXKX",
"I.U.T.T.U.G.F.A.m.F.G.G.I.K.H.V.r.8.-.B =._ #.=.^ { ^ ' ^ ^ ^ ^ [ X.~.!.!.[.*.o. .=.o.=.*.*.*.~.o.f w L B A 6.2.2.1.<.j.z.#X<X5XfXhXhXhXhXfXhXfXhX0X0X0XqXqXqXpXiXtXuXuXtXjXjXbXbXcXNXFXGXGXJXJXKXKXKXKX",
"G.U.T.U.U.H.F.A.A.F.G.I.U.U.H.m.t.0.;.h U { { =._ ~ ^ ~ U ^ ^ { [ X.O.!.!.!.+.[ o.o.@.[.*.+.{ { { { Q E N A 5.5.5.2.<.g./.).<X5XfXhXhXhXhXhXhXfXfXfXhX0XqXrXrXiXuXuXzXuXuXzXbXbXnXNXVXFXGXGXJXJXKXKXKXKX",
"m.H.U.U.U.I.G.F.F.F.F.H.U.U.K.F.t.0.7.z l I { { { o.^ U ~ ~ ^ { X.O.@.@.!.@.+.+.=.@.+.{ Q U U I I I I ] U 6.5.5.5.1.3.3.^.).=X5XfXhXhXhXfXfXfXfX5X5X0X0XqXrXiXiXtXaXuXzXzXzXbXnXMXMXNXFXFXGXGXJXKXKXKXLX",
"m.U.T.T.U.U.H.J.F.A.J.H.U.:XU.J.y.e.8.z z < r ^ _ ^ U P P T / [ +.@.!.[.!.!.{ O.$.$.R V R ]..X.X[ s i D ] 4.5.5.5.5.3.h.^.).-X4X6XfXkXkXhXfXfX5X5X5X3X8XqXqXiXiXlXlXzXbXbXbXcXmXNXNXNXFXGXGXJXJXKXKXKXLX",
"C.U.;XT.U.U.J.F.S.A.F.H.K.U.K.J.y.u.q.-.A A l J L u J U P T _ { X.!.!.[.[.!.{ @.@.@.( ] !.#.#.}..X].t V ] 5.x.5.5.h.3.h.^.).=X5X6XkXfXkXkXhXeX6X0X3X3X9XqXiXtXaXlXzXbXzXmXmXmXMXNXNXFXGXFXGXGXGXJXKXJXKX",
"M.S.U.U.U.U.K.J.S.A.A.J.J.K.K.K.C.r.q.;.6.4.Z B _ #._ L P P ^ [ +.#.#.[.[.!.{ ~.#.$.%.*.#.*.{. X!.$.N a d.h.x.c.h.5.h.h./.).=X<X6X6XkXyXyXyXeXeXwXrX0XqXyXiXaXvXvXzXvXmXmXcXMXNXNXNXFXFXGXGXGXGXJXJXJXKX",
"C.L.;XT.T.;XL.J.S.A.S.S.H.K.K.H.m.r.q.7.6.h./.B ^ { _ G G P ~ _ [ @.@.@.~.#.O.@.#.!.[. X|.|.|.|.{.!.$.] A x.v.x.x.l.l.Q.^.).=X4X6X6XyXzXjXjXuXtXiXiXiXiXaXvXvXvXmXmXmXmXBXmXcXNXNXNXFXFXGXGXGXGXJXJXJXJX",
"i.S.U.T.T.U.U.J.S.A.S.A.J.H.K.H.m.t.0.7.6.3.).I U { { P J P T ~ _ o.+.+.o.{ { !.$.+.#.[.{.}. X{.#.#.#.] d.+X+Xv.x.l.h.z.^.).=X<X6XyXzXzXvXaXaXaXaXaXaXaXaXmXmXmXmXnXmXmXmXcXBXNXNXNXFXFXGXGXFXFXGXGXGXGX",
"y.C.U.U.U.T.U.L.A.A.C.A.A.F.H.F.M.t.e.9.>.4./.] ~ [ +.^ J P P ^ / { o.#.+.) _ { X.X.X.$.*.[.#.%.+...o.R d.&X@Xb.v.x.l.z.^.).=X4XqXyXzXzXvXaXmXaXsXvXmXmXmXmXZXZXZXBXZXcXBXMXMXBXNXDXFXFXFXFXFXFXGXGXGXGX",
"i.C.L.T.Y.T.U.K.A.A.C.m.m.F.B.G.B.M.w.q.,.4./.] P ) O.{ L L H ~ ~ ^ [ @.!.+.[ [ X.O.+.@.!.[.[.%.) / W B (.&X@X+X(.x.l.^.^.).=X4XyXzXaXvXmXmXmXmXmXmXmXmXZXZXZXZXZXNXmXBXcXBXMXMXVXNXNXFXFXFXFXFXFXGXGXGX",
"u.C.L.T.T.Y.T.U.F.A.M.m.N.F.I.I.B.M.w.q.7.6.^.] U [ { o.T J H J P T ~ ) +.+.+.O.$.!.#.#.!.{.{.].+.[ L D &X&X&X+Xb.x.l.z.^./.=X4XqXyXzXmXmXmXmXmXmXZXZXZXZXZXZXZXNXZXZXZXmXMXmXcXVXAXNXNXFXFXFXFXFXFXFXFX",
"y.i.F.U.Y.T.T.I.G.N.m.m.N.B.B.G.B.V.t.0.9.>.f.D T ) { +.{ J u d d J P ~ _ ..X.X.@.@.!.$.$.].].!.%.) R z.>X&X&X@Xv.x.l.l.^./.=X4XyXlXzXvXmXmXmXZXZXZXZXZXZXZXVXVXZXMXZXmXnXnXbXbXbXMXMXNXFXFXFXFXFXFXFXGX",
"y.y.F.U.R.E.R.T.I.B.m.m.m.B.B.G.B.M.t.0.9.>.S C U ) o.X.o.T y w w y u u H ~ ^ / [ O.O.~.%.%.%.| | ! D &X>X&X@X@X+Xv.x.x.^.^.$X4XwXlXvXmXmXmXZXZXZXVXZXVXZXVXVXVXBXBXZXcXcXbXbXzXbXbXnXMXAXNXFXFXFXFXFXFX",
"u.y.F.T.R.R.P.T.I.B.m.M.M.B.B.I.I.B.M.w.q.;.Z V P ) o.X.X...T d y y w 0 y u G K T Y ! Q ! C ! K Y f F dX&X&X&X@X+Xv.x.l.z.^.).<XwXtXzXvXmXZXZXZXZXVXZXVXZXZXZXZXBXMXmXmXzXzXjXyXjXbXnXMXVXFXFXFXFXFXGXGX",
"t.y.M.I.T.Y.W.Y.I.B.B.N.B.B.B.G.B.B.t.w.q.:.z B T ) +.X.X.[ ) T J d u u u y y y d f f s s s a s f w D >X&X>X&X@X+X(.x.l.z.^.).<X6XtXzXbXmXZXmXZXZXZXZXZXnXBXnXnXmXmXmXzXzXlXyXyXtXjXbXnXVXAXFXFXGXFXGXFX",
"r.t.M.I.R.E.E.R.Y.F.N.M.M.N.N.B.I.G.V.t.0.;.z V T ) o.+.X.( ) W H J d y y y y y w r r r q a q q 3 8 `.dX&X>X&X&X*Xv.v.l.z.^.`.=X7XyXzXmXmXmXmXmXmXmXmXmXbXvXbXbXzXzXzXuXtXyXeXqX0XtXjXxXVXNXFXFXGXFXGXFX",
"r.y.M.I.Y.E.R.R.Y.H.N.M.m.B.G.I.I.I.B.t.q.:.M J P _ o.%.X.( ) W H J d d w w q 0 q q r a a e p p p j.dX>X>X>X,X&X@X+Xv.x.l.^.`.$X7X6XyXzXzXzXvXaXvXaXaXuXuXuXuXuXtXzXyXyXrXwX9X3X2X0XuXlXbXAXFXFXFXGXFXFX",
"t.t.C.F.Y.R.R.E.P.I.B.B.m.N.B.G.G.V.-.k > X d J T _ ..%.o.X.| / ~ T K K T K y ; = - 3 0 p } Q.`.,XdX>X>X>X>X>X&X*X+X(.l.z.z.^._.<X7XyXkXzXzXzXaXlXuXiXyXrX0X0XrXrXrXwXwX8X9X2X%X%X2X0XhXjXVXNXFXFXGXFXFX",
"r.u.y.A.Y.E.E.E.R.I.B.M.M.M.V.B.s.+ . . . a J N T _ | ..X.o.../ W W W / / W G w ; = X * ^.kXyXyXqXdX>X>X>X>X>X&X&X+Xv.l.l.z.^.).<X7X6XyXzXzXzXlXyXyXrXrX0X9X9X0XwXwX8X8X4X>X&X#X*X%X9XrXuXMXAXFXFXFXFXFX",
"w.t.y.A.T.R.R.R.R.I.N.V.m.B.B.G.>.@   . b R G G P _ ) ..| o.o.( ! W W | | W K f 0 ; = a 7X7XqX7XdXdX>X>XdX>X>X>Xn.n.b.x.z.l.z.`.<X7X6X6XkXjXyXyXyXeX0X0X9X2X2X9X0X0X0X9X2X2X%X#X+X+X-X9XtXxXbXNXFXFXFXDX",
"w.t.y.M.I.Y.R.R.R.P.B.B.M.M.B.s.> , . . F I L L U _ ) | | | | | W ! ! / ! K G f f ; ; F ,X6XyXyXqXdXdX>X>X>X>X>X,X@X(.v.l.l.z.`.'.7X7X6XyX6XrXeX0X3X3X1X-X=X=X2X3X9X2X2X2X%X%X#X#X#X%X9XrXkXbXNXIXDXDXNX",
"0.r.y.M.G.Y.E.E.R.P.G.B.V.V.B.v # : O = F ] T Y T / ) ) ) ) | | _ W W W T K f G f i a N p <.(.,X7XyXdXdX>X>X>X>X,X@Xn.v.l.c.z.`._.<X7X7X6X6X7X7X4X1X,X-X#X=X#X%X2X2X2X2X9X2X2X#X#X#X%X2X0XjXbXVXDXDXNXAX",
"0.r.r.M.B.Y.R.R.P.P.I.V.V.M.s.x , # : 9 e D Q T Y / ) ) | ( ' | | / ! W ~ G f f y q f a   @ 1 n S <.z.v.>XdX>X>X>X@X@Xv.v.z.c.`._.<X7XgX6X7X4X>X%X$X$X#X#X#X#X#X2X2X9X2X9X2X2X%X#X#X#X2X0XhXjXMXbXNXbXuX",
"0.w.t.y.m.I.P.R.P.P.I.B.M.V.h 5 7 : $ , 2 b ] Y P W ( ( ( ( _ | | ) T ! K K f s w f G q . . .       $ $ x n.dXdX&X&X+X+Xv.l.c.`._.=X<X7X6X7X1X,X$X#X#X#X#X#X#X=X-X9X2X9X3X2X2X2X#X#X#X-X3XeXjXxXxXxXkX5X",
"q.w.r.y.M.G.P.R.R.P.G.G.M.-.O + 1 $ , , 1 8 F ! Y W ( ( _ / / _ _ | W T ! K f s f K K q . . .     @ 1 2 O n n.dX>X&X@X+Xx.l.c.`._.<X<X7X6X7X7X<X$X$X#X#X#X$X#X#X-X2X3X0X9X3X3X2X-X%X#X%X1X0XeXeXeX0X1X$X",
"q.w.w.t.y.B.Y.W.P.P.Y.s.v # + , + , 2 4 1 1 x V L ( | ( / W W W W / / T ! K f G G K K s   . & & O     O @ O n n.>X&X*X+Xv.x.l.x._.<XoX7X6X6X7X,X#X#X#X#X$X$X$X#X-X2X3X9X0X3X9X2X2X-X%X=X1X0X0X3X%X)./.4.",
"9.0.w.t.y.N.I.P.R.V.>.6 $ + + + $ , 5 4 6 7 1 6 M Y | | / W W W ' W / W K K K K K K K C F .   &   & @ 2 5 , n v +X>X&X+Xv.x.c.`._.<X<X7XfXfX7X$X*X*X*X*X#X#X%X%X2X2X9X0X9X0X0X9X2X2X-X-X2X3X1X$X/.2.Z m ",
"9.q.w.r.t.V.I.R.f.x 2 # o o + + 1 1 5 5 1 6 x 4 p n C | | W ! ! W W W ! ! ! K K K K K s } F   % @ & # 6 x 1 5 b S @X&X@X+Xx.l.x._.<X<XoX6X6X<X&X*X*X*X*X@X*X#X%X%X2X9X0X0X0X0X0X9X9X2X2X3X3X-X).4.m M V ",
";.q.e.r.t.m.V.v 8 1 $ + o o o + 1 1 1 x 6 < 6 x p 5 p C | | | ! / W ! W | / K K ! ! ! ! } gXF   $ & # , 6 6 n } n <.&X@X+Xx.l.x.).<X7X5X6X6X7X>X,X%X%X>X%X%X%X%X%X9X9X0X0X0XrX0X0X0X0X3X0XeX3X$X^.A B ] ",
":.q.0.r.y.s.g 3 , : % o   o # , 5 < 5 6 6 5 , 6 n p 1 1 a ! | | | | | | | W K ! ! ! Q X.].`.SXF % , , 2 S S b } S m l.>X+Xv.x.l.).<XoX6XfX6X6X6X9X9X9X2X9X2X2X9X9X0XrXrXrXrXrXrXrXuXuXuXxXjXhX3X).d.R ] ",
":.9.q.w.s.h 8 , # % @ o o # # , 1 1 5 5 6 p 5 1 x x p p 5 p a C | $.%.X.| / ( / ! Q | X.UX'.oXSXp 2 2 2 F S 6 F D m S &X#Xv.(.l.(.<X7X6XkXzXxXyXyXyXrXrXrXrXrXrXrXuXuXuXzXlXbXbXMXxXxXAXVXNXxXhX-XQ.] ] ",
":.9.q.q.c 2 # # O O @ + + O O @ $ , 1 5 6 6 6 5 1 b n b p 5 5 $ p %.].%.| | | ! | | | %.SXUX'.HXoX5 1 p n F c p D m M h.#X+Xx.x.(.=X7XfXkXkXxXzXzXlXlXtXtXtXuXlXzXbXcXMXVXNXNXNXIXFXFXIXFXNXVXhX5X/.] ] ",
"v 9.9.6 , O   o O + + O # @ @ @ O + , 5 5 6 6 6 5 5 n n n p 5 # 5 C %.%.%. .| | | | o.$.HXPX'.gXHX'.6 x n F n 6 D S b S *X+Xx.x.^._.=X<X6XeXkXtXzXvXbXbXbXbXcXMXVXNXFXFXGXGXGXGXGXGXFXFXFXFXFXjX5X/.] I ",
">.>.< + O O O O O O O @ @ @ + O O @ O , 5 5 6 x p 1 5 n p 5 @ 5 @ p | | *.%.|  .%.%.%.}.KXPXSXoXSXPX^.p n m n p F F m m 3.+Xx.c.h.^.).'.<X7X5XeXyXzXnXMXVXNXFXGXGXGXJXJXKXKXJXJXJXJXGXGXGXFXFXAXhX=Xd.A ",
"v 1 $ , @ O O       O O O O + # # O + , , x 6 5 x x 5 p p $ 1 5 O - ! | %.%.%.*.{.*.o.UXKXPXKXgXgXPXSXS p n F x a m m M z 3.x.3.<.} j.^.`.).=X4X3XyXzXMXFXGXGXJXJXJXKXLXKXKXKXJXJXJXJXPXGXGXFXFXhX2XQ.] ",
", O # O O     O         O O & @ , 2 5 p $ 1 p x p 6 6 p 6 6 5 c 7 , F | o.%.*. X|.[..XHXPXPXKXSXoXSXPXoXb b m b p F b m b v 3.2.A m F F D } g.v.#X4XyXcXCXGXKXKXLXKXLXKXPXLXKXPXKXKXKXPXJXJXGXNXxX5X/.] ",
"O O O                   O O $ p p p p 2 2 2 5 p n c 6 5 1 5 1 6 n 1 M {.*.*.{.|.OXUXHXHXPXPXPXKXoXAXPXPX^.6 n n l F v b n 7 Z S b 7 3 3 p p n S h.(.4XjXNXGXJXLXLXLXLXLXLXLXLXLXLXKXKXKXKXJXGXCXbX5X'.d.",
"    O O $ $ O . O O O O @ $ 1 2 2 p p 5 1 - 2 5 p n n 6 5 1 1 1 5 p S gXSXSXSXSXPXKXPXSXSXPXPXKXSXgXSXPXSXS x F 7 M Z c n 6 6 g ; * * * * - - 8 b S `.7XcXFXJXKXLXLXLXLXLXLXLXKXLXKXKXKXJXJXGXNXcXfX_.d.",
"  O + , , 5 5 # O O $ 1 1 1 2 - 2 p p p p 7 2 5 6 x n p p p 6 6 p b F ^.PXSXHXPXPXPXSXIXPXPXPXPXSXoXSXHXPX=Xx n g b Z v n g 7 5 - * X & & & % - - 5 F `.eXMXGXJXKXLXLXLXLXLXPXLXPXKXKXPXJXHXFXDXAXhX=Xd."
};
