/* XPM */
static char *1349982333280[] = {
/* columns rows colors chars-per-pixel */
"100 56 222 2",
"a  c #0B1522",
"@. c #45423E",
"9. c #3E4956",
"O  c #060708",
"9X c #BFC0C0",
"'. c #4A6F9C",
"F. c #626566",
"0X c #C4C3C3",
";X c #939494",
"^  c #403F3E",
"-. c #486B2F",
"n. c #555A5C",
"C  c #252C32",
"<  c #0F1010",
"f  c #1D1E21",
"y  c #2A1B1B",
":  c #0F0F10",
"0. c #394F6A",
" . c #4B4C29",
"n  c #2B2C2C",
"N  c #312E2E",
"-  c #121007",
"j. c #464A50",
"y. c #4B4548",
"-X c #8F9498",
"v  c #282728",
":X c #939698",
"l  c #282726",
"t  c #201F1E",
"yX c #D9D8D7",
"S. c #5D6263",
"e. c #484643",
"5X c #AEAFB0",
"=X c #8F9091",
"*X c #8C8D8D",
"3  c #011A1B",
"I  c #313639",
"2  c #0A131F",
"K. c #666D73",
"j  c #1D2733",
"7  c #191817",
"/. c #3772AC",
"&  c #100E0C",
"OX c #527DB4",
"(. c #3B73AC",
"w. c #434343",
"x  c #282827",
"R  c #433D0B",
"Z  c #292F31",
"b  c #252A2C",
"V. c #5A5E60",
"k. c #4A4E51",
"k  c #232424",
"g. c #595A46",
"4X c #B0AFAF",
"G  c #27303D",
"M  c #312926",
"t. c #434649",
"L  c #343836",
"1  c #05131C",
"N. c #5F605E",
"u  c #301A19",
",X c #9B9C9D",
">X c #979898",
"p. c #53454A",
"rX c #D5D5D5",
"a. c #514F4E",
"[  c #45400F",
"E. c #3B6599",
"   c #020303",
",  c #001516",
"P  c #383934",
"9  c #171919",
"oX c #4C7AB1",
"8  c #161718",
"~. c #366BAC",
"8. c #39434C",
"E  c #482D32",
"d. c #4D514A",
"1X c #959AA0",
">. c #636F37",
"@  c #070808",
"u. c #454A4C",
"q. c #3C5575",
"=. c #625B39",
"L. c #6A6E71",
"_. c #406798",
"x. c #595551",
"{. c #4771A9",
"&X c #878888",
"`  c #3C4F36",
"pX c #E2E4E2",
"$X c #888D85",
"U. c #245790",
"X. c #52522A",
"T. c #366096",
"G. c #626668",
"*. c #45593D",
"c  c #262728",
"Y  c #34393B",
"|. c #4D7BAE",
"R. c #3B6395",
"}  c #45472F",
"c. c #575856",
"J. c #6B6B6D",
"H  c #2F3538",
"d  c #111B26",
"i  c #32300C",
".X c #5A7AA1",
"3X c #ADADAD",
"B. c #64605B",
"2. c #313A45",
"w  c #2A0303",
";  c #11100E",
"5  c #181615",
"7X c #BDBDBC",
"q  c #240202",
"+X c #5681B5",
"/  c #385229",
"tX c #D8D7D6",
"e  c #270C0C",
"$  c #130404",
"4  c #131413",
"'  c #384438",
"z  c #272825",
"{  c #48410D",
"`. c #436A9B",
"V  c #31312F",
"6X c #B3B3B3",
"1. c #2D3844",
"Y. c #345E93",
"@X c #5A83B4",
"J  c #333333",
"qX c #C9C8C7",
"]  c #3D5233",
"z. c #525455",
"i. c #4B4B4C",
"<. c #2A3541",
"4. c #323D49",
"v. c #5E5A56",
"D  c #302E38",
"uX c #D7D8D8",
"S  c #322F32",
"_  c #364931",
"B  c #2F302F",
"K  c #383737",
"p  c #21201F",
"XX c #4779B1",
"H. c #65696B",
"O. c #424433",
"5. c #413F45",
">  c #040F1B",
"!. c #3266A9",
"m. c #5A5B5C",
"U  c #393538",
"iX c #DADAD9",
"). c #446A97",
"F  c #2E3436",
"Q  c #4E3236",
"g  c #141E29",
":. c #446132",
"#X c #848484",
"}. c #4874AC",
"6. c #413F49",
"<X c #9997A0",
"M. c #645F55",
"#  c #0B0B0B",
"A. c #485E78",
"%  c #1D0303",
"T  c #3B3C3C",
"0  c #1C1C1C",
")  c #3E4231",
"$. c #435C34",
"P. c #6B7278",
"7. c #3D4245",
"8X c #BFBFC0",
"s  c #0E1825",
"~  c #483439",
"|  c #46482E",
"b. c #525658",
",. c #7A6E3B",
"^. c #386AAD",
"r. c #4B4A45",
"m  c #382121",
"=  c #0F110F",
"s. c #4F5246",
"]. c #4C719D",
"!  c #453A34",
"o. c #5B5A29",
"X  c #070807",
"Q. c #2764A2",
"A  c #232F3B",
"r  c #231111",
"*  c #1E0E0E",
"wX c #C6C7C8",
"I. c #355B8B",
"W. c #3F689B",
"%. c #405339",
"[. c #52759F",
"f. c #535546",
"#. c #48433E",
"%X c #858788",
" X c #5477A1",
"Z. c #455C79",
"(  c #364436",
"l. c #4D5254",
"o  c #080807",
".. c #545327",
"C. c #425976",
".  c #080303",
"D. c #4B6079",
"+. c #494D33",
"3. c #3B3D42",
"h. c #55524D",
"6  c #171817",
"&. c #4C523A",
"+  c #0B0708",
"2X c #A5A5A5",
"eX c #CBCBCC",
";. c #5B672D",
"h  c #1E2121",
"W  c #453034",
/* pixels */
"x 0 T ,.P y.y.r.z.r.@.e.B i.y.i.V w.x.i.c.z.z.a.z.a.z.m.t.K S P z.5.i.i.y.y.t.i.w.x.y.V i.' M #.w.a.w.S t.a.w.y.y.y.r.i.S P T i.a.i.r.w.u.t.u.x.T K n c l f ;.>.<XV.x.#X#XT ^ p m.pXc.0 P.K.M T y.@.t.V ",
"K I K =.T t.t.t.t.t.t.t.T w.w.u.T 5.t.i.z.a.a.w.a.i.i.z.y.T T T w.w.i.y.u.w.@.t.w.t.y.T 5.w.K ! w.w.y.T w.e.^ w.d.t.t.i.w.T 3.j.k.j.i.@.r.r.y.r.t.^ T K K P +.&.H.x.i.F.N.5.5.P d.$Xd.U T ^ ^ ^ y.t.r.' ",
"M.x.M.m.m.M.x.v.v.v.B.h.r.#.e.#.@.e.e.@.#.e.^ #.^ ^ ^ #.#.e.e.e.@.@.#.@.#.#.#.#.#.@.@.#.w.@.e.w.@.@.#.e.r.a.a.h.P @.@.3.4.8.8.8.8.8.8.7.7.w.^ ^ ^ @.w.e.w.e.5.5.T 5.^ ! T @.w.w.@.S ' e.w.#.w.^ ^ e.w.r.",
"0.Z.Z.Z.Z.C.C.C.A.C.Z.A.q.q.q.C.C.C.q.C.q.q.C.C.C.C.C.C.C.Z.C.q.C.q.q.q.q.q.q.q.q.C.C.q.C.C.q.A.A.A.A.A.A.A.Z.q.L.;X;X;X:X:X;X:X-X;X:X-X:X;X;X;X;X;X;X;X;X;X;X;X;X;X;X;X;X;X;X;X;X>X:X=X;X;X;X;X;X;X;X;X",
"I. X'.`.[.Y.R.Y.R.]._.`.T.E.T.E.`.'.E._.E._..X[.R.`.].`.'. X XT.[.].Y.`. X.XT.W.T.E.[.`.E.'.T.].[.'.].[.].].`.I.1XtXrXrXtXrXrXtXrXrXrXrXrXrXrXrXtXtXtXtXrXrXtXuXrXrXtXrXtXrXtXtXrXrXuXrXrXrXrXrXrXtXrXrX",
"v k B 5 O K c.m.a.0 4 T k . N T U K #     o         O O O   O o # @ # @ # X X o o X O o O O X O O   O O O O O   G.3X3X6X3X2X3X2X5X6X5X2X2X5X4X5X2X2X3X3X6X3X2X3X3X6X3X3X3X6XrXrXeXrXrXrXrXrXrXrXrXrXrXrX",
"k k n 4 X v w.w.l o 7 t k n t k J l 5 p k p n v p p o o o o o o O O X X X X X X O O o O O o o o X X X O O O o   z.=X*X=X*X%X&X#X*X=X*X%X*X=X=X=X#X&X=X*X=X*X%X%X*X;X*X*X*X;X3X3X5X5X5X5X5X5X5X5X3X5X5X5X",
"h 0 c ; O 4 n k k ; # 4 k n 4 9 v c v k T n n S k J                                                             p I F F F H J I F F F H H V F F J F F F F F F F F F H F F F Z B F Z Z F Z Z Z F B Z Z H ",
"p 0 c =   J a.c.e.4 8 w.6 h T z n B 6 0 S k 4 t           O                                                     f I F F F F F F F H F F F F H F F F H F F F F F F F F F F F H H F H F H F H F F H F F Y ",
"k 0 c ;   F i.a.T ; 4 k       O O     X   O O O   O   O                                                         h H F F F F H F F F F H F H F F H F F F H F H F F F F F H F F F F F F F H F F H F H F I ",
"h 0 n 4   n i.l.@.4 # n 7 4     O                                                                               h H F F H F F F F H F F F F F F F F F F F F H F F F F F F F F F F F F F H F H F F F F I ",
"0 0 n 4   F a.z.T 4 O v B V o O   X   O O O     O       O     O O o     O     O                                 k T } X.+.7.H F F F H F F H F H F F H F F F F F F F F H H F F F F F F H F F F F F H F I ",
"c p V 7   v J J B # 4 Z K V J V   4 U P 0 4 n B P T P v 0 0 B l ; 4 n n 4 f V T P t 4 B c T S 0                 h Y P P J Y H F F F F F F F F F F F F H F F F F H F H F F F F H H F F F H F F F F H F I ",
"  O o O     @ 4 #   @ k n J V n k k n z 4 : k n B S B v 7 0 F n 4 0 n N 4 0 K 0 4 c 0 n x 4 k c 7 # 0 h f k O   h F J G H F H H F F F H F F H F H F F L L H F F F F J H F H F F F F F F F F H F F F F I ",
"                    @ 0 x n Z n n n n n k 4 v v B B v 0 4 # k v 4 # t p # 4 x 4 # 0 0 t 0 O 0 k 7 O 0 k k 7 O   3.m.n.V.z.k.z.S.G.k.7.l.n.V.G.G.H.b.w.Y o.o.) Y | o.+.6.I F F F F F F H H F F F F F F I ",
"                    @ k z n n # 4 k x x c J T # v n                                                             c 3.H Y H Y H Y H L H Y H Y Y Y Y I I H H Y H F F L F I F F F H H F F F F F H F H H F I ",
"h 0 n 5   c n n n # < k 4 O v F n 4 c T K P c # n 4 P n k J n 4 T J n 4 J B 9 k T T P n                         0 F F F F F F F F F F F F F F F F F F F F F F F F F F F F F F F F H F F F H F F F F F I ",
"0 0 n 7   h K T P 4 O n N o k n V p < 6 5 4 #   4 # 4 ; @ 4 @ # 6 4 # O 4 4 @ # 8 4 4 @                         h F F F F F F F F F F F F F F H F F F F F F H F F F F H H F H F F F F H F F F H F F F Y ",
"k 0 n 5   K c.c.3.4 X n n 9 J K P p         O O   O   O #                                                       h H F F F F F F H F F F F H F F F F F F F H H F H F F F F F H F F H F F F F F F H F F I ",
"h 0 n 5   i { [ R - 8 P P P # : 0 ' w.T ; c 0 4 n T 0 O K 4                                                     h H F F F F F F F F F H F F F F F F F F F F F F F F F H F F F F F F F F H F F F F F F I ",
"f 0 n 6   k B V N # 4 B n v V 4 v 0 4 k k n 4 k x # l n 4       O                                               h H F F F F F F F H F F F F F F H F F F F F H F H F F H F F F F F F F F F F F F F F F Y ",
"p 0 n 6   h N F n # 6 B k k K 0 k 4 0 n n c 4 P n 4 0 0 4                                                       h H F F F F F H F F F F F F F F F F F F H F F F F F F F H F F H F H H F F F F H H F F I ",
"f 0 n 6   k B B n o 0 K k # k P h v N n c t # B c n 7     O   O                   O     X           O           h H F F F F F F H F F F H F F F H F F F F F F F F F F H F F F F H F F F F F F V F F F Y ",
"p 0 n 5   c B B F # 8 P n 7.k 4 n J o 9 B B v #     O O           O     O   O           .                       g H F F F F F F F F F F F F F F F F F F F F F F F F F F F F F F F F F F F F F F F F F I ",
"p 0 n 5   9 J F p O # n B 0 0 O = = O X : # # #       O         O     O     O                                   h F F F n F F Z F Z F F B F F F F F F F V F F F Z F F F F F F F F F Z V F F F F F F Z L ",
"f 0 n 7   0 J c 0 4 @ n J # = # X X     X O X X #           X O         O     O                                 V z.i.l.a.a.a.i.a.a.k.a.a.i.a.a.a.y.r.i.j.y.r.y.u.u.r.i.r.y.i.y.i.y.y.i.i.y.i.y.i.i.a.i.",
"f 0 n 7   h n n n : @ B J 4 @ 4 K P 0 v U 4 P n B @                                                             0 B B B B B S B B B n N B n S n J B n n B B n F B B B V n B B n n n n n Z n n n n n Z B ",
"h f n 7   v i.i.w.4 X k n v 9 c # F 4   X       X               O                                               6 4 K 0 k T 7 z w.t f I 4 n w.0 h P n n n n 7 ; 6 J Y x = w.n                           ",
"0 0 c 5   n e.e.V # # t 5 t 4 #   k o                                                                           8 @ @ X X X     #     #   X X O     O @ O   O     O X     @ O                           ",
"C G 4.C s G 4.4.4.d j 2.a j.j 1 a > a a a 2 a a a a a a a 2 a a 2 a a a a a a 2 a a a 2 2 a 2 a 2 2 2 2 a a 2 2 8 # X : # # @ # @ @ = @ 4 X : @ 4 = #                                                   ",
"U./.{.}.|.Q./.@X@X@X|.~.oXoX/./.oX+XOX+XOX+X+XOXOXOX(.oXOXXX~.~.!.^.^.~.^.^.!.^.~.~.^.^.!.^.^.^.^.^.!.^.~.!.^.!.<.k 7 B B n : B n P n 4 K f 0 P n K n                                                   ",
"1.4.<.1.1.A g d g d s s s s a a s a s s s a s s s s s s s s a a a a a a a a a s a 2 a a a a a a a s s > a s a s O                                                                                       ",
"p 0 z 4 z t #   X X X X O O # - # ; = = # # = # # # # = o # o # # # 6 = - = = o X 4 ; # 4 4 ;     o O 4 ;   & t ; 4 7 0 0 v 0 f #                                                                       ",
"4 b - 9 Z Z F F F F F F F F l.b.k.t.l.n.b.j.3.l.l.j.b.n.l.k.b.l.i.u.V.7.Y t.l.l.n.n.b.I z x k 0 o 4 6 n k : c k p n n T k T k P 4                                                                       ",
"4 n = 0 H H F H F F F H F F 8.d.7.t.7.k.l.w.Y t.u.w.n.b.d.7.k.l.7.7.j.7.I Y 7.b.b.t.u.Y V K P 0 X K N < I B v J c ; n N 4 k #                                                                           ",
"4 V 6 9 H F F F F F F F F F Z b Z Z Z b b Z F Z C Z C C Z Z B Z Z Z Z Z F F Z b b b b c V P F 7 O c ;   @                                                                                               ",
"4 n 4 0 Y F F F H F F H F F j.b.l.V.b.n.l.S.i. .X.|  ...P  .V ' k.n.b.b.b.b.n.n.j.n.n.T B P S 0   k k 4 #     X O     O       X O                             .       O                                 ",
"4 B 6 9 H F H F F F F F F F 7.n.u.7.l.l.b.j.t.T s.r.f.g.t.k.7.u.b.7.Y 3.Y Y 3.3.H 8.u.F P K P 0   0 B P 5     X     O O O             O       O       O                                                 ",
"4 J 7 9 H F F F H F F H H F u.z.3.7.k.t.b.l.H 7.l.l.b.n.k.n.b.b.b.K F F Y H Z F F F F k 3 3 3 ,   k D U B T 4   J P n # k N I U K B n # n n 0 o c n c : V J P n # n n n P v # k B P 3.P J S P B h 4 n V ",
"4 B 4 9 H F H F F F F F F F u.k.b.n.b.l.b.b.S.7.F _ -./ 3.b.3.Y k.t.b.V.j.k.H.H.V.n.G.w.b B Z k 9 f B B 7 0 k v 4 p B 4 < v k n n : t k p 4 k 0 x x # 7 k n c 4 4 k v n v n n ; c n # # # @ @ # X   # # ",
"4 F 6 9 I F F F F H F F H F u.b.7.7.b.j.l.7.3.k.l.Y 7.k.u.b.t.7.n.j.n.n.l.l.' I F H H b Z V n h 4 0 v n 0 4 n v # f J 0 8 p k k k # k n 0 @ f n c t # f c k n 5 4 k k f 7 k n # 4 c                     ",
"4 B 7 9 I F F F F F F F F F u.b.3.3.b.k.l.' 3.k.b.7.k.u.u.b.b.7.V.k.l.n.n.l.2.F F F F h , , 3 ,   0 k @ 4 F n k 0 U U P I o p 0 0 T 8 J n 0 n P B 4 n B k 4 J T P P #                                   ",
"4 n # 0 I F H F F H H F F G 8.l.7.3.b.i.l.3.3.k.k.k.k.u.Y 7.n.k.b.b.n.b.u.V.l.Y F F F b F L I k   9 T 0 0 P J B X                                                                                       ",
"= J 0 7 H F F F F F F F F F k.b.k.b.7.3.n.l.V.k.k.S.V.G.n.y.Q H Z F Z Z F Z F F F F H v u m y $ : c n v 0 k K n p 8 X 8 4 < 4 8 @ # p   O                                                               ",
"4 V 9 9 Y F F F F F F F F H ] s.` 8.b.j.b.7.I Y 2.Y ' 3.2.F J F F H H H F F F F F F H h q q q   c T K n @ # k K K n @ n # p n J 4 @ n                                                                   ",
"4 B 7 0 H H H F H F F H F H $.$.] ' l.n.b.7.Y I J H Y I I Y Y 3.Y H Y Y Y Y Y Y Y H Y k q w q . 9 Z k F K 4 b : 4 n n B 4 B p @ v P #                                                                   ",
"4 b h z H F F F F F F F H F ` $.H t.l.n.b.b.S.p.~ l.S.S.n.S.b.k.b.L.G.n.n.G.V.H.G.7.k.T w w q . v P t 4 B n 7 c v B h 9 : w.v n 4 O                                                                     ",
"4 b = 0 H F H F H F F F F F Z F Y b.l.b.y.W F Z F F Z Z Z Z Z Z Z H Z Z Z Z Z Z Z F F h q w q   c B c 7 k n 0 n 0 k k 0 : 0 8 0 #                                                                       ",
"4 z ; 0 H H H H F F F F F F H F Y l.l.b.u.t.u.7.7.t.7.7.7.8.3.7.7.7.k.7.7.7.k.7.7.T 7.n q w q   h J F T 0 0 S l   0 F n k                                                                               ",
"4 n 4 0 H F F F F F F H H F F F Y u.n.G.n.l.n.z.k.V.V.b.n.z.y.b.b.b.V.V.n.n.G.b.b.j.k.3.F H n 4   f T 0 6 :                         O                                                                   ",
"4 n 0 z H F F H H F H F F F F F H :.] H y.b.n.k.l.k.E U l.V.b.k.k.k.n.k.b.t.j.n.n.S.i.k e r * * $ @ n B # @ < f 0 4 4 f # 5 4 0 O                                                                       ",
"4 b 0 c H F H V F F F F H F F F F I F ' $.7.n.b.l.b.l.b.l.l.n.b.l.k.z.w.l.l.b.b.b.b.n.S % $ % % $ X v K 0 # # n J 7 9 n ; c k k o                                                                       ",
"4 n 0 h I H H H F F H H H H H H H H H ( ( Y n.l.l.b.a.k.y.t.k.k.j.8.u.T 7.7.n.b.u.u.j.K K 7.T h @ f n J 8 B < k l                                                                                     7 ",
"= k ; 8 Z Z b Z Z Z Z Z b b Z Z b Z Z C Z Z 7.l.b.t.N C b b b b b b b b b b b b b b h b N # n 0     X         @ #                                                                                     c ",
"%X%X#X;X;X:X,X>X;X;X>X:X;X,X:X=X,X;X=X,X>X;X;X;X;X;X-X,X:X:X;X>X>X=X:X,X;X;X>X>X:X>X,XP.n o c 7   X O X X o o X O O # X o o O O o o O O O O o o O O O O O O O O O O O   o o O o O O O   O O O # O O   x ",
"7X0X9XwX7XwXiXwX9XwXeX7X9XrXwX6XuXwX6XrXwX6X9X9X7X7X8XtX7X7X6X6X9X9X9XrX0X6X6X9X0XeXiX&X0 # O O # # # o @ # : # # # # # # # # # # # # # # # # # # # # # # # # # # # # # # # # # # # # # # # # @ # # O T "
};
