/* XPM */
static char *1349981649883[] = {
/* columns rows colors chars-per-pixel */
"100 25 100 2",
"a  c #363929",
"5  c #282722",
"@. c #F5F5F5",
"q  c #2B2C2E",
"O  c #0F1011",
"/  c #565758",
"^  c #525354",
"e  c #2E3224",
"$  c #1A1B16",
"'  c #6F6F70",
"4  c #232425",
"C  c #525435",
"<  c #2A2C1E",
"f  c #2D2D30",
"z  c #36323A",
"{  c #7A7B7C",
"y  c #383625",
":  c #23241B",
" . c #9B9B9B",
"n  c #3E422C",
"V  c #4E5134",
"N  c #464930",
"-  c #1E2017",
"v  c #3B3B3C",
"J  c #3E4041",
"l  c #3C3A36",
"t  c #333524",
"]  c #757576",
"D  c #423A45",
"S  c #3E3B44",
"3  c #1F2122",
"_  c #636465",
"I  c #4A404D",
"2  c #211E24",
"j  c #2F3032",
"K  c #434344",
"B  c #4A4D32",
"7  c #2B2D22",
"&  c #171819",
"p  c #34372A",
"x  c #3B343E",
"O. c #E5E5E5",
"R  c #4C4252",
"Z  c #555A39",
"b  c #403D3B",
">  c #28271E",
"k  c #333334",
"U  c #47494B",
"G  c #483F4C",
"Q  c #524655",
"F  c #453C49",
"M  c #46482F",
"g  c #322C34",
"L  c #494744",
"1  c #1E1E21",
"u  c #353827",
"#  c #161816",
"T  c #504E4C",
"%  c #161718",
"0  c #26292D",
"[  c #777879",
")  c #5D5F60",
"   c #06070B",
",  c #26281C",
"P  c #474549",
"9  c #2A252C",
"8  c #25252A",
"s  c #3B3D2A",
"|  c #949495",
"~  c #5A4D5E",
"E  c #474C50",
"m  c #42452E",
"=  c #201E1B",
"@  c #181717",
"o. c #DDDDDD",
"!  c #574957",
"X  c #11110F",
"A  c #3C3541",
"*  c #1A1B1B",
"r  c #2F3529",
"`  c #6D6E6F",
"X. c #AAABAB",
"#. c #FFFFFF",
"c  c #36383A",
"Y  c #4C4C4D",
"}  c #8E8E8F",
"(  c #5B5B5B",
".. c #A3A4A4",
"o  c #0E0F11",
"H  c #433E50",
"d  c #2C2730",
".  c #0B0C0E",
"i  c #393927",
"+. c #EBEBEB",
"6  c #242922",
"+  c #131415",
"W  c #4C4E50",
"w  c #322F2C",
"h  c #332F39",
";  c #1E211B",
/* pixels */
"4 4 4 4 8 4 4 4 4 4 8 4 4 4 4 4 4 4 4 4 4 4 4 4 4 4 4 4 4 4 4 4 4 4 4 4 8 4 4 4 4 4 4 4 4 4 4 6 4 4 4 4 4 4 4 4 4 4 4 4 4 4 4 4 4 4 4 4 4 4 4 4 4 4 4 4 4 4 4 4 4 4 4 4 4 4 4 4 4 4 4 4 4 4 4 4 4 4 4 4 ",
"4 1 # % & & & & & & & & & & & & % * & * % & & % & & * & & # % & * % & & % % % & * * % % & # % % % % % * % % % % & & & & * & & * & & & & & * % & & * % & & * % & * % % * % & & & % * & & & & * * % * 3 4 ",
"4 * 1 2 & & & & * * % & 2 * * 2 * % * X * * * 4 * & + % 3 4 4 1 % 4 @ % 4 6 4 4 % # 8 * 4 * 4 4 * * * + 2 2 2 8 2 & * & @ * * % * 4 ; - % # > - * O 7 ; % $ : # + ; 7 + ; * & : $ * - $ * $ # X # 4 4 4 ",
"4 & h ~ Q R G R G G * G ! A G Q R Q G % E / ^ / ^ l 8 _ U U ^ ( / ^ = j _ ( U Y @ W W J K K U J W ) T * H F A G ~ G A Q D G R % S U 4 e t * m B V & a N V s m , ; C t + s V M N B B N n B C n + t r 4 3 ",
"4 3 + + % % % % X @ o % & % % & % % % . + * * + % % + : 3 * & * 1 * % % * * 1 * + 3 * 3 3 4 * * 4 * * * & * * * * & @ 1 * @ * + 3 * + # @ + & % $ + + & * - * % + * + + & * @ # # * * * * 7 $ + $ * 4 3 ",
"4 * 3 h g g g 9 g d d d d 9 2 & k k J c c l S l c q 8 X O X + X X + + X % X o + + O + O O O + + X + + + + + + X + + + + + + + + X + + + + + + + + + + + X + + + + + + + + + X + + + X + + o + + X & 4 4 ",
"4 * 8 D z A F z D A A F x d 9 & c ^ W W U E ^ W K D k @ + + + + % + + % + X % + + + + + + & + + % + + X + + % % + + + + + + + + X + + + + + % + + + + + + + + + + + + + + + + % + + + X + % + % + & 4 3 ",
"4 3 + O . o + o . % o o X * O o X X X +   X O O . % $ # + & + & + * & O + % % + % + & O + + O # + + % * % % o o % % + + + % + O * % # + % % O O + % O ; & % & X X + + & * + + O + % + % % + # X + & 4 4 ",
"4 3 & I D x R R G > n : 7 M V n * B m N V M @ a V i a u N B i m @ ; N B , > M a B $ r m : e y > V y a a a u m B M 5 + : B a N n M i N - 6 m m m u + n C * e N V a * Z B n $ % a Z m u N m # m M B s 3 4 ",
"4 * O 4 2 % 4 8 2 . - # O $ : $ . : $ $ , $ . $ , , : : : $ : $ . . # < # O - : : . - , + $ $ + : # : : : : > : @ = X # < : , , O - < + X - : , # . : #   + $ : $ + , X - - . : : - , $ # . # , $ : 4 3 ",
"3 8 q q 9 q 9 9 9 q q q q q q q j q f q q q j q q q q f q q q f f k f q f j f q q j q q f f q q q q q q q q q q d q k q q q q q f q q j f q q q q w q f k q q q q j q q q q k q q q q q f j q q f 0 4 4 ",
"# / @.+.+.+.+.+.+.+.+.+.+.O.#.#.#.#.#.#.#.#.#.#.#.#.#.#.#.#.#.#.#.#.#.#.#.#.#.#.#.#.#.#.#.#.#.#.#.#.#.#.#.#.#.#.#.#.#.#.#.#.#.#.#.#.#.#.#.#.#.#.#.#.#.#.#.#.#.#.#.#.#.#.#.#.#.#.#.#.#.#.#.#.#.#.#.X.+ 4 ",
"* c ' ' ` ' ' ` ` ` ' ' ' ` ] [ [ [ [ [ [ ] [ ] [ [ [ [ [ [ [ [ [ [ [ [ [ [ ] [ [ [ ] [ [ [ [ [ [ [ [ [ [ [ [ [ [ [ [ [ [ [ [ [ [ [ [ [ [ ] [ [ [ [ [ [ [ [ [ [ [ [ [ [ [ [ [ [ [ [ [ [ [ [ [ ] { / * 4 ",
"4 3 + % % % % % % % % % # % + + + % + + # + + # + + + + + + + + + + + + + + + + + + + + + + + + + + + + + + + + + + + + + + + + + + + + + + + + + + + + + + + + + + + + + + + + + + + + + + + + + * 4 4 ",
"4 4 4 4 4 4 4 4 6 4 4 8 4 4 4 8 4 4 8 4 4 4 8 8 4 4 4 8 4 8 4 4 4 4 4 4 4 4 8 4 4 4 8 4 4 4 8 4 4 4 4 4 4 4 4 4 4 4 4 4 4 4 4 8 4 4 8 4 8 8 4 4 4 4 4 8 4 4 4 4 4 4 4 4 4 4 8 4 4 4 8 4 4 4 4 4 4 4 4 4 ",
"4 4 4 4 4 4 4 4 4 4 4 4 4 4 4 6 4 4 6 4 4 4 4 4 4 4 4 4 4 4 4 4 4 4 4 4 4 4 4 4 4 4 4 4 4 4 4 4 4 4 4 4 4 4 4 4 4 4 4 4 4 4 4 4 4 4 4 : 4 4 4 4 4 4 4 4 4 4 4 4 4 4 4 4 4 4 4 4 4 4 4 4 4 4 4 4 4 3 4 4 ",
"4 * + + + % % O X O X O % + X # # . X + O X O O + % O X + O X % % % % % % % % & % % % % % % % % & % % % & + & % % % & % + & % % % % % % % % % % % % % % % % % % % % % % % % % % % % % % % % % & % * 4 3 ",
"4 * 8 q ; ; & k f k k v & 4 k 8 % k k 9 K k q c 4 & q j q q k @ + + + + + X % X + + + + + X % X + + + + + + + + + + + + + + + + + + + + + X + + + + + + + + + + + + + + + + + + + + + + + + + + X & 4 4 ",
"4 * j l 7 6 & J / W ^ / 9 3 E v 3 ) / v k U K E l 0 _ ^ c E ( 5 + + + % % X % % + + % + % + % % + + + % + + + + + + + + + + + + X % % + + + + + + + + % + + + % + + + + + + + % + + + + + + + + + * 4 3 ",
"4 3 X O . % O O X . O . + O + + + & . . . X . . X % . . o . . X o + X . O % X . + + X o o + o X + X O . + & + X O X O % + + O + % X . % + O & % + + X o % + + + + + o + + + + O O O + + O + + % o % 4 4 ",
"4 1 8 F F D A z x h D A D x S h 9 1 / ^ K K ^ q 0 ^ ^ L * / W K U 4 c / W U T E / = F Q z S R g * J W K * U U L K T ^ w & E L * c P U U K W v c + F x F 6 p > : m r M m s + 6 B s m e * n r y s u a 3 4 ",
"4 * 1 g 3 1 d * * g 9 g 9 8 g d 4 X c c c 5 U w % q j k X c v c k @ 4 K k 8 f c c $ 1 g g 8 g 2 & k k c % * j 9 j Y q 4 O 0 c X q w j q q v k q o 0 g 9 O : $ * m > t , : . ; t e e > X 7 > $ - e 5 4 3 ",
"3 3 * & * 1 * * * * * * * * * * * * & & * * * * * * % * 1 % * * * * * % * * * & % 1 1 & * * * * 3 * & & * * * * 1 & * * 3 * & * * * * * * & * * 1 * * * 1 * 1 1 * * * * 1 1 1 & * * * 1 * 1 * * * * 4 4 ",
"& ^ O.o.o.o.o.o.o.o.o.o.o.o.o.o.o.o.o.o.o.o.o.o.o.o.o.o.o.o.o.o.o.o.o.o.+.@.@.@.@.@.@.@.@.@.@.@.@.@.@.@.@.@.@.@.@.@.@.@.@.@.@.@.@.@.@.@.@.@.@.@.@.@.@.@.@.@.@.@.@.@.@.@.@.@.@.@.@.@.@.@.@.@.@.@.#...% 4 ",
"* S | } } } } } } } } } } } } } } } } } } } } } } } } } } } } } } } } } |  . . . . . . . . . . . . . . . . . . . . . . . . . . . . . . . . . . . . . . . . . . . . . . . . . . . . . . . . . . ...` * 4 "
};
