/* XPM */
static char *1349988432948[] = {
/* columns rows colors chars-per-pixel */
"100 67 203 2",
"a  c #323232",
"@. c #6E6E6E",
"9. c #838383",
"O  c #101010",
"'. c #BEBEBE",
"F. c #A7A7A7",
";X c #D2D2D2",
"^  c #5C5C5C",
"-. c #757575",
"n. c #9C9C9C",
"C  c #464646",
"<  c #1E1E1E",
"f  c #353535",
"y  c #2E2E2E",
":  c #1B1B1B",
"0. c #848484",
" . c #686868",
"n  c #404040",
"N  c #434343",
"-  c #191919",
"j. c #949494",
"y. c #8A8A8A",
"-X c #D1D1D1",
"v  c #3E3E3E",
":X c #D3D3D3",
"l  c #3A3A3A",
"t  c #2D2D2D",
"S. c #A5A5A5",
"e. c #878787",
"=X c #D0D0D0",
"*X c #CFCFCF",
"3  c #212121",
"I  c #525252",
"2  c #202020",
"K. c #ABABAB",
"j  c #383838",
"7  c #252525",
"/. c #B9B9B9",
"&  c #161616",
"OX c #C8C8C8",
"(. c #BABABA",
"w. c #868686",
"x  c #3C3C3C",
"R  c #565656",
"Z  c #474747",
"b  c #3F3F3F",
"V. c #A1A1A1",
"k. c #959595",
"k  c #393939",
"g. c #929292",
"G  c #4C4C4C",
"M  c #424242",
"t. c #898989",
"L  c #505050",
"1  c #1F1F1F",
"N. c #9F9F9F",
"u  c #2F2F2F",
",X c #D5D5D5",
">X c #D4D4D4",
"p. c #8D8D8D",
"a. c #8E8E8E",
"[  c #646464",
"E. c #B3B3B3",
"   c #030303",
",  c #1D1D1D",
"P  c #515151",
"9  c #272727",
"oX c #C7C7C7",
"8  c #262626",
"~. c #B7B7B7",
"8. c #828282",
"E  c #575757",
"d. c #909090",
">. c #787878",
"@  c #121212",
"u. c #8B8B8B",
"q. c #858585",
"=. c #747474",
"L. c #ACACAC",
"_. c #BCBCBC",
"x. c #989898",
"{. c #C1C1C1",
"&X c #CECECE",
"`  c #616161",
"$X c #CCCCCC",
"U. c #AFAFAF",
"X. c #6A6A6A",
"T. c #B1B1B1",
"G. c #A8A8A8",
"*. c #737373",
"c  c #3D3D3D",
"Y  c #545454",
"|. c #C3C3C3",
"R. c #B2B2B2",
"}  c #666666",
"c. c #999999",
"J. c #AAAAAA",
"H  c #4D4D4D",
"d  c #343434",
"i  c #303030",
".X c #C5C5C5",
"B. c #A0A0A0",
"2. c #7C7C7C",
"w  c #2A2A2A",
";  c #1A1A1A",
"5  c #232323",
"q  c #292929",
"+X c #C9C9C9",
"/  c #5D5D5D",
"e  c #2B2B2B",
"$  c #141414",
"4  c #222222",
"'  c #626262",
"z  c #3B3B3B",
"{  c #656565",
"`. c #BDBDBD",
"V  c gray27",
"1. c #7B7B7B",
"Y. c #B0B0B0",
"@X c #CACACA",
"J  c #4E4E4E",
"]  c #636363",
"z. c #979797",
"i. c #8C8C8C",
"<. c gray48",
"4. c #7E7E7E",
"v. c #9A9A9A",
"D  c #4A4A4A",
"S  c #494949",
"_  c #606060",
"B  c #444444",
"K  c gray31",
"p  c #313131",
"XX c #C6C6C6",
"H. c #A9A9A9",
"O. c #6C6C6C",
"5. c #7F7F7F",
">  c #1C1C1C",
"!. c #B6B6B6",
"m. c #9D9D9D",
"U  c #535353",
"). c #BBBBBB",
"F  c #4B4B4B",
"Q  c #595959",
"g  c #363636",
":. c #777777",
"#X c #CBCBCB",
"}. c #C2C2C2",
"6. c #808080",
"<X c #DCDCDC",
"M. c gray62",
"#  c #131313",
"A. c #A4A4A4",
"%  c #151515",
"T  c #555555",
"0  c #282828",
")  c #5F5F5F",
"$. c #707070",
"P. c #ADADAD",
"7. c #818181",
"s  c #333333",
"~  c #5B5B5B",
"|  c #676767",
"b. c #9B9B9B",
",. c #797979",
"^. c #B8B8B8",
"r. c #888888",
"m  c #414141",
"=  c #181818",
"s. c #8F8F8F",
"]. c #BFBFBF",
"!  c #5A5A5A",
"o. c #6B6B6B",
"X  c #0C0C0C",
"Q. c #B5B5B5",
"A  c #484848",
"r  c #2C2C2C",
"*  c #171717",
"I. c #AEAEAE",
"W. c #B4B4B4",
"%. c #717171",
"[. c #C0C0C0",
"f. c #919191",
"#. c #6F6F6F",
"%X c #CDCDCD",
" X c #C4C4C4",
"Z. c #A3A3A3",
"(  c #5E5E5E",
"l. c #969696",
"o  c #0D0D0D",
".. c #696969",
"C. c #A2A2A2",
".  c #0B0B0B",
"D. c #A6A6A6",
"+. c #6D6D6D",
"3. c #7D7D7D",
"h. c #939393",
"6  c #242424",
"&. c #727272",
"+  c #111111",
";. c #767676",
"h  c #373737",
"W  c #585858",
/* pixels */
"a.a.a.a.a.t.a.t.a.a.t.a.g.g.a.a.g.a.a.w.2.,.2.,.=.,.2.2.2.2.9.9.2.,.2.2.2.9.%.,.9.2.t.a.x.x.j.j.x.x.x.x.x.j.x.j.x.x.g.g.j.g.g.g.j.j.g.g.j.g.a.g.g.a.g.a.w.t.t.a.t.t.t.a.a.a.a.a.a.t.t.t.t.t.t.9.t.t.w.w.",
"a.t.a.t.t.a.a.t.g.a.a.g.j.g.a.a.g.g.a.w.,.,.2.=.=.2.2.,.2.2.2.2.2.,.2.2.9.%.} 2.9.2.a.a.j.x.j.x.j.x.n.x.x.j.x.j.j.j.n.j.g.j.g.a.g.j.g.g.g.a.a.a.g.a.t.t.a.t.t.t.t.t.t.t.a.t.t.w.a.t.w.t.a.t.t.a.w.w.t.t.",
"t.t.a.a.a.a.t.a.a.a.g.g.a.g.g.g.x.j.g.w.,.,.2.=.=.2.2.2.9.2.2.9.9.2.2.9.2.%.O.,.9.9.t.a.j.x.n.x.x.n.j.j.j.x.j.x.x.j.j.x.j.j.x.j.j.j.j.g.g.g.a.g.g.g.a.t.g.a.a.a.g.a.a.t.t.t.t.t.a.a.a.t.t.t.w.t.t.w.t.a.",
"t.a.a.t.a.g.a.a.g.g.g.a.g.g.g.g.t.w.g.t.2.2.2.=.%.2.2.2.2.2.9.2.2.9.9.2.9.9.2.2.2.9.g.g.x.n.n.x.x.n.x.x.x.j.j.g.j.j.j.x.n.x.j.j.j.j.g.a.g.j.g.a.g.g.g.a.a.a.a.g.a.g.g.g.a.t.t.a.a.a.t.t.w.t.t.a.g.a.t.a.",
"g.g.a.g.a.a.a.g.g.g.a.a.a.g.g.j.9.=.g.w.2.2.9.=.=.2.2.2.2.9.9.2.2.9.9.2.2.t.2.2.2.w.j.a.j.n.x.j.j.x.x.j.x.x.x.j.x.j.j.x.j.g.j.j.g.g.g.g.g.j.g.a.a.g.g.a.t.a.a.g.t.a.a.a.g.t.w.t.t.t.t.t.t.a.t.t.t.a.t.t.",
"a.t.a.a.t.g.g.g.g.j.j.j.j.g.g.j.t.%.g.a.9.,.9.,.%.2.9.2.2.2.2.2.9.2.9.2.w.2.,.O.,.9.a.a.x.x.x.x.x.x.x.x.j.j.n.x.x.x.x.j.j.g.j.j.j.j.g.a.t.a.a.a.t.a.g.a.a.a.t.a.g.t.t.a.t.a.t.w.t.a.t.a.t.a.a.t.t.w.t.w.",
"a.a.a.g.a.a.g.a.g.g.g.g.g.a.g.g.w.%.g.a.2.2.9.=.%.w.9.2.2.9.2.9.9.9.9.w.w.9.,.O.%.w.a.a.x.n.x.x.x.j.j.x.j.j.x.x.j.j.x.x.x.n.x.x.x.x.n.j.j.g.g.a.g.g.g.g.g.t.t.a.g.a.t.a.w.t.t.a.a.t.t.a.w.w.w.w.t.w.w.w.",
"g.j.g.a.g.g.g.g.g.a.g.g.g.a.j.j.t.%.a.a.9.,.2.,.=.9.2.2.9.2.9.2.2.2.2.w.g.x.2.o.o.2.a.j.x.x.x.x.x.x.x.x.x.n.x.j.j.x.x.j.j.j.j.g.g.g.g.g.g.a.a.a.a.t.a.g.a.g.a.a.a.a.a.t.t.9.a.a.a.t.t.a.t.w.t.w.t.t.t.w.",
"a.t.t.g.a.a.g.g.g.g.g.a.g.a.w.w.2.O.9.9.,.=.,.=.o.=.,.2.2.9.2.9.9.9.9.,.=.g.j.=.o.O.9.g.x.x.x.x.j.x.x.x.n.x.x.x.x.x.x.j.x.j.j.j.j.g.a.g.g.j.g.g.a.g.g.g.g.g.j.g.g.a.a.g.g.g.a.g.g.g.g.a.g.a.a.a.a.a.t.a.",
"a.a.a.a.g.a.a.a.g.g.g.g.j.j.a.g.g.,.t.g.w.w.t.w.=.t.t.w.9.2.9.9.w.t.g.,.,.x.a.,.} o.w.g.x.x.x.x.x.j.x.x.x.x.x.x.x.j.x.n.x.x.j.j.j.j.j.j.j.g.g.g.g.a.g.a.a.g.g.a.a.g.a.a.a.a.a.a.a.a.t.a.t.a.t.t.t.t.w.w.",
"g.g.a.a.a.g.g.a.a.a.a.g.g.g.j.j.g.,.t.x.t.9.9.2.,.2.9.2.2.9.9.9.w.9.w.=.g.V.a.2.%.' ,.g.x.x.x.x.n.x.x.x.j.x.x.x.j.j.j.j.j.j.j.j.j.g.x.j.g.g.g.g.g.a.g.g.g.g.a.a.a.a.a.a.a.t.a.a.w.w.w.a.t.t.t.t.w.t.t.t.",
"g.a.g.a.a.a.g.a.a.a.g.g.a.w.9.9.9.%.=.w.2.=.=.=.%.,.=.,.2.2.2.9.9.2.w.,.x.n.g.=.=.%.O.t.n.n.x.x.x.x.x.j.x.n.x.x.x.j.j.x.j.x.x.x.x.x.j.j.j.j.g.j.g.g.g.g.g.a.g.a.g.g.a.a.a.g.t.t.a.t.t.t.a.t.t.w.t.t.t.t.",
"a.a.a.g.g.g.g.g.g.g.g.j.j.a.a.a.g.,.2.g.t.t.w.w.,.9.w.9.w.w.w.9.9.9.t.w.V.x.g.,.} =.=.=.x.x.x.x.x.x.n.n.n.x.x.x.n.x.x.n.x.x.x.x.x.x.x.j.j.j.g.g.g.a.g.g.g.g.a.a.g.a.a.a.g.a.a.a.a.a.a.a.a.a.a.a.t.t.t.t.",
"a.a.a.a.a.a.a.g.a.g.g.g.j.j.j.j.x.9.9.x.x.j.j.g.9.g.j.g.j.j.g.g.g.j.j.w.g.G.j.,.! R O.o.w.n.n.x.x.x.x.n.n.x.n.x.n.x.x.n.n.x.x.x.j.j.x.j.j.j.j.g.g.g.a.j.j.g.g.g.g.g.a.a.a.a.a.a.a.g.g.a.t.a.a.a.t.t.w.t.",
"a.g.a.g.g.g.j.j.j.g.g.g.j.x.j.j.j.w.2.j.j.x.x.x.g.x.x.n.n.x.x.x.x.n.x.9.t.a.x.,.} R ! P } a.j.j.x.x.x.n.x.n.n.x.x.j.x.x.x.x.x.x.x.j.x.j.j.j.j.g.j.j.j.g.j.j.g.g.g.j.g.g.g.g.g.g.a.a.a.a.a.a.a.a.a.t.t.t.",
"a.a.a.a.g.j.j.j.g.g.j.j.x.j.j.j.g.g.g.n.x.x.x.x.x.x.x.n.x.n.x.n.x.x.n.a.t.w.t.g.=.} o.' O.O.,.,.9.n.n.n.n.n.x.n.n.j.x.x.x.x.x.x.n.n.x.x.j.j.g.g.a.g.g.g.g.x.j.a.a.a.g.g.a.g.a.a.a.a.a.a.a.t.a.t.a.a.t.a.",
"a.g.g.g.g.g.a.g.j.j.j.j.j.j.x.x.x.n.n.x.x.x.j.x.j.x.n.x.x.x.x.x.x.n.n.j.j.a.t.9.9.2.t.2.2.%.O.R ! w.w.j.V.V.n.x.n.n.x.n.x.x.x.x.n.x.x.x.j.j.j.g.g.g.g.a.w.O.O.a.g.a.a.g.a.g.g.a.a.g.a.a.a.t.a.t.t.t.t.t.",
"g.a.g.g.g.g.g.j.j.j.j.j.j.j.j.j.x.j.j.x.x.n.n.x.x.n.n.n.n.x.n.x.x.x.g.a.j.g.j.j.g.w.} ! ! R ) H ' ' C H O.t.n.n.x.x.x.n.x.x.x.n.n.n.n.x.x.x.j.j.a.9.%.O.O.' H t.g.a.g.g.g.g.g.a.a.a.t.t.a.t.a.t.t.t.t.t.",
"a.a.g.g.g.j.j.j.j.j.x.x.j.j.x.j.j.j.x.x.x.n.n.n.n.x.n.n.n.x.n.n.n.x.,.9.a.w.! o.j.2.u u g 2.) ' g.! g i v N =.w.a.a.x.x.n.n.x.n.x.x.n.x.x.j.j.9.' P P P o.' } a.g.a.a.a.a.g.g.g.g.g.g.a.g.a.a.g.a.a.t.a.",
"a.a.g.g.j.g.g.g.j.j.j.j.j.j.x.x.j.x.x.x.x.x.n.x.n.x.n.n.n.x.n.n.j.9.w.g.a.t.,.2.j.! : : } g.A ,.o.H C %.a.%.) } ,.2.,.w.x.n.n.x.n.x.x.x.j.t.o.C R ' } o.' ) } j.g.a.g.g.g.g.g.g.g.g.g.g.a.a.a.a.a.t.t.a.",
"g.j.j.j.j.j.x.j.x.j.j.j.x.x.x.x.x.x.x.x.n.x.x.x.n.x.n.n.n.n.n.g.9.%.g.t.%.} %.A.V.u o ' n.R R O.R A O.2.H 2.} o.=.=.' %.w.a.j.x.x.n.n.g.%.P N P o.,.w.=.' R %.g.g.g.g.g.g.a.a.g.a.g.a.a.a.a.a.a.a.a.a.a.",
"g.j.j.j.j.j.j.j.j.x.x.x.x.x.x.x.j.x.j.x.x.n.n.n.n.n.x.x.x.x.g.=.' P o.P 1 @ o v j.} ) a.=.) ) A A ) ! z w.n.%.v H O.,.%.%.O.w.j.n.j.,.P C A ! 2.,.t.2.%.' P 2.j.g.g.g.g.g.a.a.g.g.a.a.g.g.a.g.a.a.g.a.a.",
"j.j.g.g.j.g.j.g.j.x.x.x.x.x.x.x.x.x.n.x.x.x.x.n.n.n.n.n.n.x.=.A v R R q v C g o z Q.j.o.o.} ' ) R o.} %.V.a.N $ i o.o.=.%.=.=.=.,.R C A P } O.t.t.2.=.o.! P 9.x.g.j.g.j.j.j.g.g.g.g.g.g.a.t.t.a.a.a.a.a.",
"g.j.g.g.g.j.j.j.j.x.j.x.x.x.n.n.n.x.x.n.x.x.j.x.x.n.n.x.x.a.N C 2.G.O.O.a.O.i g 6 j.G.! =.} ) o.%.2.9.a.n.2.1 @ R a.O.} 2.%.,.o.v g v ' =.2.w.g.V.a.2.%.! ) a.x.j.j.j.j.g.j.g.g.g.g.g.g.a.a.a.t.t.a.t.a.",
"g.g.g.j.x.j.j.x.j.j.x.x.x.x.x.x.n.n.x.x.n.n.x.x.x.x.n.n.x.! i A 2.E.P j.,.R H g.! t./.} O.} } o.2.t.2.=.w.! o C x.a.) ' ' %.,.,.} R ' ) %.w.j.a.n.t.%.=.) =.x.j.j.j.g.g.j.j.j.g.a.g.g.a.a.a.a.g.a.a.a.a.",
"g.j.j.j.x.j.j.x.x.j.j.x.x.n.x.x.x.x.n.n.n.n.n.V.V.j.j.x.,.g A C C V.P w.O.z o.I.,.n.Q.' O.o.o.=.,.%.O.t.n.,.P a.n.,.P v C %.%.' 2.9.o.) =.j.x.t.9.2.,.9.) t.x.j.j.x.x.j.j.j.j.g.g.g.g.g.g.g.a.g.a.a.a.a.",
"j.j.x.j.j.x.x.j.x.x.x.x.x.x.x.x.n.n.x.n.n.n.V.n.n.n.x.9.N P } R z ' w.%.O.) 2.x.2.G.w.o.%.} O.=.%.O.a.Q.#XE.j.g.w.a.%.) H P 2.o.2.t.%.O.9.n.G.x.,.,.g.9.%.j.x.x.x.x.x.j.j.j.j.j.g.a.g.a.a.a.a.g.a.a.a.a.",
"g.j.j.j.j.j.j.x.j.x.x.x.x.x.n.n.n.n.x.n.n.n.n.V.V.n.x.} 6 ' O.! C z H ,.t.A.t.z g %.! ) H ' 9.=.=.x.#X*XA.H 6 : o u o.=.O.' } =.2.t.t.w.9.9.V.A.9.g.n.2.j.n.x.x.j.x.x.j.j.j.g.g.g.g.a.a.a.a.a.a.a.t.a.t.",
"j.j.j.j.x.j.j.x.x.x.x.x.x.n.x.n.x.n.n.V.V.n.n.n.n.n.g.C g } ' ! H v z A ' o.N 4 z C H ! R R o.%.w.#X<Xn.u : 6 6 4 $ @ O.=.O.' ' O.,.9.2.t.=.O.t.g.j.t.g.n.x.x.x.j.x.x.x.j.j.j.j.g.a.g.g.a.a.a.a.a.a.a.t.",
"j.x.j.j.j.x.x.x.n.n.n.x.x.x.x.x.x.x.x.n.n.V.V.A.V.n.a.C R 2.o.v H P o.O.! C N z z R ) ) ' ! ! o.9.[.a.u H o.,.z z O.i 4 9.,.O.' } w.t.t.g.a.,.9.g.t.a.n.n.x.x.x.x.x.j.x.x.j.j.j.g.g.g.g.g.g.g.a.a.a.a.a.",
"x.j.j.j.j.x.x.n.x.n.n.n.n.n.V.V.V.V.n.n.n.n.n.n.n.n.9.P %.=.%.O.A o.O.! } O.R N N N A P P H C ) } R 4 v w.,.,.} 9.g.t.6 A 9.O.A ' =.t.,.,.w.g.w.a.a.x.n.x.x.x.x.x.x.x.j.j.j.j.g.g.g.a.g.g.g.g.a.a.a.a.a.",
"j.j.j.x.x.x.x.x.x.x.x.n.n.n.n.V.n.V.V.A.A.V.V.V.n.g.%.=.=.P z z R } C z ! =.} g P ) P C z C N z v 1 $ R g.2.' q 9.g.E.' u ) R H ! %.,.2.} o.9.g.a.x.n.n.n.n.n.x.x.x.x.x.j.x.j.j.j.g.g.g.g.g.g.a.a.a.a.a.",
"j.x.x.x.x.x.x.x.n.x.x.n.n.n.V.n.n.n.V.n.n.V.V.V.A.n.o.' } z g A O.! C R %.I./.C u o.%.' C z C 6 g q q a.j.a.=.} 2.n.A.R w.! i N ! ,.,.o.} O.2.2.,.V.n.n.n.n.n.x.x.x.x.x.x.x.j.x.j.j.j.j.g.g.g.g.g.a.a.a.",
"j.x.x.x.x.x.n.n.n.n.n.n.n.n.n.n.V.V.n.V.V.n.V.n.x.w.A g z N P ! P H H ! 9.E.*XV.v ! N   4 1 N P R v v O.g.x.n.I.G.V.,.j.G.w.i q ' O.=.O.' O.t.g.j.n.n.n.n.n.x.n.n.n.x.x.x.j.j.j.j.j.j.j.g.g.g.a.a.g.a.a.",
"x.x.x.x.n.x.x.n.x.n.x.n.n.n.n.n.n.n.n.V.V.V.V.V.n.a.P A ! R o.2.=.%.2.V.Q.'.*XQ.i u u C } ' %.=.o.H H P A P %.=.w.,.w.w.=.O.} 4 A o.} o.H ,.9.a.V.n.n.n.n.n.n.x.x.x.n.x.x.x.j.x.x.j.j.j.g.g.g.g.a.g.a.a.",
"x.x.j.x.x.x.n.x.n.n.n.x.n.n.n.n.n.V.n.V.n.V.V.n.x.t.) P w.a.%.O.) P O.a.x.x.V.A.g @ 9.#X#X[.A.9.O.! ' o.} v z H C H P P A H ! i i ) ) ) H ) A g.V.n.n.n.n.n.n.n.x.n.x.n.x.x.j.x.x.x.j.j.g.g.g.a.a.a.a.a.",
"x.x.x.x.x.n.x.n.x.n.n.n.n.n.V.n.n.n.V.V.V.A.G.I.I.n.a.,.9.w.,.%.! 2.A.A.j.n.x.t.v o.G./.#XE.V.9.N N N } =.R N H ) ) H H R H z u u A C H H i t.A.n.n.n.n.V.n.n.n.n.x.x.n.x.x.x.x.x.j.j.j.g.g.g.g.a.a.a.g.",
"x.x.x.n.n.x.n.n.n.n.n.n.n.n.n.V.V.A.A.A.G.G.G.A.n.2.} A P o.) 2.O.R C %.a.x.=.v 4 o.t.9.G.'.t.' ' P 1 R ,.) C A R ' ! v A A N g 6 A C ) N o.V.V.V.n.n.n.n.n.n.n.n.n.n.x.n.x.x.x.j.j.x.j.g.g.g.g.g.g.g.a.",
"n.x.x.n.n.n.n.n.n.x.n.V.n.V.V.A.A.A.A.A.A.V.n.n.x.O.} } o.g.a.w.,.z q H O.R v z 6 C w.x.2.n./.w.H P o.i } ,.A P A v ! } ) %.%.H 6 A A ) A t.A.n.V.V.n.V.n.n.V.n.n.n.n.x.x.x.x.x.x.j.j.j.g.g.g.g.g.g.a.g.",
"x.x.n.x.n.n.n.n.n.n.V.n.V.V.A.A.A.A.A.V.V.V.A.V.x.,.=.t.o.' w.w.=.A 6 v H O.=.9.o.z o.x.V.V.9.t.2.' C ' R o.z N R ' R o.P o.} N 4 H H ! H w.A.V.n.V.V.n.V.n.n.V.n.n.n.n.n.x.x.x.x.x.j.j.j.g.g.g.g.g.g.a.",
"n.n.n.n.V.n.n.V.n.V.V.V.V.A.A.A.V.V.V.A.V.V.V.A.G.a.! O.,.) ) 9.w.,.) ! w.j.g.t.a.%.C O.a.j.E.! i t.! H =.=.H v g A O.=.O.=.) u 6 A z ) P a.A.V.n.V.V.V.V.n.V.n.n.n.n.n.n.x.x.x.x.x.j.j.j.j.j.g.g.g.g.g.",
"x.n.n.n.n.n.n.n.n.V.n.V.V.V.V.V.V.V.A.A.V.A.G.G.G.j.P ' 2.%.A ! 9.9.2.2.n.x.n.a.a.9.O.! O.O.%.x.A g 2.%.2.w.=.' ) v H ,.t.=.! g 4 H A H ! n.A.V.V.V.V.V.V.V.V.n.n.n.V.n.n.n.n.x.x.x.x.x.j.x.j.j.g.g.g.g.",
"n.n.n.n.n.V.V.n.n.V.V.V.V.V.n.V.V.V.V.V.A.G.G.V.V.x.) N ' ,.O.H ) w.t.a.n.A.V.x.j.9.w.2.H A z A w.P z =.a.t.w.t.9.v i =.w.2.o.i u A A N } n.V.A.A.A.V.V.V.V.V.V.V.n.n.n.n.n.n.x.x.x.x.x.j.j.x.j.j.j.j.j.",
"n.n.n.n.n.n.V.V.V.n.V.V.V.V.V.V.A.V.A.A.G.A.V.V.V.9.P u N ' =.%.' =.t.g.x.A.V.n.A.n.n.n.O.v v v N o.o.%.g.t.g.g.j.2.i z =.2.} u 4 z z C t.A.A.A.A.A.A.V.V.V.V.V.V.V.V.V.n.V.n.n.n.n.x.x.x.x.j.j.j.j.j.j.",
"n.V.n.n.V.V.V.n.V.V.V.V.V.V.V.A.A.A.A.A.A.A.V.V.n.o.! C i z ! =.=.} ,.t.t.x.n.V.V.V.n.I.9.) A A P ' %.=.x.g.=.o.! } o.C A 2.2.g 1 v i ) n.V.A.A.A.A.A.A.A.A.V.A.V.V.V.n.n.n.n.n.n.n.x.n.x.x.x.j.j.j.j.j.",
"n.n.n.n.n.V.n.V.V.V.V.V.A.A.V.V.V.A.A.A.A.A.A.A.w.R R A z q q R =.o.} ,.,.t.g.j.x.n.j.n.j.w.,.' } o.,.w.x.n.9.%.O.o.o.! A ' ,.! 6 4 g t.n.x.n.n.V.V.n.n.n.x.x.x.x.x.x.j.j.x.V.V.V.V.V.n.n.n.n.n.x.x.x.x.",
"n.n.n.V.V.V.V.V.V.V.V.V.V.A.A.A.A.A.A.A.A.V.V.x.O.) C N z i 6 u v %.O.' O.,.2.t.w.j.a.g.a.a.t.w.t.t.j.j.2.a.,.H ' =.=.} R P H P C u ! w.a.a.g.g.g.g.j.g.g.g.g.a.a.a.a.a.g.x.V.V.V.V.V.n.V.n.n.n.n.x.x.x.",
"n.V.V.n.V.V.V.V.V.V.V.V.A.A.A.A.G.A.A.A.A.G.V.,.) ) C v C g i q q g A ! } O.,.,.O.9.w.t.g.g.j.x.n.n.V.V.j.w.g.2.%.o.) ) z i N v C ' 9.a.t.t.g.g.a.g.a.a.a.a.a.g.a.t.t.t.g.x.n.V.n.V.n.V.n.n.n.n.n.n.x.x.",
"V.V.V.n.V.V.V.V.A.A.A.A.A.A.A.A.A.A.A.A.A.a.' C N z R P H v i z g 4 1 A R ' %.,.=.2.2.2.w.t.g.j.j.t.g.g.a.g.9.,.) H z i C v i A ! %.t.a.t.g.g.g.j.j.j.j.j.j.j.j.g.a.g.j.x.n.V.A.V.V.V.V.V.V.n.n.n.n.n.x.",
"n.n.n.V.V.V.V.V.V.V.A.V.V.A.A.A.V.V.V.n.O.C C g q 4 6 z N N v u u i 4 : z ! ! o.,.2.9.9.w.9.w.t.t.,.} } ) H C ) ! A C A ) } ! ) =.V.G.I.G.E.E.E.Q.E.Q.Q.Q.Q.Q.Q.Q.Q.Q.E.Q.Q.'.I.V.V.V.V.V.A.A.V.V.A.V.A.",
"V.A.A.G.G.G.G.A.G.I.I.I.E.I.I.I.I.V.w.P 4 C R ! H N q 4 6 u i v i u q 4 4 q N P ! O.,.,.,.,.,.,.%.' ,.=.2.) A ) ,.%.o.O.o.' } %.V.oXoX#X#X#X#XoX#XoX#X#XoXoXoXoXoX#XoXoXoXoXoXE.I.E.Q./././.Q./././././.",
"/.'.[.[.[.'.[.'.oX[.oX[.oXoX[.'.G.=.q : u i z g v R R q 4 $ : 6 z z 6 1 4 1 6 z N H R ! ! } O.o.=.o.) 2.w.2.9.%.,.,.%.) R R ) n.oXoX#X#X#X#XoX#X#XoXoXoX#XoXoXoXoXoXoXoXoXoXoX[.oX#X#X#X#X*X#X#X*X#X#X#X",
"[.oXoX#X#XoXoXoXoX#XoXoXoX#XoXG.A 6 6 q g i N g v P ' P i 4 1 $ : u g 4 1 6 4 6 6 A C A A ! o.,.} %.' %.=.=.=.O.=.%.P R A P j.oXoXoXoX#X#X#X#X#X#XoX#X#X#X#XoX#XoXoX[.#X#XoXoX#X*X*X*X#X*X#X*X*X#X#X#X#X",
"oX[.[.#XoXoXoXoXoXoX[.oX[.I.=.C i q i N g v A R P N H ' ! N u 4 : $ u g 4 : 1 q u i g N H H ) O.R A H P P } ' ' ) } A C P t.'.#X#X#X#X#X#X#X#X#XoX#X#XoXoXoXoX#X#XoXoXoX[.[.#X*X*X*X#X*X#X*X#X#X#X#X#X#X",
"[.[.[.[.oXoXoX#XoX#XoXI.,.z 4 z H A v u C v 6 i N i N C ! P R g q 1 : q i 6 $ $ q z z i u q A H N v z 6 g A C H N R ! P t.[.oX#X#X*X#X#XoXoXoXoX#X#XoXoXoXoX#XoX#X#XoX[.'.'.#X;X;X*X*X#X*X#X#X#X#X#X#X#X",
"[.oXoX[.[.oX[.oX[.n.) z q u g q g P H 6 g A H z g v z A ) ! ' P z i $ $ 6 g q @ 1 i z C C z C q z v z A C H C N v H } ,.'.#XoX#X#X*X#X*X#X#X#X#X#X#X*X*X*X#X#X#X#X#X#X#XoX/.oX*X*X*X*X*X#X*X#X#X#X#X#X#X",
"[.[.oXoXoX[.'./.,.i 4 i v z z g z g v g v C N H R P R A A H ) P R A g : : i z 6 4 4 1 N z P A z q g i g 6 z g z v P 2.E.*X*X*X;X;X*X*X;X;X*X*X*X*X*X*X*X*X*X*X*X*X*X*X*XoX'.oX*X*X*X*X*X*X*X#X#X#X#X#X#X",
"oXoXoXoX#X*X/.o.g 6 u z g g v N z u u u P ) N q C P P ! A C N i H N H z $ u g v q q 4 g ! ' C A C H H C P R R ! ) ) ,.E.*X*X*X;X*X;X;X*X*X*X*X*X*X*X*X*X*X*X*X*X#X*X*X#X[./.oX*X*X*X#X*X*X*X*X#X#X*X#X#X",
"#X#X#X*X#XE.%.i z i g C N H P i C H R R C u P ' u C N g ! ' C i i A C C C 4 6 v v z i z ' 2.,.o.H H C H P P P ! 2.G.Q.oX*X;X*X*X*X*X*X*X*X*X*X*X#X*X*X*X#X*X*X*X*X*X*X*XoX/.[.*X*X*X#X*X#X*X*X*X#X#X#X#X",
"oX#XoXG.O.z q q u q v z q z H H A P H A C 1 @ A ! i v 6 : u z ! v z H C v g 4 i C A R ) } t.2.) R R H C v A v v w.#X,X;X;X;X;X;X;X;X;X;X;X*X;X;X;X*X;X;X*X*X*X;X*X;X*X*X#X/.'.*X*X*X*X#X*X#X#X*X*X#X#X#X",
"Q.j.} i 6 i z g g v R H N N R g 6 g H o.o.%.R v v N R ' A q : q N 6 i N z v g 6 i C R o.j.G.G.a.P v C C z R ! ! ' j.#X;X;X;X;X;X;X;X;X;X;X;X;X;X*X;X*X;X*X;X*X*X*X;X*X*X#X/.'.#X*X#X*X#X*X#X*X*X#XoXoX'.",
"! u i 6 i i q g z N H C H R P i N N v H v C } %.) q $ N o.} C $ i z q i g z C q i N A ' j.Q.'./.j.) C i i v H O.o.j.#X;X;X;X;X;X;X;X;X*X*X;X*X*X*X;X*X*X*X*X*X*X*X*X*X*X#X'./.#X*X*X#X*X#X*X#X#X#XoXQ.G.",
"i 4 4 4 1 4 v P N N A N g C v A ! o.} P v C A R o.O.R C C ! ) ! 4 i g u g g C N 1 z H o.j.E./.Q.x.o.H z i C z 9.[.#X*X*X;X;X;X;X;X;X*X;X;X*X;X*X;X*X;X*X*X;X*X*X;X*X*X*X*X[./.oX*X*X#X*X*X#X#X#X#XoXQ./.",
"H A q 6 u u i i u v H A q g R ) R ! o.! H o.! N C O.O.C i v R H A 1 4 q q z z A g 4 z A 2.Q.'./.I.t.) R ' C A 2.[.;X;X;X;X;X;X;X;X;X;X;X*X;X*X;X*X;X*X*X*X*X;X*X*X*X*X*X#XoXQ.'.#X*X*X*X#X*X#X#X#X#XoX#X",
"z i 6 g C R C i g N R A N C A P P P ) P v i P } v g ) ! } v C v N v 4 q 4 i z A R g : @ i O.G.'.I.V.O.g A H O.A.#X;X;X;X;X;X;X;X;X*X;X;X*X;X*X;X*X*X;X*X*X;X*X;X*X*X*X*X#XoXQ.'.*X*X#X*X#X#X#X#X#X#X#X#X",
"u 6 z g N R P v C P A H ! N A ! P o.' N i v C R } R g N P ! R g N C g g q 6 g C C N N 4 @ 4 C j.I.n.2.) C P 9.Q.*X;X;X;X;X;X;X*X;X;X*X;X;X*X;X*X;X*X*X;X*X*X*X;X*X*X*X*X*X#X/./.#X*X*X#X#X*X*X#X#X#XoXoX",
"q g v q u H H N C H i A C P } ! ! =.) ' ! C P R P o.) v i i v C i v g u q q z N A N H ) v u 4 N n./.V.o.v C a.#X*X;X;X;X;X;X;X;X;X;X*X;X*X;X*X*X*X*X*X;X*X*X*X*X*X*X*X*X*X#X'.Q.oX*X*X*X*X#X#X*X#X#X#X[."
};
