/* XPM */
static char *1349980971715[] = {
/* columns rows colors chars-per-pixel */
"100 56 178 2",
"a  c #333333",
"@. c #69685F",
"9. c #908D84",
"O  c #171817",
"F. c #CFA9A9",
"^  c #474847",
"-. c #807E70",
"n. c #A6A29B",
"C  c #2D3543",
"<  c #252B24",
"f  c #3B3937",
"y  c #273135",
":  c #1F2B3E",
"0. c #9A8E87",
" . c #525353",
"n  c #502120",
"N  c #444336",
"-  c #1E2736",
"j. c #B49880",
"y. c #9E998E",
"v  c #462121",
"l  c #461919",
"t  c #2A2F39",
"S. c #CEA3A2",
"e. c #9B9885",
"3  c #29272A",
"I  c #364155",
"2  c #262729",
"K. c #C6C2BB",
"j  c #3C3B3A",
"7  c #382323",
"/. c #FED3D3",
"&  c #151B26",
"(. c #FFD8D8",
"w. c #999783",
"x  c #521E1E",
"R  c #38465D",
"Z  c #2D394D",
"b  c #4A2121",
"V. c #A7A6A1",
"k. c #B19B88",
"k  c #421817",
"g. c #B29783",
"G  c #383F4C",
"M  c #214723",
"t. c #9C968E",
"L  c #3F4041",
"1  c #292827",
"N. c #B1A89B",
"u  c #2E3032",
"p. c #9D9F9B",
"a. c #A89786",
"[  c #474C55",
"E. c #DBD6CE",
"   c black",
",  c #282726",
"P  c #3A424C",
"9  c #213D20",
"8  c #302F2D",
"~. c #FFCFD0",
"8. c #888A8A",
"E  c #3F5057",
"d. c #A29A8C",
">. c #8D8B7B",
"@  c #1D1D1E",
"u. c #9C9690",
"q. c #948D89",
"=. c #817F6E",
"L. c #C9C4BC",
"_. c #E8E3DD",
"x. c #A09E99",
"`  c #504F4C",
"U. c #CAC6C1",
"X. c #5A5956",
"T. c #D2CCC5",
"G. c #D2ABA9",
"*. c #7A7C72",
"c  c #51201F",
"Y  c #3C4B51",
"R. c #D6D1CC",
"}  c #494E5C",
"c. c #A3A18D",
"J. c #CFBCB9",
"H  c #333E52",
"d  c #363837",
"i  c #2C323C",
"B. c #909BA4",
"2. c #A88E76",
"w  c #2A2730",
";  c #1C2739",
"5  c #2B2B2B",
"q  c #31302E",
"/  c #494943",
"e  c #272B33",
"$  c #3E1A1A",
"4  c #27282A",
"'  c #4F504F",
"z  c #4C1E1E",
"{  c #4B4F54",
"`. c #FFEBEB",
"V  c #484739",
"1. c #93907D",
"Y. c #CCC8C3",
"J  c #2F4140",
"]  c #51504F",
"z. c #A49D94",
"i. c #9E9991",
"<. c #908E7E",
"4. c #B2957E",
"v. c #A7A095",
"D  c #3B3E42",
"S  c #333A43",
"_  c #4C4B4B",
"B  c #42413E",
"K  c #364246",
"p  c #2E3A3E",
"H. c #C1BCB6",
"O. c #63625B",
"5. c #96A077",
">  c #262626",
"!. c #FFC6C7",
"m. c #AAA499",
"U  c #3B4454",
"). c #E5E1DA",
"F  c #333C4C",
"Q  c #384763",
"g  c #343539",
":. c #8D867C",
"6. c #7A95AA",
"M. c #A3A898",
"#  c #201F1F",
"A. c #C7A2A0",
"%  c #22211F",
"T  c #364359",
"0  c #2E302E",
")  c #474849",
"$. c #676864",
"P. c #CDC8BF",
"7. c #8F8C87",
"s  c #3A3636",
"~  c #484644",
"|  c #4F5050",
"b. c #A9A396",
",. c #95857A",
"^. c #E4DFD9",
"r. c #95938A",
"m  c #413E3C",
"=  c #1F2020",
"s. c #A5978A",
"!  c #444443",
"o. c #5A5A59",
"X  c #0A0A0A",
"Q. c #EDCBCB",
"A  c #323740",
"r  c #2B2E32",
"*  c #1F1F20",
"I. c #F3C0BF",
"W. c #DED9D1",
"%. c #6C6B62",
"f. c #AD9C8C",
"#. c #656663",
"Z. c #B9B4AD",
"(  c #44464A",
"l. c #BC9F8A",
"o  c #141414",
".. c #595754",
"C. c #AFA9A1",
".  c #080807",
"D. c #C3AAA7",
"+. c #68675E",
"3. c #A18D7C",
"h. c #BE9680",
"6  c #362323",
"&. c #7D7B6C",
"+  c #161718",
";. c #838171",
"h  c #353A3D",
"W  c #364561",
/* pixels */
"m.z.c.y.q.i.n.i.s.d.d.y.z.t.z.i.d.z.t.t.d.s.s.d.u.r.u.9.n.z.i.r.z.x.a.s.p.B.u.0.z.z.z.z.z.z.z.z.z.z.z.x.z.z.z.z.z.x.z.z.z.z.i.z.z.z.i.z.i.z.z.i.z.z.i.z.z.t.i.i.i.i.d.u.u.z.t.t.t.d.u.t.t.t.t.t.t.0.t.y.",
"l.h.M.r.8.r.r.t.2.3.5.w.r.z.m.v.N.C.d.q.k.g.j.f.z.>.u.7.C.m.x.0.v.V.4.g.p.6.0.,.v.v.z.v.v.z.v.v.z.v.z.v.z.v.v.v.v.z.d.z.z.z.v.z.z.d.z.z.z.v.z.z.z.z.z.z.v.v.v.v.v.v.v.z.v.z.v.z.z.v.z.v.v.v.v.z.v.v.z.z.",
"Z.B ~ A.G.S.J.G.S.F.F.F.D.m f j d f f j d d j j s j j j f f j j j j j j s m m j f j j d j d j j j m @.! f s j j j s X.X.o.^ ! ....X.X.] j f f f f s f j j f j d s f j f j f j j j f j d j f j f j s ..L.",
"i.1 s I.(./.`./.!.~.~./.Q.3 @ > * * > > > * > * > > * > * > * > = = = > % * * > * > * > > * > * # 3 @.a > > * * a > 8 w 1 > > 4 1 u 5 1 > > = > = > % > * # > > > * > # > * # > * # > > > * * > > + / ).",
":.0 8 m m ~ B ! B ! ! ! m , > , , , 2 , , , , > > > , , , 2 , , , , < 1 , 1 > 1 , , , , 2 , , , > 8 %.a 5 , 2 > B _ g ! ^ ! u > > > > > 2 , > , < 2 > 1 4 > , , > 4 1 > , > , , 2 , , , , , , 1 , @ ` ^.",
":.0 5 k k l k y S p S J > > > > > , > > > 2 > 2 > > > > > > > , 2 > 2 > > > > > > > 2 > > > 2 > > 8 %.a s 1 > 2 > , , , 1 1 > > > > > > > > > < > > > > > > > < > > > > > > > > > 2 > > 2 > > > , @ _ ^.",
":.u 8 x b c z t K Y S K h > 2 > 2 > , > > 2 > > > > > > 2 > > > > > , > > 4 > > > > > > > > > , > 8 %.u 1 , , 2 2 > , > < > , 1 1 4 1 1 1 1 1 4 , 1 1 > 1 2 1 1 1 1 4 1 , , , , , , , 2 > > > 2 1 @ _ ^.",
":.u 8 x b z b i K S h > > > > , > > > > > > > > > > > , > , > > > , > > > > > > > , 2 > > , > 2 > 5 %.a 0 5 8 8 8 8 0 5 a 0 5 w 5 5 1 5 5 w 5 5 w 5 1 8 1 0 1 w r 1 1 8 w 5 5 1 0 1 > > > > > , 1 @ _ ).",
":.8 5 x b x z p E S i r > < > > 2 > > > , > > > > 2 > > > > , > > , > 2 > > > > > > > > > , > , > 8 %.g 0 5 0 u u a 5 a a a , , 1 1 w 1 1 w 1 1 w 1 1 1 w 1 w 1 1 1 1 w 4 1 1 1 1 1 < > , > > > , @ _ ^.",
":.8 8 6 6 7 6 w u u h r > > > > > > > > > 2 > > , > > > , > > 2 > > > > > > > > > > > , > 2 > > > 8 %.a , , , > > > > > > > > 2 > 2 > > 1 1 , 1 < > , > , < > 2 1 1 5 5 w 1 1 5 r 1 , 2 > 2 > > , # _ ^.",
":.d 8 e 4 = > > < > % > > > > > > > > > > > > > > > > > > > > > > > > > > > > 2 > > > 2 > > > > > 5 %.a t H i B ! L L ! a j B D ! D ! B a S F t m ! ! j ! a j B 1 > < > > > > > > > > > > > > 2 , @ _ ^.",
":.s 0 1 0 a 5 a 0 u 0 1 0 1 0 q 0 1 0 8 1 0 8 a 0 0 8 0 w 8 5 0 5 5 a 5 a a , > > , > > , > > , > 8 %.a g g , 8 a a g a , a a a a 8 d 0 8 r t r a 8 u a u 0 a 0 , > > > > > > 2 > > > > > > > > 1 @ _ ^.",
":.d 5 , 5 a a a u w a 5 0 a 5 a a 8 8 w a 8 8 a 0 5 a a 5 8 a a a 5 a a 5 a , > > , > > > > > 2 > 8 %.a 5 > > > 1 > > > > > = > > > = > > % > > > > > > > > > > > > 2 > > > > > > > > > > > > > , @ _ ^.",
":.d 0 , a a a , a 8 a , > > 2 , > > 2 > 2 > > 2 > > > > < > 2 , > , > 2 > > > > 2 > , 2 , > > , > 5 %.a d 1 > > 4 > > > > > > 2 > > > > > > > > > > > > > > > > , > > > > > > > 1 1 , , 1 , , > 5 # ` ^.",
":.d 0 2 5 a 8 0 a 8 8 5 , , , 2 , 2 > > 2 , , , > > > > > > > > , > > > > > > > > , > > > 2 > > > 8 @.5 > , > > > > 1 1 , > > * 1 0 1 w , 1 > > 4 4 * > > 1 > 4 > > > 1 > = 4 4 @ @ @ @ * @ @ @ # o ! ^.",
":.d 5 , , 0 1 u a u 0 a a a u 8 8 a 0 a a w 8 , > > > > > > > > > > > > > > > > > > > > > > , > > a O.+ 1 u 4 0 % + w a 5 a , @ d a q 0 1 1 w + ; - & 0 4 w > 8 O > > 5 > & : & . X X X X X X X X   f ).",
":.d a , , 0 1 a a 0 0 a 5 5 u u 8 a 5 a a , 1 0 1 r 1 1 0 w 1 w 0 1 r 1 0 1 > > > > , > , > > > > 8 %.d a , > > , w 1 1 1 1 , 1 1 , , , , , , 1 5 , 5 , 1 5 , , 5 5 , , , 5 5 5 1 8 1 , 1 , , , 5 # ` ^.",
":.s w , w 8 0 u u a a a a a a , 5 0 1 5 0 w 0 5 1 1 0 1 8 8 , 0 0 1 1 1 0 1 > > 2 > > > > > 2 , > 5 %.a , > > 2 5 q a a 0 u 0 u a q a 0 8 a u w 8 0 5 5 1 5 , 8 5 5 5 5 5 0 5 5 1 w , > 2 > 2 > , @ _ ^.",
":.d a , , , , , 1 1 1 w , 5 , > > > > > > > > > > > > > > > > > > > > > > > > > , > 2 > > > > > > 8 %.a 1 , > > S A d F A t a 5 d ( ! d a 8 u d _ _ a 5 j 8 , > , > > > > > > > 2 > > > > > > > 1 @ ' ^.",
":.d 8 > a 5 a 5 0 0 4 8 5 w a 1 5 5 a 1 , a 5 5 u w 8 8 5 0 1 u w 0 w 8 8 5 u 1 > > > , > > > , > 8 %.a , > > > e w I F G T S g j u ! _  .B j g B _  ._ d ( j a > 2 > , > > > > < > > 2 , > > , , @ _ ^.",
":.s 8 , 8 a a 5 , , , 3 1 , , , , > 1 2 2 , , , 1 2 , , 1 1 , 1 , 1 > 1 , 1 w 1 > > , > < 2 > 2 > 5 %.a 1 > 2 > > > w , F S ( ( _ _  ._ ( ~ d d a s j a > 5 5 3 > 2 > > > > 2 , 2 > > > , > > > , # _ ^.",
":.d w , 2 > , a 5 a 5 8 u u 5 0 u r 8 a 5 > > 2 > > > > > > > > > > > > > 2 > > > > 2 > > > , > > 8 %.a 1 > , > > > > > > 5 ` ~ _ ~ g ( ] 0 , 4 3 , , > > > > > , > , > , > > > > , , > > > > 2 , # / ^.",
":.d 0 , , > w u 5 a 5 a a a 0 5 d 0 8 g a 3 , , 2 , , 2 , 1 , , 2 > > 1 , , , > > > > > > > > > > 8 %.a 1 > , > > > > , > 2  .~ a d d > 1 > > > > > > > > > > > 2 > > > > > > 2 > , 2 > > > > > , @ _ ^.",
":.d 0 1 > > 1 u 5 0 a 8 5 u 8 8 0 a 8 8 a 5 a a r 8 8 8 0 a 5 u u r 8 8 , > > > > > > > > > > 2 * 8 %.u 1 2 > > > > > > > 2 { [ D d ! > > , > > > > , > > > > 2 > , > > > > , > > > > > 2 > , > , @ _ ^.",
":.d u 5 1 1 1 d u a u 8 w a d u a a 0 a d a 0 u u a s 5 a a u u a 8 8 1 0 1 1 1 > 1 1 1 1 1 4 1 , a %.a , > 2 , > > > 2 0 > C Z t d _ > > > 1 > , > > > > , > > > > > > > , > > > > , > 2 > , > , * _ ^.",
":.> @ O o o O > @ N q @ > * > O * > % @ > @ @ # # > @ @ O > > @ > @ > > @ o o o o o o o o o o o o @ +.g , > , * ! a 5 , a > % % > > > > > > > > > > > , > 2 > > > , , > 2 > > > > > > > > , > > 1 * _ ^.",
"H.5 O O o o + > @ V 8 + * + O + + @ @ + @ + @ O O @ O O + @ @ + + + O O o o o o o o o o o o o o X @ %.d , 2 2 > u 1 0 > > > , , 2 1 1 2 > > > > 2 > 2 > > > > , > 2 , > > > > , , > > , > > , > , @ _ ^.",
"Y.j a 5 w , , 1 5 > 1 , , , , 2 , , , , , , > 2 1 , , , 1 > > 4 > 1 1 1 2 1 1 2 w 1 1 1 4 1 1 1 , q %.a a , > , 8 1 > > > > , > > > > > > > > > , > > > , > > 2 > > > > , > 2 > 2 > > > > > > 2 , # _ ^.",
"P.d a > 5 5 5 a 0 0 5 a 1 a 8 8 a 8 5 8 w 8 0 8 a 0 8 0 w u 8 1 0 5 a 5 u 0 > > > > > > > > > > > 5 %.a 0 , > , > , > , > > > > > > > > > > > 2 > > > > > > > , 2 , > 2 > > > > > > > > > , > 2 , @ _ ^.",
"Y.d 0 1 a a 0 a 8 u 0 8 a , , , , , , , > 4 1 1 , , , , 1 1 1 , , , , , 1 1 > > , > > > > 2 > > > 8 %.a 5 5 5 5 5 5 5 8 5 0 5 5 w 0 0 1 5 0 5 5 5 5 0 5 5 5 5 5 5 5 5 5 5 5 5 5 1 8 < 2 > > > > , @ ` ).",
"Y.d 8 , , > > > > > > > 2 > > > 2 > > > > > > > > > > > > > > > > > > > > > > > > > > > > > > > > 8 %.a 8 1 0 g 0 8 u u u 0 , , 1 1 , 1 , , , , , , , , 2 , , , , , , , , , , , 1 > > > > > > , , * ( P.",
"U.d 5 < < > 8 8 a 0 5 5 , 2 > > 2 > > > > > 2 > 2 > > > > > > , > 2 > > > 2 > > > 2 , > > > > > > 8 %.s 5 3 , , , , 1 , 5 1 w , 1 1 1 5 1 w 5 0 w 5 5 5 0 0 w 5 5 5 5 5 0 0 w 5 w 0 , > , 2 > > , > f z.",
"Y.j 0 9 M S } [ j ! m a > > 2 2 > > 2 > > > > 2 > > 2 > > > 2 , 2 > > > > > 2 > 2 > > > > > 2 > > 8 %.a 5 i u a g d u a 0 a g d d 0 0 u C r > > > > > > > > > > > > > > > > > > > > > 2 > > > > < = m m.",
"U.d 5 % w F F D d a a u 8 8 > > > * > > > > > > > @ > > , > > > > > , > > , > > > > > , , > > , > 0 %.u S F t m ! m ! m 8 j j ! ! s u t Z e > > > > > > 2 > > > , > > > , > > > , > > > > , , > 1 = j m.",
"Y.d 0 > < % 5 ' ..'  ._ d U C e 1 j B w t C t 5 j ! m 8 > > > > > , > > > 2 > , > , , > > > > > > 0 %.s 8 > > * t t 5 C i e 1 5 6 e 1 s j m , u s 5 > > > , , > > > , > > > > 2 > > > > > , > > 4 > m b.",
"Y.d 0 > > > 0 ' ' _ ` ! d [ ( D _ o.! ! [ ( r 0 d D d a > > > > > > 2 > , > > > > > > 2 2 > , > > 8 %.d , > , > t e U I G H S g m d j h !  .' ! h ^ 8 > > > > 2 > > > 2 > > > , > 2 , > > > > 2 > # j m.",
"U.d a > < > 1 ~  .' _  .d ! a 1 r a 8 1 8 8 > > > > * > > > 2 , 2 , > > > > , > > > , > , > > > * 8 %.a , > > > > > w 2 ! ( S _ d s m ' ! ^ ' s , a 5 > > > > > > > > > , 2 > > 2 > > > > > , 2 < * j m.",
"U.j 8 > > > e R H !  . .' _ s ( d h j _ u D ~ j > , > > , > > > > > > , > > 2 > > > > > > > > , > 8 @.0 , > 2 > > > j B j _ j j j ^ g .._ 5 0 , > > > , > > > , > , 2 > > > > , > , > , > > > > , > m v.",
"U.j 5 > > > e W H ! _  . .! m G R P 8 u u 1 5 1 , > > > > > > > > > > > > > > > , > > > 2 > > 2 > 8 %.a , 2 , > d 1 1 0 5 5 3 w 5 5 0 , 3 2 > > > , > > > > > > > > , > 2 > > > > > , > , > > > > > j m.",
"U.j 5 > > > w H F ! ! ( B ! _ _ ! g g H H 8 > > > > > > > 2 , > , > > 2 , > > , 2 > > , > > > , > 5 %.a 5 , 2 > j ( d ^ j u d ^ d ^ ( 1 > 2 > > > > > > 2 , > > > , > > > , > > > > > > 2 > > , > % m m.",
"U.j 0 > > > > , > > > % > > > * > > > > > > > > > > > > > > > > > > > > > > > > > 2 > > > 2 > > > 8 %.8 a , % > > # > * > > * # * * * > > > > > > > > > > > , > > > , > > > > , > > > , , > 2 > > > j b.",
"U.j w > , > , 0 w 4 > r 1 > 5 5 1 1 1 1 , 5 1 , 5 5 , , 1 , 5 , , w 1 1 0 1 , 5 > > > > > > , > > 8 %.a e C u d d d g d 0 a s j s d j m a 5 8 C i , > > > 2 > > 2 > > > , > > 2 > > > > > > > > > @ m v.",
"U.j w > > , 2 , 8 a a 8 u 8 u d 8 8 u 8 8 a a w a a 8 u a 8 a e a 0 u 0 a 0 8 5 , > , > > , 2 , > 5 %.8 h F r d B j B j q j d j d j j L d 8 t C i > > 2 , > > > > > > > > > > > > > 2 > > > > 2 4 @ ^ T.",
"U.j 8 > > 2 2 1 8 8 a 5 q 0 0 a 8 8 e u q u u q 8 u 0 u a 0 8 8 8 8 u 8 w a a < > 2 > > > > > > > 8 @.a 8 > > > C t w C i w 5 5 q w , a B B , a s 0 1 > > > > , > 2 > , 2 > , > > > , > > , > > , @ _ _.",
"U.j 5 > , 2 > 1 8 8 g 8 0 0 8 u u u , 1 1 1 1 1 > 1 1 > 1 4 1 w , , 2 1 , w 1 1 > > > , > 2 , > > 8 %.d , 2 > > r 0 I H P T F g j j m j ! ' ' ! d ( q > , > > > , > > > 2 , > > > , > > > > , > , @ _ ^.",
"U.j 8 > > > > 5 3 > 2 2 > > , > 5 , 2 > > > > > > > > > > > > > > 2 > > > > > > , > > > > > > > > 5 %.a , > > , > > w 2 ! ( S _ d s m ! L ' ..' ! ' j > > > 2 > > > > > > > , > 2 > 2 , > , > > , # _ ^.",
"U.h 8 > , > e T F B ( ! _ ^ _ ' s G T A ( ) ( ! ^ B ! _ d > 1 1 , 2 , 1 > > > > > > > > > > > 2 > 8 %.s , > > > > > j ! d _ d s j ( d ' _ 1 1 1 w 0 1 > > , > , > 2 > , > , > > > , > > > 2 > > 1 @ / ).",
"Y.j 5 > > > 8 _ ! ^ ! d  . .' _ ~ ( ( d U H h _ ( ( ! _ d j ! ^ m C T F 8 > > > > 2 , > , > > , > a %.a , > , > g 0 1 0 0 1 w 0 1 0 0 2 2 > > > > > > , 2 > > > , > > > > > > 2 > > > > > > , > 1 @ ` ^.",
"U.j 5 > > r u t 1 > > > * > % > > > > > > > > > > > > > > , > > > > > > > 2 > > > , > 2 > > > 2 > 8 %.d 0 2 > > h ! a ( d a a ~ d ( ! , > > , > > > 2 > > , 2 > , > > > > , < > > > > , > > > > , @ _ ).",
"U.d 8 > r F F Q S 0 g a u 5 0 > > > > > > > > > > > > > > > > > > > > 2 > > , > > > > > > , > > * 0 %.5 a 1 > > > > > > > > > > > > > > > > > 2 > , , > > > > > > 2 > > > > 2 > 1 > > > > > 2 > 1 @ _ ^.",
"U.d 5 > > % w W H (  ...X._ ! s > > > > > > > > > 2 > > > 2 > > , > > > , > > > > > > > > > > , > 8 $.> > > > > > > , , > > > > 2 2 > , , > > > > 2 > > 2 > > > > > 2 > > 2 > > > > > > > , > > , @ _ ^.",
"U.j 8 > < > r W F _  ._ ..~ S U A 8 j h d 8 > 1 , , , , , , 1 , > 1 , , 2 1 2 1 1 1 , 2 , 1 > , > 8 #.> , 2 < > , , , > , , 2 , , , , , , > , , , , , , , , , , , , , , , , 1 > 4 1 2 , 2 1 < 4 1 @ ` ^.",
"Y.a 1 > > @ 4 W Z / _ _ D ! ( G t !  .' d > @ > * * * > @ @ # * > @ * * * * * * * > * > % > @ * & 5 #.* > * > * * > % % * * * * * * * * * # * * * * * * * * * * * * * * = * * * * * > @ = = = = > + ~ ).",
"L.-.&.&.&.&.>.*.r.b.c.c.e.c.v.c.c.c.c.c.w.w.w.w.e.e.e.e.e.w.e.e.w.w.e.e.e.w.e.w.e.>.;.&.;.>.e.e.1.=.d.>.>.>.>.<.<.>.e.e.e.w.e.e.e.w.e.e.e.e.e.e.e.e.e.e.e.e.e.e.w.e.e.e.e.e.e.e.e.e.>.>.<.w.w.w.e.:.9.R.",
"J.^ B B B B V j B V ! / / ! V / ~ ! V ~ ~ ^ / / ^ / / / / ^ / / / / / / / / / / ^ V B B V ( ^ ! V m B ~ ! ! V ! ! V / ^ ~ ~ / / / / / / / / ~ / ^ / / / / / / / / / ^ / / / / / / / ~ / / / / / / m O.E.",
"K.4 @ = # = * = = = # @ @ * * @ * * * @ @ # @ * @ @ @ * @ @ # @ @ * @ @ @ * @ * @ @ @ > # # @ * * * * * @ @ = * * * @ @ @ * * * * @ @ * @ @ * @ @ @ @ * @ @ @ * * @ @ # * @ @ * @ @ @ @ = @ # @ # + ~ W."
};
