/* XPM */
static char *1349992406360[] = {
/* columns rows colors chars-per-pixel */
"100 71 140 2",
"a  c #212921",
"@. c #21701C",
"9. c #515255",
"O  c #1E301E",
"^  c #3F3F3F",
"-. c #2B6E27",
"C  c #283327",
"<  c #202D1F",
"f  c #212D20",
"y  c #242424",
":  c #1F3A1E",
"0. c #545454",
" . c #1E621A",
"n  c #2D2C2D",
"N  c #213221",
"-  c #1E391D",
"j. c #707070",
"y. c #467A43",
"v  c #2B2B2B",
"l  c #292829",
"t  c #242324",
"e. c #535558",
"3  c #203A1F",
"I  c #353535",
"2  c #20361F",
"j  c #282828",
"7  c #212021",
"&  c #1F341E",
"w. c #575757",
"x  c #2A2A2A",
"R  c #3A383A",
"Z  c #233A21",
"b  c #2C2D2C",
"k. c #727272",
"k  c #282928",
"g. c #6B6B6B",
"G  c #293F28",
"M  c #2F2F2F",
"t. c #457743",
"L  c #333333",
"1  c #202E1F",
"u  c #252425",
"p. c #547A52",
"a. c #606060",
"[  c #21471F",
"   c #1F1F1F",
",  c #202B1F",
"P  c #343434",
"9  c #222121",
"8  c #212121",
"8. c #525252",
"E  c #3A3B3A",
"d. c #676767",
">. c #2A7426",
"@  c #1F331E",
"u. c #497847",
"q. c #555555",
"=. c #266E22",
"`  c #1E491B",
"X. c #226C1E",
"*. c #276D23",
"c  c #2B2A2B",
"Y  c #383838",
"}  c #196315",
"H  c #303D2F",
"d  c #202C20",
"i  c #262726",
"2. c #40763D",
"w  c #222322",
";  c #1E3B1D",
"5  c #201F20",
"q  c #222022",
"/  c #1D451B",
"e  c #232323",
"$  c #1D351C",
"4  c #203F1F",
"'  c #1F491D",
"z  c #282A28",
"{  c #186613",
"V  c #263625",
"1. c #3E7A3B",
"J  c #303030",
"]  c #1C5619",
"z. c #61845F",
"i. c #4B7E48",
"<. c #3C7639",
"4. c #434243",
"D  c #273D26",
"S  c #233D22",
"_  c #1E481B",
"B  c #263226",
"K  c #313132",
"p  c #272727",
"O. c #226F1E",
"5. c #414345",
">  c #1D3D1C",
"U  c #373737",
"F  c #2A362A",
"Q  c #3C3B3C",
"g  c #272827",
":. c #2B7027",
"6. c #474747",
"#  c #1F321F",
"%  c #1F361D",
"T  c #393939",
"0  c #222321",
")  c #1F451D",
"$. c #2B432A",
"7. c #4E4E4E",
"s  c #212A20",
"~  c #3D3C3D",
"|  c #196714",
",. c #3A7537",
"r. c #5C5C5C",
"m  c #2D2D2D",
"=  c #1E381D",
"s. c #636363",
"!  c #3C3C3C",
"o. c #216E1E",
"X  c #1E2C1E",
"A  c #233A22",
"r  c #222422",
"*  c #1D3A1B",
"%. c #265B24",
"f. c #6A6A6A",
"#. c #24721F",
"(  c #1E431C",
"l. c #777777",
"o  c #1E321D",
".. c #216E1D",
".  c #1F291E",
"+. c #20711B",
"3. c #3F3F40",
"h. c #6D6D6D",
"6  c #202020",
"&. c #295926",
"+  c #1F321E",
";. c #247120",
"h  c #282B27",
"W  c #3B3B3B",
/* pixels */
" .| { | | | { { { { | { | ] _ _ ' ' ' ' ' ' ' ' ' %.#.X.#.X.#.#.X.X.#.X.X.#.X.X.#.X.#.#.X.@.#.X.X.#.X.X.X.#.X.X.#.X.#.X.X.X.#.@.X.@.X.X.X.@.o.o.o.o.&.[ _ _ _ _ _ ` _ _ ` ` ` ` ` ` ` _ _ _ ' _ _ ` ` ` ",
"| >.1.#.;.;.=.#.#.#.;.=.+./ < N < < & < X O < < < V - & & - $ & - $ - & & - - & & 2 & & & & & - - & - & = & & - & & - & & - = & & = & = : @ D $.Z = C t t 0 0 0 0 0 t 0 0 0 q q y q 0 0 q r q q r r r q ",
"| i.z.y.u.<.,.<.t.p.u.<.<.) d b b c h h b z c b b b q q q q q q q q q q q q q q q q t q q q q q q q q q r q q q q q q q q r r q q q y r y m 3.I 3.p z y 0 t t   0   t y 0 t 0 0 y j L z y W K 0 b U y q ",
"} :.2.=.*.=.X.X.=.=.*.-.=.[ d y c K v h z z b c b h r q q r r q q q r r q r q r r q q r r r q r r q r q q r r q r r q r q q q q q 0 q 0 y U 6.9.U b v y 0 q q 0 q 0 q q   t   0 q y j y y K b 0 b K q 0 ",
"N o & & o o 2 o o & & & o s d r r y r r r q r r q h q q q r q r r q r q r r q r r q r q q r q r r q r q r r q r r q r q r r q r q q r q q U 3.3.W p z t t t 0 t 0 0 q q t q y 0 r q q r q r q y t q 0 0 ",
"t q q q q q q q q q q q q q d < 1 < 1 < < < < < d h q q r q r q q r q r q r r q q r q r r q r q q r q r r q r q r r q r t q r q 0 q q r 0 y L W K t v y 0 0 q t 0 y q t q q 0 0 r q r q q 0 q r y q 0 q ",
"y q q r q r q r q r q r q r q r r q r r q r r r t j q q 6 t q q r q r q t 5 q q r q 6 q q q q r r q r q q r q r q q q r q r q r 0 r q q q 0 0 r q 0 z y   0 t   t 0   q 0 q t 0 r q q r r r r q 0 t 0 q ",
"y q r q r q r q r q r q r q r q q r q q r q q r t h E K M b h g h h t K c h h g y h L K h Y M r q r q r r q r q q r r q r q q q y q r 0 q q q r q q v t t q 0 0   0 0 t 0 t q   r q r q r q q q 0 0   q ",
"y r q r r q r q q r q r r q r q r q r q r q r q q h w.a.h.j.w.7.g.g.r.w.f.a.s.a.8.0.l.k.f.f.d.P 0 q r q r q r q r q r q r q r q 0 q q r y 0 q q q q v y q q r 0 t t 0 0   q t t 0 t q 0 r r q r 0 q   0 ",
"y q r q r r q r r q r q q r q r q r q r q r q r y g M K P Y K b I Y K b Y R Y L L L E Y ! Y E h q q r q r q r y r r q r q q q r q 0 r q q 0 0 q y t z t r r q q q 0 t   t 0 0 0   q q q q r q r 0 q q   ",
"y q q r q r r q q r q r q y r q r q y q r q r q y h r q q 6 q q 5 t 5 5 t 5 5 t 6 q 5 5 q q q q 6 r r y q q q q y q q q q q r q t q r q 0 q q 0 q 0 z p q r 0 0 q t q 0 q 0 t 0 q r q r r q q r 0 0 q 0 ",
"y r r q q r q r r q r q q r q r q r q r q r q r t h q q q q q q 5 t 5 t 5 5 t 5 q q t 5 q q q q r q q q q r q y q r r q r r q y 5 0 y r q q y 0 q 0 j y 0 q y q q   0 t q 0 0 q r q r q r q q 0 t   q   ",
"y r q r r q r q r q q r r q r q q r r q q r q r t h < o o o o o 1 2 2 2 o 2 3 2 & & 1 3 2 o 2 o & 1 & o & o o o 2 & 1 o & o 1 & o # r q q r r 0 q 0 p t q r q r 0 t t 0   t   t y 0 0 0 0 q y q q y q 0 ",
"y q r q q r q r q t r q q r q r r q q r r q r q q h 4 H C B C C d < < < , , d d < < < < , , d < < < < < < < < < < 1 1 < < < < < X & = t 0 q q 0 y 0 v y q r r q 0 0 0 q q q 0 0 q 0 y r q q r q q q 0 0 ",
"y r q r r q r q r q q r q r r r q r q r q r q r y g S W ^ ^ ^ ^ z q q q 5 q q q q q q q q q r q r y y 5 y q q r q y q r r q r y 0 X o 0 q q q y q t z t r q q r q t 0 t 0 0 q t q r r q r r q r   0 0   ",
"y q r q q r q r q r r q r q r q r q r q r q r q r h 3 y h r q g t r r r q q q r q r r r q q r r q q q t q r q r q q r q q r q q 0 X X 0 q r q y q y z y 0 q r q q 0 0   t 0 q 0 q q q r q q r q q 0 q q ",
"y q q r q r r y q r q r q r r q r q r q r q r q y h = = = = = & & 3 = = 3 2 = & = 2 - & & 3 = & = & - = & = = & = = & = = = = = & * < 0 0   q r q q j y r q r q r r r q r q r q q r r r q r r q q q   q ",
"y r r q r q q q r q r q r q q y q r q r q r q r y z q < < < d , < < , , , < , , < < , , < < , , < < < < < < < < < < < < < < d d X X q 0 0 q r q r q b y 0 q q r q r q r r r q r r q q r r r q r r q 0 0 ",
"y r q r r q r q q r r q q r q r r q r q q r q r q z 4 Z $.D & 2 = = - 1 $ 2 2 - 3 1 - 2 3 1 2 - 1 o & & 2 & & o & o & & o = & o o = X q 0 0 q q q r j y q r y q q r q q q r q q q y r q q r r q q y q 0 ",
"y q r q q r q r r q y r r q r q q r q r r q r q y h S I 4.W y q q q q y 6 q r q q 6 q y 6 0 6 y y y r 6 q r q q y q q y y q y q t < o q 0 q q 0 y q z j q 0 0 r r q r q r q r q r q q r q q q r q r 0 0 ",
"y r q r r q r q r q r q y r q r r q r q q r q r t h 3 b c b r q q 6 y q r y q 0 r 6 t q y q q r r r y q q 6 t t q y y q q y q q y d o y y r q q 0 0 b p t 0 r q q 0 r q q r r y q q r q q y q q q q 0   ",
"y q r q q r q r q r q r q q r q q r q y r q r q t z > o < 2 2 2 1 2 o 2 1 3 & 1 & 2 & 1 - 1 o 1 o & & 1 o o o o o o & o & o o o & ; # q q q r r q 0 z y q q q r y q q r q r r q r r q r r r r q q q   0 ",
"y q q r r q r q r q r q r q q r r q q r q r q r y z s < s s < < < , , < < , s < < , , < < < , < < < , < < < , s s < s < < s s d X d r q 0 r q r q q j y 0 r q q q r r q r q r q q r r q q r r q q r q q ",
"y r r q t r q r q r q r q r r q q r r q r q r q t h q q q q q q q q q q q y q q q q q q r q q y q y q q y t 5 t r q q r q q y q q q r r 0 q r q 0 q z y q q r q r q q r q r q r r q r q q r q r r q   0 ",
"y r q r r q r q r r q r q r q r r q r q r q r q y z q y y q q r j t q y q r q r r q y y q 6 q q r q r q q y r q q q q q r q r q q q r r q q r r q t z y q q r q q r r r q r q q q r q q r q q q q r q q ",
"y q r q q r q r y q r q r q r q q r q r q r q r y z b W W L r I Y 3.b q r q q r 6 y 6 r y r r q r q r q q r q r q r r r q r r r r r q r q y q q t t z y r r q r r r q y r q q r r q r r q r r r r q 0 0 ",
"y r q r r q r q q r q r q r q r q y r q r q r q t z W K ^ W K W 4.W W r q r q r q 0 q q 6 q 0 r q q r r r q r q r q r q r q q q r q q q 0 r r r q q z j r r q q q q r q q r r q q r r r r r q r 0 q 0 0 ",
"y q r q q r q r r q r q r q r r r r q r q r q r t z W ^ ^ I K W 5.^ Y q r q q r q r 0 y q y r q r r q r q r q r q r y q r q r r q r r r r q q q q r j y q q r r q r q r r r q r q y q r q q r q 0 q   0 ",
"y q q r q r r q q r r q r q r q q r q r q r r q 5 z b ~ ~ I y I ! E b r q r r q q q y r q 6 q r q q r y q r r r r r r r q r q r r q 0 q q q q r r q z y q r q r r q q r q r q r q r q q q r r r 0 q q 0 ",
"y r r q r q q r r q q r q r q r r q r q r q q r t z y t z 5 q r h y r q r q r q r r 0 6 y 0 y q r q q q q r q q q q q q q r r q 0 q r q r r q 0 q 0 z y q r r q q r q q r q q q r q q r q q r q q q q   ",
"y r q r q r q q q r q q r q r q q r q r q q r q 5 z t t 5 q r q q q y q q q r q q q r q r q y 6 r q 0 6 q r q r q r q r q q q r q y q r q q y q q t z t r q q r r q q r 0 q r r q r r q r q y q 0 0 0 0 ",
"y q r q r q q r r q r y q r q r r q r q r r q r t z 5 5 t q q r q r q r r r r q r y 6 y 6 0 q r q r q y q r r q r q r q y r r q r r q q r r q q y y v y q r r q q r r q r y q r r r q r q r q r t 0 q q ",
"t 0 t 6 0 0 y 6 0 6 t 6 0 6 y 6 6 t 0 0 t 6 y 6 t i 6 t 0 5 0 t q r q r r r r q 6 r y 6 y q r y q y q 6 6 t y y r 6 y 6 y y 6 6 q r q q r q q q r r g g r r q r q r q q r q y q q r r q r q r q 6 r 6 6 ",
"0 t 6 0 0 y 6 t t y 6 t 0 t 0 y t 6 t y 6 t 0 6 0 j 0 0 t t 0 0 r q q r q q q r q y q r 6 0 q 6 6 r r y 6 y 6 6 q y 6 y 6 y 0 y q r r r r r r q q q z r q r r q q q r q r r q r r q q r r q q r y 6 q 0 ",
"t t 6 t 0 t 6 0 6 y t 5 0 t t 6 6 0 t 6 0 t 0 t t j t 0 6 0 t 6 q r r r q y r q q r q r y q y y q y 6 q 6 t y 0 6 6 6 6 y y 6 t r q q r q q r y q t z j r q q r r r r r q r q r q r q q q r r q q r 6 q ",
"t 0 t 6 t 5 y 6 y 6 0 6 t 7 0 6 6 t 0 6 t 6 t 6 t j 6 t 6 t 0 6 r q q q q r q r 6 r y 6 q r 6 r r 6 r y y r 6 q y y y y 6 6 6 y q r r q q r q r q t j t q q r q q r q q r q r q r q r y r q r q r r q 6 ",
"t 0 t 6 t 6 0 t 0 6 y 0 6 t 6 y t 6 0 t t 6 t t 0 l t t 0 7 0 t q r q r q q r q y 6 q y q y 0 y y 6 y q r y y 6 6 t 0 6 y 6 y 6 q r r q r r q r q q z j 5 t r r r q r q r q r q r q r q r q q r q q r 6 ",
"0 y t 0 6 t t 6 t 6 6 t t 0 t 6 6 y y 6 0 6 0 6 t l 0 6 0 t t 7 q r q r r r r r r q r q 6 r 6 q 0 q 6 0 q 6 0 q y y 6 y 6 y y t r q q r q q r r q r z y t q q r r r q r q r q r q q r r q q r q r r 6 q ",
"t 0 6 t y 0 0 y 6 t t 6 t 6 t 6 t 6 0 0 5 t t 0 t j 0 0 t 5 0 t r r r q r q q q y r y 6 r y r q y y 0 q y r y y 6 y t 6 y y 6 6 q r r r q q r q r r g j q q r q q r r q q r r q q r q r r q r r r r q 0 ",
"0 t 0 6 6 t 6 6 y 6 t 0 6 t 0 t 0 7 t 0 t 0 5 0 t j 5 t 7 0 0 0 q q q r q q r r 6 q r 0 q q y 6 6 q 6 y 0 6 q 6 6 y y 6 6 6 0 y q t q q r r q r q q z y q q q r r q q q y r r q r q r r q r r q r r q 6 ",
"t t 7 t 6 6 t 6 0 t 6 0 t 6 0 7 t 5 t 6 y 0 t 6 t l 0 0 t 0 t 6 r y q r r r q q r q r r q q 6 q 0 t t 7 0 5 7 t 6 y 0 y 6 6 6 t r y q r r q q q q t j t r q q r q q r q r q r r q r q q r q r q r q q 6 ",
"t 6 t 0 0 t 6 t y 6 t 6 6 t 0 0 6 t 0 6 6 y t 0 0 l 6 0 7 0 6 t r q r q q q q r r q q q y r y r 5 7 0 0 0 t 0 0 6 y 6 y t y 6 y q r q q q r r r y t j j q r r q r q q r q r q r r q q r q r q y q r 6 q ",
"y y 6 0 6 t y 6 6 t t 6 y 6 0 y t t 6 y t 0 6 t t l 6 t 7 t 5 0 r q q q r r r q q r y r 0 6 y r t 0 t 7 t 7 t 7 6 0 t 6 t 6 6 y r q q q q r r q q q z t q r r r q r r r r q q r q r r q q q q r q r r 6 ",
"0 t y 0 y 6 t 0 0 y 6 t 6 y t 6 6 0 y 6 6 6 t 6 t j 0 5 t 0 t 6 r q r r q r q r y r q 6 y q 6 q 7 0 0 5 t 0 0 0 y 0 6 t 6 t 0 0 r q r r r q q r q r z r r q q r r q r q q q y r r r q r r r r q r q q q ",
"t t t 0 0 6 0 t 6 t 6 0 6 t 0 6 6 y 6 t y 6 y 0 t l 0 t t 0 0 5 q r q r q r r q q 6 q r 6 y y 6 t t 6 0 0 t 7 5 t t 7 0 y y 6 6 q r q q q y q r r r z y q r q r q r q r q r q r q r q r q r r q r 6 6 q ",
"0 7 5 0 0 t t 6 t 0 y 6 y 6 t t y 6 y 0 6 y t 6 0 l 7 0 6 5 t t r q q r q r y 6 y r r q r q r q 0 7 0 t 5 t 0 t 6 6 t t 6 t 0 y r r r r r r r r q q z y q r r q q q r q r q r q r q q y r q q r q r 6 6 ",
"t t 7 t 6 0 6 t 6 y y 6 6 0 t 6 0 6 t 6 t 0 6 y 0 l 0 6 0 t 0 0 r r r r q q q q q r q r r r r r 5 t 7 0 7 0 6 t 6 0 0 7 0 t 0 0 q q q r q q y q y q z t q q q r r q y q r q r q q q r q q r r q y q q 0 ",
"t 6 0 0 t y 0 6 6 t 0 y 6 t 0 y 6 t 6 t 6 t 6 0 t j t t 7 0 t 6 q q q q r r y r 6 y 6 y q q q q 0 0 7 t 0 t 0 0 0 t 5 t 0 0 6 t q r r r q r r q q t v t q r r q r r q r q r q r r q r r r q q r r r 6 q ",
"0 t 6 y y 6 y t 6 y 0 0 t 0 0 t 0 7 t 6 t 6 0 7 t l 0 7 6 0 t t 0 t 0 6 0 y 6 t 6 t 0 y t 0 7 t t 7 t 0 5 t 6 6 t 6 6 t 6 6 t 6 r q r q q r r q r r y y q r r r r q r q q r r q r q q r r q r q r r q q ",
"y t y 6 6 t 0 6 t 0 y 6 5 0 t 5 t 7 5 t 0 y 0 t t l t 7 t 0 5 0 t 0 0 t 0 6 y 0 0 6 t 6 5 6 t 7 0 7 t 7 t 0 0 t t 0 t 0 0 t t 0 r q q r r q r q r q z j r q q q r y q q q r q r q r q q r r q q q r q 6 ",
"t 0 6 y t 6 6 t 6 6 0 t t 6 0 t 0 0 t 6 6 y 0 7 t l 0 0 6 t 0 t 5 6 t 6 0 7 y 6 0 0 6 t t 6 0 0 t 7 6 0 t 0 6 t 6 0 t 6 t 6 6 t q r r r r q r q q t z j q r r r q q q r q r q r r r r r q y r r q r 6 r ",
"0 t 6 0 0 6 t 6 0 t t 6 0 t 6 5 0 y 6 t t 6 0 0 t l 7 0 0 t 5 5 0 t 5 t 0 t 6 t 7 t 0 y 6 t 5 t 0 0 0 t 6 t 0 6 t 6 0 t 6 t 0 0 q r q q q r r q t t j t r r q q q r r r q r r q r q q r q q q r r 6 q 6 ",
"t t 6 t 6 y 0 t 6 t 6 t t t 0 t 0 t 5 5 6 t 0 5 t h 5 0 t 0 t 0 0 0 t 5 6 t 6 6 t t 6 t t 0 0 0 7 t 0 7 t 6 7 t t 0 6 t 0 t 6 0 q r q y q r r q q q j p t 5 q r r r q r q r r r q q q r q r q q r q 6 q ",
"t 0 t 0 y 6 t 6 0 0 t 7 6 6 t 6 0 0 t 0 t 5 t t 0 l t 7 t 5 5 0 7 t 0 0 t 5 0 t 6 0 t 6 7 0 7 t 0 6 t 0 t 0 0 t 0 6 t 0 t 6 6 t q r r q r q r r q r z y q t r q q r q q r q q q r r r q q r r r r r q 6 ",
"t 0 t 6 0 0 0 7 t 5 0 0 y 6 6 y 6 t y 6 6 0 t 0 t l 0 0 0 0 t t 6 t 7 t 0 t t 0 y 6 6 y 0 0 6 t t t 0 5 6 0 7 0 t 6 t 6 6 t t 6 r q q r q q q q r q z t q r t r q r r q q r r r r q q r r q q r q r q q ",
"0 t 6 t 6 t 0 t t 0 0 y 6 t 0 6 0 y 6 t 6 t 7 7 t j 5 0 5 t 6 0 0 6 t 7 t 6 7 0 0 t 0 6 t 6 t 5 5 0 7 t 0 t t 6 t 0 6 t 0 0 t 0 r q r r q r r q r q z t y q q r r r q r q r q q y q q r r q r r r r y q ",
"t 5 t 0 t 0 y 6 6 t 5 0 t 6 t 6 7 t 6 0 t 0 0 0 t j 0 0 0 6 t 6 t 6 6 0 t 6 y 6 t 7 t 6 0 t t 0 t 7 0 0 0 0 t 6 6 t t 6 t t 6 t r q r r q r r r q t j t q r q r q r q r q q r q q q r r q r r q 6 r 6 q ",
"0 t 0 0 6 y 6 t t 6 t 6 6 t 6 y 0 t t 6 7 0 t 0 t j 7 t t t 6 t 6 t t 6 6 t 0 y 7 0 6 t t 6 5 t 6 t 0 6 0 y 6 t 0 6 0 0 6 0 0 6 q r q q q r q y t t z t q q r r q r r q r r r q r q q r q r q q y 6 q 6 ",
"t t 6 0 6 t 6 0 6 0 6 t 0 y 0 t 0 7 6 t 0 t 5 6 0 l 0 7 6 y 6 0 y t 6 t 6 t 6 t 5 0 7 0 6 t 6 0 0 t 6 t 7 t 6 0 t 6 0 t 0 t t 6 q r r q r r q q q q z j r q r q q r q q r q q r r r r q y r q r q 6 6 r ",
"t 0 t 6 t 0 y 6 0 y t 0 t 6 y 6 0 0 t 0 t 7 0 t t l 0 0 y 6 t 6 0 6 y 0 t 0 y 6 t 0 t 0 y 0 0 0 t 5 t 5 t 0 t 6 6 t t 6 t 0 6 t r q q r q r r q r q z r r r q q r q r y q r q r q r q q q q r q r y q 6 ",
"t 0 t 6 6 y 0 t 0 6 t 0 6 0 t 6 6 0 t 6 t 6 6 t t i 0 t 0 0 0 t 0 6 t 7 6 0 t 0 t 0 t t y 6 t 0 6 y 6 0 0 0 7 t 6 t 0 6 6 6 t 6 q r q r q r q r q q z y r q r r q r q r q r q r r q r r r q q r r q r q ",
"0 t t 0 6 t t 6 t t 6 y 6 y 6 t t 5 6 t 6 t 0 0 t j 0 5 6 t t 7 t t 6 t 0 0 5 t 0 0 5 6 0 t 6 6 t 6 6 t 5 t t 7 0 6 t t 0 t t 0 r q r q r q r r r q z y q q r q r q r r r q r q r q r q q r r r r r 6 q ",
"t 0 6 t y 0 t 0 6 t t 6 6 y 0 t 0 t t 7 0 t t 6 t l t 5 y 0 t 0 6 t 0 0 6 t 6 t 6 0 5 t 0 0 6 t 0 5 y 0 t 0 0 t t 6 y 0 0 y 6 t r q q r r q q r t q z j q r r q q r r q q y r q q q y q q r r q r 6 6 q ",
"0 6 t 6 6 y 6 6 y 6 6 0 y 6 t 6 5 t 0 0 0 0 0 6 t l 6 t 6 y 6 6 t 6 0 6 t 0 t 6 t 6 t 0 t 7 t 5 t t 0 0 7 0 0 0 6 t 6 t 6 6 y 6 q y r q r r y q q t j t r q r q q r q r q r q r r r q r r q r r r q 6 0 ",
"t t t 6 0 t 7 t 6 0 t 6 y 6 t 6 t 6 0 t t 6 y 0 t l t 0 5 t 6 0 t 5 t t 6 0 0 t 6 5 t 0 6 t 0 0 t 6 6 6 y 6 0 t 0 7 t 0 t 6 6 t 6 y 0 0 0 0 0 7 t 6 l i 0 t 0 5 t t 5 0 6 t 0 0 6 t t 0 t t 5 0 r q r q ",
"t 0 6 t 0 0 t 6 t 6 6 t 0 y 0 y 6 y t 6 0 6 0 0 0 l 6 5 t 0 0 t 0 0 6 0 0 t 6 t t 0 t 0 0 t 6 t t 0 t 0 0 t 0 6 0 0 6 t t 0 0 y t 0 6 t t 7 0 t 5 t l t 0 6 t 0 0 0 5 t t 7 6 t t 0 5 0 6 0 6 t r q r q ",
"y 0 t 0 y 6 6 0 0 t 6 5 6 y 0 6 t 7 6 y 6 t 0 6 t l 0 t 6 0 5 t 6 t 0 y t t 0 0 5 t 5 0 t 6 5 0 5 0 t t 0 t t 0 6 y 0 6 6 6 t 6 6 6 0 0 7 t 0 7 7 0 h j t t 0 6 t 5 0 t t 0 0 6 6 6 t t t 0 0 t r r 6 q ",
"t 0 6 t 6 t 6 t y 6 t t t 6 t 6 0 0 0 0 t 5 t t t j 7 0 t t 5 0 7 t 0 6 5 6 t 6 t 0 6 t 7 0 t t t 6 0 5 0 6 5 t y 6 t t 0 t 6 t 0 t t 0 0 0 7 t 0 t l y 6 0 7 t 0 0 t 6 5 0 t t 0 t 6 0 5 t 5 0 q 6 q 5 ",
"t 0 0 5 y 6 6 y 6 0 7 0 6 t 7 7 0 7 0 7 t 6 7 7 y l t 0 0 5 t 0 0 5 t 5 0 5 0 t 0 5 6 t 6 y 0 5 y 6 t 0 t 0 5 t t 5 t 6 0 y 6 t t 5 0 t 0 7 0 t t 6 l i t 0 6 t 0 t 0 7 t 6 0 5 5 0 0 6 6 t 6 0 q q h K ",
"t 7 7 0 0 t t 0 7 0 t 0 t 6 t 0 0 t 6 7 6 t 0 5 y l 6 t t 0 t 5 t t 0 t t t 0 0 0 t t t t 0 t 0 0 t 6 t 5 t 6 0 0 t 6 t t 6 t t 6 0 t t 7 t 0 7 6 t l y 6 6 t 7 0 5 5 7 0 t 7 7 t t 7 5 t 0 6 t q t 9.e.",
"t 0 5 5 7 5 5 0 5 5 5 0 6 0 0 7 5 0 7 7 0 0 5 0 0 h l l h l l l h l l l j l l l j l l h h l l l j l c l l h l l l h l l h l l h l l l l l l j j l l c 0 0 6 0 7 7 0 5 0 5 0 5 0 0 5 0 5 5 0 0 7   K w.4."
};
