/* XPM */
static char *1350003320362[] = {
/* columns rows colors chars-per-pixel */
"100 71 256 2",
"gX c #B9BAC4",
"a  c #3B2A43",
"@. c #6B544D",
"9. c #735A62",
"O  c #271D27",
"9X c #BBB4B4",
"'. c #7186A2",
"F. c #998179",
"0X c #B9B6BA",
";X c #858CA2",
"^  c #384A63",
"-. c #764B55",
"n. c #87716B",
"C  c #2F376A",
"<  c #242A3C",
"f  c #2C344B",
"y  c #252C42",
":  c #2B2B35",
"0. c #5F6168",
" . c #4D5057",
"n  c #272A57",
"N  c #343B53",
"-  c #2B2333",
"j. c #A43253",
"GX c #E8E6EB",
"y. c #776767",
"-X c #ABA09D",
"v  c #3D3C4C",
":X c #8B92A7",
"l  c #363944",
"t  c #4D403C",
"jX c #9AA7C2",
"yX c #CCB4A8",
"S. c #A27B7F",
"e. c #4F627C",
"FX c #EBEAED",
"hX c #A8B2C7",
"5X c #B3ABAB",
"=X c #B9A29B",
"*X c #B99C95",
"3  c #362837",
"I  c #3D404C",
"2  c #332C3B",
"K. c #A8897D",
"j  c #343343",
"NX c #E3DCD7",
"7  c #3A3337",
"/. c #867C84",
"&  c #2B2326",
"OX c #AA8C83",
"(. c #6C819D",
"w. c #5D6478",
"x  c #33364B",
"R  c #2B4D5A",
"Z  c #472B41",
"b  c #3A3749",
"V. c #957B73",
"k. c #AF2F53",
"k  c #3A3444",
"g. c #B22F53",
"4X c #A9A4A8",
"G  c #403E50",
"M  c #3E3E50",
"mX c #D7D4D7",
"t. c #7C6D6B",
"L  c #71374D",
"1  c #2B2B3B",
"N. c #8C7572",
"u  c #2A2A44",
",X c #9799A8",
">X c #9196AA",
"p. c #7A7479",
"rX c #C5A59A",
"a. c #767072",
"[  c #474958",
"E. c #68748C",
"   c #100F15",
",  c #2A253B",
"P  c #28424E",
"9  c #472A3A",
"oX c #A58A83",
"8  c #291D1D",
"~. c #687993",
"ZX c #C9D6ED",
"8. c #665B66",
"E  c #284956",
"d. c #993654",
"HX c #EDECF2",
"1X c #969DB3",
"AX c #E1DEE3",
">. c #6D605D",
"@  c #351F32",
"u. c #686976",
"q. c #53627C",
"=. c #765B58",
"L. c #293785",
"_. c #7E818E",
"x. c #8E4F62",
"{. c #87848A",
"&X c #B49A93",
"`  c #584847",
"pX c #D5BEB1",
"$X c #B6978B",
"CX c #DDDCE2",
"sX c #D7C6BA",
"DX c #E5E3EA",
"U. c #576B86",
"X. c #5A5458",
"nX c #DDDADD",
"T. c #5B728F",
"G. c #8D837F",
"*. c #735C53",
"c  c #343A4B",
"Y  c #274553",
"|. c #868997",
"R. c #656B83",
"}  c #584C56",
"cX c #D4CCCA",
"c. c #836B63",
"UX c #F1EFEE",
"J. c #A6897D",
"H  c #493750",
"d  c #2A3344",
"i  c #282846",
"MX c #DBD2CD",
"LX c #F6F5F9",
"aX c #DDC2AD",
".X c #9A9497",
"3X c #9BA4BA",
"B. c #8A7A78",
"2. c #545561",
"w  c #523D3B",
"SX c #E4E2E5",
";  c #262935",
"bX c #D2CED1",
"5  c #34333C",
"7X c #A4A8B8",
"q  c #453538",
"+X c #A58B87",
"/  c #2D5460",
"tX c #C5ACA4",
"e  c #4B2D34",
"$  c #24232C",
"4  c #2C313C",
"'  c #424453",
"kX c #C0BEC2",
"z  c #3B3C44",
"{  c #534C54",
"`. c #6F84A1",
"V  c #29347A",
"6X c #B4A6A4",
"1. c #4B5468",
"Y. c #5D718C",
"@X c #AA928A",
"J  c #59334A",
"qX c #B7B1B1",
"]  c #4B4C54",
"z. c #81685E",
"i. c #776C75",
"<. c #44536C",
"4. c #575A68",
"IX c #F8F8F9",
"VX c #EAE3DC",
"v. c #866B69",
"D  c #483646",
"uX c #D5BAA8",
"S  c #413D4C",
"vX c #CBCBD4",
"_  c #4B444A",
"B  c #262B67",
"K  c #67384A",
"p  c #332D43",
"PX c #FAFAFB",
"JX c #F0EFF3",
"XX c #949194",
"H. c #A2847B",
"O. c #644C48",
"5. c #4A5A75",
">  c #23253C",
"!. c #6A7E99",
"fX c #E2C9B3",
"xX c #C9C5C7",
"dX c #E2C9B4",
"m. c #92766D",
"U  c #3A4049",
"zX c #BECBE2",
"iX c #C4BBB9",
"). c #75839B",
"F  c #553549",
"Q  c #364658",
"g  c #243B4B",
":. c #766259",
"#X c #B4958A",
"BX c #E3D6C9",
"}. c #988787",
"6. c #555C75",
"<X c #8798B3",
"M. c #847474",
"#  c #1D263A",
"A. c #876D75",
"%  c #2A232C",
"T  c #2B4552",
"0  c #4C3C3B",
")  c #43434C",
"$. c #644A58",
"KX c #F3F3F5",
"P. c #2A3782",
"7. c #4B4E6D",
"8X c #B1AEB4",
"s  c #263344",
"~  c #38515D",
"|  c #4E515B",
"b. c #8C736C",
",. c #444C64",
"^. c #767D94",
"r. c #69656A",
"m  c #2D3854",
"=  c #252432",
"s. c #8A3A55",
"]. c #778BA7",
"!  c #2C525E",
"o. c #5B514F",
"X  c #1B1A27",
"Q. c #647995",
"A  c #433C45",
"r  c #56423E",
"*  c #37292B",
"wX c #C29C92",
"I. c #5B6B84",
"lX c #BAC3D6",
"W. c #787985",
"%. c #6D5953",
"[. c #7C91AE",
"f. c #89324E",
"#. c #6B564C",
"%X c #A69A98",
" X c #968E94",
"Z. c #957B78",
"(  c #374A6C",
"l. c #8A4B5D",
"o  c #251D2C",
".. c #52545C",
"C. c #9A7D75",
".  c #14121A",
"D. c #9D837B",
"+. c #64514C",
"3. c #5B5C65",
"h. c #AB3053",
"6  c #3B333C",
"&. c #675757",
"+  c #261D35",
"2X c #A29EA4",
"eX c #C19B8F",
";. c #7B645C",
"h  c #28394A",
"W  c #3C4151",
/* pixels */
". 5 5 6 7 U U U 7 7 _ ..U 7 ; : 4 4 T T E P g s g g g s g s g g s y d W 4.^.w.y < < < < < s y y # < < < h g P P g E / / / R s ; ; 7 a.B.}.-X%X+X}.XX.X(.:XlXhX<X.X%XG.G.G.*.7 ; : ; : ; < < ~ (.!.].'.e.",
". 4 5 6 7 z U 7 l U  . .U : : : : h T E Y Y P g s s h g h s s g g y < f [ R.1.y < < < < < < y s < < < < s s s g g R / / / ! h < $ 5 r.G..X%XG.G.G.G.XX_.1XlXgX7XkX@XF.G.G.#.7 $ : ; = = < y ^ !.Y.Q.!.e.",
". : 5 5 7 z U U U ) ..] U : : ; : T Y Y E E Y P g s g s s s s g s s y y c w.,.1 < < < < < < s < < < s < y s g Y ! / / / ! ! P 1 ; 7 r.G.G.n.>.>.:.a.p.:X7XlXgX:XqX6XG.G.n.>.* ; - - $ = < < 5.!.T.U.Q.5.",
". : 7 : z z z ) ]  ...~ 4 : : ; d ~ Y E Y Y E R g g s s s h s s y y y # u ,.[ < < < < < < s y # < # y y y y g Y / / / / / R T h ; z >.>.+.r 0 0 t r _ w.<XlXgX1XG.@XG.G.n.:.: % - = $ = # d Y.(.T.U.T.<.",
". 7 7 4 z 5 U  .3.2.| W l ; 4 ; W ~ Y E E E R R E g s y s s y d y y 1 4 d c c y < y < < 4 y y < < < > y < y g R / / / / / R T Q P o.&.o.#.*.r #.` t _ ) 4.7XgXmX}.F.N.n.n.o.: % - - = > 1 Q Q.(.(.T.U.Q ",
"  : : 7 U z U ..3.| ] W l ; 4 4 | Q P R ! / ! E Q N b H D Z , i < y u y s u u y y y s s s s < < < # > # < s P R / / / / / ! E ~ ~ &.+.` #.#.#.z.#.t #.` 7 p.kXFX%XB.N.v.t.z % % - - - 1 y <.`.(.'.Y.U.Q ",
"  : : z U z  .3.3...' U 5 ; ; U 1.P g / / / ! Q } L s.x.x.l.J p 1 < u u u y y y y y y d s s y 1 < ; # > > y P T E / / / ! ! E ^ w.0.o.*.#.:.;.z.#.r #.#.t X.-XbXr.n.N.n.y.k : = - > > 1 4 e.].`.'.!.U.^ ",
"  : 7 ) z z o.0.0.2.' U 4 $ 4 ) | s P / ! R ^ $.s.d.j.k.k.j.s.K 3 y u y y y y y y y s s d y y < # > > > > < h h Y E R R T E T [ 0.&.*.#.z.c.;.;.*.O.+.*.o.r G.XX>.G.B.N.;.S d , > > > ; 4 Y.'.`.`.Q.U.^ ",
"  : z  .z ) 3.0.0...] l : = 1 4 l # Y / / ! $.s.h.k.k.g.g.k.j.d.L 9 , i y s y y y y y s s y < < > < > > ; 1 1 h P E Y P Y R Q | 0.:.>.#.;.t.*.:.#.#.#.*.%.o.&.&.t.n.t.t.>.b k u , u 1 1 j T.(.T.U.T.U.! ",
"  ; 7 U U ) 3.0.0...' 5 : ; - ; l < Y / / 2.-.j.k.g.g.g.g.k.k.h.d.Z , y y y y s y y s y y < ; < > > = ; # ; ; d T g P ! E g T [ o.#.*.:.:.*.#.:.:.:.#.:.#.#.+.+.:.*.O.#.>.b f f f f u 1 M Y.q.5.e.U.U.<.",
"  : 7 z )  .0.0.3. .U : - = $ # c g T E Q -.j.k.g.g.g.g.g.g.k.g.j.L a s s d d s s d d y < < > > ; = = = = = : d c g ~ E g Y ~ ` ` ` #.O.#.#.*.*.t.z.*.:.*.#.+.%.r +.+.#.>.a u f f f d y Q T.e.<.^ 5.T.<.",
"  : z z z X.0.u...U 5 : $ $ X = c g g g H s.h.g.g.g.g.g.g.k.h.h.j.f.a 4 d d s d d s d y < ; > > = = = $ $ ; : c j m d < g / <.o.t t t r #.#.:.*.z.;.%.;.#.r O.` t _ +.:.+.2 u j x f d y Q Q.(.Q.!.`.`.5.",
"  : z U )  . .X.] z 1 $ $ $ o = U g Y P J j.g.g.g.g.g.k.j.d.x.d.f.s.D y s s s d d s d y < ; = $ $ $ $ $ $ $ : 4 d h < P Y / ~ o.t ` r *.:.:.z.b.c.:.;.;.#.` ` t 7 7 o.;._ : u p k d y y N ~.'.`.'.'.!.5.",
"  7 U t {  .3. .] 4 = $ $ $ $ $ l h R Q -.j.g.g.h.h.h.j.d.x.z.-.L L F d d d d s s 4 d y < ; = $ $ $ $ $ $ $ $ ; < s g T ! / ~ o.` ` +.;.F.F.H.K.J.F.F.c.#.+.r ` z : z 7 : : 4 p k d s y f U.q.Q.`.~.Q.<.",
"  7 z )  . ... .) : = $ $ $ $ $ < h P Q K j.g.h.j.j.d.l.x.l.=.=.L K K k 4 d d d h d s < > = $ % % % $ $ $ $ ; ; 4 h P E / / ~  .o.+.O.z.K.H.H.H.K.F.F.*.#.O.O.` ) 5 $ : : : 1 : j j s f h 5.U.(.Q.U.T.<.",
"  : z )  ... . .4 $ $ $ $ $ X $ ; 4 4 P K j.j.d.d.l.x.x.x.c.z.z.=.O.` } l x d d f d i > > $ $ $ $ $ $ $ $ $ $ # < s P E / / ~  .#.t.:.m.F.z.F.F.H.K.F.;.#.r O.>. .: : ; : : : : 1 d f f f e.T.q.e.q.U.<.",
"  : )  . . ...) $ $ $ $ $ X $ $ $ ; 4 T O.f.d.l.x.x.l.-.=.N.oX/.t.K 0 _ k 4 d y f u , > # $ $ $ $ $ $ $ $ $ = ; y g P g R / ~ ] &.a.;.F.H.b.c.m.H.K.F.z.%.r #.#._ : ; ; : : : : 4 d f y Q Y.Q.Q.U.U.U.R ",
". : ) ....] U : $ $ $ $ $ $ $ : l 4 U Q F K L S.A.z.z.b.b.S.oXC.;.O.6 : - ; ; < < , > > ; $ X $ $ $ $ $ $ $ $ # y Q P g R / ~ ..X.a.>.F.H.F.b.V.K.#XH.:.#.*.*.` ) - ; = = ; ; 4 4 j u y <.I.Y.Y.!.Q.U.^ ",
". 7 ..0. . .z & $ $ $ $ $ $ ; 5 U d l U 8.K O.$X&X+Xm.c.;.oXoXv.;.=.A % % = = < > > = - % $ $ $ $ $ = $ $ $ $ > < d s g ! / / 2.r.a.y.OXK.K.K.$X$X*XK.;.%.*.+.` _ : = $ $ ; ; ; < 1 > x R.e.e.Y.(.'.(.5.",
". ) 0... . .: $ $ $ $ $ $ : 5 4 ; ; 4 U p.Z.O.@XrX*XOXS.V.+X+XV.m.A.` % % ; < # > > > ; = = = $ $ $ $ $ $ $ $ = = = # g ! ! ~ 2.a.}.F.rX$XK.$XwXeXeXK.*.;.*.#.r ) : = = = $ = = = > ; ^ I.I.~.'.'.'.].5.",
"  ) 0. .] U $ $ : ) ]  .] [ W l 4 ; 4 l i. Xz.OXrXrXrX#XK.#XK.S.S.oX` ; = ; < < < # > > > # 1 = = = - $ $ $ $ $ $ # < P T R 1.u.a.oX@XtX*XH.K.*X$X$XK.z.z.*.O.r A 1 ; # + $ $ $ $ = > 1.~.].'.Q.'.[.'.<.",
"  U  .5 & $ $ 4 U ] ] ) 2.3.[ z l ; ; 4 u.+Xz.@XrXyXrXwXeXK.K.K.K.@Xo.= = ; < < # > y # # < < = = $ $ = = = $ $ $ $ 4 P T R w.a.t.oX+XoXH.H.J.K.K.K.K.m.C.m.#.0 5 , = = = = = $ = = # w.~.(.Q.Q.].(.T.<.",
"  U U $ & 4 5 U U ] _ U ] ..,.W 4 : 1 j $./.N.OXwXrXwXeX$XK.K.#X@X*X9.; ; < < y # > # # # y ; = = $ = = $ o $ $ $ $ # P P  .XX-XV.V.H.c.z.m.J.K.K.K.K.C.C.c.w 7 1 j N Q j ; = = = = > 5.I.Y.U.`.].].<XR.",
"  z 4 & U  . .) ]  .] U U | | l 1 ; : c { -Xm.C.eXwXwXeX#XH.m.m.K.*Xy.; ; < y y < < < < < < 1 = $ - = $ % $ $ o $ $ ; < U XX6XK.V.b.H.C.C.H.K.K.K.K.K.F.c.O.e 7 ^ I.E.Y.I.4.l $ = = > ,.U.U.U.'.[.[.<XE.",
". U z z ' 2.2.2.| | ] U 5 ) ] U : ; : z ] %XM.;.$XeXeXeX$XC.m.m.K.*Xv.: ; ; 1 < < < < < < ; ; = = $ $ - $ $ $ o $ $ = = 0.xX.Xb.z.z.H.H.H.m.m.H.H.C.H.H.C.O.q ' 6.Y.T.Q.Q.E.6.N > = > 1.I.Y.(.'.].[.1X~.",
"  U  .o.]  .| [ | | | ] U U U 5 : - = 5 U &.t.%.K.*X*X*XK.z.z.z.b.@Xy.- : ; ; < ; < < < < ; = $ = = = $ = $ $ = = o $ + 0.8X6Xy.O.O.m.z.O.w O.C.K.H.K.H.K.*.D 4.6.U.T.Q.!.Q.I.5.f y < 5.U.!.(.(.'.[.1X~.",
"$ r.o.X...| | | ] ] ]  .U 5 ; ; $ $ $ ; : _ y.` C.*X$XK.z.-.@.O.@.C.=.% $ = ; ; < < < < < ; ; $ o = = = $ % $ = = = = o z {.iXy.r O.c.v.z.l.b.K.K.K.H.H.K.c.} 4.e.U.T.`.(.Q.Y.6.^ u # ,.I.(.!.(.'.].].~.",
": 2XG.] ] ' I ' ] ] W U 5 ; $ $ $ $ $ $ ; ) y.0 ;.OX@XF.*.@.=.*.*.c.+.% = = ; > # < < < # ; ; $ = = $ = = = $ $ = = + = % { }.@.r @.N.Z.v.m.H.K.OXK.H.D.J.S.&.2.6.U.Q.'.`.Q.U.e.5.N # <.~.Y.Y.(.].[.<XI.",
"* .X.X} q v l v Q U 4 4 ; ; $ $ $ O $ $ $ ) >.q r *.b.z.z.H.C.C.z.@.0 % ; ; # # # < < # ; = = = % = = = $ $ $ = = $ $ - o 7 >.&.n.-X}.m.V.C.C.K.K.H.C.H.OX@XB.} <.U.T.(.(.Q.U.5.5.^ > ^ Y.U.T.`.].].<XR.",
"& }.%X8.7 k 2 5 5 U 4.u.r...U $ o $ $ $ $ z y.q e r O.#.z.C.m.m.z.w q % ; ; ; ; < 1 < 1 < ; ; = = $ $ o $ $ $ % = - - $ X.5XmXVXxX&.q +.Z.S.H.K.H.C.D.OX@X&X&X X6.<.I.).`.Q.U.5.^ ,.f s e.e.Y.'.].<X<XI.",
"8 N.}.p.6 : : % z W.,XXX|.|.p.l O o $ $ = _ /.7 * w r r -.v.b.c.@.e e % : : ; ; > i > > > ; - $ $ $ $ $ $ $ $ = $ - % o.iXcXUXcXX.: z _ p.V.F.H.H.C.H.OX&X&X=X6Xu.' 4.:XhX>X:Xe.^ ^ m y Q q.U.!.Q.!.!.7.",
"8 >.N.v.3 % % 2 p.|.XXXX|.{._.2.4 % - , ../.{.$.* e e r O.@.:.=.` e +.3 % : ; ; > # > # > = $ $ $ $ $ $ $ $ $ $ $ ; ; %XVXKX9X .A ) ) ) y.B.m.b.m.C.K.OX$X&X*XF.{ ' Q [ | 1.;XhX1.^ N s u 7.R.Y.^ Q ,.^ ",
". F ;.y.7 O $ 2._._.XXXX|._.W.0.' p p p 8.W./.t.r * e q 0 ` +.+.e q &.2 - : ; < > # > # > = = $ $ $ $ $ $ = $ $ = = 4 cXPXiXB.XX..] Q ) 8.M.;.c.m.D.OX#X&X-XA._ S S ' ' [ 1XW.CX1X[ Q j > N 5.6.5.5.U.,.",
"& i.=.X.* % 2 r.u.|._._.{.W.u.4.W x p p r./.i.}.>.w * * 7 q 0 w q * $.: - : < < > > # y # = $ o $ $ $ = = $ = % = = 3.FXxX{.AX.X .[ W U ] y.v.n.Z.oX@X@X+X>.D A S G ' ' 4.CX,XgXKX0X,.u > y x m [ ^ ( N ",
": iX4X{ % % ....u._._.p.W.u.0.M N f p a $./.{ }.n.@.w * * * * * q 7 o.@ - , > > 1 > > > i = # = $ 1 x b 1 = = = = - .X0X{.nXUXu.' ' ' W v _ &.V.F.}.Z.a.` D G G G G G ' u.UX0XXXPXPX7XU > > = + y f 5.4.",
"4 8X8X_ o S 0...p.u.u.a.u.0.[ f u u n a L /.S A.}.v.@.w * * * 9 9 0 } % - , , , 1 , 1 > > = # > N 5.q.6.5.f > > $ k .Xy.nXPXCX3.' ' M M I S D o.$.` _ k b G G G G G G v {.PXSX_.SXPXUXu.p = = > i E.zX<X",
": 7X8X2.5 3...3.0.| u.0.6.| v f u u p a Z 9.8.} S.S.N.=.` w J O.3 ` H - - , , , , 1 u > , u x ,.5.w.I.U.q.6.f > $ ..%Xa.KXPXnX..' ' W I I v k j j l b c b G G G M G ' W 0XPXLXXXkXPXPXxX' = = > q.zXZX>X",
": 2X3X4.] 2...3.] 2.0.0.| ' x f i u p p a J i.Z L Z.oXm.c.-.O.e 3 >.D @ % , , a 6 k 2 - 1 p G 7.5.U.U.T.e.e.,.y X W.-Xa.KXPXbX .' ' ' v v k x f f x v b x M G G G G v ] mXPXLXvX.XPXPXPX2X: = M 3XZXZX:X",
": >X7Xu.[  .2...W 0.w. .' N f f u u i p @ Z A.$.J L -.s.f.f.L e F >.3 @ @ @ 2 u.}. X{ A i.2 N ^.].].;X].'.(.5.u ; 2X4Xa.KXPXxX] ' G W I W v c j x c v M G G G G G G v 4.GXPXHXFX{.SXPXPXFXr.$ 4.jXzXZX>X",
"1 >X7X|.2.| ..U  .r...Q c m f f u u u u p a $./.9 Z K f.h.f.K 9 $.} 3 @ - - 8.{.}./.M.%.%X{ 1 w.].<X[.[.[.].T.x 4 kX8Xa.UXPXkX) ' G W I W W M v b v M G G G G G G G W u.UXKXFXIX4X4XPXUX0Xu.p ^.3XhXzX;X",
"; >XhX1X0.2.' v 3.4.[ b f m f j i u i i u a D  X8.@ Z L L f.Z Z y.F @ - , - _ {.Z.N.F.H.D./.5 W ].[.[.[.].`.~.W [ mX0X0.FXPX0X] ' G M G G M G G G G G G G G M G G G b |.LXJXHXIXSXp.xXvX0X| ,.!.1XjXhX).",
"4 >XjX7X^.2.v [ 3.,.N f f f f f i u i u i @ Z $.2XH @ Z J Z @ 9.$.Z , , - = 1 8.B.N.V.oXV.}.8.: u.<X[.[.'.(.Q.6.4.DX0X&.SXPX0XW v G G G G G G G G G G G G G G G G G b 2XJXHXLXIXPX8Xr.kXxXr.R.^.<XjXjX~.",
"1 >X7X3X,X6.W ' ' m f f f m f f 1 y y y i @ @ J /.,XH , @ 3 { A.J 3 @ , > > - 2 y.n.N.D.F.}. XA ^ ;X[.'.(.(.Y.1._.JXxXX.nXPX8X) ' v G G M M M G G G G G G G G G G G S 0XHXFXKXPXKX{.3.bXCX^.R.~.;X3XjXE.",
"1 >X3X7X1XE.c W M f f f i u f f y < y y i i , Z J W./.,.3 b W.L 9 @ - - > > > - q t.n.V.oXS.+Xi.b E.[.(.(.T.U.,.hXKXxX .bXPX8X' G G G M W I M G G G G G G G G G G S ' vXFXFXLXPXCX2. XSXSX;Xw.E.].1XjXE.",
", >X7X3X,X|.,.b x f f i u i u u u y y < y i + a Z H i./.$.R.8.Z @ @ + , > > > > ; q 9.N.F.J.D.%X{.u.].).~.I.<.[ vXHXbX..xXIX7XU G G W W M M G G G G G G G G G G v v 2.CXGXJXPXIX4X2.0XAXHX3X1.6.I.~.!.5.",
"1 >X7X1X:X;Xw.c x f i u p u u u u < < < y y i i p Z J $./.i.Z a @ , > > > > # i = $ 6 t.B.F.D.H.-X2X;X^.~.q.Q w.GXFXnX3.0XIX4Xz M M W I W M G G G G G G G G G G G v u.GXDXJXPXFXi./.vXCXLX0XN Q ^ Q Q y ",
", >X7X>X>X|.E.,.m f i u u i u u u 1 > < y y > y i @ a Z K J a 3 , , i > # # > # ; = % ` B.B.m.v.V.@X2X|.u.1.h _.HXDXmX0.8XJX2XW v W W W W M G G G G G G G G G G G b /.HXDXKXPXvX8.5XmXDXLX0XW Q Q m Q f ",
": ,X1X:X>X;XR.1.f u u p u u u u 1 < , > i > < < > , a a Z Z p p , , , > > > # # > = = - } y.t.c.v.D.%X Xr.| N 2XUXDXCXu.2XGX2Xv M M M W U W G G G G G G G G G G G v ,XHXDXLXKX Xp.0XnXCXKXvXQ Q Q T Q f ",
": >X1X:X>X>Xw.,.f u u u u p u u , > , > > > > + i , u u p p u 1 1 , > > > # # # # > = = = 7 +.*.c.B.oX Xr.] ' xXHXSXNXr.2XFX2Xc S M M W W W G G G G G G G G G G G M 8XDXDXUXAXr..XxXCXnXJXCX2.U Q Q T s ",
"1 >X,X;X>X>Xw.,.i p u u u u u u , > > > > > > i > > > i < < , 1 1 1 > > # # i > > = ; = = ; * t #.;.b.D.B.o.] xXCXmXmX0.XXGX2Xz ' U U I W W W I G G G G G G G G v ' gXDXGXUXxXr.4XxXnXCXHXHXp.T T T T 4 ",
"1 >X,X;X>X>XR.W u u u i u u u i > > # # > > > + > > > u > , , , u 1 , > > # # > o = $ - = = = - t %.c.V.F.a.r.xXmXmXmXu.{.FX2Xz ) v U I M W v c v b v G G G G G v | vXCXFXJX.Xp.0XcXCXCXHXPXXXN P Y T s ",
"1 ,X,X:X>X,Xw.v u u u u i u i > > # > i > # > i , i u i > , > , 1 u > > # i > # = = = = $ = > - ) &.;.b.G.t..XiXxXbXmXp.{.FX2XU S z ) I W v c c c c c G G G G G b 4.mXnXUXSXa..X0XbXCXDXHXIX8XQ P T E < ",
"d ,X>X;X,X;XM u u u u u i i i > , > > # > # > > > + i , , , 2 u u 1 > 1 > # > > = = o = = > > - 3.+.:.n.N.G.-XqXiXcXmXp.a.FX2XA S G W I U W M z c v v G G G G G G 8.CXCXIX5X{.qX0XmXAXSXHXLXvXQ T T T y ",
"1 >X,X:X,X|.p i u u u u u i u , , > # > > > > > > i i @ - 3 k k 3 1 , 1 > > # > > # > = = > # , 8.&.O.:.t..X-X5X0XiXbX{.r.FX2Xz M G G W W W M v v I G G G G G S b u.CXSXDX.X6XqXxXmXCXCXGXLXAX7.c T P < ",
"1 :X>X;X,XR.3 1 u u u u u i i i > > > > > i i i i N i..X2X5XiXiX4X} - , , i > + , > > = > > > + S i.>.t.D.5X5X9X5XqXcX{.&.DX8XS S G ' U l l 8.u.] S S S G G G G c W.CXDXnX4XqXqXxXCXCXCXGXJXFXW.h c m < ",
"$ W.|.>X1X.., , , u u u 2 i i i i > > , > i u m ( I.vXmXNXVXVXVXBXqX_ - , u i i , > > > # > > - - p.%X%X-X5X9XiX.X-XxX.X` CX0X) v S S _ p..X9XxX8Xi.{ S S S G G b /.AXHXxX5XiXiXxXSXCXCXHXHXHX:Xj c g s ",
"$ _.|.,X>XS 1 1 u u u u u u i u i > > i i i C V V I.vXBXBXVXNXdXsXMXiX{ , , u , , > > # # # > - - r.%X%X-X5XiXMX.X}.iX-X_ mX0X) v S I  .qX=X%X=XtXqX4X Xi.` A S k .XSXFXxXqXiXiXmXSXAXAXHXHXHXhXc f f s ",
"$ u.W.,X|.k 2 j d f f f i u f i , > > > i C ( L.P.5.xXsXdXNXBXfXfXpXMX2X3 , , , , > > i # > > - 3 a.2X-X5XqXiXxX6X}.5X5Xt bX0XI v v S ) B.+X;.c.Z.S.*XtXiX5Xi.D 6 7XAXnXxX9XiXiXCXSXSXDXGXHXHXvX[ u m # ",
"$ | W.1Xu.- 2 j d f f f i u i i , > , i C V P.L.P.7.8XpXdXdXBXdXsXyX&X-X{ 2 , > > > > > > i > - { 5X4X4XqXiXxXiX5X}.5X9X_ xXkX) b S M S M.&XoX+X/.m.v.Z.+X=X-XA.D 0XAXnXxXqXiXxXAXDXDXGXHXHXHXCX1.f f # ",
"X ' W.>X[ 2 5 5 1 f f u u u y i , , i N V P.V L.L.( .XtXsXBXsXpXsXpX%X@Xy.@ + - > - + - - + o o u.bXqX{.G.}.XX-X9X.X6XxX&.qX0X) b M S S i.n.m.&X=XrXtX=XtXwX&X=XB.xXDXnXcXiXiXxXcXSXAXDXJXHXHXDXu.d g # ",
"  _ |.;Xx 2 6 : 4 f i i u u u u i b q.V L.L.L.L.L.B u. XqXiXsXyXpX=X@XD.A.@ - - , + @ - - - - - i.0Xi.6 7 7 7 t M.%X-XxXp.%X0X6 v G G G ] y.v.A.v.C.OX&XtXtX*X&X=XxXcX9XmXqXqXiXiXAXmXSXLXLXJXJX|.4 h # ",
"  .. Xu.2 2 5 : 1 u u i u p p H H 6.I.V L.L.L.L.L.B i $.&.a.=X%XZ.D.F.V.A.3 - - - - - - + - 3 9 H _ 6 6 6 6 q 7 q `  XxXXXXX0Xl k G G M S } >.A.A.v.v.v.n.Z.oX@X+X6X.X}.mXiX6X5X0XNXbXFXLXLXLXJX,X4 g # ",
"X W.>XG , 2 6 : 1 u u p a b H J H q.V V L.L.L.L.P.B i , - % _ M.y.b.v.m.@.& o - % - - + + @ 3 Z 3 - - 7 6 A _ o.+.q %.iX4XM.kXz j G G G M S D >.9.A.Z.oXF.v.A.F. X+X X XNXbXiX5X0XbXmXDXLXPXIXLXgXj d # ",
"X _.W.p 2 2 6 5 1 u p H J J H H R.7.B P.L.L.L.L.P.B n i - $ - z 0 r ` b.@.* * @ + o + b b - @ 6 k 5 0 D 0 ` y.+X&XF.w %XqXa.0Xz a G G M M G k S X.v.A.v.V.A.N.}.}.}.M.}.nXFXKXDXcXmXmXmXnXFXKXHXvXM d < ",
"= _.2., p k A 2 1 p D J L F Z ;X1XC B B L.L.L.L.B B n + + + + + O & +.*.OX*X$Xn.a.7 U u./.N , 3 D M.}.y.` c.@XyXyXrXc.c.9Xp.5Xj k ' W W M M c k k $.M.A.>.&.y.N./.}.y.2XmXSXKXPXUX0X5X2X2X4XbXGXCX,.u # ",
": E.2 u p S _ z 5 a F J J a W.>XR.n B B V V V B B B n i + + o o O O ` C.#XrX$X$X&XG.) m E.).a 6 n.tXuXrXH.tXaXaXuXrX$X;.tXM.2X5 b v W W W U M b j 6 A _ X.$.8.9.A.Z.r.8XcXnXUXPXKXnXbX0X5X0XgXxXmX4.u < ",
": | p j k z S ) S q Z 9 3 H >XE.w.n B B B B B B n n i i + + + o O O * C.K.K.m.m.oX&X2.n C u.k X.6XpXuXuXaXfXdXfXuXuX*X;.-XB.{.5 v W W W W W W c j j 1 2 a 2 0 { $.r. XiXxXMXUXIXSXSXUXLXSXxX2X.X8Xi.d # ",
"X p x v b k a 2 : 3 2 7 2 8.W.R.6.n n B B n n i i + + + + + o o O O @ @.c.K.$X$XrX=XW.n B x 6 v.yXyXaXaXaXaXfXaXaXuX*Xn.@Xp.0.: k v W U W I I N c j 4 @ 3 - - D 8.A..X%X9XbXDXUXnXMXDXUXKXSXxX.X2XW.j > ",
"X j k W b a 2 : - - : 7 2 | 6.q.6.B n n n i n i , + + o + + Z % O O & 8 e @.=.z.b.V./.C B n _ }.rXuXaXaXfXfXfXaXuXF.z.m. Xp._ % j N W W W I W M c j 4 > , , = 3 p.M./..X6XiXMXAXMXxXnXUXVXKXcX{.3.3. .j ",
". k x b k k 2 6 q _ q 7 6 k 7.7.[ n n i i , + + + + o o o 3 y.$.q & 8 * w *.+.*.;.b.W.C B n ' /.=XrXuXaXaXfXaXuXV.v.H.V.@XB.7 ; j v v U W v v M c d y , , - o 3  Xp.B.%X5XbXAXAXbXkXbXnXkXbX.Xo._  .| z ",
". f p k A D 6 q O.v.@.q 7 a W ,.n p i i i + + + + o o o o ` n.M.y.` * =.H.#X@XN.:.y.8.i i i , { y.b.b.b.z.c.C.b.%.%.%.%.y.o.& X ; 1 1 1 1 1 1 1 , o X X X X . $ r.} X.r./..X4X2X{.G.G.a.r.&.7 * $ % 7 % "
};
