/* XPM */
static char *1350004491258[] = {
/* columns rows colors chars-per-pixel */
"100 59 243 2",
"gX c #484848",
"a  c #111111",
"@. c #202121",
"9. c #24262A",
"O  c #090808",
"9X c #434343",
"'. c #3A3B3B",
"F. c #333333",
"0X c #434344",
";X c #483F27",
"^  c #302711",
"-. c #232324",
"n. c #393427",
"C  c #191919",
"<  c #0D0D0C",
"f  c #121212",
"y  c #0F0F11",
":  c #0A0C0F",
"0. c #25272A",
" . c #3D3111",
"n  c #1B1811",
"N  c #171818",
"-  c #090A0F",
"j. c #2C2C2D",
"y. c #292929",
"-X c #463E27",
"v  c #161616",
":X c #564412",
"l  c #141414",
"t  c #0E0F10",
"jX c #484949",
"yX c #454546",
"S. c #323233",
"e. c #272828",
"hX c #484849",
"5X c #414242",
"=X c #423B27",
"*X c #463812",
"3  c #0D0D0E",
"I  c #32280D",
"2  c #0E0E0D",
"K. c #343435",
"j  c #171510",
"NX c #4C4C4D",
"7  c #0F0F0E",
"/. c #393939",
"&  c #0B0B0B",
"OX c #3E3E3E",
"(. c #39393A",
"w. c #26272A",
"x  c #151515",
"R  c #262011",
"Z  c #19191A",
"b  c #171717",
"V. c #303131",
"k. c #2C2D2D",
"k  c #131414",
"g. c #2B2C2C",
"4X c #414142",
"G  c #1D1D1D",
"M  c #1F1B10",
"mX c #4B4C4C",
"t. c #282929",
"L  c #1F1F1F",
"1  c #0D0D0D",
"N. c #303030",
"u  c #101010",
",X c #3F4040",
">X c #3F3F40",
"p. c #292A2A",
"rX c #444545",
"a. c #2A2A2A",
"[  c #372C11",
"E. c #373737",
"   c #050505",
",  c #0C0C0C",
"P  c #201C10",
"9  c #0F0F0F",
"oX c #3D3E3E",
"8  c #0E0E0F",
"~. c #383839",
"8. c #272727",
"E  c #292211",
"d. c #2A2B2B",
"1X c #404041",
">. c #242425",
"@  c #08080A",
"u. c #29292A",
"q. c #25272B",
"=. c #232323",
"L. c #343535",
"_. c #3A3A3A",
"x. c #2D2E2E",
"{. c #3B3C3C",
"&X c #403411",
"`  c #342A11",
"pX c #464647",
"$X c #42340E",
"CX c #4F5050",
"sX c #474747",
"U. c #353636",
"X. c #3C3112",
"nX c #4B4B4C",
"T. c #363637",
"G. c #333334",
"*. c #222223",
"c  c #151616",
"Y  c #382C0E",
"|. c #3C3C3D",
"R. c #363737",
"}  c #382D11",
"cX c #4A4A4B",
"c. c #2E2E2E",
"J. c #343434",
"H  c #1E1E1E",
"d  c #111212",
"i  c #111110",
"MX c #4C4C4C",
"aX c #464747",
".X c #3D3D3D",
"3X c #414141",
"B. c #303031",
"2. c #252626",
"w  c #0A0C10",
";  c #0A0B0F",
"bX c #4B4B4B",
"5  c #0D0E0E",
"7X c #424243",
"q  c #090B10",
"+X c #3E3E3F",
"/  c #302811",
"tX c #454545",
"e  c #0B0D10",
"$  c #0B0A0A",
"4  c #0D0D0F",
"'  c #342B11",
"kX c #494949",
"z  c #141415",
"{  c #372D11",
"`. c #3A3A3B",
"V  c #181919",
"6X c #424242",
"1. c #252526",
"Y. c #363636",
"@X c #3E3F3F",
"J  c #1E1E1F",
"qX c #434444",
"]  c #352B11",
"z. c #2D2D2E",
"i. c #28292B",
"<. c #262625",
"4. c #272626",
"VX c #4D4E4E",
"v. c #2E2F2F",
"D  c #1C1C1C",
"uX c #454646",
"S  c #1B1B1B",
"vX c #4A4B4B",
"_  c #332A11",
"B  c #181818",
"K  c #1E1F1F",
"p  c #101011",
"XX c #3D3D3E",
"H. c #333434",
"O. c #202020",
"5. c #272726",
">  c #0B0C0F",
"!. c #383838",
"fX c #474848",
"xX c #4A4A4A",
"dX c #474748",
"m. c #3F3926",
"U  c #3A2E0D",
"zX c #494A4A",
"iX c #464646",
"). c #393A3A",
"F  c #1C1D1D",
"Q  c #2D2511",
"g  c #131313",
":. c #242424",
"#X c #3F3F3F",
"BX c #4D4D4D",
"}. c #3C3C3C",
"6. c #262627",
"<X c #404040",
"M. c #2F3030",
"#  c #0A0A0A",
"A. c #323232",
"%  c #0B0B0A",
"T  c #272110",
"0  c #070A10",
")  c #322911",
"$. c #212122",
"P. c #353535",
"7. c #262727",
"8X c #424343",
"s  c #111112",
"~  c #2D2512",
"|  c #3A2F11",
"b. c #2F2F2F",
",. c #252525",
"^. c #383939",
"r. c #282828",
"m  c #1B1911",
"=  c #080A0F",
"s. c #2A2A2B",
"]. c #3B3B3B",
"!  c #2E2711",
"o. c #1F2020",
"X  c #06080B",
"Q. c #373838",
"A  c #1A1A1A",
"r  c #0D0E10",
"*  c #08090F",
"wX c #444444",
"I. c #353536",
"lX c #49494A",
"W. c #373738",
"%. c #212222",
"[. c #3B3B3C",
"f. c #2B2B2B",
"#. c #212121",
"%X c #48390E",
" X c #3C3D3D",
"Z. c #313132",
"(  c #312811",
"l. c #2D2D2D",
"o  c #080808",
".. c #3F3211",
"C. c #313131",
".  c #070707",
"D. c #323333",
"+. c #202021",
"3. c #262626",
"h. c #2C2C2C",
"6  c #0E0E0E",
"&. c #222222",
"+  c #090909",
"2X c #404141",
"eX c #444445",
";. c #232424",
"h  c #161410",
"W  c #2B2411",
/* pixels */
"& & & & & & & & & & & & & & & & & & &   -.J.b.-.d.J.-.S Q.B.d.D J.b.;.b.,XOX8.u d.).g.b.g 8.W.-.8.J.b.b.J.-.S d.).b.v F e.S {.g.D J.B.g.F.8.8.OX;.N g g b.f.-.  & & & & & & & & & & & & & & & . & & & & ",
"8.d.-.d.B.8.d.d.8.B.B.b.b.8.b.B.8.;.b.B.B.J.OX).B.bX).B.7X7X).{.rX>XrXJ.rXdX).d.B.,X,XOXB.J.7XOXOXbXOX).,XQ.[.).bXrXd.B.,Xb.{.7X{.rX7X7X).W.).7XF.d.;.8.J.).b.b.d.d.b.d.8.e.B.f.g.g.f.b.e.-.b.F.f.d.B.d.",
"7XrX7XOXOXrXrX7X7X7XrX7XOX).bX7XOXrXbX7X7XrXrXrXrXJ.qXdXOX>X7X7X7XOXrXOXqX,X).rX7X0X,XOXnXrX,X{.OXrX,XfXfX0XrXfXqX7XbXbX7X,XqX).OXOX0X7XW.OX,XW.0X0XfXbXrXfXfX7X7XrXrXbX0X7XVXrX0X7X7XOXOX0X,X0X0XrXnX,X",
"7X7XOXOX7X7XrX).OXOXrXOX7X7XOX).7X7X0XJ.OXrXrXrX7X).{.7XOX7XOX7XrXOXrX0X7XrX7X7X7X>X{.qXqX7X7X,X7XOX,XOX{.7XqXrX7XOXOXfXOX7XrXOX7XrX>X[.[.7XOX[.7X).OX7XOX7X>XOX).[.OXrX[.).rX>X{.OX7X{.).0X>X7X).).0XJ.",
"OX7X7X7XrXrXrX7X7XrXrXrX7XrXOXOXrXOX7XOXOX7X7X7XOX[.).7X).rX7XfXqX7X7XOXOXrX7X7XOX).).rX,X,X,XrX7XOXOXQ.{.7XOXOX7XOX).qX7XqX>XOX0X7X[.W.OXfX7X).7XOX[.7X>X>XOX0X{.W.7XrX).Q.7X{.OX0XfXOXOX7X7X,X).[.>XJ.",
").[.rX7XOX7XOXrXrXrXrXrXOX7X,X7XOXJ.).rX7X7XrXOX).7XOX>X{.rXrXrXOXqX).).).,X).OX{.).OX,XOX{.7X7X,XrX).[.qX,X).).7X7X).7XrX7X).).OX[.).[.OXrXrX[.7X0X).7XfXrXOXrX>X).0XrXOX).7X).>XrX0X[.OX[.>X).{.7X7XQ.",
").bX7XOXrX7XOX).rX).OXOXOXrX7XOX).).).OX).7X7XOXOXrXdX).).Q.OX[.7X,X{.OX).7X,X{.OXOXqX7X7X0XrX).rX7X7XqX7XfX).rX,XOX7X7X,XrXrX7XbX7X7X7XOXOXrXbX[.J.).OX>XOXW.W.).rXOXrXbX7X7X7XOXJ.7XnX7X).rX[.{.rX7XJ.",
"J.J.7X7X[.7XrXrXJ.7X).).7XOX).7X7XbX[.>XrXOX).7XOX[.>XqXJ.qXqXOX7X7XOX7XrX,XrXbX7X,X).fXdX{.7XqXOX7X).OX).rX7X).).7XQ.).rX,XrXOXOX0X>X).).[.rX).[.bX7X>X7XfXfX7XOXOXrXOXW.{.>XOXOX7XOXJ.{.,X0X7XfXrX0Xb.",
").OX7XrX).OXOX).7XOXqX7XrX).).).).rXrX7X7X7XrX).OXrX7XfXrX7XOX0XrX{.).>X).7X).).7X7X).).7X).).rX7X{.7X,X,X).OX,XrX,XqXdX).OX,X,X,X).[.rX).>X).rX>X0X>X7X0X7XQ.>XOX7XJ.rX7X{.bX>XOX7X{.>XfXrX>X>XrXrXOX).",
"OXOX).7X7X7X).7X,X).OXOX).rXrXOXOX,X7X[.).7XOX).7XrXOX).7XOX>XOX7XJ.{.rXqX[.).7XOX{.{.OX{.).).,X7XOXOX,XqXOX).OXqX7XOX).OXqX,X7X[.).>X7XrXrXOX7X>X7XrXrXOX[.>X>X).).7X>X).>X).).OXqXOXOX0X[.>XrXfXrX[.).",
").rX).OX7XOX,X7XOX).OXOX).7X7XOX7XrXOX7X).7X).).OXrX7XOX7XOXOXW.>X7X7XqX7X).OX{.OXqX7X{.,X{.7X).OX7X7XOXOX,X{.OXrX{.).).,XOX[.,XOX).[.>X7X>X0XrX0XrXrX0XOX{.>XrXOXOX7X>X[.7X7X[.OX>X>X[.[.[.>X0XrX>X0XJ.",
"J.rXOXOXOX).7XOXOX7X7XOX7X7XOXOX0XrXOX7X7X7X).OX).OX7X0XrX7X7XOX7XrXrX7XOX{.qXOX,XrX7X{.rX7X7X).).OX7XOX).>XOX7X7XOXOXOXOX).).OX0X>XW.OXOX).rXrX0X0X7X[.7XOX[.0X7XrX>X>X>X7X0X>XOX[.7X).{.7X>XOX7X[.rXJ.",
"J.).7XOXOX7XOX).OXrXqXJ.7XrXbXOX[.OXOXJ.rX).7XbXrX).rXOXOXrXrXbX,XOX7XrXOX7XrXrX7X7XOX7XfX7X).7X).Q.OX7XrX,X{.7X,XrXdXqX,XqXOX7XfX0X).7X0X[.rX>X[.OXW.).7X).).W.,X7X>X>X7X[.W.>X).OXrX[.rXrX>X[.OX7X[.Q.",
"OX,X).rXOXJ.OXbXOXJ.7X7X7XrXOX).OX7XOX).rXOXOX7X).>X7X).7XOXJ.).rXOX7XfXOXJ.).[.J.J.7XrXrX[.).qXqX{.OX[.{.{.7X7X).qX).Q.rXrXrXrXW.OX>X>XrXbXrX).OX,XOXOXfXrX7XrX7X,X[.>XrX7X7X[.).0XfX,XOXrX7X0XW.Q.[.).",
"OXqX7XrXbXOXQ.7XOXOXbXrXOXJ.OXbXOXOXrXbXrXbXrX7XbXrXrXrXbX[.OXbXVXbXMX,XrXdXdXbXVXrXbXOXrXqXrXbXOX7XOXrX,XMXMXMXMXbX,XOX{.bXVX7X7X7XOXrXrX[.rXrX>XrX[.7XOX>X).0X7X>XrXrX).rX{.).7X[.rXdX).>X7XrXqX[.fXB.",
").rX).).).,X7X7X7XrXOX7XrX7XOX7X7X).7X).rXOX).rXOXOXOXb.d.d.d.d.b.f.d.d.g.g.b.b.b.g.f.g.b.g.b.b.d.Q.J.d.d.g.d.g.g.d.d.d.d.g.b.g.f.b.g.f.b.f.b.g.b.7X).[.7XqX7X0X).).OX,X>X0XrXrX).,X7X[.7XbX>X{.rXQ.7X{.",
").7X).7X[.rX7XOX7X7X7XOX7XrXrXOXOX).OX7XOXOX).7X).7XJ.S g 2 g k & 2 v g g 2 & & & & & & & & & & . 8.d.u g u g u , k g u g , & & & & & & & & & & g ).7X>XOX[.>XrX{.OX,X7X,XqXrXOXOX).,X,XqX{.).0XrX[.7X[.",
"OX7XOXrXOX7X7XOXOXOXOXOX7X7XrXrX).OXOX7X).7X7XOX7XrX{.OX7X>X).>X-.-.qXOX7Xb.2 g 9 g 9 g 9 g 9 g 2 e.OXOX{.OXOXJ.v rXQ.OX{.S 7 u g g 9 g 9 9 g y v [.0XOX7X).[.rXqX,XqX,XOXqXrX,X0XOX,XOXqXOXOX7X>X0XrX{.",
"OXrX7X,X{.).rX7XOXOX).7XrX).7XrX7X7XOXOX,X7XrX7X7X7XQ.7XJ.b.J.J.d.>XOXOXF & g 2 9 u u u 9 u u g , 8.OX7XQ.@.7X).7XB.7XF & u u u 9 9 g 9 9 9 g 2 v 7XOXOXbX>X).7XfX7X7X7X,XqXrXfXrXqX>X{.7XrXfX).).0XdX).",
").7XOX).OXOXOX7XbXOXrXOXrXqXW.J.W.).).).7XOXOXbX7XOX).bX8.e.).rX:.k v v 2 g y t u u u u u u y 2 2 8.qX{.D ,XOXqXk k v g u u u u g 9 2 9 g 9 9 2 N OX).0XrXOXOXfX7X,X7X7XfXrXrX0X>XqX).7X>X).qX{.).).rXJ.",
"7XfXOX).).J.OXOXJ.bXrXOXJ.OXrXrXrXOXOX7XJ.rX7XOX7X7XOXCX-.b.rX8.g 2 y g 2 g 2 g g 2 g 2 g 9 g g 2 ;.bX).S fXQ.S 2 g 2 u u g u u g 9 y g g 9 g 9 v OX7XrXOXrXfX7X,XbX7X).OXOXrXOX7X7X[.,XrX>X,XqXqX7XQ.B.",
"B.rX7XOX).bX7XqXrXOX7X7X7X>XrXJ.>X7XW.).).).rXOXbXOXJ.e.g S -.g & 2 2 2 2 2 2 2 2 2 2 2 2 2 2 2 & e.B.N g -.D % 2 9 2 2 2 2 2 2 2 2 2 2 2 2 2 , v OX>X0XfXfX7X).rX,X{.OX{.,X[.7X,XqX7XOX).Q.[.,X).,XqXOX",
"OXOXrXrXrXrX7X{.7XrXOX).).).rX7X7X7XOXOXrXrXrXrXOX).B.v v k g v S S N S N S S N N v S N N N N v v 8.-.g v g k N S N N N N N S v v N N v N N N N S J.7XOXOX7X>X7X7XqXOXrXOXOXqXQ.).OX7XOX[.qX,XOXQ.).{.F.",
").OX7XqXrX7XOX).7XrXOXOXOX).7XrX>XOX7XOX7X7X7X7X7X,XB.F -.-.-.-.F F -.o.o.-.L o.-.-.o.-.@.@.-.-.-.;.;.-.-.-.-.@.F -.@.-.-.@.@.-.-.L -.-.L -.L -.@.J.7X).).>XOX7X{.7XrXqX,XOX,X7XOXOX{.{.,XfX7X7X,X{.OXF.",
").rXOXOX7X7X).OX7XqX7XrXOXOX7XrX7XOXrXOX).[.OXOXrX,X).g & & & , 2 2 , & & 2 2 , 2 2 2 & 2 2 2 2 & 8.8.& 2 & & 2 2 2 &   & 2 , 2 & 2 , 2 & 2 2 & k ,X7X[.[.,X).7X).OXqXOX,X7XOX7X7X7XOX).qXrX,XrX0X>X7XJ.",
").rX).).OX7X7XOX7XOX7X7X7XOX7XOXrXbX7X7X7X7XrXbX).7X).).).J.J.OXS F {.{.9Xk 2 g 2 g y g g y 9 g 2 8.).).H.J.OXb.g 7XqXqXqXS 2 g g 9 g 9 9 g g 9 N ,X,X).7X,X{.qX,XOX{.{.>XqXqX).OX0XrX).qXqX7XrX[.OX7XJ.",
").rX7X).).rXrXbXOX>XOX7XbXrXrXbX7X7XOXrX7X>X7XrXbXrX7X[.rXOXd.OXJ.[.-.v S g y y g 2 2 g 2 u u 9 2 8.OX,XfX8.J.Q.B.S S S S g 2 y 9 g u 9 9 u g 2 N J.Q.rX,XOXOXrX,X,X7XrXQ.OX7XOXOX,X{.Q.rXqX7XfX7XOX,XOX",
"J.OXOX7X7XrX7X).7XOX).).OX{.7XJ.>XOXJ.7XrXJ.7X7XJ.7X).rXH.M.B.OXB.F g 2 2 u 2 g 2 g y 2 y u u g 2 :.7X7Xf.J.M.7XF 2 2 2 2 y 2 g u u u 9 y u 9 2 v qXfXOXOX).,XQ.{.rX,XOX).,X{.OXqXQ.qX7XOXrXQ.Q.W.>X0X{.",
"J.7X7X7X).>XOX{.rX7XJ.OXrX).).rX).).OXrX).OX7X).rX7XOXVXF 8.[.).-.  2 g 2 u u u g 2 g g 2 g 2 g 2 :.fX).2 OXH.-.2 g 9 g 2 u u u 9 g 2 g g y y 2 N Q.,X7X>X{.rXOXQ.7XOX).Q.Q.7XbX7X).OXQ.OX,XqXrX7XW.,XJ.",
"OXrX).OX{.OX).OX7X).7XOXrXOXrX7XOXOX).7X>X7XrX>X).OX).W.S F g.d.F 2 g 2 y u u 9 u 2 2 2 9 y y 2 , 7.[.d.v d.-.& 2 u 9 2 y u u 9 9 2 9 y 2 2 g 2 N OX,XrX0X).,X,X{.).).).7XqX0X).OX7X0XOXqXqXfX7X0XOX7X).",
"OX7XOX7XOXrXOX).OXOX7XOX7XOXOXOX,X7X7X,XOXOXrXOX).7XJ.2 9 g 2 2 g g 9 g 9 g g g g 9 g g g g g g 2 8.o.& h 2 2 g g g h g u g g g g g 9 g g g g 9 N {.qXqXrX{.OX7X,XOX{.{.0XqXrXOX[.{.,X,X7XrX7X>X7X7X{.J.",
").OXOX7X).rX7X).OXrX7X7X).).).OXOX7XrXOX).OXrXOX7XqXB.8.e.8.8.8.8.:.8.8.8.8.8.;.8.;.-.;.-.8.:.-.8.8.8.8.;.8.8.;.-.8.;.;.8.;.8.;.:.;.8.;.8.;.:.8.:.H.rXOXqX,XOX7X7XfX7X{.{.7XqXrXOX[.).>XOXqX{.,X7XOX).B.",
"7XrX).rX,X0XrX{.).rXrXfX>X).rX>X).,XW.).rX>XrXfXrXrXJ.2 o & & & 2 & & & o &   2 2 2 9 2 9 2 2 y , 8.o.X - - , q t * 0 0 * * , y 2 2 9 2 9 9 2 2 v J.,XqX).7X,XOX7XrXqX).).rX{.OXbXqXQ.,XqX,XbX,XOX).7XJ.",
"W.fX7XJ.0XbX7X>X7X>X,X).OX7X[.).fX).).).7X7X).J.{.fX7XB.B.g.d.F.v 8.J.J.J.Q.VX-.& g g y u g 2 g 2 d.n.I W ! ' R k  .' [ X.' m t u g g 9 9 g g 2 v 7X,X{.rXOX7X0XOX7X{.Q.).Q.7X7XfX{.).[.>XqX>XW.7XW.7X{.",
"J.7X>X7XOXW.OX7X>XqXfXOX).rXqX,X,XfXrX7X).J.7XfX7XOX>XOXQ.).Q.{.-.S 8.e.g.e.d.S 2 9 u u u 2 g 9 2 q.m.$X*X'  . .P T E [ ' ! k 9 u u u u 9 9 9 2 v 7XbX).OXOXOXrX).).OXqX,XOX).rX).).).Q.OX7XOXOXOXrX7X).",
"J.>X,XOX{.OXOX).OXfX7XOX7XqX>X[.>XrX,X).rXqX).7X).7XOX7X-.d.J.OX8.& & & & & & 2 g u u u 9 g 2 g 2 7.=X%XX.! [ :XP - , q * q 9 u u 9 u u 9 g g 2 v ).[.,XQ.OX>XOX>X{.OXOX>X{.,XrXrX).,XrX).{.,X>XqXfX7XB.",
"J.0X,X[.OX0X,X>X).OX0X7XOX{.7X7XrX>X{.OX,XOX7XOXOX7XOXbX-.8.B.).F 2 g g g y g 2 y g 2 y g 9 9 y 2 9.-XU t &X[ [ 2 u 9 g g g 9 9 2 y u u y 9 g 2 v OXOX,XOX,X7XOX[.{.0X{.OXqXOX7XqX7X,XqXOX7XqXOXOX0XrXB.",
"J.0X,X>X7X,X,X7X).).rX0X).).7XrX7X).OX7X7XOX0X7X>XOX).rXF d.>XOXg.& 9 y 2 g 9 g 2 g g 9 9 9 g g 2 9.-X[ m ' ' ! g u u y 2 y 9 g g y g 9 g 9 g 2 v ,X7XOXqX>X7XOX).).qX7X7XrX).OX,X,X>XOX7XfXrX).Q.>XbXQ.",
"J.7X7X7X,X).>X{.7X{.0X>X,X7X>X>XQ.OX7X7XfX7X7XrX,XOXJ.g & 2 & 2 2 2 2 2 2 , 2 2 2 2 2 2 2 2 2 2 & e.-.o 2 , 2 , 2 2 2 2 2 , 2 2 2 2 2 2 2 2 2 & v ).OX{.rX).,X7X7X{.7XrXrX7X).7X7X).7X,X7XqXqX[.OX,XqX).",
").rX).J.qX7XrXqXOX7X7X7X7XrXqX>X).OXqXOX,X[.,XfXrXbXW.;.8.;.8.;.:.8.-.8.:.8.:.8.:.-.8.:.:.8.;.8.:.7.7.8.8.8.:.8.8.:.:.8.:.8.:.8.:.8.:.;.8.;.;.8.:.).7X,XqX).Q.qX7XOX{.{.>X7X7XfX7XQ.7XqXJ.,XQ.OXfXfX7Xb.",
").7X7X).).).W.W.7XQ.OXbX>XOX[.fX7XW.7XfX).{.bX7XOX>XB.9 2 9 2 g 2 2 2 y 2 2 2 2 y g 2 g 2 2 y g & -.o.2 2 g 2 9 2 2 2 y g 2 9 y 2 9 u g 2 9 g 2 g [.fX>XfXOXOX0X,XbX7X,X).{.fX7X>X).OX{.7X{.,X>XqX>XOX).",
"H.7X{.J.).,XrX0X).rX).[.7X>XOXrX>XOXOXOX>XOXOX).OXfXOXb.d.-.8.F 8.-.;.-.8.d.g.8.:.F 8.F d.d.;.F F ).d.L -.F 8.-.:.7.g.o.-.8.8.-.f.8.F L d.-.F d.N.0X,X[.7X>XOX7X,XOXOXqXOX7XqXQ.{.,XqX>X{.).>XQ.OXOX).B.",
"Q.rX).7XrXOX,X>XOX7XqX7X>X{.7X,XOXrXOXrXrXrX7X).).0X7XOX7X>XrX0X7XrXrXqXrX7XrXfXrXOXdXqXOXbXbXOXfXrXrXbXfXOX>XqX,X,XqXbXnXfXOXOX7XbX7X0X7XrXrXrX7XOX>XOX0XOXOX,XrXrX[.7XqX,XrXqXrX7XOXqX).7X7XOX,X0X>X).",
").7XOX,XrXOXOX).,X7X7XqX>X[.rXOXOX7X7X,X7X7X7XOX>X>XOXOXJ.OXOXOX).).7X7X7XOX7XOX7X).,XOXOXqX7X).rXOXqX>X7X[.>X0X>XQ.,X7X>X>X).).W.,XOX[.[.7X>XOXW.OX7X[.0X0X[.OXqX,XOXOXqXOX7X,XqX7XOXqXOXOX{.>XrX0X7X).",
").OX>XOXOXOXOX).,X7XOX7XOXOXrX>X>XOXrX{.Q.OXOX0XrXOXOXbXOX7X).OX,X{.rXrXrXfX7X{.OXOX{.OXfXrXOXOXrX7XrXOXOX0XrXrXrX[.rXOX[.OXOXOX).>X7XOX>X0X,XOXOX7X7XW.7XrX).OXOX).OX[.7X,X).Q.{.7X7X7X7X).).{.rX>X0XQ.",
").OX,X7X[.7XOXOXOXOX7X>X).OX>XOXrXbXrXrX7XfX,XOX[.7X>X7X>XrX[.>X7XbXrXOX0XOX>X,XOX).).OX,X).OX7X>XrXrX7X7XfX7XJ.OX7X7X[.rX7XOX).7X7XfXrX>XfXrX>X7XOX0X,X,X{.>XrX).7XQ.[.rXrX7X,X).,X7XfXrX7X,X).OX,XbX[.",
").7XqX,XbXOX).>XqX7X).bXrX,X7XOX>X7X).OXOXrXrX).rXOXJ.W.>X).7X7XrXrXrXrX).rX7X{.OXfXbX7X7X7XQ.OXbXrXrX7X7XOX7XrXfX7XJ.).).rXOX7X>X[.OXW.).7XrX>XfX,XrX>X>X>X0X7XOXOXbX7X,XOXqX7XrX{.OX,XrX,X>XrXbX>X>XW.",
"F.7XrX).[.OXOX,X{.).).).OX[.,X).Q.7XfXrXOXfX7X7X0XfXrX7X7X>XrX0XOX7X7XOX,XOXrX7XfX7XJ.).).,X,X).W.[.rX).7XbX7X).fXOX0X7X>XOX).>XbX[.[.OXOXrXrXfX0XQ.).OXfX7X,X,X,X[.J.qXfX{.,X).rXOXOX,X,XqX7X7XOX).fX[.",
"H.rX7X>X).rX,X0XrX).7XOX0XrX,XrXrXfX0X>XrXOX).).0XrXfX{.).OX).0X0X7X7XOX[.).W.7X0X0X>X0X[.).rXrX>X[.>X0X).OX>XOX7XrXOXOX7X0XW.7XOX>X).rX7X7XbX7XOX>X).>X7X[.).7X0X>X[.).rX[.qX>X7X>XrXrXrX0X,X[.0XOXrXOX",
"J.OX7X).7XfXrX7X7XOX7X7XfX0XOX0X7XOX7XrXrX7XOXOX7XfX7XOXOX0X0X7X7XOX0X7XOXOXOX7XOX>X7X0XOX7XqXrX,X0X0XOXW.OX7XOX7XrX[.7X7X).).OX).[.OX7X,X7X7XOX>X>X,X7X>XW.[.rXrX,X[.7X7X[.[.,XrX>XfXrXrX7X,XOX7XOX7X).",
"J.7X{.OXrXrXrXrX7XqXqXqXqXOXOXOXOX[.7X0XrXrX7X7X0XfXOX).OX7X0X7XOX[.7X0X>X>X0XOXOX7XrXqXOX7X>XOX,XrXrXOX).7X7X).OX7X).>XOX).7X[.OX>X7X7X>XOXOXOX7X0X0X,X[.[.,X7XrX7X7XrX>X>X{.7X7X7X7XrXrX7X>X7XOXOX0X).",
"[.rX).rXrXqXOXrXqXrXrXfXOXOX0X[.>XrX0XOX>XfXOXrXrXrX>X).).W.[.7X>XOXOX0X>X[.OX[.rXrXrXrX).).>XW.OX>XrX7XOX>X7X).).7X).).W.OX0X[.rXrXrX0X7X[.>X7X7XrX,X>X).7X7X{.>XqXrXrX7XqXrX>X[.7X7X7XOXrX,X7X[.>XbX).",
"7X>XfX7X).qX).J.).7XOX7X>X).).rX>X[.OX>X7XrX>XrX0XJ.OXOX).).OXfXOX).7XOXOX7X[.>X7X).7XfX0X).>X[.).).rX7X0X>XOXrX).rXbXOX).).).fX>XJ.7X7XqX{.{.7X0XJ.OX[.>X>X>XdX7X>XOX>X7X>X7XOXfXOXrX).Q.OX7X7X[.>XrX{.",
").OXH.OXbXrXbXqX7XbX0X7XbXfXrX).).).7X).0XbXrXrXrXbX7XrX>XrX7XrXfX7X>X>X7X,XrX).rX).7X,X,X,X7X7XOXfX).rX[.>X7XW.).OX7X).).OXbXrX>XbXqX>X>XbX>X7X[.qX7XOX7XrX7X).>XOXrXOXOX0X7XbX,XrXOX,X7X,XOXOXOX).fXH.",
"F.7XfX7X).>X>X{.).7X).).Q.OX7X[.OXfX[.7X7X).OX7XfXOXJ.OXrXOX>XOXrXW.OX>X).rXOX).rX7X7XrX).7XrX>X[.).).7X7XfXrX>X>X>XrX{.OX7XOX[.,X0X7X>X,XQ.,XbXfX,X,XW.[.rXfXrXrX7XOX7XrX0X).[.7XOXOXJ.OX>XqX).>X).rXH.",
"OX7X,XOXrXOX).OXOXOX{.qXqXOXOXqX[.rXOX).,X[.OX7XbXOX7XrX7X0X7XrXrX0XOXW.OX7X).rXfXOX0XrX>XrXOXOXOX).OXOXrXOXOXOX>XOX7XrXrX7X{.>X,X7X).OX7X7X>X[.OXrX>X7XOXrX7XrXrXrX7X7XrX7X).OX[.OXrXrX7XOX0X7XOX7XqXW.",
"OX7XOXOXrXqX[.{.7X,XOXqXqX7XOX7X[.0XOX).).>X[.>X7XOXrX7XOXOX).7XrX7X{.7X>X7X>X0X,XOX{.7XOXOXOX0X7XOX7X).7X).).OX[.).7X7XOX,XOX,XOX).).OX>X7X>X7X).0XqX>X>X7X7X7X0XqXOXOXrX>X7X).{.{.7XqX0X7XOX,XOX7X7XW.",
").7X7XOX7XrX7X{.,X0X,XOX>X0X7X{.>X7XOX>X).7XOX7XOXOX0XOXOX).).OX0X).OXrX>X0X0X>X[.>X).>XOX).7XrX7X7X7X).>X[.>XOX[.{.7XOX).7X>X7XOX).OX,XOXOX7XrXOX7XrX[.OX7XrX7XOX7XOX{.0X,XrX).>XOX).>X0XqX).OXOX,X0XW.",
"g g g g g g g g g g g g g g g g g g g g k g g g g g g g g v g g g g g g g g g g g g g g g g g g g g g g g g g g k v g g g g g g g k g g g g g y g g g g g g g g g g g g g g g g g g g g g g g g g g g g "
};
