/* XPM */
static char *1350020775068[] = {
/* columns rows colors chars-per-pixel */
"100 60 256 2",
"gX c #DADADD",
"a  c #4B5338",
"@. c #4E756E",
"9. c #86716D",
"O  c #0C0A1C",
"9X c #BABDC3",
"'. c #BABB86",
"F. c #A5897A",
"0X c #A2BCCA",
";X c #ECD09E",
"^  c #546D5C",
"-. c #637564",
"n. c #7A8A76",
"C  c #2F6450",
"<  c #301A2E",
"f  c #393746",
"y  c #512A35",
":  c #271828",
"0. c #93756B",
" . c #7A5E62",
"n  c #28554B",
"N  c #375856",
"-  c #191526",
"j. c #688469",
"GX c #EDEEF1",
"y. c #947B74",
"-X c #E5C89C",
"v  c #274747",
":X c #C4C5BB",
"l  c #482F46",
"t  c #4F2B35",
"jX c #D1CFCD",
"yX c #C3C5CB",
"S. c #84987C",
"e. c #8B7573",
"FX c #F6F4E7",
"hX c #D5D7D6",
"5X c #F8E3B8",
"=X c #D6D096",
"*X c #C4C589",
"3  c #183638",
"I  c #644B54",
"2  c #192A36",
"K. c #C2A87E",
"j  c #563847",
"NX c #E1DFE2",
"7  c #382637",
"/. c #98908E",
"&  c #090D23",
"OX c #ABADB3",
"(. c #A38C84",
"w. c #857272",
"x  c #1C4846",
"R  c #6D595C",
"Z  c #3A6D64",
"b  c #394749",
"V. c #6F926D",
"k. c #728C6D",
"k  c #573D51",
"g. c #6B846B",
"4X c #E9D4B2",
"G  c #494753",
"M  c #2A5856",
"mX c #F2EBD3",
"t. c #8A797A",
"L  c #535845",
"1  c #0B252C",
"N. c #7C957A",
"u  c #1A473B",
",X c #E8CDA4",
">X c #D5CCAC",
"p. c #906D67",
"rX c #ABD3E3",
"a. c #8C675E",
"[  c #5C5B63",
"E. c #898988",
"   c #000004",
",  c #2A1C32",
"P  c #66464C",
"9  c #363637",
"oX c #B6B5AA",
"8  c #27363B",
"~. c #8B9398",
"ZX c #ECECE2",
"8. c #8C726D",
"E  c #665358",
"d. c #5E8264",
"HX c #E7EBF0",
"1X c #F3DBAC",
"AX c #E5E6E9",
">. c #6B7C6B",
"@  c #120C1B",
"u. c #927E7B",
"q. c #836E71",
"=. c #776668",
"L. c #B8C07D",
"_. c #B09889",
"x. c #6D8471",
"{. c #989CA4",
"&X c #BDC3B8",
"`  c #4E674E",
"pX c #C8C7C5",
"$X c #C4BAB4",
"CX c #E2E3E6",
"sX c #CBCDD2",
"DX c #E8E7E6",
"U. c #7E828A",
"X. c #596C64",
"nX c #F9F5DE",
"T. c #5F9BB4",
"G. c #B1907A",
"*. c #7D6A6A",
"c  c #1B504B",
"Y  c #6A5356",
"|. c #A89DA2",
"R. c #70AFC9",
"}  c #695962",
"cX c #E5E5D9",
"c. c #6D8B73",
"UX c #C1BDC1",
"J. c #AAAE78",
"H  c #5A4655",
"d  c #263943",
"i  c #374839",
"MX c #DDDEE2",
"LX c #FCFCFD",
"aX c #D8D8C9",
".X c #A8A7A8",
"3X c #F4DDB2",
"B. c #7C9A77",
"2. c #6B7B73",
"w  c #462A39",
"SX c #EAEBEC",
";  c #191A36",
"bX c #FDF5DA",
"5  c #282628",
"7X c #DFE0A3",
"q  c #24271C",
"+X c #B7B7B9",
"/  c #5B6B5C",
"tX c #8FC1D3",
"e  c #49363C",
"$  c #17161B",
"4  c #102B31",
"'  c #79615E",
"kX c #E2DED0",
"z  c #633D46",
"{  c #455D60",
"`. c #96A38D",
"V  c #396658",
"6X c #E4E3A1",
"1. c #6B6C73",
"Y. c #768C86",
"@X c #AFB0B2",
"J  c #485957",
"qX c #9DB8C4",
"]  c #697158",
"z. c #75936D",
"i. c #987B74",
"<. c #75766D",
"4. c #786C77",
"IX c #F0EFE8",
"VX c #D6E8F1",
"v. c #748472",
"D  c #59444B",
"uX c #C6C9CE",
"S  c #484747",
"vX c #FDF3D3",
"_  c #56745B",
"B  c #344A53",
"K  c #565758",
"p  c #314939",
"PX c #F8F8F8",
"JX c #EEF1F4",
"XX c #B4AAA7",
"H. c #94A477",
"O. c #5D7A63",
"5. c #84635E",
">  c #341A2B",
"!. c #868B94",
"fX c #D4D6DA",
"xX c #ECEBDD",
"dX c #CED1D5",
"m. c #749372",
"U  c #664C58",
"zX c #F9EBC8",
"iX c #CBCBCD",
"). c #A59997",
"F  c #475949",
"Q  c #765859",
"g  c #3A384B",
":. c #647B6A",
"#X c #CFB291",
"BX c #DEE1E5",
"}. c #8F97A1",
"6. c #826D6C",
"<X c #ECD3A7",
"M. c #7A9475",
"#  c #160A18",
"A. c #99827B",
"%  c #0A131D",
"T  c #6B545B",
"0  c #332F2B",
")  c #5B735E",
"$. c #756263",
"KX c #F2F3F4",
"P. c #7A7D84",
"7. c #866A66",
"8X c #B7BAC1",
"s  c #1C3943",
"~  c #496657",
"|  c #735D62",
"b. c #738C72",
",. c #687867",
"^. c #979798",
"r. c #8D7A76",
"m  c #375549",
"=  c #091727",
"s. c #778459",
"]. c #A7A49A",
"!  c #6C514E",
"o. c #5C7462",
"X  c #0A0A0B",
"Q. c #889684",
"A  c #375A60",
"r  c #58353C",
"*  c #140E23",
"wX c #BDC1C7",
"I. c #887C81",
"lX c #DEE2DA",
"W. c #988785",
"%. c #7A6465",
"[. c #B3A992",
"f. c #658265",
"#. c #676768",
"%X c #BBC286",
" X c #9CA2A8",
"Z. c #848658",
"(  c #556658",
"l. c #74856C",
"o  c #030314",
".. c #4B6A63",
"C. c #5F825F",
".  c #01010C",
"D. c #8C936E",
"+. c #587567",
"3. c #777778",
"h. c #6D8A6C",
"6  c #292738",
"&. c #7A6669",
"+  c #070818",
"2X c #F2D7A7",
"eX c #A5C9D6",
";. c #637B64",
"h  c #493546",
"W  c #725C5E",
/* pixels */
"; ; ; ; & O * - < 7 k z U U U } U %.U o : - h e. .%. .Q  . . .y.|.$XiX7.u.y.7.(.Y . 5 0 w 7.p.i.i.i.i.p.0.p.0.p.a.0.p.8.W.F.W._._.[.r $ - 0 6._._.#X4XkXzXbXbXbXmXvXvXzXzX,X2X3X5X5X5X1X1X1X2X2X1X,X5X5X",
"; - ; ; + O * , < 7 k j k U U U H $.H X # : h 6.T Y I | (.+XjXAXSXGXJXW.e.r.%.(.T   5 > 7 q.6.e.i.y.y.p.i.0.i.i.0.F.i.0.p.a.0.7.i.XXS O 5 < T (._._.#X4XzXvXbXbXbXnXnXnXbXvXzXzX5X-X-X1X1X1X1X2X1X;X3X3X",
"- * : - o O * , , , k l l U U } D | H . # # w t.I.@XdXAXCXyX{.dXGXAXKXXX6.e.%.W.D   0 : 7 q.7.e.e.e.7.6.I.8.u.i.A._.A.A.i.i.F.i.F.[.D . 5 ! + w 5.0.e.F.>X4XvXbXnXFXnXnXbXbXbXbXvX2X1XvXvXvXzXzXzX5XzX5X",
"* * - ; o o - - : < k l k U } } H R D : E !.pXAXSXsX.XI.[ K G  XKXAXKXiX6.e.%.(..Xo 5 < 7 %.| 6.q.e.| 7.y.7.y.y.y.(.A.i.i.A.F.F.A.#XL   : I X t a.p.0.Q Q p.G.#X4X5XbXbXnXbXbXbXvXzXvXvXvXvXvXvXvXbXbXbX",
"& & * - o ; 6 8 6 , l k k U U } U } q.AXLXLXLX+X[ H J K [ [ K P.KXNXgXAXI.q.W XX^.  < : < } T | 7.q.W &.r.7.8.e.y.(.A.0.8.i.(.F.F.oX!   : r + j p.i.0.i.0.i.F.G.G.-X2X2X5X<X5XvXvXzXvXvXvXvXvXvXvXzXbXbX",
"O O O O 8 N V 8 d l l g k k U U k | | fXPXGXPXsX[ [ [ [ K [ K [ gXGXNXKX|.|  .UXS   5 : 7 U Y | %.&.|  .6.%.6.6.w.A.r.7.8.y.(.A.F.[.W   @ j # t p.0.i.y.p.F.(.F.i.G.-X-X2X#X6X5X5X3X3X1X5XzXzXzXzXvXvXbX",
"@ & & 2 d u ..b ; { [ 1.[ H U U k | H .XLXKXKXGXU.1.X.[ [ [ [ J 9XKXAXKXpXU |.).9   > * < } T %.%. .Y | *.%.7.7.%.y.e.*.9.8.A.W.0.[.=.. @ D # l p.y.i.8.0.i.(.G.p.G.K.#X-X#X,X5X5X2X2X2X;X1X2X;X1X5X5X5X",
"= - d ; v n A ^ { { @.A A g H U k T 7 #.LXSXHXPX.X3.3.1.#.[ [ b !.PXAXSXiX/.|.q.e   : : < &.U | $.&.U R &.%.&.6. .y.8.7.6.*.y.(.A.[.*.. X t # w  .8.i.8.7.i.(.(.p.p.F.K.#XK.-X5X3X3X1X1X2X3X;X;X;X1X5X3X",
"= s x M Z V Z Z Z M c d k g g } $.I.| 4.JXDXGXPXhX{.~.P.1.1.3.}.yXGXGXGXdX+X .I.D   > : 6 | T &.*.*.U R q.$.*.6.$.I.6.6.6.=.t.(.A.].%.  O w @ 7 Q 8.u.8.9.i.(.(.p.0.F.F.G.G.#X3X2X1X3X3X2X5X,X;X2X3X5X3X",
"s C Z Z C n C C C n c x d G k XXFXcXZXZXCXPXKXKXKXgX9X+X9XgXJXPXLXKXAXgXGX@XU ).D   : # 7 | T &.*.6.H  .t.$.q.7.7.u.*.*.*. .t.A.r.(.%.  o 0 @ 7 T e.i.8.8.i.y.A.F.p.A.i.0.p._.<X-X2X<X2X2X5X;X,X2X3X5X1X",
"Z C Z n C u C C c V n M c B s @XLXxXcXIXAXKXKXKXKXPXJXKXLXKXPXJXgX8XgXAXCXLX(.I.S   : @ 7 $.R $.*.*.I &.t.W 6.*.&.r.6.7.*.%.t.t.w.W.$.. X h O < | r.e.8.y.u.W Q (.0.i.A.e.7.(.#X#X-X,X2X2X2X;X;X;X1X5X1X",
"C c C u n c 4 u V n 1 B s N N @XLXPXxXoXpXKXKXKXPXPXPXLXJXhXOXU.[ K iXGXAXGXGXXX7   5 $ , | T } *.=.D &.9.R *.*.q.I.w.&.w.&.A.u.W A.$.. o e + 7 %.e.8.6.e.e.9.$.I.i.I.p.7.7.y._._.#X-X,X;X2X-X;X<X3X5X5X",
"u M C Z C 3 u C Z M M c n M x c.hXLXaX! t.JXPXKXAXCXhXOXU.#.1.U.!.!.@XBXKXGXPXLXe   : # 7 T U | =.$.D =.*.E *.&.&.r.w.$.6.*.u.A.$.A.=.. X 7 O , | e.t.q.w.q.W.(.i.p.A.e.8.7.6.A.F._.#X#X-X,X-X;X;X3X5X5X",
"V Z Z V C u C C C Z c c x 4 3 ..@.yXkX! %.gXBXfXMXKX^.P. XOXOX X^.^.{./.JXPXJXLXdX$ $ $ < T H $.=.| D =.=.W &.&.$.w.*.$.*.*.u.r.*.A.<.. . w # < } q.y.q.6.w.A.A.w.7.A.I.y.6.6.i.0.p._.K.#X-X#X-X,X3X5X5X",
"c M C d.n n ..u c C c A B x c M s 2 X.8 f fXPXPXLXLXGXfXwX8X.X{.{./.~.P..XGXSXKXLX.X@ * 7 } k } =.} k =. .$.*.=.R 6.*.$.*.*.e.A.7.y.w.. . w @ ; T  .q.7.6.*.r.u.e.%.e.8.t.e.*.W.i.7.y.G.#X#X#X-X-X4X5X5X",
"3 u c C u 4 3 v ..C @.@.A @.4 s 4 = 1 4 4 !.LXKXPXKXPXgXwX+XOX{.!.!.{.iXfXGXKXAXSX3.# % , } k U =.E j 4.&.| $.R $.6.*.$.*.$.e.t.*.A.t.o o 7 # * U } %.*.6.&.w.r.e.&.q.y.e.6.*.u.e.5.7.8._.#X#X#X-X<X5X5X",
"V @.M c 3 = 3 V V 1 d.3 & = + = 3 1 1 1 & d AXHXAXKXLXKXyXOX.XOXUXNXGXLXPXHXyXP.h   * + 7 H l U } U h 4.$.| &.R | *.*.$.$.W t.r.*.A.A.o o w # * U } &.6.w.' w.t.e.%.*.e.e.| $.y.e.%.*.&.8.G.G.#X-X-X4X5X",
"@.M 1 = = u @.@.x 3 3 3 3 = = % % = = . & o ~.LXKXLXLXLXgXuXMXKXPXKXSXgXOX4.k l X . * o , H l k U H j =.} | *.R $.6.=.| $.R w.e.=.e.n.o . 7 # * k } 6.6.6.R w.*.6.W 9.R $.$. .r.8.' %.$.%.8.0.G.#X#X,X5X",
"Z 4 1 1 Z c.Z c 2 x 4 4 1 = = = = % & o o . l PXLXLXLXLXKXKXKXKXSXAXNXI.w l j h @ o * + , k l k U U h | } R &.| $.*.q.| $.R *.*.$.r.E . . 7 $ * h T &.&.&.W *.*.&.Q 7.W $.&.| t.9.W &.' %.%.' 0._.#X-X4X",
"4 x 1 s A A c 1 v n s 4 1 = = & = & + o . + - +XLXPXLXLXLXPXLXKXPXKXSXNX.XH k h O o O O , l l k U H j } | U | | | &.*.$.$.$.*.*.W 6.#.o . w * # h W %.$.&.$.*.*.W T *.&.*.$. .e.6.W *.' %.7.Y  .i.#X#X4X",
"v B s d 2 v = + 8 c 1 = = 1 = o + + + & O + o H LXLXLXgX^.T XXLXLXLXPXZXIXjXt.h O o o 6 k l l H U k k U } T } } R $.*.| $.' $.$.| =.*.X . w : O j } w.6.$.$.%.&.$.Y %.*.7. .| w.*.R %.' W *.T W ' 0._.#X",
"2 = d d 1 & 1 ; = 2 1 2 s 1 + + + & = = & + & O OX.XG - O > > I.KXLXLXLXIXIXZX{.#   X h U k k H } } } } } } | } $.$.*.W $.R $.R $.*.<.  . > * O j T 6.*.R =.$.$.W I W W W I I &.=.R $.R Y &.R ' W Y 0.[.",
"* G A 4 2 d B + + b s A B = 1 + & = & o o + & + * o o @ * : , : I jXLXLXLXFXDXIX+X9   6 h k E } } 4.| I.| =.&.| *.*.*.=.&.$.&.W W w.t.X . 7 : + l [ 6.*.E $.$.$.W I W $XfXiXpXhXXXY %.T Y | T W =.$.$.A.",
"- b ( 2 2 s s + B { B 4 2 & + = A & o = & o o + O & O * * * : , j j XXPXLXPXLXZXZXcX=.# : 7 h j } } | I.%.T =.&.*.=.*.*.&.=.*.$.=.w.*.    : , & l H q.&.$.*.=.$.R I =.KXLXLXLXLXBX*.R R T R W I T *.$.A.",
"- J @.d o 2 2 N 6 v d + = = o & 2 & + + & + + + + O & O - < w h k 7 :  .DXPXLXPXIXcXSXoXI j r w w j D U $.&. .%.*.} q.w.r.$.*.*.q.&.)..XI.1.H O 7 I *.$.| $.$.$.R U XXSXGXBXrXGXsXOX| Y T |  .H U W ' r.",
"- 8 f O $ N 2 s N v 2 1 + & 1 + & & o & + O & O * O O < < l k k j r l w r +XLXPXFXIXcXZXcXI.j H j P j y j D P Y =.q.w.e.I.e.*.w.6.*.AXKXLXLXPXwXH I *.W | | $.| T $.NXHXPXtXeXDX9XdX/.D | T T P E Y W t.",
"7 j > # : X % - d d 2 2 & B 2 & ; o o + @ @ * : - # < l w , - w l w l j y w W.SXLXnXnXxXcXDXoXT t Y P k P z P P P ! Y Q q.W.I.r.e.6.KXKXGXKXPXPX4.z *.W | $. . .! ).HXCXSXR.NXfXyXdX9XU | T I I Y T Q 6.",
"w t w 7 w t > S b g { 8 & 2 - O * O O * # : : : > > > l k * 6 f l 7 l k w w l U +XFXZXZXZXgXDXkXe.P k z Q T Q 5.5.' ! z P Q  .q.w.|.LXGXCXSXPXBXI.$.9.6.$.&.&.$.T jXHXAXrXR.SXyXuXuXfXW.T I I I Y  .' 8.",
"w j > > w r I f * h 9 , @ @ $ # : > > 7 > w 7 h > : : 7 7 - b J B 8 B { g b G g 8 ^.IXxXZXIXxXcXlX$X].t.Y P T  . .7.5.Q Q 5.! P P $XLXNXAXfXKXiXW.(.(./.W.7.$. .I.AXNXKXtX0XNXyXuXuXdXyX6.H U P U T 5.G.",
"r h e j t D } K D e w w > j w t y j z e G h S G f 7 b m V m N ~ m N x n M B V v v +XpXOX X@XZXxXlXDXgX.X! z Y Q 5.p.7.Q 5.p.7.5.Q NXPXAXfXSXJX@Xq.W.r.u.W.W.I.8.$XHXgXHXT.fXdXyXuXuXsXfX|.P U P T T Q F.",
"D K K K ( / F ( o.2.,./ ] #.] #.1.( K [ F J ~ n ~ ~ ~ ^ m ( ` ^ o...m C v u v v v kX{.H [ #.pXZXZXcXlXlX|.I D W 7.7.7.Q 7.p.7.Q I.KXKXJXGXPXSX[ 0 %.8.r.r.r.q.e.NXCXSXrXT.SXyXuXuXsXsXdXiXW U U Q U Q F.",
"( ( ( ( ( i F ( ( X.-.<.:.x.>.>.,.o.^ o.o.-.^ F o.:.c.O.( ) -./ -.) +.^ F m ^ / ( aX/.l h G ].aXcXxXxXlXDXpX6.I  .T  .Q Y 5. .Q XXKXgXSXGXJXgX9 > y z  .Q e.e.|.HXMXKXR.0XNX9XuXuXsXsXsXfX|.P  .Q U Q i.",
"K / -.( / #.-./ #.-.,./ ~ ( / / o.X.X.-.o.:.o.) -.>.2.o.g.x.g.h.;.:.:.>.,.-.-.X.( aX).7 f h E.$XxXxXmXxXcXcXcX].=.R $.Q Q  .Q Q pXJXNXNXHXKX8Xq h W ! 5.y y z $XAXgXVXT.dXsX9XsXsXsXsXsXdXdXq.Q ' P U 7.",
",.<.,./ >.<.,.-.,.,.-.X.o./ #./ o.:.+.:.:.:.O._ f.:.o.:.:.g.x.o.;.2.v.x.v.x.;.~ o.aX]., 7 f E.).#.ZXFXcXxXcXlXZXpX>./ [ I T P W BXHXHXAXAXJX{.q e W Q 5.Q z Q kXNXDXrXT.AX8X9XyXuXsXsXsXdXfX@XQ 7.Q Q 7.",
"-.-.,.-.2.>.>.>.,.-.:.:.:.X.:.+.o.:.:.+.2.+.O.:.+.:.;.) ..+.^ ) o.:.-.o.;.-.( / :.pXXX7 7 7 E.Q.. K jXnXxXIXxXlXDXlXQ.b J H 7 I.JXAXHXAXAXHX1.$ a ! 5.5.Q r W.JXgXGXR.qXBX8X8XyXsXsXsXdXdXdXfX).' Q  . .",
"o.:.:.,.;.,.>.>.,.-.v.>.o.>.:.2.:.:.+.:.+.^ ~ ^ O.:.) _ ^ ..N ^ / o.^ >./ ( -.,.`.&X].w 7 9 E.w.e > e XXIXnXZXZXlXlXDXoXJ f 7 OXBXfXfXAXAXfXJ $ e r Q Q P r UXHXNXBXT.dXsX9X9XwXuXsXsXsXdXdXdXyXp. .7.F.",
">.>.:.o.2.-.,.,.;.>.>.-.O.:.:.x.v.2.x.>.) ;.O.O.j.o./ ) o.~ ~ ~ +.o.( :.-.;.;.Q.cX+XE.9 w e ;.E.[.P t 7 1.xXFXxXnXIXlXcXiX3.~ fXNXfXfXgXgXpXm 2 0 6 G U P U AXBXNXrXT.HX9X9X9X9XyXsXsXsXdXdXsXfX).5.6.G.",
">.2.-.:.:.:.2.>.-.>.;.;.>.c.o.-.:.o.>.<.n.,.-.>.,.-.<.v.#.X.:.o.+.X.+.g.;.-.,.:XxXaX].D w S ,.S.oX! e 7 o 3.lXZXnXFXFXmXCXcX+XCXHXNXAXAXMXOXm m v 6 9 D y I.GXfXGXR.qXBX8X9X9X9XwXsXsXsXdXdXdXfX6.T &.A.",
"3.#.3.n.,.,.,.>./ ] -.>.x.x.o.:.o.2.-.>.-.J ( <.<.>.v.l.D.n.n.3.:.o.o.-._ ` [.kXkXIX:X3.w D n.Q.$XY 9 ; + 6 ~.pXZXFXFXPXIXlXDXAXBXdXBXAXMXY.u N v 8 B m f +XHXNXVXT.fXsX8XwX9XwX9XyXsXsXsXdXfXUXy r r ! ",
",.-.n.n.,.<.S.<.,.<.-.) -.X.-.2.:.>.:.2.>.S.Q.S.S.E.S.>.>.v.S.S.v.v.S.b.,.D.aXkXkXIXkX].I D -.n.#X} , - O , 4.^.Q.lXFXnXLXFXlXAXgXsXAXAXgX@.x { N n N 8 X.BXBXAXeXT.HX9X9X9X9X9X9XwXsXsXdXsXgX|.r z r j ",
",.) >.-.>.v.v.v.n.3./ ] ;.n.S.n.N.n.n.N.n.n.N.Q.n.n.Y.l.n.S.b.l.n.v.l.D.S.$XkXaXkXnXFX:XE.D ].>XoX} , - * , #.].Q.x.pXFXnXFXAXCXBXBXCXNX8Xm N C B ^ ].].pXHXMXGXR.qXMX8X8X9X9X9X9X9XyXdXsXsXgXI.z z j U ",
">.;.l.v.x.g.n.>.v.v.,.M.n.S.b.x.2.X.,.v.>.:.-.x.h.>.b.S.S.<.<.v.S.S.S.E.[.kXaXkXkXmXxXcXXX$.pXIX].} ; ; - ; K ^..X3./ oXcXcXBXCXBXMXBXMXOXF ~ ^ F `.FXFXCXgXCXVXT.dXyX8X9X8X9X9X9X9X9XsXsXdXsX} z P r I ",
"b.l.g.Y.b.x.N.>.N.n.b.c.,.:.h.k.;.f.) ) ) j.o.n.n.] D.n.,.n.$XE.1.1.} G 3.kXaXcX#.oXFXxXjXQ.~.hX].[ & * g 1.3.).XX^.-.J /.lXBXBXuXgXAXsXhXoXo.g.Q..X+X&XfXdXAXeXT.AX8X8X8X8X8X8X8X9X9XyXsXfXOXj l z h z ",
"h.O.b.g.g.g.O.n.+.j.g.x.;.;.b.b.j.M.;.g.b.-.;.-.) -.l.l.<.:XE.G k G l 6 f oXcX].  l.FXxXIXoX/.@X].=.6 9 4..X.X|.~.E.3.3.3.dXAXCXgXBXBXuXlXZXpX[.XX[.W.|.AXhXAXeXyXfX8X8X8X8X8X8X9X8X9X9XsXMXI.l 7 w j j ",
"C.C.O.j.g.O.O.c.O.j.O.c.M.d.c.h.S.m.h.M.M.b.m.b.O.] f.f.`.|.J G g G S 9 b E.oXq e oXlXgXhXoX^.E.I.t.3.P.P.4.#.#.#.[ } } 3.AXAXfXdXCXfXjXZXlXcXlXkXmXnXDXBXdXyXBXAXyX8X8X8X8X8X8X8X8X8X9XyXfXX.d 8 6 l j ",
"f.;.) f.M.b.h.x.b.l.c.j.j.g.M.h.z.m.f.k.M.N.k.k.g.k.k.k.N.S.,./ / v.,.,.] l.] Q.XXS.3.4.1.#.[ H H [ } [ [ [ } #.#.#.#.K ^.HXMXdXfXCXdXdXnXZXcXcXxXxXiXwXwXsXdXfXdX8X8X9X8X8X8X8X8X8X8X8XyX9XA B d B 8 9 ",
"l.] ;.l.S.k.b.g.g.h.m.b.b.Q.Q.m.S.S.b.h.j.k.S.M.n.g.z.M.n.N.b.f.n.z.h.k.k.l.[.&X#.#.#.1.} [ [ K [ } [ [ [ [ G K G B b d OXHXfXfXfXgXuXcXIXmXxXcXxXkX8XyXuXsXsXdXdXOX XOX8X8X8X8X8X8X8X8XyX}.; s 4 v 8 3 ",
"f.f.k.k.;.g.n.b.g._ f.c.j.c.b.g.m.Q.S.k.k.S.k.k.k.l.g.k.h.N.M.M.Q.S.z.S.S.S.&X<.[ [ K G g G g f B { N ..N { J ..J b d J MXAXuXiXgXhXwX XZXxXxXxXnXjX9XyXuXuXdXdXMX{.P.!.!.{.OX8X8X8X8X8XsX1.1 x 4 v d 8 ",
"f.V.V.z.V.B.z.B.B.z.M.b.b.z.M.M.c.B.S.S.S.B.l.S.D.l.b.m.V.M.m.h.Q.N.M.N.N.j.Q.n.2./ / ( J -./ ~ ( ) ) O._ k.k.h.,.` / ^ Q.uXdXgXAXgXOXp v.hXxXmXxX8XwXwXuXuXsXdXfX!.P.P.P.P.U.!.}.OXqX8XwX{ m { x 3 s 3 ",
"h.h.h.B.z.B.z.B.z.z.z.B.N.Q.B.S.m.V.B.B.S.S.M.M.m.b.S.z.B.m.m.B.B.m.M.N.c.j.h.N.b.k.M.m.M.b.h.g._ ^ ) f.N.g.f.,.;.O.f.j.O.g.S.~.OX+XY.` ~ +.:XZXaX+X8XwXwXwXuXdX8XP.!.P.U.U.U.Y.P.!.!.{. X....@.{ N N B ",
"V.z.B.B.B.z.V.S.V.z.V.B.B.H.Q.z.f.j.O.C.C.k.k.) h.z.S.S.c.f.c.h.j.d.d.d.c.m.M.M.h.b.S.B.b.j.^ g.) _ f.;.g.>.;.g.k.k.C.f.k.h.` ~ ` g.j.b.) _ _ `.uXOX8X8XwXwXwXdX XP.T.!.!.!.U.}.!.!.!.}.{.2.V ......V V ",
"D.B.H.s.` a V.z._ C.C.B.m.C.z.B.j.h.f.j.h.z.b.j.O.z.z.C.V.V.c.V.j.V.V._ f.V.f.h.f.k.M.c.b.m.k.N.h.f.n.;.j.N.B.M.) j.g.] ` m ^ _ f.>.o.) ) O.F m ~.+X8X8XwXwXwXwX}.!.!.!.!.!.U.}.}.}.{.{. X@.+...~ C ~ ..",
"%X*XJ.K /.^.] s.J.D.H.'._ -.( f._ _ B.B.V.V.m.h.h.m.g.j.c.V.m._ d.m.h.B.f.a p f.j.C.f.j.z.m.m.m.S.H.B.B.V.` F a #.F d.g.-.O.:.b._ o.) _ ~ ` ~ F ~ ^ oXhX+X+XwXOXP.U.!.!.!.~.~.}.}.{.{. X^...O.O._ V ..+.",
"*X*X] JX+Xn.=.] D.>.s.D.a SX~.0 8 ` ~ / ` a F / F F F ` F m a S ` F L O.S @X~.i i ` F _ F F ` F ` ` ( m i .X~.#.LXS F F m i b p p S i b F m ` F ( p `.FXcXjX&XOX}.}.!.!.!.!.U.~.}.}.}.8X~.^ ....+.@.....",
"%X=Xs.uXLXUX<.0 .Xn..X-.L DXoX^.NXS +X3.UX@XNXn.+X3.OX+XE.@X#.PXq  XjX0 L KXpX9 +X3.@X0 3.+X4.DXG {.E.).9 AXjX3.LXE.iX^.K ^.|.<.|..X^.S.m k._ ` ` 9 oXmXkXmXkXaXhXhXfXdXjXiXpX+X9XyX8X!.@.v m N J N { V ",
"%X*XZ.q S ^.LXOXPX$ &X:Xq IX!.0 LXoXLX$ pXhXPXe Q.SXhX].9 LX+XLXq .XlXp p gX3./ GXX SXE.gX^.0 PX&XCX3.jX$ &X|.9 LX5 E.IXhX+X!..XgXOX$ i F _ ( / -.F oXxXkXmXcXkXaXjXhXCXDXDXlXhXyX+XOXA s B n x n n v u ",
"J.L.] +XXX.XLX} hX[ pX/.0 JX/.9 LX/.PXK jXjXKX#.@XOXpX@X#.CX=.LXJ &XjXL L gX/.9 DXD DXF .X@XK PX~.jXL +XX pX.X9 LX0 !.CXXX X<.E.jX@X0 ) _ ) ;.b.+.:.v.`.aXaXkXIXkXOX X}.I.P.1.1.g 6 B N d B v N v u x s ",
"L.K.J.' E.E.L a ] <.L L D.] L i 3.9 / <.4.#.LXE.#.q pXpXK L 9 jXiXSXpXs.D.] L ] / 1.S $ E.hXlXLX9 L 4.L a #.J 0 2.5 L -.q #.<.9 #.K O.H.g.k.m.m.c.^ x.2.k.Q.`.&XoXG b g 6 2 s B 8 b J ~ ^ ` ~ ..p 3 v C ",
"L.*X=XL.Z.Z.J.=X'.J.J.*X*XJ.H.'.D.*X*XJ.H.L |.S ` L E.<.] J.,.+X.X+X<.Z.*Xs.s.*XD.0 L L |..X@XS.L s.` H.H.s.] D./ f._ F k.` ~ ;.` ` Y.m.;.j.g.B.N.n.b.g.f.g.O.f.g...^ o.^ J A ..~ C.j.d.~ _ f.:.o.o._ ~ ",
"J.'.*XL.J.%X=X=XK.=X6X=X'.7X7X-X=X=X6X6X7XH.a K ..` a i D.L.Z.i a a Z.J.*XL.H.L.*XJ.'.Z.a a a q Z.H.H.J.H.J.J.'.[.H.H.[.`.H.S.`.f.f.B.h.j.b.O.O._ c.j.c.b.d.c.^ +.O.f.x.g.f.O.o.~ ..j.~ V O._ d.O.c._ ~ "
};
