/* XPM */
static char *1350001716239[] = {
/* columns rows colors chars-per-pixel */
"100 54 170 2",
"a  c #4D4945",
"@. c #D8D6D6",
"9. c #E0EDD6",
"O  c #1B3516",
"F. c #F1F1EE",
"^  c #B6B6C2",
"-. c #F1D1C0",
"n. c #E9E9E7",
"C  c #F15D50",
"<  c #264422",
"f  c #4C5D4B",
"y  c #3F5A3C",
":  c #2E4014",
"0. c #E0E1DF",
" . c #CDD8CF",
"n  c #62725D",
"N  c #697C6B",
"-  c #1E401A",
"j. c #E8DCEF",
"y. c #FAF2D3",
"v  c #596A58",
"l  c #586551",
"t  c #385135",
"S. c #EAF3E2",
"e. c #F3EFDC",
"3  c #2A4827",
"I  c #A4B5AC",
"2  c #254822",
"K. c #F0EFF0",
"j  c #4F6251",
"7  c #30462F",
"&  c #313613",
"w. c #F2EDD7",
"x  c #586B55",
"R  c #BAB6B9",
"Z  c #FB5C53",
"b  c #5D705C",
"V. c #F2E7E4",
"k. c #E7DDF0",
"k  c #556654",
"g. c #E1DFE0",
"G  c #6B8374",
"M  c #667D6B",
"t. c #E0F0D6",
"L  c #9BB4A9",
"1  c #294726",
"N. c #E5EAEC",
"u  c #2D613F",
"p. c #D1D6E3",
"a. c #D5DAE0",
"[  c #C1C2CA",
"E. c #F8F7F8",
"   c #0F330A",
",  c #294419",
"P  c #A0AEA9",
"9  c #384D2E",
"8  c #304B2E",
"8. c #F8F0CE",
"E  c #BDBBBD",
"d. c #DADFEA",
">. c #E8C5DE",
"@  c #1A3B16",
"u. c #F5F1DF",
"q. c #E2EEDB",
"=. c #DCDBDC",
"L. c #FAEEF8",
"x. c #DCE2EB",
"`  c #C4C3C4",
"U. c #F9F7F7",
"X. c #C5CDDC",
"T. c #F9F8F7",
"G. c #ECE3F3",
"*. c #D6DADC",
"c  c #566A5A",
"Y  c #B3B3B5",
"R. c #F7F7F8",
"}  c #CCCBCC",
"c. c #E4E4E4",
"J. c #EEEEF0",
"H  c #738374",
"d  c #445A46",
"i  c #524835",
"B. c #EDEDED",
"2. c #D5E8CA",
"w  c #344B31",
";  c #274317",
"5  c #2E4C2B",
"q  c #2D4C37",
"/  c #BDBDC2",
"e  c #384939",
"$  c #3C310F",
"4  c #2F442D",
"'  c #C8C5C6",
"z  c #576955",
"{  c #C9C6C8",
"V  c #B36F60",
"1. c #F0DDD5",
"Y. c #F6F8F6",
"J  c #848F86",
"]  c #CACAC7",
"z. c #DEE2E2",
"i. c #CED5E1",
"<. c #E0DFDE",
"4. c #DDECD5",
"v. c #E8E7E7",
"D  c #E0716D",
"S  c #D57B74",
"_  c #BEC0C3",
"B  c #B95E4D",
"K  c #9FAFA6",
"p  c #524C3A",
"H. c #E6EBF0",
"O. c #CED3DD",
"5. c #DCE1DD",
">  c #25431A",
"m. c #E5E6E9",
"U  c #A7B8B0",
"F  c #E87369",
"Q  c #CC8A8A",
"g  c #4E604E",
":. c #F4DBCD",
"6. c #F5EBC4",
"M. c #E9E4EC",
"#  c #1D3D19",
"A. c #F0EFED",
"%  c #203D1B",
"T  c #B9B5B7",
"0  c #31502F",
")  c #E5BDD9",
"$. c #DBD9D7",
"P. c #EFF0F2",
"7. c #F1EACD",
"s  c #445341",
"~  c #F5EBBF",
"|  c #D0CCCE",
"b. c #E6E9E5",
",. c #EFDCD1",
"r. c #F9E8DF",
"m  c #697864",
"=  c #1D4613",
"s. c #DCDEE1",
"!  c #C0BDBE",
"o. c #D1CED0",
"X  c #193709",
"Q. c #FDFDFD",
"A  c #DF7266",
"r  c #325130",
"*  c #3C3513",
"I. c #F4F4F4",
"W. c #F7F8F9",
"%. c #D5D5D9",
"f. c #EFD6E6",
"#. c #D5DBD6",
"Z. c #FAEBE3",
"(  c #C1BFC1",
"l. c #E8DBF0",
"o  c #163711",
".. c #CECED2",
"C. c #F3ECE1",
".  c #11340B",
"D. c #EFF0EE",
"+. c #D4D3D4",
"3. c #D8EACC",
"h. c #E6DDED",
"6  c #304027",
"&. c #D9D6D9",
"+  c #173A12",
";. c #F2D7CB",
"h  c #52664F",
"W  c #C88581",
/* pixels */
"7 q q 5 0 5 5 0 0 5 5 5 0 0 5 5 5 5 3 3 3 < < < < < < < < < < < < < < < < 1 5 5 5 5 5 5 5 5 5 5 5 5 5 5 5 5 5 5 0 5 5 5 5 5 3 < < < < < < < < < < < < < < < < < < < < < < < < > y b x x H M V F W S A p ",
"9 a u > 2 > ; , , ; ; ; , , ; , ; ; , , ; ; ; ; ; > > ; ; > ; > > # - # 2 3 7 4 4 7 4 7 4 t w 4 4 7 w 7 7 8 7 7 w 9 6 7 w 7 5 > @ - - - - - - - @ - - - - - - @ - - - - - @ - # 5 H M y J G B Z Q D C i ",
"t : = @ @ + . o X X X X X X X X . X X X X X X X X X X X X X X . + . .   . @ O # # # # # O # O # # O % # O % # # O # O # # O @ .                     . . .     . .     . .       . o o o .   & * $ * * 6 ",
"d K K U I K U U U I U U U I I I I I I U I I I I I I I I I I I U I I I I U I I U I I U I U I U I I U I I I I I I I I U I U I I U I I I U I I I I I I I I I I I I I I I I I I I I I I I I I I L L L L L d ",
"b N.^ O.Q.%..._ H.W./ ^ p.Q.Q.Q.Q.Q.Q.Q.Q.Q.Q.Q.Q.Q.Q.Q.Q.Q.Q.Q.Q.Q.Q.Q.Q.Q.Q.Q.Q.Q.Q.Q.Q.Q.Q.Q.Q.Q.Q.Q.Q.Q.Q.Q.Q.Q.Q.Q.Q.Q.Q.Q.Q.Q.Q.Q.Q.Q.Q.Q.Q.Q.Q.Q.Q.Q.Q.Q.Q.Q.Q.Q.Q.Q.Q.Q.Q.Q.Q.Q.Q.Q.Q.Q.Q.Q.T.v ",
"m z.*.z.H.*.a.s.N.x...%.*.H.H.H.H.H.H.H.H.H.H.H.H.H.H.H.H.H.H.H.H.H.H.H.H.H.H.H.H.H.H.H.H.H.H.B.H.H.H.H.H.H.H.H.H.H.H.H.H.H.H.H.H.H.H.H.H.H.H.H.H.H.H.H.H.H.H.H.H.H.H.H.H.H.H.H.H.H.H.H.H.H.H.H.H.H.N.k ",
"c b.D.K.J.P.J.m.m.D.D.J.D.v.D.D.K.K.K.A.P.D.A.A.J.D.D.A.P.D.D.A.P.D.A.A.D.D.J.D.K.A.D.D.J.D.A.A.D.A.K.A.P.K.K.K.P.D.A.A.D.D.J.D.K.K.A.K.D.D.K.K.D.K.K.K.D.K.K.K.D.D.K.K.D.D.J.D.P.K.K.K.K.D.K.A.D.K.K.z ",
"k c.] ..| } +.v.=.` { @.+.m.K.P.F.P.K.P.P.P.P.A.P.P.P.P.P.P.P.P.P.P.K.P.P.P.P.P.K.P.P.P.P.P.P.A.K.P.P.P.P.P.K.K.P.P.P.P.P.P.P.P.P.P.P.P.P.P.P.D.P.P.K.K.P.P.K.P.P.P.P.P.P.P.P.P.F.F.K.F.P.P.K.K.P.P.K.z ",
"b c.} E ` E } D.c.} @.} / v.D.B.B.B.B.B.B.B.B.B.B.D.D.A.B.B.B.D.D.B.B.B.B.B.A.K.P.P.A.D.B.B.B.B.B.B.B.A.B.B.B.B.D.B.A.B.B.B.B.B.D.D.v.D.B.B.D.B.B.B.B.A.B.D.D.D.D.B.B.B.B.B.B.B.B.B.B.B.B.B.B.B.B.D.B.k ",
"n v.c.J.B.B.c.c.c.P.I.W.Q.Q.E.R.Q.W.R.R.E.R.R.Q.E.E.E.W.E.E.E.Q.R.E.E.E.E.Q.c.g.c.v.D.I.R.R.I.R.Y.Y.Y.Y.R.R.R.R.R.R.E.E.Y.Y.I.Y.W.W.W.W.R.I.E.W.Y.Y.Y.E.I.R.I.W.R.R.R.R.Y.E.E.Y.Y.E.E.I.E.E.R.R.I.W.D.j ",
"b <.` { ' } &.E } ( ( W.F.K.P.P.P.F.P.P.F.A.P.P.P.P.F.F.P.P.P.F.P.I.P.I.K.K.=.( o.| %.W.T.Q.E.R.W.W.E.T.E.E.W.Q.R.E.E.T.Q.W.W.W.W.W.W.W.W.E.E.T.E.E.E.E.E.W.W.W.E.E.R.E.E.E.E.R.T.T.E.E.W.W.W.W.E.W.P.k ",
"k K.Q.I.R.R.W.I.K.E.Q.Q.I.W.Q.Q.Q.W.Q.Q.Q.Q.Q.W.W.Q.W.Q.W.Q.W.Q.Q.T.E.Q.A.B.<.{ +.W.W.R.W.W.W.Q.E.E.E.E.E.E.W.W.E.E.E.E.E.W.W.T.T.W.Y.Y.E.E.E.T.T.E.E.E.E.E.W.W.Q.E.E.E.E.E.E.R.T.T.T.E.W.W.W.E.E.Q.D.h ",
"f K.Q.+.{ ` ` | ! [ Q.Q.R.Q.Q.Q.Q.Q.Q.Q.Q.Q.Q.Q.Q.Q.Q.Q.Q.Q.Q.Q.Q.Q.Q.Q.I.c.v.@.=.W.Q.Q.Q.R.I.F.T.Q.Q.Q.Q.W.W.I.R.W.Q.Q.Q.Q.W.I.Y.T.Q.Q.Q.Q.T.W.I.Y.T.Q.Q.Q.W.W.F.E.Q.Q.Q.Q.Q.Q.W.I.W.Q.Q.Q.Q.Q.W.Q.b.h ",
"f K.Q.Q.Q.Q.Q.Q.Q.Q.Q.Q.K.D.J.J.J.J.J.J.J.J.J.J.J.J.J.J.J.J.J.J.D.D.J.J.D.c.v.K.I.P.I.P.P.Q.D.B.K.l.G.G.k.L.Q.v.A.N.d.x.z.P.Q.H.A.b.5.b.b.z.Q.I.B.A.y.y.y.y.Q.I.B.A.l.M.l.h.k.Q.F.H.A.t.9.9.t.4.Y.Q.b.j ",
"j n.+.<.<.g.D.] +.&.c.I.W.Q.Q.Q.Q.Q.Q.Q.Q.Q.Q.Q.Q.Q.Q.Q.Q.Q.Q.Q.Q.Q.Q.Q.I.c.c.B.P.A.P.A.A.Q.B.b.K.M.M.M.h.F.R.c.B.J.m.x.O.J.W.v.H.A.z.b.b.z.I.I.c.D.e.e.7.w.T.K.c.K.J.h.M.h.M.R.K.b.K.q.B.A.q.q.K.Q.c.k ",
"v B.g.+.+.} z.+.c.&.{ P.W.W.Q.Q.Q.W.Q.Q.Q.Q.Q.W.Q.Q.Q.Q.Q.W.Q.Q.Q.W.Q.Q.P.D.P.K.Q.W.W.Q.Q.W.R.E.W.Q.Q.Q.Q.Q.W.W.Q.W.Q.Q.Q.Q.W.W.T.T.Q.Q.Q.T.Q.T.W.W.Q.Q.Q.T.Q.E.W.T.Q.Q.Q.Q.Q.R.T.T.Q.Q.T.Q.Q.Q.T.W.K.k ",
"n D.Q.Q.Q.Q.Q.Q.Q.Q.Q.Q.P.J.J.J.J.J.J.P.J.P.J.J.J.J.J.J.J.J.J.P.J.J.D.P.B.J.@.E E ( ' +.E.Y.E.Y.E.R.I.R.R.W.E.R.R.R.I.I.W.E.E.R.R.R.I.R.I.R.Y.I.I.I.Y.E.Y.Y.I.Y.Y.Y.I.Y.E.E.R.W.W.T.I.Y.E.E.Y.I.Y.E.v.k ",
"f I.0.] @.+./ ] +.} | Q.I.Q.Q.Q.Q.Q.Q.Q.Q.Q.Q.Q.Q.Q.Q.Q.Q.Q.Q.Q.Q.Q.Q.Q.I.c.v.K.P.F.W.W.Q.I.K.E.W.Q.Q.Q.W.D.I.T.Q.Q.Q.Q.P.I.W.W.W.Q.Q.K.I.Q.Q.Q.Q.Q.A.I.T.Q.Q.Q.Q.T.Q.Y.D.E.T.E.Y.T.T.Q.K.I.E.E.Q.Q.b.k ",
"f K.Q.v.v.F.c.c.J.A.J.Q.I.I.I.R.I.R.I.I.I.I.I.R.I.I.I.I.I.R.I.I.I.R.I.R.J.c.c.B.K.B.K.B.B.B.B.c. .#.#.#.v.B.A.;.;.:.-.V.v.A.x.p.i.X.x.B.v.8.6.~ ~ e.v.B.S.9.4.9.t.3.4.B.b.A.3.3.t.2.2.b.v.D.f.) >.L.B.j ",
"c v.I.Q.W.Q.Q.I.I.Q.Q.Q.P.I.I.I.I.I.I.I.I.I.I.I.I.I.I.I.I.I.I.I.I.I.H.=.=.v.A.F.Q.R.I.I.I.D.D.R.I.I.I.I.F.B.F.R.F.I.Z.I.D.P.E.I.I.B.I.D.P.Y.I.F.F.I.B.I.I.I.I.I.I.R.F.I.B.I.I.R.Y.Y.I.I.P.I.Q.L.F.E.b.k ",
"k $.Y { R ( ` @.! { E s.W.Q.Q.Q.Q.Q.Q.Q.Q.Q.Q.Q.Q.Q.Q.Q.Q.Q.Q.Q.Q.Q.P.] %.P.v.c.$.v.W.W.W.Q.Q.W.W.E.W.Q.E.Q.Q.R.W.W.T.E.W.W.Q.E.Q.Q.E.Q.Q.Q.W.W.Q.E.T.Q.W.W.W.Q.W.W.Q.W.Q.W.W.W.W.W.Q.B.@.v.<.B.E.Q.K.k ",
"f P.Q.Q.W.Q.Q.Q.Q.Q.T.Q.I.K.E.E.Q.W.Q.Q.W.Q.Q.Q.Q.W.Q.Q.Q.Q.Q.Q.Q.Q.A.m.v.v.b.+.+.c.Q.Q.R.E.I.I.T.Q.Q.E.E.I.F.Q.Q.Q.W.Q.Q.Q.E.E.I.I.W.W.W.W.W.R.I.Q.Q.Q.W.W.R.R.W.Q.Q.Q.Q.W.Q.Q.W.W.K.v.+.@.@.m.Q.Q.c.k ",
"j K.Q.Q.Q.Q.Q.Q.Q.Q.Q.Q.K.D.c.| | m.=.+.m.g.' @.&.c.=.@.+.{ g.o.%.=.W.Q.Q.c.v.I.<.=.=.c.Q.Q.D.P.0.0.c.Q.Q.B.K.<.+.v.K.=.c.=.Q.Q.B.A.r.Z.Z.Q.Q.A.K.<.=.v.Q.Q.D.P.c.=.c.c.g.c.=.=.I.Q.K.b.I.c.=.B.<.P.B.j ",
"k A.Q.E.Q.W.Q.W.Q.W.W.W.D.c.B.@.| =.+...g.=.+.@.o.c.@.o.| o.=.+.+.%.I.Q.R.c.g.v.<.{ } ..E.I.c.v.B.! / W.E.b.b.<.{ +.D.&.] +.E.E.v.b.V.,.,.R.W.c.b.0.' ] I.W.m.v.<.E | { %.=.{ ` c.Q.A.c.v.c.+.o.} c.b.j ",
"k K.W.T.K.R.I.E.Q.E.W.W.W.Q.E.Q.Q.Q.Q.Q.Q.Q.Q.Q.Q.Q.Q.Q.Q.Q.Q.Q.Q.Q.Q.R.E.E.K.F.W.W.W.Q.A.I.I.I.R.I.P.A.B.D.B.I.I.I.P.I.I.I.A.A.D.D.J.I.I.D.B.D.B.I.I.I.D.D.D.D.P.R.Y.I.I.I.Y.E.F.A.P.K.B.K.Y.I.I.F.b.k ",
"h $.E ..=.E / { E J.W.E.E.E.Q.R.W.W.Q.W.W.R.I.I.I.E.W.R.W.E.E.W.W.R.I.R.I.E.c.$.+.&.&.@.c.} ` @.+.B.Q.R.E.E.Q.E.W.W.W.W.W.W.Q.W.Q.W.W.W.W.W.Q.E.E.E.Q.W.W.W.E.Q.Q.E.E.E.E.E.E.E.W.W.Q.E.Q.E.T.W.E.Q.P.k ",
"c v.c.c.c.=.c.c.g.Q.Q.Q.Q.F.=.P.v.K.c.v.B.I.Q.W.Q.I.=.B.c.J.v.c.B.P.Q.Q.I.D.c.@.] m.c.=.v.=.=.=.` P.Q.Q.Q.I.I.Q.E.W.T.Q.W.Q.W.Q.Q.W.W.W.R.I.I.Q.W.R.D.J.I.Q.Q.W.E.Q.E.T.W.Q.T.T.W.Q.Q.W.E.T.Q.T.E.Q.K.k ",
"z <.o.' @.{ ] ..P.R.R.F.I.b.o.| } @.| ` } z.W.I.F.v.o.| { } @.` } +.W.R.D.B.Q.Q.Q.Q.Q.Q.Q.Q.Q.v.] ` ..' ` &.` { R m.Q.Q.Q.Q.Q.Q.Q.Q.Q.E.] R E { ( o.R | ` ( =.W.I.I.I.R.I.I.Y.Y.E.I.I.R.Y.I.I.I.I.W.b.k ",
"v c.Q.Q.Q.Q.Q.Q.Q.Q.Q.D.N.P.Q.Q.Q.Q.Q.Q.Q.Q.Q.D.B.I.Q.Q.Q.Q.Q.Q.Q.Q.Q.P.c.m.K.P.H.P.I.I.R.I.I.I.B.J.K.v.K.I.K.D.P.I.R.W.I.W.I.W.W.I.=.v.Q.W.W.W.R.Q.W.Q.Q.D.W.Q.Q.Q.Q.Q.Q.Q.Q.Q.Q.Q.Q.Q.Q.Q.Q.Q.Q.K.0.k ",
"k N.Q.Q.Q.Q.Q.Q.Q.Q.Q.c.c.I.Q.Q.Q.Q.Q.Q.Q.Q.Q.c.c.I.Q.Q.Q.Q.Q.Q.Q.Q.Q.b.<.v.=.R Y %.Q.Q.Q.Q.Q.Q.Q.Q.Q.Q.Q.Q.Q.Q.Q.Q.Q.Q.Q.Q.Q.Q.Q.Q.` 5.Q.Q.Q.Q.Q.Q.Q.Q.Q.Q.Q.Q.Q.Q.Q.Q.Q.Q.Q.Q.Q.Q.Q.Q.Q.Q.Q.Q.W.v.0.k ",
"l b.Q.Q.Q.Q.Q.Q.Q.Q.W.| @.I.Q.Q.Q.Q.Q.Q.Q.Q.W.| +.I.Q.Q.Q.Q.Q.Q.Q.Q.Q.+.o.v.P.A.D.P.W.R.W.R.E.R.W.Q.Q.Q.Q.E.W.Q.Q.I.W.I.R.W.W.I.W.R.=.v.Q.Q.Q.Q.Q.Q.Q.Q.Q.Q.Q.Q.Q.Q.Q.Q.Q.Q.Q.Q.Q.Q.Q.Q.Q.Q.Q.Q.F.+.%.c ",
"n c.Q.Q.Q.Q.Q.Q.Q.Q.Q.] +.R.Q.Q.Q.Q.Q.Q.Q.Q.Q.] +.R.Q.Q.Q.Q.Q.Q.Q.Q.T...| D.Q.Q.Q.Q.Q.Q.Q.Q.Q.Q.| } } +.<.+.%.+.+.Q.Q.Q.Q.Q.Q.Q.Q.Q.Q.I.Q.Q.Q.Q.Q.Q.Q.Q.Q.Q.Q.Q.Q.Q.Q.Q.Q.Q.Q.Q.Q.Q.Q.Q.Q.Q.Q.Q.F.] +.z ",
"k b.Q.Q.Q.Q.Q.Q.Q.Q.Q.&.=.I.Q.Q.Q.Q.Q.Q.Q.Q.Q.&.=.I.Q.Q.Q.Q.Q.Q.Q.Q.Q.=.&.v.Q.W.E.R.R.W.W.E.E.W.=.| %.+.} c.+.+.%.I.W.W.R.W.W.R.W.W.D.D.Q.Q.Q.Q.Q.Q.Q.Q.Q.Q.Q.Q.Q.Q.Q.Q.Q.Q.Q.Q.Q.Q.Q.Q.Q.Q.Q.Q.P.| +.k ",
"f v.Q.Q.Q.Q.Q.Q.Q.Q.Q.v.v.I.Q.Q.Q.Q.Q.Q.Q.Q.Q.v.v.I.Q.Q.Q.Q.Q.Q.Q.Q.Q.A.c.v.*.W.Q.Q.Q.Q.Q.Q.Q.Q.Q.Q.Q.Q.Q.Q.Q.Q.Q.Q.Q.Q.Q.Q.Q.Q.Q.Q.' c.Q.Q.Q.Q.Q.Q.Q.Q.Q.Q.Q.Q.Q.Q.Q.Q.Q.Q.Q.Q.Q.Q.Q.Q.Q.Q.Q.Q.W.b.0.k ",
"k c.I.D.P.K.P.D.D.D.D.c.c.D.D.D.D.B.D.B.D.D.D.c.c.D.B.B.D.B.D.D.D.D.B.c.c.b.=.I.W.W.W.W.W.E.W.E.E.R.W.Q.Q.W.E.E.Q.W.W.W.E.E.W.W.W.W.=.v.W.I.I.I.I.I.R.I.I.I.E.I.R.I.I.I.I.I.R.I.I.I.W.I.R.I.I.I.I.c.5.k ",
"n b.c.A.A.B.s.R.W.E.W.W.Q.W.W.W.W.W.W.W.W.E.W.Q.Q.W.Q.W.W.W.W.W.W.W.E.W.Q.I.P.P.B.D.D.A.D.D.D.B.D.P.v.&.c.v.c.c.=.m.P.A.D.D.D.A.D.K.P.P.D.D.D.B.D.D.D.K.D.D.D.K.D.D.D.D.D.D.D.K.D.D.D.A.D.D.D.D.D.A.N.k ",
"z <.E E } @.` B.W.I.W.R.I.W.E.E.R.R.I.E.W.I.E.I.I.I.W.R.W.I.E.E.I.W.I.W.I.R.W.E.W.W.W.W.W.W.W.E.R.I.B.' | ! %.+.( =.Q.W.R.W.W.W.W.W.W.W.W.W.W.W.E.E.W.W.W.W.W.W.W.W.W.W.E.W.W.W.W.W.W.W.W.W.W.W.I.Q.B.k ",
"h P.Q.Q.Q.Q.Q.Q.Q.Q.Q.Q.Q.Q.Q.Q.Q.Q.Q.Q.Q.Q.Q.Q.Q.Q.Q.Q.Q.Q.Q.Q.Q.Q.Q.Q.Q.Q.Q.Q.Q.Q.Q.Q.Q.Q.Q.Q.D.v.I.Q.Q.Q.Q.Q.Q.Q.Q.Q.Q.Q.Q.Q.Q.Q.Q.Q.Q.Q.Q.Q.Q.Q.Q.Q.Q.Q.Q.Q.Q.Q.Q.Q.Q.Q.Q.Q.Q.Q.Q.Q.Q.Q.Q.Q.Q.P.c.k ",
"x K.Q.Q.Q.Q.Q.Q.Q.Q.Q.Q.Q.Q.Q.Q.Q.Q.Q.Q.Q.Q.Q.Q.Q.Q.Q.Q.Q.Q.Q.Q.Q.Q.Q.Q.Q.Q.Q.Q.Q.Q.Q.Q.Q.Q.Q.Q.c.c.R.Q.Q.Q.Q.Q.Q.Q.Q.Q.Q.Q.Q.Q.Q.Q.Q.Q.Q.Q.Q.Q.Q.Q.Q.Q.Q.Q.Q.Q.Q.Q.Q.Q.Q.Q.Q.Q.Q.Q.Q.Q.Q.Q.Q.Q.Q.b.c.k ",
"h P.Q.Q.Q.Q.Q.Q.Q.Q.Q.Q.Q.Q.Q.Q.Q.Q.Q.Q.Q.Q.Q.Q.Q.Q.Q.Q.Q.Q.Q.Q.Q.Q.Q.Q.Q.Q.Q.Q.Q.Q.Q.Q.Q.Q.Q.I.] =.W.Q.Q.Q.Q.Q.Q.Q.Q.Q.Q.Q.Q.Q.Q.Q.Q.Q.Q.Q.Q.Q.Q.Q.Q.Q.Q.Q.Q.Q.Q.Q.Q.Q.Q.Q.Q.Q.Q.Q.Q.Q.Q.Q.Q.Q.W.| +.z ",
"f F.Q.Q.Q.Q.Q.Q.Q.Q.Q.Q.Q.Q.Q.Q.Q.Q.Q.Q.Q.Q.Q.Q.Q.Q.Q.Q.Q.Q.Q.Q.Q.Q.Q.Q.Q.Q.Q.Q.Q.Q.Q.Q.Q.Q.Q.W.] =.W.Q.Q.Q.Q.Q.Q.Q.Q.Q.Q.Q.Q.Q.Q.Q.Q.Q.Q.Q.Q.Q.Q.Q.Q.Q.Q.Q.Q.Q.Q.Q.Q.Q.Q.Q.Q.Q.Q.Q.Q.Q.Q.Q.Q.Q.W.} +.c ",
"h F.Q.Q.Q.Q.Q.Q.Q.Q.Q.Q.Q.Q.Q.Q.Q.Q.Q.Q.Q.Q.Q.Q.Q.Q.Q.Q.Q.Q.Q.Q.Q.Q.Q.Q.Q.Q.Q.Q.Q.Q.Q.Q.Q.Q.Q.I.] =.W.Q.Q.Q.Q.Q.Q.Q.Q.Q.Q.Q.Q.Q.Q.Q.Q.Q.Q.Q.Q.Q.Q.Q.Q.Q.Q.Q.Q.Q.Q.Q.Q.Q.Q.Q.Q.Q.Q.Q.Q.Q.Q.Q.Q.Q.Q.&.$.k ",
"n D.Q.Q.Q.Q.Q.Q.Q.Q.Q.Q.Q.Q.Q.Q.Q.Q.Q.Q.Q.Q.Q.Q.Q.Q.Q.Q.Q.Q.Q.Q.Q.Q.Q.Q.Q.Q.Q.Q.Q.Q.Q.Q.Q.Q.Q.I.} &.E.Q.Q.Q.Q.Q.Q.Q.Q.Q.Q.Q.Q.Q.Q.Q.Q.Q.Q.Q.Q.Q.Q.Q.Q.Q.Q.Q.Q.Q.Q.Q.Q.Q.Q.Q.Q.Q.Q.Q.Q.Q.Q.Q.Q.Q.Q.B.c.k ",
"x D.Q.Q.Q.Q.Q.Q.Q.Q.Q.Q.Q.Q.Q.Q.Q.Q.Q.Q.Q.Q.Q.Q.Q.Q.Q.Q.Q.Q.Q.Q.Q.Q.Q.Q.Q.Q.Q.Q.Q.Q.Q.Q.Q.Q.Q.W.] =.I.Q.Q.W.W.Q.Q.W.Q.W.Q.Q.Q.W.Q.Q.W.E.Q.I.W.R.R.W.I.R.R.W.Y.E.E.R.R.W.I.R.W.E.E.R.R.W.R.R.W.I.I.B.b.k ",
"h K.Q.Q.Q.Q.Q.Q.Q.Q.Q.Q.Q.Q.Q.Q.Q.Q.Q.Q.Q.Q.Q.Q.Q.Q.Q.Q.Q.Q.Q.Q.Q.Q.Q.Q.Q.Q.Q.Q.Q.Q.Q.Q.Q.Q.Q.I.} z.A.+.=.=.| %.o.=.=.o.| +.s.} +.+.s.` c.W.E.W.R.I.R.R.R.I.E.I.Y.I.R.I.E.E.R.I.Y.I.R.I.E.E.R.R.E.W.D.h ",
"k I.Q.Q.Q.Q.Q.Q.Q.Q.Q.Q.Q.Q.Q.Q.Q.Q.Q.Q.Q.Q.Q.Q.Q.Q.Q.Q.Q.Q.Q.Q.Q.Q.Q.Q.Q.Q.Q.Q.Q.Q.Q.Q.Q.Q.Q.I.} *.D.=.%.v.g.@.@.=.c.v.&.+.c.0.+.&.v.<.c.Q.W.W.W.Q.W.E.Q.W.W.Q.Q.W.Q.W.T.W.Q.W.Q.W.Q.W.T.W.Q.W.E.I.B.k ",
"k D.Q.Q.Q.Q.Q.Q.Q.Q.Q.Q.Q.Q.Q.Q.Q.Q.Q.Q.Q.Q.Q.Q.Q.Q.Q.Q.Q.Q.Q.Q.Q.Q.Q.Q.Q.Q.Q.Q.Q.Q.Q.Q.Q.Q.Q.W.] =.E.Q.Q.Q.Q.Q.Q.Q.Q.Q.Q.Q.Q.Q.Q.Q.Q.Q.Q.Q.Q.Q.Q.Q.Q.Q.Q.Q.Q.Q.Q.Q.Q.Q.Q.Q.Q.Q.Q.Q.Q.Q.Q.Q.Q.Q.Q.B.b.k ",
"g K.Q.Q.Q.Q.Q.Q.Q.Q.Q.Q.Q.Q.Q.Q.Q.Q.Q.Q.Q.Q.Q.Q.Q.Q.Q.Q.Q.Q.Q.Q.Q.Q.Q.Q.Q.Q.Q.Q.Q.Q.Q.Q.Q.Q.Q.I.] =.E.Q.Q.Q.Q.Q.Q.Q.Q.Q.Q.Q.Q.Q.Q.Q.Q.Q.Q.Q.Q.Q.Q.Q.Q.Q.Q.Q.Q.Q.Q.Q.Q.Q.Q.Q.Q.Q.Q.Q.Q.Q.Q.Q.Q.Q.Q.0.=.z ",
"g F.Q.Q.Q.Q.Q.Q.Q.Q.Q.Q.Q.Q.Q.Q.Q.Q.Q.Q.Q.Q.Q.Q.Q.Q.Q.Q.Q.Q.Q.Q.Q.Q.Q.Q.Q.Q.Q.Q.Q.Q.Q.Q.Q.Q.Q.I.] &.W.Q.Q.Q.Q.Q.Q.Q.Q.Q.Q.Q.Q.Q.Q.Q.Q.Q.Q.Q.Q.Q.Q.Q.Q.Q.Q.Q.Q.Q.Q.Q.Q.Q.Q.Q.Q.Q.Q.Q.Q.Q.Q.Q.Q.Q.E.} +.c ",
"g D.Q.Q.Q.Q.Q.Q.Q.Q.Q.Q.Q.Q.Q.Q.Q.Q.Q.Q.Q.Q.Q.Q.Q.Q.Q.Q.Q.Q.Q.Q.Q.Q.Q.Q.Q.Q.Q.Q.Q.Q.Q.Q.Q.Q.Q.R.} *.W.Q.Q.Q.Q.Q.Q.Q.Q.Q.Q.Q.Q.Q.Q.Q.Q.Q.Q.Q.Q.Q.Q.Q.Q.Q.Q.Q.Q.Q.Q.Q.Q.Q.Q.Q.Q.Q.Q.Q.Q.Q.Q.Q.Q.Q.W.} +.z ",
"j I.Q.Q.Q.Q.Q.Q.Q.Q.Q.Q.Q.Q.Q.Q.Q.Q.Q.Q.Q.Q.Q.Q.Q.Q.Q.Q.Q.Q.Q.Q.Q.Q.Q.Q.Q.Q.Q.Q.Q.Q.Q.Q.Q.Q.Q.W.c.c.E.Q.Q.Q.Q.Q.Q.Q.Q.Q.Q.Q.Q.Q.Q.Q.Q.Q.Q.Q.Q.Q.Q.Q.Q.Q.Q.Q.Q.Q.Q.Q.Q.Q.Q.Q.Q.Q.Q.Q.Q.Q.Q.Q.Q.Q.Q.c.5.z ",
"g P.Q.Q.Q.Q.Q.Q.Q.Q.Q.Q.Q.Q.Q.Q.Q.Q.Q.Q.Q.Q.Q.Q.Q.Q.Q.Q.Q.Q.Q.Q.Q.Q.Q.Q.Q.Q.Q.Q.Q.Q.Q.Q.Q.Q.Q.Q.c.v.I.Q.Q.Q.Q.Q.Q.Q.Q.Q.Q.Q.Q.Q.Q.Q.Q.Q.Q.Q.Q.Q.Q.Q.Q.Q.Q.Q.Q.Q.Q.Q.Q.Q.Q.Q.Q.Q.Q.Q.Q.Q.Q.Q.Q.Q.Q.b.c.k ",
"b b.I.A.F.D.D.D.F.F.K.F.P.K.K.F.K.D.D.K.K.K.K.K.P.K.K.A.D.D.D.D.P.K.A.D.D.D.D.K.P.K.A.D.A.D.D.B.H.A.D.D.D.D.K.D.D.D.D.D.P.K.A.D.A.D.D.D.D.D.D.D.P.K.A.D.D.D.K.D.P.K.A.D.D.D.D.K.P.K.A.D.A.A.D.D.A.B.b.k ",
"s l l c x x c c x v v v v v v x x c c x x z x z v z z c k z k z c k z z k k k k c k z z k c k z l c z z k k k k k k k k c k z z k c k z k k k k k c k z k z k k c k z z k k k k c k z z c k z k k z z e "
};
