/* XPM */
static char *1350001626330[] = {
/* columns rows colors chars-per-pixel */
"100 70 256 2",
"gX c #E3E7ED",
"a  c #403C1F",
"@. c #585C5E",
"9. c #6E817A",
"O  c #13360F",
"9X c #DED0E8",
"'. c #CDD1DA",
"F. c #F4E9BC",
"0X c #E1DEE1",
";X c #F8F0CC",
"^  c #3D575B",
"-. c #5F6772",
"n. c #D99B9B",
"C  c #3A443B",
"<  c #25312C",
"f  c #573D3A",
"y  c #313D32",
":  c #292E2C",
"0. c #75867B",
" . c #4A4E51",
"n  c #32512D",
"N  c #3A4A35",
"-  c #212629",
"j. c #A2A0A1",
"GX c #F3F2F2",
"y. c #768A84",
"-X c #F6EECC",
"v  c #294A24",
":X c #E0E5DE",
"l  c #2A4526",
"t  c #313535",
"jX c #E7EAEA",
"yX c #DCE1EA",
"S. c #EFE0B3",
"e. c #6C7D80",
"FX c #ECF3FB",
"hX c #EBE5EB",
"5X c #F9F3DC",
"=X c #F5EBC3",
"*X c #CAE2CE",
"3  c #353526",
"I  c #5A5122",
"2  c #2D3A2E",
"K. c #C1BEC1",
"j  c #22441D",
"NX c #E5EBF2",
"7  c #36382C",
"/. c #D1D2CE",
"&  c #212627",
"OX c #F1D6C9",
"(. c #DFDCCA",
"w. c #F3817B",
"x  c #2D442A",
"R  c #41603E",
"Z  c #355434",
"b  c #314F2C",
"V. c #DED0A7",
"k. c #B0ACAE",
"k  c #244620",
"g. c #828FA9",
"4X c #F6F1DB",
"G  c #64561B",
"M  c #384735",
"mX c #FCFAED",
"t. c #738781",
"L  c #524B24",
"1  c #2B342D",
"N. c #B5DABC",
"u  c #323739",
",X c #F6E5DB",
">X c #F6EFD2",
"p. c #87988E",
"rX c #E7DCF0",
"a. c #8D988F",
"[  c #425243",
"E. c #CBC7C9",
"   c #143710",
",  c #283D25",
"P  c #584E20",
"9  c #383728",
"oX c #DCDBDC",
"8  c #3A3A29",
"~. c #CED2CE",
"ZX c #F2ECF8",
"8. c #6A8069",
"E  c #393E41",
"d. c #9CA78E",
"HX c #FAF7F5",
"1X c #F5E0D6",
"AX c #F0E7F4",
">. c #874831",
"@  c #181E21",
"u. c #7A9183",
"q. c #77887C",
"=. c #5C6E62",
"L. c #BEC2CA",
"_. c #C3CDDF",
"x. c #AFB1B9",
"{. c #D9D6D6",
"&X c #D0E3D4",
"`  c #494D4E",
"pX c #DDEBF8",
"$X c #CCE3D0",
"CX c #F1EBF5",
"sX c #E9E7E6",
"DX c #E6F1FB",
"U. c #B5C1D9",
"X. c #4A555C",
"nX c #FAF7E9",
"T. c #C9C5C6",
"G. c #F4E9B7",
"*. c #5C6163",
"c  c #2F4C2B",
"Y  c #57413F",
"|. c #D8DBD7",
"R. c #C7C6C9",
"}  c #485C48",
"cX c #FAF6E4",
"c. c #B6B3B5",
"UX c #FEFEFE",
"J. c #BEBEC8",
"H  c #454226",
"d  c #403D28",
"i  c #353A3C",
"MX c #ECE4F2",
"LX c #F5F3F9",
"aX c #E4E5E4",
".X c #D9D7D8",
"3X c #F8F2D5",
"B. c #ACE3B6",
"2. c #C7705F",
"w  c #2C3233",
"SX c #EEF1F2",
";  c #23292A",
"bX c #F2F1EC",
"5  c #3C3B27",
"7X c #D5DBE4",
"q  c #262D34",
"+X c #F3D9CC",
"/  c #354C77",
"tX c #E9DEF0",
"e  c #2E3A30",
"$  c #1D2225",
"4  c #373827",
"'  c #4B4D44",
"kX c #ECECEC",
"z  c #264821",
"{  c #415E40",
"`. c #D1CED1",
"V  c #3C4C3D",
"6X c #DCCCE6",
"1. c #A85040",
"Y. c #C4C3C4",
"@X c #E0DFDE",
"J  c #4A4525",
"qX c #E2D4EA",
"]  c #574341",
"z. c #B0AFB1",
"i. c #83958A",
"<. c #9A5F52",
"4. c #00A80E",
"IX c #F5F8FC",
"VX c #E2EFFA",
"v. c #BCBABC",
"D  c #2C502F",
"uX c #DFE0E1",
"S  c #395635",
"vX c #FCF8E5",
"_  c #454A4C",
"B  c #364539",
"K  c #4E4824",
"p  c #393D3F",
"PX c #F9F6FA",
"JX c #F6F9F5",
"XX c #D4DDDA",
"H. c #F2E6AF",
"O. c #515659",
"5. c #02AB19",
">  c #263B24",
"!. c #D2CECE",
"fX c #E9EAE7",
"xX c #F4F1E3",
"dX c #E5E8E5",
"m. c #C0BBBC",
"U  c #49463A",
"zX c #E9F1E9",
"iX c #D6E7F7",
"). c #CECDD0",
"F  c #524A1B",
"Q  c #284D40",
"g  c #1E411A",
":. c #60676D",
"#X c #F3DDD3",
"BX c #EDECF2",
"}. c #D4DBD4",
"6. c #08B027",
"<X c #F4EFDA",
"M. c #ACD7B3",
"#  c #172326",
"A. c #E5DAB6",
"%  c #1D242A",
"T  c #415D3F",
"0  c #292F31",
")  c #424649",
"$. c #526C4E",
"KX c #FDFBF4",
"P. c #B7C2D5",
"7. c #2FB849",
"8X c #DDDEE0",
"s  c #413E26",
"~  c #3E4946",
"|  c #464B50",
"b. c #B8B5B8",
",. c #B04834",
"^. c #C8DFCB",
"r. c #687895",
"m  c #344334",
"=  c #2C2E26",
"s. c #95A495",
"]. c #CFD9D1",
"!  c #3D4244",
"o. c #505556",
"X  c #193E13",
"Q. c #C8CAC7",
"A  c #3B5839",
"r  c #2E3438",
"*  c #232F27",
"wX c #E5DAED",
"I. c #B8C3D6",
"lX c #F0EFEF",
"W. c #CCCBCC",
"%. c #536459",
"[. c #D4D3D4",
"f. c #A0AB92",
"#. c #476246",
"%X c #DDE2DD",
" X c #D5D6DA",
"Z. c #E1D3A8",
"(  c #414546",
"l. c #A8ACB4",
"o  c #1C3F18",
".. c #4D5254",
"C. c #C5C5BD",
".  c #163911",
"D. c #F2E3B5",
"+. c #555A5C",
"3. c #FB7266",
"h. c #ADABAD",
"6  c #343528",
"&. c #5A5F62",
"+  c #3C3B1F",
"2X c #F7F0D2",
"eX c #E8DEEF",
";. c #637675",
"h  c #1C4214",
"W  c #373D42",
/* pixels */
"; - ; : ; < < ; ; < ; : ; < < ; - ; u 0 - 0 : 0 : - ; 1 9 = - - ; ; ; ; ; ; ; ; ; - ; ; ; - ; ; - ; ; - - ; ; - ; ; - ; ; ; - ; - ; ; - ; ; ; ; - ; ; - ; - ; ; - ; - ; ; ; - ; ; ; - ; ; - ; - ; ; - ; ",
"- < M m M N M : m M M 2 e M y N S r +.&...) *.+. .w w P s u 0 % - % % % % - % % - ; ; - ; ; ; ; ; - ; ; ; ; - ; ; - ; - - ; - ; ; ; - ; ; - - ; ; - ; ; ; - ; - - ; ; ; - ; ; - - ; ; - ; ; ; - ; - - ; ",
"- ; e e 2 e 2 : e e e 1 1 2 e e y : ) ) ( E ) ( ) t u ' u q 1 J 8 9 5 9 3 = 8 8 8 ; ; ; ; ; ; ; ; - ; ; - - ; ; ; ; ; ; ; ; ; ; ; - - ; ; ; - ; ; - - ; ; ; ; ; ; ; ; - ; ; ; - - ; ; % - - ; ; ; - ; ; ",
"- < m e y m m : y y m w 1 m t B N r  .O. .( _ ) _ ( _ o.( ; 7 P 6 J H J H = J a 1 r @ - $ $ - @ $ - - % ; - % % - % % - % % ; - ; - ; ; - ; ; - ; ; - ; - ; - - ; - - ; - - ; ; ; ; ; ; ; ; - ; - ; ; - ",
"- < m e y M m : e m y e 1 m e m m r ....( ) ` ) _ ! ! ..`  .r q H K 4 : r 0 X.O.( ! O.`  ._ E &._ t t I s H J J 6 5 J J J 5 = i - - ; - - ; - ; - ; ; ; - ; - ; ; - ; - ; - ; - ; ; ; ; ; ; ; ; ; ; ; - ",
"; ; e e e e t < e e e : < e 1 y m 1 ! _ _ C ! ! E E ! ) O.p : 1 J 6 = ; 7 0 W ) o.p p i p E E ! E 0 0 s = 6 8 6 : 6 9 6 8 6 - u ; ; ; ; ; ; ; ; ; ; ; ; ; ; ; - ; ; ; ; ; ; ; ; ; ; ; ; ; ; ; ; ; ; ; ; ",
"- : M y m M M : m M M e e M y M M r O.@._ _ .._ .._ ! .._ w 7 G - H G K 6 u @ @ @ $ $ % $ # % @ @ - - # % % % % % % % % % % % $ % - - - - % % - - - % % % & - - - % - % - ; - - $ $ ; $ $ $ & $ % $ $ - ",
"- ; e e e e e < 1 2 e : < e e e y 0 ) ) ( ! ! ! p i u ! w : r ' r 2 U p p E : E i u u ; : s 9 6 8 6 : 9 6 6 6 6 9 6 = 1 6 6 8 6 4 6 9 = 1 9 4 6 9 3 6 5 6 1 3 : w 7 = 6 8 = 0 : E E : r p p u r 1 i i 0 ",
"- ; M y m M m : y m m 2 w m e M N r  .+. .) ` _ ` ) E o.w w W ..&._ | _ _  .(  .&.&.E r r I 5 9 J = 6 L J J J s s J J 4 s s K 4 H s H 8 4 J K s s s s K H 5 J = + P s a = & t 0 o.+.+.) o.` ....( ..+.E ",
"- < y e e m y < e y y 1 1 y 2 m m q  ...! ( _ ( ) ! i _ 0 0 W .._ E _ ) ) ) i ) ` ` ! 0 0 F s 9 J 9 = J s 8 s s s s 5 4 5 5 J 9 H s s J 8 H s ; H J 8 5 5 = t r o. .u ) ` _ ) p u ) o.w $ - $ $ < $ $ ; ",
"- < y e e y e : e e y 1 1 e 2 e M 1 )  . .! ! ( ! E E ) 1 : u ) o.) ( ! ( E W (  ...i 0 0 K 9 9 s : 1 s 5 8 s 5 5 s 4 9 5 s s 9 5 8 9 s 6 5 J : 4 J 5 3 ; ; r r E ..o.C ( E ! ! ! ! ( w - ; ; ; - ; ; - ",
"; ; M y M M M 1 m m M e e M y M M r O.+._ _ .._  .) i ` w w E +.+.E ..` `  .E  .O.O.( t t P d 9 K 6 6 L J H J H J J H 5 5 L s 5 6 s I d s 5 = t 0 X.*. .! @. ..._ r o.@.i @ $ & & $ $ - ; - ; - - - ; ; ",
"- < e w e e e ; 1 2 e 1 < e 2 e m 0 ! ) ) ! E ! E i p ` u : 0 W ..) u E ! E ( u  .' i w 0 5 d d 9 6 6 4 8 9 9 4 9 5 6 3 5 s : 3 9 6 8 J 6 q ; E u w E O.( i u u ! ) 0 r t - : - ; ; ; ; - ; ; ; ; ; - ; ",
"- : M y m M M : y m m e w m e M N t o.+. .)  ._  ._ ! &.) w w ) o.@.( .._ _  .E  .@.+.E w 7 I 3 5 K ; 4 P s J J s J J s 8 H 6 J I s a = - t r O.*.o.) _ ` o.` ! o.@.u $ - - ; - ; - ; - ; - - ; - ; ; - ",
"; < e e e y y < e e e 1 1 y e y y 0 _ _ ( ! ) ) ! p u  .! : : E ` ) E _ ) ! ! W ` ) _ u 0 w P 9 J 9 = J s 9 s 9 H 5 9 9 5 s : 1 0  .) r E _ ( E i ! _ _ 0 $ ; 1 $ - ; ; - - ; - ; ; ; ; ; ; ; ; : - ; - ",
"- ; m 2 y m y : y y y 1 1 y w m N r _ O...! ) ! ) ) E | E 0 0 ! ` &.E ) ( ( ) E | +...i w 7 K ; s - 6 J s s s s 5 J s 9 s ; - r r ) o.+.! ) ( ) ( E (  .u % - % - - - - - - - & & $ - $ $ # % # @ - ; ; ",
"0 < * > < < < 1 < < < 1 1 < 1 < < 1 < * 1 1 * < * < 1 * * 1 < < * < 1 : < * * 2 * * * < < < < < < 1 < < < < ; < < < < < < < e < < * * 1 < * < * < 1 * * 1 1 < 1 1 1 1 1 2 1 2 m e ! y y ' ] ] ] ] 1 - ; ",
", m Q j j k j j z z k j j j k k j k z z j g k g j j j j j j j j j j j j v c b l n n b c n n b c n c c n n n c n c D n n c v j j j j j j j j j j j j j j j g k g g j j j j g n ;.8.$.p.u.2.3.n.3.3.U % ; ",
"> s D h h h . g g k h h h h h h g g g g X O . .         O O   O       . j > , > , > , > x l , , > x , > > , , , x > > > > k .             .         .           . .         X } #.x } } >.,.<.1.,.y % ; ",
"2 A R R A R R { R A #.#.R A A A A A A A A A A A A A A A A A A A A A S S T T T T T T T T T T T T T { T T { { { A T T { T T A A A A A A A A S A A A A A A A A A A A A A A S S A Z Z A n Z A V Z S D x - ; ",
"C XX'.7XFX7X7XXXNXDX X'.gXFXFXFXFXFXFXFXDXFXFXFXFXFXFXFXFXFXFXFXDXFXFXFXFXFXFXDXDXDXFXFXDXFXDXFXFXDXDXFXDXFXFXFXFXDXFXFXFXFXFXFXDXFXFXFXFXFXFXFXDXFXFXFXFXFXFXFXDXFXFXFXFXFXFXFXFXFXFXFXFXFXFXFXNX[ $ ; ",
"~ XXJ.L.IX'.L.L.yXNXx.x._.IXFXFXFXFXFXFXFXFXFXFXFXDXFXFXFXFXFXFXFXFXFXFXFXDXFXFXLXFXFXFXFXFXFXFXFXFXFXFXFXFXFXFXFXFXFXDXFXFXFXFXFXFXFXFXFXFXFXFXFXFXFXDXFXFXFXFXFXFXFXFXFXDXFXFXFXFXFXFXFXFXFXIXNX[ $ ; ",
"B ].GXSXkXjXBXkXlXjXBXSXkXkXkXkXkXkXkXkXkXkXBXkXkXkXkXkXkXkXkXkXkXkXlXkXkXkXkXkXkXkXkXkXkXkXkXkXkXkXkXkXkXkXkXkXkXkXkXkXkXkXNXkXkXkXkXkXkXkXkXkXkXkXkXkXkXkXkXkXkXkXlXkXkXkXkXkXkXkXBXkXkXNXkXBXdX[ $ ; ",
"B %XGXSXGXGXJXkXoXaXuXaXkXaXlXlXGXSXGXSXGXSXGXSXGXSXGXSXGXSXGXGXlXGXlXGXlXGXSXGXSXlXGXGXGXSXGXkXGXGXSXGXlXGXlXGXGXlXGXSXGXSXGXGXSXGXSXGXGXSXGXkXGXlXGXGXbXGXlXGXGXlXGXSXGXGXSXGXSXGXSXSXlXGXlXGXzX[ $ ; ",
"m dX%XY.W.Y. XLXC.j.h.k.z.aXkXSXlXkXkXkXkXkXkXlXkXkXbXlXlXlXkXkXlXlXlXlXkXlXlXlXlXlXlXkXlXlXlXlXkXSXkXkXlXkXlXlXkXkXBXlXkXkXlXkXlXkXkXkXbXkXkXlXlXlXlXkXkXlXlXlXkXkXkXkXGXlXkXlXkXlXkXlXlXlXSXGXsXA % - ",
"B %XUXUXPXUXUXGXkXkXlXaXaXkXSXkXkXUXPXJXPXPXPXPXLXGXkXkXkXjXkXkXkXkXkXjXkXkXkXkXkXkXkXkXkXkXkXjXlXkXkXkXkXkXkXlXLXKXKXPXPXJXLXPXPXJXLXlXGXkXkXjXdXaXlXLXKXLXJXPXPXLXkXGXGXGXkXlXSXGXGXkXkXkXaXaX%X~ & ; ",
"M %X/.W.|.).R./.`./.Y.[./. X/.|.PXoXaXaXaX8XaXaXPXJXPXUXUXUXUXUXUXUXUXUXUXUXUXUXUXUXUXUXUXUXUXUXUXUXUXUXUXUXUXJXbX`.aX0XhXaXfXoXkXaXLXlXoXSXUXUXoX|.lXlXaXaXoXoXaXLXkX[.[.oXkXfXkXoXoXJXPXUXaXoXoX[ $ - ",
"m |.).c.Y.Q.z.v.b.v.v.b.b.z.b.Q.KX~.W.{.8X`.`./.SXPXJXUXUXUXPXUXPXUXUXUXUXUXJXUXUXUXIXUXPXUXUXUXUXUXUXUXPXUXUXPXGX!.W.[.[.`.aX{.`.`.kXkX).`.UXUX|.`.lX.XW.8X{.[.E.aXGX~.).`.oXdX[.R.Q.SXUXUXoX/.|.[ $ ; ",
"m :XUXPXPXUXUXPXUXPXIXUXUXPXUXLXUXUXUXUXUXUXUXUXUXUXPXUXJXPXLXKXJXJXKXPXPXJXPXJXPXJXJXPXPXJXJXPXLXJXJXPXLXJXJXIXUXUXUXUXUXUXUXUXUXUXUXJXUXPXJXPXSXlXPXUXUXUXUXUXUXUXJXPXPXPXUXIXUXUXUXJXPXKXkXGXdXV $ ; ",
"B ].GXSXUXUXUXLXaXGXGXkXaXlXGXUXUXUXUXIXPXUXUXPXUXlXkXlXJXUXUXUXUXUXUXUXUXUXUXUXUXUXUXUXUXUXUXUXUXUXUXUXUXUXUXUXUXPXUXPXKXIXKXUXUXPXUXUXUXUXUXUXUXUXUXPXPXUXUXPXUXUXUXUXUXUXUXUXPXUXUXUXUXUXUXLXfX[ $ ; ",
"B Y.Y.).UXJXUXkXT.W.Q.oXv.v.Q.LXUXPXUXUXUXPXUXJXUXoXv.R.8XUXIXUXIXUXUXPXIXJXIXUXJXUXPXUXIXUXIXUXUXJXPXUXPXUXUXIXUXIXIXUXUXUXUXIXJXUXJXUXPXUXJXIXUXPXUXUXUXJXUXJXPXUXPXUXUXIXPXUXPXUXIXUXJXIXIXkXdX[ $ ; ",
"M :XUXJXkXUXUXUXLXGXUXUXUXUXUXUXLXUXJXJXUXUXUXUXUXUXUXKXKXPXUXUXKXUXJXUXUXUXUXKXUXUXKXJXUXUXKXUXKXUXUXUXUXKXUXUXKXKXUXKXUXPXKXUXUXUXUXJXUXUXUXUXKXUXJXUXUXIXUXUXKXUXUXUXUXUXKXKXUXUXUXUXUXUXUX X~.[ $ ; ",
"M /.W.v.v.v.kXUXoXaXUXHXW.Y.{.E.Y.W.oX!.m.|.!.v.GXmXF.G.3XF.F.-X=XxXF.=X=X-X5X=XF.=X<XF.F.>X3X2X5XF.F.F.3X3XG.-X4XF.F.F.=X3XF.F.<X3X=X=XF.-XF.4X5X=XF.;X3XF.;X4X=X=X=XG.F.4X-XF.=X-X-XUXUXUXUX`.~.[ % ; ",
"M dXUXPXUXJXPXUXUXUXUXUXKXUXUXUXPXKXUXUXGXPXHXlXUXUXUXUXUXUXUXUXUXIXUXUXUXUXUXUXUXUXKXUXUXUXUXUXUXUXKXKXUXUXUXKXUXUXUXUXUXUXUXUXKXUXUXUXUXUXUXPXUXUXKXUXUXUXKXUXUXKXUXUXUXPXUXUXUXUXUXUXUXUXUX[.~.[ $ ; ",
"B }..X X/.oXUXUXE.Y.uXIXDXVXVXFXVXFXIXUXUXUXUXUXUXIXeXAXCXMXtXMXAXCXeXrXMXMXLXeXAXAXMXMXeXMXMXwXBXMXMXMXwXMXCXwXMXMXMXMXMXCXMXeXMXqXwXMXLXeXAXCXMXMXtXAXtXtXMXwXwXMXMXAXMXZXNXyXyXNXgXyXyXyXjX[.~.[ $ ; ",
"M %XkXoXoX8XUXUXaXoXGXPXIXFXFXFXFXDXIXUXUXUXUXUXUXPXCXMXMXMXZXCXAXLXCXMXAXMXlXCXMXAXMXLXCXAXMXMXAXLXMXMXMXAXZXCXCXMXAXMXCXZXLXCXMXMXMXMXGXCXMXAXMXZXCXMXAXMXCXCXMXMXZXZXtXhXLXNXgX7XBXBXgXgXBX[./.[ # ; ",
"B %XLXUXPXUXUXUXGXLXJXUXIXUXUXUXIXUXUXUXUXUXUXUXUXUXPXUXUXUXPXPXUXPXPXUXPXPXUXPXPXUXPXPXUXPXUXUXPXPXPXUXPXPXPXUXJXUXUXUXUXJXbXJXUXJXUXUXKXKXUXUXUXHXKXUXKXKXKXHXUXKXHXUXUXKXKXKXUXUXmXUXKXUXUX[.~.[ $ < ",
"C Q.m.Y.v.Y.GXUXE.Y.aXUXpXiXiXpXpXiXDXUXUXUXUXUXUXPXqXwXwX9XrXqXwXqX6XwXeX9X9X6XqXMXqXwXqXqXqXqXMXMX9X9X6X9X9XkX}.}.}.}.%X|.].].%X%X].].sXOX+XOXOX1XOX#X1XOXOXOXOX,X+X+X#X#X<XG.=X2X3X3X5XF.F.[.`.[ # ; ",
"M :XUXUXUXUXUXUXUXUXUXUXUXUXUXUXUXUXUXUXUXUXUXUXUXUXUXUXUXUXUXUXUXUXUXUXUXUXUXUXUXUXUXUXUXUXUXUXUXUXUXUXUXUXUXUXUXUXUXUXUXUXUXUXUXUXUXUXUXUXUXUXUXUXUXUXPXUXUXUXUXUXUXUXUXUXUXUXUXUXUXUXUXUXKX[./.[ $ ; ",
"B /.`.).W.b.Q.UX!.).SXUX.X!.0X`.E.{.aX[.{.{.aX`..XPXwXtXMXeXwXwXtXwXwXwXqXqXwXtXMXwXBX=X=X;X;X;X=X=X;X5XF.;X5X5XcX5X-X-X;XcX3X=X5X-XcX=X;X=X=X5X=X=X5XcX=X=XF.-X2X;X;X;X5XF.=X;X5X=X;X-X-X2X5X/./.[ $ ; ",
"M %XkX:XhXkXlXUXGXkXLXUXkXaXlXkXlXhXKXLXsXsXlX.X:XUXZXZXZXZXPXLXZXZXCXLXPXZXZXPXZXAXBXKXvXmXcXmXnXvXcXKXmXcXKXKXmXKX5X3XcXKXmXcXmXnXGXmXvXvXcXKXmXcXcXnXmXmXmXmXKXmXmXnXKXmXcX5XKXmXcXmXmX5XcX X`.[ $ ; ",
"B }.LXJXLXGXGXPXkXlXUXKXHXLXHXHXlXPXGXGXLXKXLXKXUXUXvXKXmXmXKXvXmXKXUXmXKXKXKXmXKXKXmXKXKXKXKXKXUXmXJXmXKXKXmXcXKXKXKXUXKXmXKXKXmXKXKXvXKXKXmXUXKXJXUXKXKXJXmXUXnXmXKXKXcXmXKXUXKXcXmXKXKXmXmX/.`.[ $ ; ",
"C ~.v.Y.W.c.v.kX/. XUXPX!.T.oXW.E.!.kX{.K.@Xb.[.UXKX-X=XF.=X3X2X=X-X4X;X=X=X=XF.-XnX;X-X=X5X;X=X<X5X-XF.3X=X;X2XF.H.F.xX2X2X3X5X2X=XxX=X=X2X5X3X5X=XG.F.5X3XF.-X4X=X=X2X-XF.F.mXvX=X-X=X5X-X-X[.~.[ $ ; ",
"M dXUXUXUXUXUXUXUXUXUXUXUXUXUXUXUXUXUXUXUXUXPXUXUXUXUXUXUXUXUXUXUXUXUXUXUXUXUXUXUXUXUXUXUXUXUXUXUXUXUXUXUXUXUXUXUXUXUXUXUXUXUXUXUXUXUXUXUXUXUXUXUXUXUXUXUXUXUXUXUXUXUXUXUXUXUXUXUXUXUXUXUXUXUX[.~.[ $ < ",
"m dXUXUXUXUXUXUXUXUXUXUXUXUXUXUXUXUXUXUXUXUXUXUXUXUXUXUXUXUXUXUXUXUXUXUXUXUXUXUXUXUXUXUXUXUXUXUXUXUXUXUXUXUXUXUXUXUXUXUXUXUXUXUXUXUXUXUXUXUXUXUXUXUXUXUXUXUXUXUXUXUXUXUXUXUXUXUXUXUXUXUXUXUXUX/./.[ $ ; ",
"m dXUXUXUXUXUXUXUXUXUXUXUXUXUXUXUXUXUXUXUXUXUXUXUXUXUXUXUXUXUXUXUXUXUXUXUXUXUXUXUXUXUXUXUXUXUXUXUXUXUXUXUXUXUXUXUXUXUXUXUXUXUXUXUXUXUXUXUXUXUXUXUXUXUXUXUXUXUXUXUXUXUXUXUXUXUXUXUXUXUXUXUXUXUX[.`.[ $ ; ",
"m :XUXUXUXUXUXUXUXUXUXUXUXUXUXUXUXUXUXUXUXUXUXUXUXUXUXUXUXUXUXUXUXUXUXUXUXUXUXUXUXUXUXUXUXUXUXUXUXUXUXUXUXUXUXUXUXUXUXUXUXUXUXUXUXUXUXUXUXUXUXUXUXUXUXUXUXUXUXUXUXUXUXUXUXUXUXUXUXUXUXUXUXUXUX[.~.[ $ - ",
"B :XUXUXUXUXUXUXUXUXUXUXUXUXUXUXUXUXUXUXUXUXUXUXUXUXUXUXUXUXUXUXUXUXUXUXUXUXUXUXUXUXUXUXUXUXUXUXUXUXUXUXUXUXUXUXUXUXUXUXUXUXUXUXUXUXUXUXUXUXUXUXUXUXUXUXUXUXUXUXUXUXUXUXUXUXUXUXUXUXUXUXUXUXUX{.~.[ % ; ",
"m dXUXUXUXUXUXUXUXUXUXUXUXUXUXUXUXUXUXUXUXUXUXUXUXUXUXUXUXUXUXUXUXUXUXUXUXUXUXUXUXUXUXUXUXUXUXUXUXUXUXUXUXUXUXUXUXUXUXUXUXUXUXUXUXUXUXUXUXUXUXUXUXUXUXUXUXUXUXUXUXUXUXUXUXUXUXUXUXUXUXUXUXUXUX[.~.[ % ; ",
"m :XUXUXUXUXUXUXUXUXUXUXUXUXUXUXUXUXUXUXUXUXUXUXUXUXUXUXUXUXUXUXUXUXUXUXUXUXUXUXUXUXUXUXUXUXUXUXUXUXUXUXUXUXUXUXUXUXUXUXUXUXUXUXUXUXUXUXUXUXUXUXUXUXUXUXUXUXUXUXUXUXUXUXUXUXUXUXUXUXUXUXUXUXUX[.~.[ $ ; ",
"m dXUXUXUXUXUXUXUXUXUXUXUXUXUXUXUXUXUXUXUXUXUXUXUXUXUXUXUXUXUXUXUXUXUXUXUXUXUXUXUXUXUXUXUXUXUXUXUXUXUXUXUXUXUXUXUXUXUXUXUXUXUXUXUXUXUXUXUXUXUXUXUXUXUXUXUXUXUXUXUXUXUXUXUXUXUXUXUXUXUXUXUXUXUX[./.[ $ ; ",
"m :XUXUXUXUXUXUXUXUXUXUXUXUXUXUXUXUXUXUXUXUXUXUXUXUXUXUXUXUXUXUXUXUXUXUXUXUXUXUXUXUXUXUXUXUXUXUXUXUXUXUXUXUXUXUXUXUXUXUXUXUXUXUXUXUXUXUXUXUXUXUXUXUXUXUXUXUXUXUXUXUXUXUXUXUXUXUXUXUXUXUXUXUXUX[.~.[ $ ; ",
"m dXUXUXUXUXUXUXUXUXUXUXUXUXUXUXUXUXUXUXUXUXUXUXUXUXUXUXUXUXUXUXUXUXUXUXUXUXUXUXUXUXUXUXUXUXUXUXUXUXUXUXUXUXUXUXUXUXUXUXUXUXUXUXUXUXUXUXUXUXUXUXUXUXUXUXUXUXUXUXUXUXUXUXUXUXUXUXUXUXUXUXUXUXUX[./.[ $ ; ",
"m :XUXUXUXUXUXUXUXUXUXUXUXUXUXUXUXUXUXUXUXUXUXUXUXUXUXUXUXUXUXUXUXUXUXUXUXUXUXUXUXUXUXUXUXUXUXUXUXUXUXUXUXUXUXUXUXUXUXUXUXUXUXUXUXUXUXUXUXUXUXUXUXUXUXUXUXUXUXUXUXUXUXUXUXUXUXUXUXUXUXUXUXUXUXkXdX[ # ; ",
"m :XUXUXUXUXUXUXUXUXUXUXUXUXUXUXUXUXUXUXUXUXUXUXUXUXUXUXUXUXUXUXUXUXUXUXUXUXUXUXUXUXUXUXUXUXUXUXUXUXUXUXUXUXUXUXUXUXUXUXUXUXUXUXUXUXUXUXUXUXUXUXUXUXUXUXUXUXUXUXUXUXUXUXUXUXUXUXUXUXUXUXUXUXUXGXdX[ $ < ",
"B XXSX|./.[.[.[./.{.kXLXGXGXGXGXGXGXGXGXGXGXGXGXGXGXGXGXGXGXGXGXGXGXGXGXGXGXGXGXGXGXGXGXGXGXGXGXGXGXGXGXGXGXGXGXGXGXGXGXGXGXGXGXGXGXGXGXGXGXGXGXGXGXGXGXGXGXGXGXGXGXGXGXGXGXGXGXGXGXGXGXLXaXaXUXkXV $ ; ",
"m }.GX|..X}.{.|. X{.lXGXGXGXGXGXGXGXlXGXGXGXGXGXGXGXGXGXGXGXGXGXGXGXGXGXGXGXGXGXGXGXGXGXGXGXGXGXGXGXGXGXGXGXGXGXGXGXGXGXGXGXGXGXGXGXGXGXGXGXGXGXGXGXGXGXGXGXGXGXGXGXGXGXGXGXGXGXLXGXGXGXGXfXjXUXkXV - ; ",
"m dXUXUXUXUXUXUXUXUXUXUXUXUXUXUXUXUXUXUXUXUXUXUXUXUXUXUXUXUXUXUXUXUXUXUXUXUXUXUXUXUXUXUXUXUXUXUXUXUXPXUXUXUXUXUXUXUXUXUXUXUXUXUXUXUXUXUXUXUXUXUXUXUXUXUXUXUXUXUXUXUXUXUXUXUXUXPXPXJXUXJXJXUXKXUXbX~ - ; ",
"B /.{.Y.LXPXPXPXJXPXPXHXPXPXJXPXPXKXPXPXPXPXPXPXPXPXLXKXPXKXLXGXLXLXGXGXGXLXLXGXGXJXLXLXLXGXGXKXJXfXb.v.R.kXLXGXLXGXGXLXGXGXGXLXGXGXLXLXLXGXGXLXLXGXGXGXGXLXLXGXLXGXLXGXGXUXkXkXGXlXlXGXGXSXlXLXfXV @ ; ",
"m }.PXaXaXkXsXeXSXlXaXkXdXaXSXGXaXkXlXoXaXkXaXdX|.kXkXaXjXLXUXUXUXUXUXUXUXUXUXUXUXUXUXUXUXUXUXkXkXGXUXPXJXUXUXUXUXUXUXUXUXUXUXUXUXUXUXUXUXUXUXUXUXUXUXUXUXUXUXUXUXUXUXUXLXUXlX/.[.|.{.{.{.{.[.SXkXT - ; ",
"m oXUXUXE.W..X[.R.[.`.oX!.).aXoX[.R.`.@X.X`.8X[.oX[.{.W.Y.aXUXUXUXUXUXUXUXUXUXUXUXUXUXUXUXUXUX{.aXoXT.|.[.oX/.0X/.{..X[./.aXW.|.Y.Y.IXKXE. X[.{.[.|.GX{..X{.oX`. XaX[.UXJXPXGXdXaXaXaXdXaXaXoXGXkXV % ; ",
"m }.UXUX!.[..X{.`.oX`.oX[.`.aX0X[.`..X0X@X[.0XaX0X{.[.UXUXUXUXUXUXUXUXUXUXUXUXUXUXUXUXUXUXUXUXGXlXkX0XhX[.oXoXkX8X.XaXoXoXlX0XSXaXaXUXUXaX0XoX8X[.{.lX0XoX[.aXoX8XGXkXUXGXUXGXGXGXGXLXGXLXGXSXGXkXU % < ",
"x |.UXUX[..X0XoX[.oXoX0XoX.XkXhX0X.X0XaX[.aXaXaXaXoXoXkXJXLXGXUXUXUXUXUXUXUXUXUXUXUXUXUXUXUXUXlXkXfXB.B.dXJXGXlXLXGXGXGXLXSXGXlXGXGXkXkXGXGXGXGXGXGXlXLXGXGXGXLXGXlXlXkXkXKXdX|.jXaX0XaXdX0XaXlXkXV @ $ ",
"V |.UXUXE.W.{.[.W.{.W. X).W.aX{.W.K.W.[.K.R.oXW.Y.`..XR.Y.Y.v.LXUXUXUXUXUXUXUXUXUXUXUXUXUXUXUXGXCX^.5.4.M.hXaXaXaXaX@XaXaXaXaXaX0XaXaXaXaXaXaXaXaX:XaXaXaXaXaX0XaXaXaXaXaXUX@Xk.k.v.v.c.c.c.h.aXzX} u p ",
"s.}.UXUXY.oXoX{.`.`.W.oXoX).kXUXUXPXUXUXUXUXUXUXUXUXUXUXUXUXUXUXUXUXUXUXUXUXUXUXUXUXUXUXUXUXUX%XhX$X6.6.N.lXdXaXaXhXaXaXsXaXsXdXaXaXaXaXjXaXsXsXjXaXaXaXhXaXjXaXaXaXhXaXaXPXlXkXaXkXkXkXkXkXoXlXdXs.SXaX",
"d.}.UXUX:XoXoXoX|.oX8XjXoX!.kXUXUXUXUXUXUXUXUXUXUXUXUXUXUXUXUXUXUXUXUXUXUXUXUXUXUXUXUXUXUXUXPXoXsX$X5.4.M.CXaXaXsXaXaXhXaXjXsXaXaXjXjXaXaXhXaXsXaXaXkXaXaXjXaXaXkXaXjXaXdXUX{.[.dXoX|.oXoXoXoXkXdXf.vXcX",
"%.oXUXUXUXUXUXUXUXUXUXUXUXUXUXUXUXUXUXUXUXUXUXUXUXUXUXUXUXUXUXUXUXUXUXUXUXUXUXUXUXUXUXUXUXUXUXjXCX&X7.7.N.kXaXaXaXaXaXaXaXaXaXaXaXaXaXaXaXaXaXaXaXaXaXaXaXaXaXaXaXaXaXaXdXUX`.c.c.v.Y.b.b.v.k.W.bX=.-.-.",
"^ /.kXkXkXjXsXkXsXsXkXfXjXfXkXkXkXfXkXkXkXfXfXkXkXfXkXfXfXkXfXkXfXfXkXkXkXfXkXfXfXkXfXkXfXfXkXsXsXfXfXkXsXaXaXaXdXdXaXaXaXsXsXdXaXsXsXdXsXaXdXdXdXdXdXsXaXsXsXdXdXdXsXaXfXkXkXkXsXsXzXjXjXsXdXaX:XX./ / ",
";.0.q.0.0.0.0.0.0.q.0.q.q.q.0.0.0.0.0.t.t.t.t.t.t.t.t.t.t.t.0.t.t.t.t.t.t.t.t.t.t.0.t.t.t.t.t.t.t.t.t.t.y.y.t.y.y.t.t.y.0.y.t.y.t.t.t.t.t.t.t.t.t.t.t.y.t.t.t.t.t.t.t.y.t.0.t.t.t.u.;.;.p.i.p.p.i.e.r.r.",
"S.Z.Z.D.S.S.D.A.C.(.A.Z.V.A.D.S.D.H.Q.U.P.P.I.P.P.I.P.I.I.I.I.I.I.I.P.P.P.I.P.I.I.I.I.I.I.P.I.I.I.P.P.P.I.I.P.P.P.U.P.P.P.P.P.I.I.I.I.I.I.I.I.I.I.I.I.I.I.I.I.I.I.I.I.P.P.I.I.I.I._.g.l.UXkXhXSXSXUXIXUX"
};
