/* XPM */
static char *1350014529254[] = {
/* columns rows colors chars-per-pixel */
"100 75 256 2",
"gX c #E9DFC7",
"a  c #6B7368",
"@. c #9B8C85",
"9. c #9C9392",
"O  c #555A55",
"9X c #D1CDC9",
"'. c #C5BCB8",
"F. c #ABB2A6",
"0X c #D5CAC7",
";X c #D5D1B6",
"^  c #A68B7B",
"-. c #859486",
"n. c #B8B59C",
"C  c #857472",
"<  c #635F61",
"f  c #747A6C",
"y  c #7A6D6B",
":  c #62625D",
"0. c #A18E89",
" . c #8B8C85",
"n  c #757C79",
"N  c #816F6D",
"-  c #5D615D",
"j. c #A6A58E",
"GX c #FAF4DC",
"y. c #A19493",
"-X c #D8CEB3",
"v  c #7A7C76",
":X c #D9D2B6",
"l  c #6F787A",
"t  c #736C6A",
"jX c #E2DBD7",
"yX c #DDDBC9",
"S. c #B4AEAB",
"e. c #A2988E",
"FX c #F7F1DB",
"hX c #E2DEDB",
"5X c #CBC6C1",
"=X c #D3CEB9",
"*X c #D3CDB4",
"3  c #5A6865",
"I  c #7C817C",
"2  c #5D6964",
"K. c #BBB5A2",
"j  c #6D7471",
"NX c #E3E2DB",
"7  c #6A6B65",
"/. c #C4B59A",
"&  c #46534A",
"OX c #D1CBAE",
"(. c #C2BCA4",
"w. c #A1938C",
"x  c #7C7472",
"R  c #838A7A",
"Z  c #897573",
"b  c #747579",
"V. c #A9ACA5",
"k. c #A5A394",
"k  c #6E7A73",
"g. c #9CA29C",
"4X c #C4C5C2",
"G  c #8B7C7A",
"M  c #797778",
"mX c #F2E9CE",
"t. c #B39982",
"L  c #7B8275",
"1  c #5E6462",
"N. c #A3A5A1",
"u  c #706769",
",X c #DAD4BB",
">X c #D6D2BB",
"p. c #A99D9D",
"rX c #DDDAC4",
"a. c #AD9F91",
"[  c #7E8B8A",
"E. c #B5BAB3",
"   c #53554F",
",  c #5D5D60",
"P  c #75817B",
"9  c #6A6769",
"oX c #C9C1A5",
"8  c #656768",
"~. c #C39F84",
"ZX c #F5EED9",
"8. c #9B9D9A",
"E  c #878879",
"d. c #9EA38A",
"HX c #FFF8DE",
"1X c #E1DABE",
"AX c #F3EAD5",
">. c #959A8A",
"@  c #595758",
"u. c #A49A94",
"q. c #A58F85",
"=. c #8C928C",
"L. c #BDB9A4",
"_. c #C1B7A6",
"x. c #ADAB9B",
"{. c #BDC2BB",
"&X c #C9C9BE",
"`  c #897F82",
"pX c #D6DAD3",
"$X c #C2C3BD",
"CX c #F9EED3",
"sX c #DBDAD5",
"DX c #F9F1D6",
"U. c #B6B5A7",
"X. c #8B8D8B",
"nX c #F1E7CC",
"T. c #B3B5B2",
"G. c #A6B2A9",
"*. c #85928B",
"c  c #747B74",
"Y  c #81837D",
"|. c #ACC6BD",
"R. c #BAB5B3",
"}  c #8C8482",
"cX c #E5E1CB",
"c. c #ABA795",
"UX c #F2F3ED",
"J. c #A8B5AA",
"H  c #927D76",
"d  c #7C716D",
"i  c #66726B",
"MX c #EDE5D1",
"LX c #FBF6E1",
"aX c #DBDBD4",
".X c #CAC5AB",
"3X c #BFC9C2",
"B. c #A4AAA4",
"2. c #8C9591",
"w  c #726664",
"SX c #F7F0D6",
";  c #596157",
"bX c #EFE8CE",
"5  c #696563",
"7X c #CCCBC5",
"q  c #6B6D6B",
"+X c #C4C4B3",
"/  c #AE927E",
"tX c #D3D3CC",
"e  c #756A66",
"$  c #5C5C5B",
"4  c #636462",
"'  c #7D8481",
"kX c #DCE1D6",
"z  c #737573",
"{  c #838482",
"`. c #C2BEBC",
"V  c #88766E",
"6X c #C5CAC2",
"1. c #978E94",
"Y. c #ADB6B1",
"@X c #CBC6B2",
"J  c #917E6F",
"qX c #CED1CB",
"]  c #7D8A83",
"z. c #ACA39C",
"i. c #A39D9A",
"<. c #989783",
"4. c #939593",
"IX c #F3F4ED",
"VX c #F4ECD3",
"v. c #B2AA9C",
"D  c #837679",
"uX c #D6D5C5",
"S  c #8A7A75",
"vX c #EBE4CB",
"_  c #7D7E80",
"B  c #84736E",
"K  c #768177",
"p  c #6C726D",
"PX c #FDF8E3",
"JX c #ECEBE2",
"XX c #CDC9AD",
"H. c #ADB3AC",
"O. c #938583",
"5. c #949A94",
">  c #65665E",
"!. c #B9B9B8",
"fX c #E2DEC9",
"xX c #E9E2C7",
"dX c #E3DCC3",
"m. c #ADB09A",
"U  c #7F887C",
"zX c #E6E0C6",
"iX c #D5D5D1",
"). c #C4BEA9",
"F  c #847C7A",
"Q  c #988779",
"g  c #7C7D6A",
":. c #9C928C",
"#X c #CDCAB3",
"BX c #E9E8D9",
"}. c #BBC5BA",
"6. c #9A9B95",
"<X c #DED8BE",
"M. c #9EA5A2",
"#  c #565B59",
"A. c #B2ACA4",
"%  c #555659",
"T  c #8B827C",
"0  c #666B69",
")  c #C6A37F",
"$. c #9A8C8A",
"KX c #E6E6E1",
"P. c #B2B4AD",
"7. c #969C98",
"8X c #CDCDC9",
"s  c #72746E",
"~  c #94947B",
"|  c #848B85",
"b. c #B3B29D",
",. c #9C9E8C",
"^. c #C7A486",
"r. c #BD9D84",
"m  c #7B7D7A",
"=  c #615E57",
"s. c #B39B94",
"]. c #BEC0AC",
"!  c #8B927C",
"o. c #878789",
"X  c #545654",
"Q. c #BDBDB9",
"A  c #857A74",
"r  c #7A6B66",
"*  c #615D5B",
"wX c #CBD3C7",
"I. c #BDBBAB",
"lX c #DFE0CD",
"W. c #BABBB5",
"%. c #988785",
"[. c #BCC0B6",
"f. c #9BA196",
"#. c #958C8A",
"%X c #C9C4BD",
" X c #C3C2AC",
"Z. c #A7A8A6",
"(  c #B5987E",
"l. c #A2A49D",
"o  c #595656",
".. c #858C89",
"C. c #ACADAA",
".  c #4E5454",
"D. c #B5A8A6",
"+. c #958A84",
"3. c #8E9993",
"h. c #98A59B",
"6  c #646A65",
"&. c #8D9181",
"+  c #5A5A56",
"2X c #E1D7BE",
"eX c #DBD6C1",
";. c #92938C",
"h  c #726F71",
"W  c #92837D",
/* pixels */
",X>XuXyXkXBXyXkXuXrX<XzXzXxXzXxXmXmXmXmXmXnXbXbXbXbXbXmXbXbXbXmXmXmXmXnXmXnXnXnXbXbXbXBXxXVXSXVXbXbXbXbXbXbXbXbXbXbXbXmXmXmXmXxXvXmXCXmXbXmXmXmXnXnXmXmXVXCXVXVXmXVXVXVXCXVXCXVXCXSXnXmXmXmXmXDXDXDXDXDX",
",X>X=XrXBXBXkXkXU J.G.>.d.>.>.j.j.m.n./.(.(.oX;X;X1XzXvXvXnXCXCXCXCXDXCXCXCXCXCXbXbXbXVXbXSXSXSXSXVXvXvXxXxXxXxXbXbXbXbXmXbXnXnXvXCXbXbXmXmXmXmXnXmXmXmXbXVXmXVXVXVXCXVXVXDXVXCXCXCXmXnXnXmXmXCXDXDXDXFX",
",X>X#X>XkX}.|.|.3 |.J.K I c k f a q 7 7 7 7 a p s f v E E ! &.d.j.m.n.K. X@X=X,XBXbXlXyXxXSXVXVXVXFXSXVXxXbXxXzXxXbXbXmXmXmXnXbXmXbXbXbXVXmXxXxXnXCXmXmXVXVXVXVXDXDXVXDXVXSXDXDXCXmXnXnXnXmXCXCXVXDXDXGX",
":X;XOX#XuXG.h.[ 3 3.-.U L c k f z h a p a q 8 8 8 8 6 5 6 4 7 8 6 > a i k k k G.IXBXY.M.pXU |.+X>.d.m.m.U.>XcXVX<X;X,XzXzX1XxXbXVXbXbXCXCXmXCXmXmXCXCXmXSXCXVXSXDXVXVXDXmXVXVXDXmXnXnXmXnXmXCXCXDXDXDXGX",
",X;X;X*X>Xl.7._ l U ' L P c s s a a q 7 p 7 q 7 7 8 q q t a t a p p j j j K c B.UXpXG.M...i G.3.k 6 : - p ..h.lXwXP -.;.! | &.>.>.,.z.v.v.b.K.L.oX.X;X,X<XdXgXxXmXmXbXCXCXCXCXDXGXmXnXmXmXVXDXDXDXDXDXGX",
":X,X;X*X*X,.[ n I U U I P c j a q q t 6 7 q q 0 7 q 7 7 q q a t p j k k k c K U *.2.[ ' j | 5.m c p t 7 7 7 : K ] f ..I L P M z h h p 7 q a t a s p f A v R Y ! >.f.d.k.m.L.].@X XXX;X;XdXSXDXGXGXDXGXGX",
";X:X;X*X*X>.k I ' I L n v z a a a 9 9 6 7 9 6 6 q a 7 q t a z j h b f k c K P K n n I ' ] U Y m v m P c f c c c j f c Y m m F m x v z s z z h z s c f s s x c v v I Y I Y Y U { f a L f m.DXDXGXGXGXDXDX",
"#XOX=X#X;X>.n I m P m c z p a q q q 6 7 0 8 6 6 0 6 a a a p h j j f c k n K v P ' P U { I I P v L P v n c c n m P I Y m m Y n c c c z z s s x f f s x z s f c m m R Y Y R { | { s 7 v K m.SXVXDXDXDXDXDX",
"@XOX*X@X*X>.c P m n n c p p q 0 2 0 6 6 6 6 6 i 6 a a p j s j z k n b k K v I P m L m P P I I I K K n c f c n m I m L Y m m m v c c c c s c s s s c z c z b v m m Y m I I ' { { m b M m U.bXVXSXGXDXDXDX",
"OX@X=X=X*X;.k k k k k j a a 6 0 4 6 6 : 6 6 6 0 6 7 a p s j c j z n c m n n c L v P m I m L L c n c c c n n n L L v m Y Y v m m v m m x x c c s s t c z z c v m L L L v P m { { { { I Y L.DXVXDXDXGXHXLX",
"@X*X>X*X*X&.j n n k k i q 6 > > 4 4 : 6 6 0 7 q i a j j c z b z c c b n v m k K f n m m m n z c c z c c c v n n v L v P Y m Y Y Y m m c v c g s j f s c m m m I Y P I m m ` I ' { { { { ].GXDXDXGXLXGXDX",
"=X=X=X>X;X&.z n n k p 0 0 6 6 6 1 2 4 4 6 > 7 a a j p z c s z c b b b c n m k n P m K c n m M m b c z c n m v m v v n v Y Y I m L v m c v c z c f c c c v c c v m m L m m m Y F { Y { Y ].GXSXDXSXLXHXGX",
",X,X=X2X;XE k c k a i 6 6 6 : 1 1 - 4 4 6 > 8 q p h z j s j c s j s c z c n k P n I P c c L v c c c z v m ` m m m L I m v L m I I m m m m v z v v M m z v z m v m m v v v m m m m Y Y U  XGXDXDXDXGXLXGX",
",X=X-X2X,X! j c j p 6 > - 4 4 $ 1 1 4 6 6 6 q p h j a j h j h j j s z j k b n n n n v n c c c z h z M v m m m n v n v m v L Y I n I I m m F m c m m m m m m v m L A F v g m m D m F } { @XHXDXGXGXGXGXFX",
"OX:X=X,X*XE j j p q 6 > 4 : 1 , 1 4 6 > > a 0 i h p z j p j h a f k z k k c k n k K n K c f j a a j z v _ _ { m v n c c m m m m v m m m F m v v M m m m F m m v L L x m M z M m m F { Y +XHXDXGXDXGXGXHX",
"OX=X-X*XOXR p j p 0 6 > - 4 4 4 - 6 - 6 0 i p i i k j p p j i p j c c f c n n n n c f c f j j a a q j m m m m m m I v m m m m m n c v g m L m m F m m m Y m f g v F L v v M M M F _ { F ].FXDXFXGXGXGXLX",
"*X>X;X*XOXU i j 7 6 6 > > > > - ; > 6 - 2 6 6 i q q j i z z j z j p c k k K c c c c c f c c p a q a j k m m _ m n m P v c m n n n c v c x Y v I I Y m m m m v v m v M m M z M M m m _ ` ).GXDXGXHXGXGXGX",
";X,X;X>X.XU p a a 6 0 a > ; ; + 3.=.6 3.| -.8.p { 3.j | _ j n b K K k c k i k n K k i c j h 8 q 6 q n c m m n n n n L P n m n n c c c c v Y m ' I m I Y Y v L F m v v m M z M M b n m ' ).DXDXDXGXHXGXGX",
"*X:X>X:X.XL p i 0 - Y [.V.I | m C.V.2.qX..2.[.g.}.B.8.$XT.B.W.=.6Xh.W.G.5.6X2.k j U N.P T.l.5.I 2.X.| ;.P ] P m c v n k K b n m n z c z v m m ' { ' P v Y Y F m n m v x z z z z z b n n ).GXCXLXHXHXFXFX",
",X>X;X:X.Xm p q 0 1 0 F.U V.I.5...V.E.F.H.3 G.3.Y.l.6.tXW.=.E.l.tX=.iX4X}.J.6XB.g.B.qXG.aXf.pXP.T.jX$XqXE.W.tXI U k P n *.6X8.b E.n h l v c =.=.m ` 4.4.Y Y | I L m M z b b q h b z m k ).GXFXGXGXLXGXGX",
"<X:X;X,X.XK 0 0 0 - g.6X{ =.g...2.V.V.g.T.H.[.k k $X}.F.$XX.E.k B.&XP *.3X..}.$XsXc E.H.}.k iX=.] 4X&XJ.6XB.iXl.aXP.Y.$X8X[.qXH.kX4X4.` ..P !.P.g.7.pXiX2.qXE.B.c Y { h c m Z.b h c m m  XLXGXGXFXHXGXGX",
",X,X:X<X.Xf a 7 4 6 s { m # 1 4 m n m G...H.J.2.Y.g.5.[.B.Y F.4.$XB.i k [.7XH.!.qXU !.B.G.K }.H.$X3.=.NX[.] tXpXpX6X$XNX[.6XsXM.qXE.qX{.qXW.&X7.KX{.KXqX8.iXY.$X=.$Xg.g.P.B.ZXN.} b c n  XLXGXLXHXGXPXPX",
";X,X,X,XoXf q q 6 4 , $ $ 8 4 4 4 8 0 3 3 3 2 8 i 4 - j 7 a c ' 2.k c j I 7.P | ..' ..=...M.[.2.G.0 7.[.] }.[.H.tXC.iXsX8.iXY.M.pX!.7XE.6XE.}.V.qXY.aXJXQ.}.B.7XjXT.T.jX;.NXBXP.| h c x  XLXGXLXHXHXLXGX",
";X;X;X,X(.s a q 9 8 4 4 4 q 7 4 i k p 0 4 6 3 6 6 i 0 : q q h i i i i j k 0 q 9 6 8 8 0 h p i j p p k i i U j 0  .Y ..........R.5.W.| n | P E.tX8XE.6XaXC.H.P.E...4Xl.V.W.B.aXT.{ t v L +XPXGXLXFXLXLXLX",
";XOX*X:X(.a p 0 6 6 9 v h 4 4 1 b T.q 2 8 6 2 3 3 , 8 8 9 p p =.5.5.l l 0 p h i p 8 8 0 q n l j b c k h j 8 8 q 4 9 9 9 9 8 n b i h z b n b { ' c j n c k c g.X.i n v 0 ' q | W.{ p x I #XPXGXLXHXLXLXPX",
";X-XOX:Xn.a a a 6 8 q V.{.| 2.=.o.4XQ.;.$ 2 , j { 2.M.p j n n !.3.[.[ l [ ' 8 8 8 z p 0 8 P.' p k j b i 0 1 { X.$ i i q q h j j z z m { z _ m n z c f s c b j p h h p q 6 h h c y z m m +XGXGXPXLXLXPXLX",
";X>X*X;Xn.6 0 0 8 8 _ H.}.g.T.P.8.T.' $X8.7.8.2.g.P.Z.C.N.T.M.Y.P G.M.G.4XN.M.N.| V.+Xj 0 $XqXZ.8.V.7.4.m b M.8X3.h 1 I ;.b ` n P p g.+Xh 5.Q.H.j z -.g.6 ] 8.=.4.9 8 0 7 7 7 7 t z c m @XGXGXGXPXPXLXPX",
":X;X;X;Xm.a 0 0 0 4 { {.W...X.=.o.Q.V.V.p z ' n B.H.g.T.N.T.g.Y.P G.' 3X[ l 4XQ.N.E.qXB.Z.$X2.8X2.Y.NXM.4X!.Y.6X4XG.X.7.kXT.{.E.$XF.7XkX6XH.qXE.P.$XE.T.W.$X[.`.W.o.;.x x c 5.v a j f L #XFXDXPXHXLXPXPX",
">X>X>X:Xm.7 2 0 8 8 6 z j 8 - - 6 { =.6 $ : O 8.-.4.G.p k k k E.3.E.T.M.4X7.' | 3.8X&Xk j 6XE.$X3.!.iXg.E.P.R.E.G.!.g.[.aXT.{ pXkXaX$XR.W.pX8XtXNXiXtX=.qXF.!.7XV.NXW.%X&Xf.aX+Xa z c f @XHXDXLXLXLXPXLX",
">X>X>X:Xm.> 6 6 4 2 1 # 1 2 4 6 1 # - - - - - p 1 - 1 i 6 2 3 2.7.4...2 j 8 , # , m c 3 6 L 6...S.U ..{ 9 q { Q.T.i 1 T.6X$Xl.P.B.!.f.G.F.$X3X{.pXY.E.E.lX5.}.{.F.JXR.4X7X+XKXqX7 f c m #XGXGXLXLXFXLXPX",
";X>X>X:Xj.2 > 2 2 1 0 =.z - 2 1 b c - # - 1 8 - i i 0 6 i i i 2 4 8 2 4 2 # , 3 2 # # 8 0 - O 7 2 - 4 4 8 7 9 8 4 4 9 9 i { n 0 i h j j v m I c =.X.;.W.l.E.l.V.$X;.8.M c 6.iXC.7 s m F #XLXGXGXLXLXLXLX",
">X:X>X,Xj.> 2 - 4 # 5.9X4.2 p p 4.}.n 0 $ 8.$Xk M.L 1 6 2 2 i k i 0 4 4 # n I . # l X.$ : z Y 0 m 0 : 7 4 9 9 q h p p 9 9 4 q i q 0 q 9 4 8 8 4 6 4 a a 6 7 h z h 9 4 9 q 6 p y h h m m #XPXLXLXLXLXLXLX",
",X>X>X,Xj.- 4 2 2 O N.7X| =.H.F.n J.*.6X' E.6Xk !.6XN.2...E.*.' ..' | | c V.{ X.n 8.V.I m V.aXU T.2.4 p R.b 9 8 W.#.- 6 - f.m 4 8 8 p q [ X.o.{ 8 8 i 8 q U h 6 q z h 7 q h q 7 t s z m #XHXLXLXLXLXPXPX",
">X:X>X:Xd.- 6 2 - j W.V.tXc wXM...2.-.&XE.E.!.C.Q.' !.3.W.3.' 4X!.4.pXf.=.Y.V.P.T.H.=.$XE.E.iX..6XtXC.X.qXN.B.l.T.l.U | -.{.5.5.' | m ' hXM.sX5X..X.6 { a {.V.q I '.$XE.0 7 I R.c t x m #XLXGXGXGXFXLXLX",
">X>X>X:Xd.; 4 4 > 2 l.T.E.>.g.l.8.' H.$XY.Y.6X$XT.Y.E.*.E.Z.L B.B.X.aX5.c V.`.=.H.Q...T.=.{.3X6X6X] 4XS.{ Z.8X6X5.U.}.&XE.B.g.JX8.qXT.4XiX!.!.M.T.NX=.4X8.$XkXE.V.g.Y.9Xj s E.JXs t z m #XLXGXLXFXLXLXLX",
">X;X;X:Xd.; 1 : - - 3 0 ; 4 X $ 4 - 6 n 1 m ' k b 7.n ' P B.I l i ] P g.V.N.7.W.8.g.{.4XM.E.3XE.Y.6XG.8 1 ' 3XE.V.l.f.B.g.Y.B.NX4.3XZ.Q.T.qXp b tXNXP.sXE.9Xf.qX8Xj l.9XF.'.BXJX .7 x m =XPXGXGXHXLXLXLX",
">XwX*X>X,.O 3 - ; 1 # # # # 1 1 $ # O . # - $ # 1 # 1 1 3 # 3 1 - # X 3 6 p t , , _ o.8 i 2 i 6 6 c : ; 6 z l n Q.' 3 3 0 T.7.' { ' h _ 4X8.4 z $X$Xb f.j P.iX8Xl.L 9X+Xt L f.yXL 7 f m *XGXGXLXLXLXLXLX",
";X>X>X;X<.; 1 - - , # O # # # - $ $ - j 6 - 1 c 8 8 8 3 l 4 - 2 - - $ O O X $ < < < , , 8 ; - O ; O - $ 4 4 1 4 0 8 8 8 6 p 6 1 q 9 8 0 8 8 9 8 9 7 9 7 7 7 z h q t  .t 6 4 7 m a t x f XXGXGXHXLXLXLXLX",
">X>X>X>X<.O 1 1 1 , $ # O O - ; + @ I aXX.6 I G.i , j b T.k : 2 6 - , $ % @ @ @ @ , b { % , 2 ' ; + : | c c 5...' l _ 0 1 4 i j q q j j q h 4 q 4 4 7 6 6 4 4 $ : : = : 4 9 7 7 h s f K >XHXHXDXLXLXLXLX",
">X>X;X>X<.O - - $ $ $ # O O O O O   c Q.7.'.3.N.' b 4XM.$X$X3.C.C.f.V.4XF F c 4.R.m 4.l.8.0 m S.;.c I W.7.G.qXV.Q.Z.C.*.m 0 8.8.j k }.`._ !.8 5 X.6.4 $ { Z.6.l.t > 7 : 4 9 u 7 q s s K ;XHXGXGXLXLXPXPX",
">X>X>XwX! O ; ; - $ - $ O O O O O ; ;   l.B.& l.' N.g.2 !.*.E.[.I l 7.C.6.'.V.| 6Xn N.{ iX7.7.X.4X$X4.H.F.}.}.F.M.}.Z.7.KX2.C.M.iX5.kX[.2.hX8X| `.5X8.l.V.$XQ.9XE = 5 : : 7 6 4 7 t s L >XHXHXGXFXFXLXPX",
">XuX>X>X! ; 2 ; - - $ # O O O O O ; - + z [.l.V.6.l.`.g.V.' T.V.k g.qX8.=.l.9.$XC.4.4.V.9XT.7.8.qX!.l C.W.[.B.B.2.Y.g.3.E...C.V.pX9XwX8X6XW.h.tXi.N.W.JX*.E.T.5X .* : 4 5 7 6 7 7 a c L >XHXDXGXLXLXPXPX",
">X>X>X>X! O ; : = O + + O + O O O ; ; $ $ 7 v X.0 6 n b h q j 8 o.2.I X.# . , 4.8.8.8 | i.M.m { P.l.E.H.3.g. .7.H.5.T.8X$X!...!.qXQ.6XjX[.6X7Xi.9 i S.pXV.T.T.5XF : 7 : 5 6 > > 6 p g K ,XPXGXHXPXLXPXPX",
">X>X>X>X! O - - = + + O +   + + O O + + $ - $ $ 1 4 1 $ , 4 $ % $ . . . # $ $ % X % $ @   X $ $ $ 9 { { 4 4 4 v I :  .c p z 4 j m 4 I n c { { $ < < m j N.C.N.R.q : : 4 7 7 > a a t c L eXPXFXFXLXPXLXPX",
">X>XuX>X&.# - $ $ + O O + X $ # # $ # , - $ 4 4 4 - - : $ , , $ # $ $ , @ $ $ $ < , $ $ < $ - : 4 4 : : 7 5 7 : * : + $ : 4 4 4 , 8 , , $ $ @ * < * o * * u 9 u : : 5 5 5 > > t a s c R ,XGXGXGXFXLXLXLX",
"uXuX>X=XR - 4 $ $ + O $ @ # % % # 1 8 1 1 4 < 4 1 : $ $ 1 $ @ $ @ % O % @ $ , < < $ 4 5 4 4 : 1 4 6 7 7 6 7 : : : : 4 > 4 4 4 4 5 5 4 4 4 4 5 * < * * * = = @ * * * : > > 5 w a a t c I rXDXZXGXLXLXLXLX",
":XuX>X#XR . $ $ + + @ @ @ O $ % $ 1 8 , , 4 8 , : $ $ : $ O X $ @ O @ @ @ @ < < 4 4 < 4 4 4 6 1 4 6 4 9 4 5 4 : : 4 4 4 9 4 4 9 4 , < 4 < 5 * * * * * * * * * o = * : = = > > 7 w s g Y dXDXZXGXFXLXLXLX",
">X:X>X#XR X @ 1 $ @ + @ % % % # , , , 1 < 4 < < $ $ - $ $ @ + o @ + + $ , $ $ $ $ * : : 4 4 > > 4 6 9 7 7 5 7 6 4 6 4 4 4 5 4 4 4 4 4 < < < $ * * * = * * * * * 4 * : = : 5 e 7 a s x L eXGXDXGXFXGXLXLX",
"uX>XuX#XL O $ # # $ # X % X @ o % @ @ @ @ * * < @ - $ $ $ @ + + +   + + $ * $ $ : : : : : > > 6 7 7 4 9 4 : 4 4 7 > > 6 7 5 : 4 4 < 4 < * $ @ + $ : * * = * * * * * = : 5 5 7 7 7 h M I eXSXSXGXGXGXGXLX",
":X>X>X=XL O O O # O O O O o + X X X % % X @ @ o O + + + $ o + $ + + + + + $ * $ - - = = - > > > 4 4 4 4 9 5 4 9 4 6 : 7 : 4 > : 4 4 $ * * $ # O @ * = + = * * * * * > > 7 > 7 t t d v U eXSXZXGXLXLXLXLX",
">X>XuX*XL X $ $ $ O O O O X X X     X % % o X X o o + * @ + + + ; + X + o @ $ < + $ - $ : : : - 4 5 9 4 4 : $ 4 : 4 : > : : : * * , < @ @ $ $ $ * o $ * = = * * * * > 5 > w e t t s c R rXDXZXLXLXLXLXLX",
">X>X>X#XK # O @ $ + + +     X X X o % % X X X X + + + @ * * + o +   + $ @ + $ $ : : - + = - = : : : 4 : : : $ 4 : 4 > 4 4 4 4 * $ * * $ $ @ $ @ o o = o o o o = = * : > > 7 t 7 t s c U yXGXLXFXFXLXFXLX",
",X>X>X*Xc O $ $ +   + + # % # X X   X X X o X o o   + + + * + + + = + + @ + @ * $ $ $ $ + : + : : : : : $ * $ * : : : 4 5 4 : * o * * * o = o = = o o o = = = * : = * 5 5 5 7 5 t s g R fXGXFXLXLXIXLXLX",
":XuX>X#Xf X $ $ + + ; + O   @ # o X   X X X X X O X o + + * * = +   + + $ + $ $ * : : : : : : : : = * 4 : - $ 4 - - : - + = + * * o * @ = o o o o = * * * = * < * 5 > 5 5 4 7 5 a s c U rXZXFXGXFXFXLXLX",
">X>X>X.Xf X @ $ +   + +   + O X o       o X X       o o $ * @ = o = + + = $ $ $ $ * : $ * : : * : : : * * * 4 * : - - = = ; + * * * * o o * = o o * o o * * * < > 9 5 w 9 9 q q t z f E yXZXFXFXFXFXLXLX",
";X;X;XOXL 4 u w w w 5 5 : : : 4 < < * * * = * = = + = * * > 5 < < < : = : 5 < * > > : : > > 4 < 7 : * 5 < 5 4 < : : = : : = : = = * * * * o o o * * * * * * w 5 u 7 u u t p t t z z m &.gXZXFXLXFXLXLXFX",
"-X,X-X*XE t y x d d y d y t y e y t y t e e t e e e e e r y N y N N N d y y V B d B x x B C C B Z C B N N d d d y d y u y e y r r r r r r r r r r y e y y y y C B D G W G ` G G A T } >.cXFXZXZXZXLXBXFX",
"=X=X,X=XE y d d g d d d x y e y y d t t e y r e e r y y y y B N N N B B N C V B A C V G A D G G G Z Z H Z Z Z C B C C N N Z Z N V Z B V Z N Z N Z C C A T T W O.%.$.@.0.w.0.0.$.@.@.$.a.bXZXAXFXFXFXZXFX",
",X,X,X=XE y d x d x B x x y d d y y d d r y r r y y d y d N N N N N B B C N B B B C A S S C A C V Z G Z Z Z Z C B B N Z Z Z N N B B N B Z V Z Z Z Z S H W W Q %.@.$.@.@.0.q.$.@.@.@.@.a.vXZXZXFXFXFXFXFX",
",X>X,X#XE d D C x d x S x x y e y C y e y r y r y y y x y y y d B N N B B B B V B C B A G S S Z Z Z Z G G Z C B B B B Z Z Z Z Z B V B B N B V Z ` } G H G Q %.@.@.@.q.@.0.@.%.$.$.q.0.a.nXFXZXFXFXFXFXFX",
"eX=X,X=XE y #.X.#.9.9.A.i.6.#.#.+.S.#.O.Z W x @.p.F  .D.$.W #.W ;.:.O.%.T W +.} O.W W O.z.O.S V G H G G G Z C N N Z Z Z Z Z N Z B B Z Z Z t.^.q.1.1.#.y.p.u.@.0.w.$.$.0.@.@.w.@.0.0.0.a.bXFXZXZXFXFXFXFX",
"=X=X,X-XT e y.C.W.5X$X9X$X4X4X4Xi.'.'.'.$.%Xu.S.!.'.5X%X'.5X$X%X7X%X$X&Xz.S.'.7X%X%X7XT.D.W A V S S G Z Z G C B B Z N N Z N N Z Z Z Z Z N ^.( s.s.1.1.iXIX'.$.S.&X%.w.$.w.u.`.$.:.0.@.a.bXZXAXZXAXAXFXFX",
"=XeX=X*XT y G 9.#.#.1.#.1.#.1.R.} +.y.+.G y.D y.` y.p.$.y.0.$.R.R.$.i.%X;.k.A.p.u.k.z.>.%.V V G Z Z S Z Z G Z N N V Z Z Z N N Z Z Z Z Z Z ^ ~.:./.p.` D.iX$XKXtX9X9XjX`.JXiX8XiXiXw.%.c.MXAXMXAXVXVXZXAX",
",X0X-XOXY d D i.Y } { } G } O.#.Y #.T Q V B V Z Z C Z H Z Q J Q Q J V Q H S A H V W ^ V B V Z B Z Z Z Z Z Z Z Z Z B B Z Z Z Z Z Z Z Z Z G Z t./.).'.O.p.sXjXUXhXhXaXsXUXiXKXhXJXJXi.@.z.AXAXbXVXAXVXMX,X",
"=X,X=X.XZ e $.7XR.W.'.%X7X%X5Xy.`.0X#.J r.^.r.~.~.^./ ^.~.^.) ) ) ^.( / ~.r.( ^.) ( Q Q ( Q ^.^ N B D Z Z Z Z G C C V V C A C C V S S G S Q ~ ~ U.6.W l.0X9XKX5XhXKXKXiXJXJXjXhXUXp.@.v.AXAXAXAXVXVXVXzX",
"eX,X*X@XB 5 T #.4.4.i.i.i.p.i.} D.p.F d ^ ^ ^ / ^ t.Q ^ / ^ / ~.^.( ( ( t.t./ / r.Q y V Q W r.H N B N Z D N C C d B N C A C Z G G S S G G d.~ <.>.+.@.:.y.9.A.6.i.p.Z.S.IX0Xp.S.z.` %.v.MXVXAXAXVXBXZXbX",
"=X,X,XOXd 5 e e y y x x D M S S x C x C C D D S S D Z D D x B H Q D S S S A S H T A V V y V S Z Z N Z C C D C C x d C C C G S G G G W W T ,.k.:.@.@.$.@.%.W W Q %.%.O.p.R.y.%.%.H %.%.D.MXMXVXSXMXSXMXSX",
",X=X-X.Xd w w w r x x x D A F F F D x C Z ` ` ` ` G ` G D D G Z F T T T H S E S S A V x B B Z C B B N Z D C C D S C A S S G G G T } %.%.%.$.$.$.:.:.:.:.<.@.<.@.@.#.%.%.$.$.%.` ` q.%.s.VXbXVXVXSXVXAXAX",
";X;X.XXXg t y y x x D D F ` T Y T T Y A } T } O.} #.O.T ` A D F } T  .W O.} O.O.T S C C x d A x A A B C Z Z G } #.T G T H ` H W ` Q %.$.@.:.w.w.:.y.u.e.:.:.q.$.+.+.$.#.%.#.$.%.%.$.%.c.bXbXVXMXAXVXMXSX",
";XXXXX;XL.K.L.b.b.b.A.b.b.b.K.L.(.).L.L.).I.I.b.U.I.I.I.I.b.b.I.W.I.).). X@X.X@X#X X).n.)..XoX(..X).K.).D._.@X@X(..X X_._.).).)._.K.K.v.x.v.U.b.A.A.v.z.c.c.k.k.k.k.c.v.U.).@X=X.X#X*X,XvXMXVXSXAXVXSXZX",
"XXXX;X;X>X:X;X;XeX,XeX<X,X>XeX<X,X,X;X:X<XeXrXeXrXrXrXrXrX,XeXfXcXcXvXzXdXzXfX2X1X,X:X-X,XzX1X-X,X,X-X,X-X:XdX2X:X2XdX2XeXgX1X2XgX2X2X2X2XfXgXgXdXrXrXeXrXrXeX0X>XeXdXrXvXvXcXgXxXzXxXxXzXMXMXAXMXMXZXAX",
"*XOX;X;X;X;X;X:X>X,X,X>X,X,X:X>X,X,X>X,XeXeXfXrXeXeXuXrXrXrXyXfXfXcXfXdXdXdXrXeX,X:X<X;X-X,X-XOX2X:X:X;X-X-X2X,X,X;X,X,X,XgXdXdX1X2X2X2X2XfXgXxXvXMXMXMXvXMXMXfXxXxXcXdXgXMXMXcXxXzXxXxXvXxXMXMXMXAXAXVX",
";XXXOX;X;X;X;X,XeX,XeX,X>X>XuXeX2X2XrXrXrXdXrXyXyXrXeXrXuXrXfXfXfXfXyXfXyXdX<X,X<XeX<X:XOX-X:X2X,X2X:X,XOX:X<X,X,X=X2XeXfXgXzX1X1XdX2X<XeX1XgXgXvXgXvXMXvXMXcXMXMXvXMXxXxXMXbXvXbXxXvXxXxXxXvXvXMXMXAXAX",
"OXOX-X;X;X;X>XeXuX>XuXrXeXeXeXeX0XeXfX=XrXfXyXdXfXyXrXrXfXfXfXyXyXfXfXyXrXeXeXeXeXdX2X<XeX,XdXgXzX1X1X1X:X,X,X,X-X,XeXdX2XgX2XdXxXgXdXfXgXeXeXgXnXgXgXMXMXMXgXMXbXMXMXxXbXMXMXvXvXvXdX1XzXzXgXvXxXMXMXVX",
"OX;X;X;X;X;X:X<XuX>X>XeXuX,XeX>XeXeXrXeXfX2XrXyXrXfXyXdXfXfXyXrXrXrXrXeXuX,XdXfXfXgXdXgXdXfXgXfXdXxX1X:X:XdXfX,X2XdXdXeX2XrX,X2XfXgXgXfXgXfX2XdXcXxXcXgXxXvXeXxXvXvXMXdXgXxXMXzXzXzX2X2X2XgXxXvXxXbXVXAX"
};
