/* XPM */
static char *1350019455082[] = {
/* columns rows colors chars-per-pixel */
"100 58 256 2",
"gX c #E9C698",
"a  c #337151",
"@. c #54886C",
"9. c #D7A07F",
"O  c #0D3117",
"9X c #D3A4A3",
"'. c #B8B3B8",
"F. c #BC8C8B",
"0X c #DDABA4",
";X c #D7A696",
"^  c #BB7947",
"-. c #6A997E",
"n. c #79A18A",
"C  c #66666A",
"<  c #563228",
"f  c #47474B",
"y  c #423C46",
":  c #6C3408",
"0. c #C7A67A",
" . c #D9715E",
"n  c #4B4F63",
"N  c #5A6674",
"-  c #5A2706",
"j. c #6E9D89",
"GX c #AAC5E8",
"y. c #847B83",
"-X c #DCA99E",
"v  c #485664",
":X c #DDB796",
"l  c #715448",
"t  c #393B47",
"jX c #D2C8AB",
"yX c #E2AEAA",
"S. c #8C9587",
"e. c #787986",
"FX c #B7C4CB",
"hX c #F0CE9D",
"5X c #E2AB96",
"=X c #D4A39B",
"*X c #DCAA87",
"3  c #0C461B",
"I  c #865332",
"2  c #660C02",
"K. c #85A69A",
"j  c #565759",
"NX c #FDE7BA",
"7  c #096A37",
"/. c #A9A4A9",
"&  c #37363B",
"OX c #CA9998",
"(. c #B6A7AB",
"w. c #A2822B",
"x  c #516F53",
"R  c #956437",
"Z  c #696A77",
"b  c #585867",
"V. c #878895",
"k. c #6C978A",
"k  c #545352",
"g. c #669A82",
"4X c #E3B58C",
"G  c #625E6B",
"M  c #57756A",
"mX c #FFE0A5",
"t. c #5D7481",
"L  c #8E4F18",
"1  c #6E372B",
"N. c #6CA187",
"u  c #365648",
",X c #E1A685",
">X c #CDAC8F",
"p. c #5E9480",
"rX c #D7B4AF",
"a. c #688A82",
"[  c #B3736C",
"E. c #8CA8A3",
"   c #070205",
",  c #6C3312",
"P  c #975925",
"9  c #2D5426",
"oX c #CC9B94",
"8  c #136938",
"~. c #9BAAB3",
"ZX c #96B2C1",
"8. c #DCA17E",
"E  c #8A554A",
"d. c #659581",
"HX c #D9CBD6",
"1X c #E1A788",
"AX c #C7BAC3",
">. c #8B8C78",
"@  c #191A26",
"u. c #817D95",
"q. c #E1A37D",
"=. c #64997E",
"L. c #94A69A",
"_. c #B8ABB5",
"x. c #78968A",
"{. c #C38986",
"&X c #DCA588",
"`  c #A8736B",
"pX c #E6B6A6",
"$X c #DBA485",
"CX c #B6B1CF",
"sX c #ECB5B7",
"DX c #F1B5C5",
"U. c #9898A4",
"X. c #3C835F",
"nX c #FEE2AD",
"T. c #A69BA8",
"G. c #B78885",
"*. c #6A947E",
"c  c #6F6854",
"Y  c #A96835",
"|. c #CA968A",
"R. c #A79EB2",
"}  c #F7664D",
"cX c #E7C8B6",
"c. c #7C9893",
"UX c #BDC096",
"J. c #87A689",
"H  c #A52713",
"d  c #26764E",
"i  c #384A5A",
"MX c #FEE3B3",
"LX c #E6DAE3",
"aX c #E7ACB2",
".X c #D79F84",
"3X c #E8AA87",
"B. c #87878A",
"2. c #C78753",
"w  c #524936",
"SX c #CDBECB",
";  c #542711",
"bX c #EDD1AB",
"5  c #11512B",
"7X c #CC9FA1",
"q  c #7A4416",
"+X c #D39C97",
"/  c #AA6B58",
"tX c #E3ADA4",
"e  c #754B32",
"$  c #1D2B2B",
"4  c #045926",
"'  c #AA7A76",
"kX c #E8C7A8",
"z  c #47675A",
"{  c #9E5C62",
"`. c #A7B7B9",
"V  c #497063",
"6X c #E5B595",
"1. c #9F825B",
"Y. c #9099A9",
"@X c #CB8C8F",
"J  c #CE3616",
"qX c #DCACAA",
"]  c #B47B77",
"z. c #729E8A",
"i. c #AF7781",
"<. c #AF8B74",
"4. c #D49B7E",
"IX c #DBDBE0",
"VX c #B7BCC6",
"v. c #7E8A94",
"D  c #77787C",
"uX c #E5A9A6",
"S  c #667877",
"vX c #F9DCB2",
"_  c #A86D65",
"B  c #5C7974",
"K  c #864917",
"p  c #394B48",
"PX c #EDEAF6",
"JX c #D1C9CD",
"XX c #C49492",
"H. c #AE9192",
"O. c #5C8A78",
"5. c #D79B7A",
">  c #753B0A",
"!. c #98B3AB",
"fX c #CFC59A",
"xX c #F7D7A5",
"dX c #E6908E",
"m. c #7BA393",
"U  c #A15D29",
"zX c #FCDCAC",
"iX c #E4B1AC",
"). c #A9A8B6",
"F  c #6F7469",
"Q  c #8E5550",
"g  c #494B59",
":. c #4B835E",
"#X c #D6A286",
"BX c #ACBBC4",
"}. c #C3918D",
"6. c #CD8E69",
"<X c #E3A986",
"M. c #77A493",
"#  c #211D29",
"A. c #97969A",
"%  c #2A2733",
"T  c #AE6D35",
"0  c #7C410D",
")  c #8F7572",
"$. c #648C7C",
"KX c #E8D1CD",
"P. c #93AD8F",
"7. c #FC8576",
"8X c #CEA3A3",
"s  c #3D4F62",
"~  c #8E6B50",
"|  c #F87566",
"b. c #74A28D",
",. c #B7837D",
"^. c #9CB4B2",
"r. c #6D7884",
"m  c #586669",
"=  c #4D1807",
"s. c #778987",
"]. c #AFB6A8",
"!  c #996459",
"o. c #478869",
"X  c #370802",
"Q. c #8BB3A4",
"A  c #746D77",
"r  c #6C5529",
"*  c #2C2D2E",
"wX c #D7A8A6",
"I. c #AEB095",
"lX c #EAD3A8",
"W. c #97A8A8",
"%. c #668579",
"[. c #C38D8B",
"f. c #6B9482",
"#. c #6B837C",
"%X c #D4A288",
" X c #D49E84",
"Z. c #879997",
"(  c #9A6C64",
"l. c #729B85",
"o  c #2E0E07",
".. c #DF4522",
"C. c #978C97",
".  c #111512",
"D. c #BC8583",
"+. c #5D957A",
"3. c #CA9778",
"h. c #6B9B84",
"6  c #2D4D33",
"&. c #64937D",
"+  c #302919",
"2X c #E4AA89",
"eX c #C4B5BB",
";. c #758F79",
"h  c #485657",
"W  c #975A4C",
/* pixels */
"&X1X&X&X&X&X&X&X&X1X&X1X1X,X$X,X6X*X*X$X,X$X,X*X$X,X,X,X1X$X1X1X1X,X1X1X,X,X$X$X&X&X$X$X$X.X.X&X$X$X$X#X$X$X$X$X$X$X&X$X$X#X#X$X$X$X$X$X$X#X&X&X&X&X&X&X&X*X&X&X&X*X&X&X&X&X&X&X$X#X%X%X|.&X%X%X%X%X|.#X",
",X1X,X,X1X&X1X,X,X,X,X$X1X4X6XhXhXhXgX4X,X1X$Xq.,X8.$X$X$X&X$X1X1X,X1X1X3X1X,X1X1X1X,X1X1X1X1X1X1X,X,X&X,X,X&X&X,X1X1X,X&X$X$X&X&X&X$X$X$X&X&X&X#X&X*X1X&X&X1X&X&X,X,X1X1X1X&X*X1X&X&X&X#X&X&X$X#X#X#X#X",
"%X%X.X.X X X$X<X X X.X4XgXhXgXvXlXxXMXkXgXcXH.|. X$X.X.X X%X X.X.X.X.X.X.X.X$X,X.X$X,X$X$X&X,X&X$X$X,X,X1X&X,X1X,X1X,X,X<X<X1X<X,X,X&X<X&X1X1X*X1X1X&X1X<X1X<X&X,X1X3X2X2X1X1X<X,X2X2X<X3X2X2X3X<X<X3X<X",
"%X%X%X.X#X$X X>.S.>X6XxXxXgXrX].^.AXKXlXjXAXJXAX>X|..X X%X%X%X X X.X X X.X X X X X X X X X X X.X X X X$X$X.X.X.X#X#X#X#X#X#X#X#X#X#X$X#X&X#X#X#X&X$X#X$X&X&X&X*X&X$X$X$X&X$X$X#X$X$X$X&X$X&X&X&X,X,X&X&X",
"1X1X1X1X,X}.>.J.fXbXvXvXbX].].W.^.Q.E.].`.`.(.].].:X*X$X$X$X&X$X,X,X1X$X1X$X1X$X&X$X,X,X,X$X&X,X,X,X,X,X,X,X,X$X$X$X#X&X#X#X*X&X*X&X$X&X<X1X1X1X*X1X1X1X1X1X2X1X1X1X&X1X3X,X&X&X*X&X&X$X#X#X$X$X$X$X$X$X",
".X&X&X.X<.>.I.gXzXvXbXjX`.K.K.^.W.W.K.m.^.'.W.L.kXxX6XgX4X4X<X,X1X1X1X1X1X1X1X1X,X,Xq.,X,Xq.,X1X,X,X,X,X3X1X3X1X2X2X1X<X<X1X1X2X2X<X3X3X2X2X2X2X3X2X3X2X3X2X1X1X2X2X2X1X<X3X2X2X<X3X3X<X<X,X*X*X<X<X*X&X",
"rX&X.X.X0.fXxXxXvXjXP.K.K.n.K.`.^.L.K.l.l.n.E.!.VXjXxXvXnXxXgX*X.X.X.X$X$X.X$X$X,X$XcXpX1XcXpX6X6X6X5X8.$X$X$X$X&X$X#X#X&X#X*X&X*X$X*X#X$X1X&X&X#X&X$X#X1X&X*X&X*X$X&X#X#X$X$X$X#X*X$X#X$X$X#X#X$X#X$X#X",
"HXSXrXkXxXnXzXlX].W.l.z.n.z.K.E.n.z.l.n.l.N.l.j.K.K.P.UXlXvXvXxXgX2X$X$X$X$X$X$Xq.sXbX5X6XcXcXkXpXpXkXq.,Xq.,X$X,X&X$X#X%X#X#X$X#X#X#X%X%X&X%X&X#X%X%X%X#X%X#X&X&X#X&X%X&X#X#X#X%X&X&X#X#X#X%X%X#X#X#X#X",
"HXHXHXHXcXcXfXn.l.Z.L.K.W.).E.n.j.N.k.N.l.N.j.j.j.h.h.k.n.I.jXvXMXbX*X%X$X$X4.#X4.kXcXcX:XKXtX6XcXcXtX.X$X&X&X,X*X$X*X$X*X#X&X&X&X&X$X&X&X,X&X&X$X$X$X$X#X#X$X#X$X*X*X&X$X&X*X#X&X#X#X&X&X%X&X%X#X#X#X X",
"HXHXLXIXLXIXU.*.J.W.~.e.Z U.VX`.K.Q.m.h.g.j.j.j.j.j.N.z.c.A.V.P.fXbXzXxXgX4X4X#X9.&XcXkX2X6X8.$XpXpX$X$X$X8.$Xq.9.$X$X,X9.$X$X&X*X&X&X*X*X$X%X$X1X*X*X*X*X&X$X$X#X#X#X#X#X#X#X#X#X#X#X#X$X#X#X X#X#X#X#X",
"LXJXHXLXAXN t x.!.~.L.A.C.`.VX~.E.Q.ZX^.K.j.j.N.j.j.N.;.C.R.A.s.g.n.I.lXzXvXvXbX6X2Xq.q.,X1X<X,X$X5..X.X5XcX5XkXkX2X6X2X6Xq.*X*X*X&X*X*X$X#X#X%X%X#X#X$X$X*X#X#X$X$X$X$X$X$X$X$X&X&X*X$X&X$X#X#X#X#X#X$X",
"KXLXHXe.& f D E.BXFXVX`.BXVXfXjX].K.Q.FX^.b.b.j.j.h.Z.W.r.C t B E.j.N.b.W.jXNXNXMXhX6X2Xq.pX4X3X2X2X3X3XvX6X4XcXKXpXcX5XcX#X&X$X$X$X$X$X$X&X$X$X*X*X$X#X$X*X$X$X$X$X$X$X#X#X#X#X X X X#X%X X X#X#X X X#X",
"HXU.y & Z Z.J.~.`.FX`.R.Y.UXlXkX].Q.FXQ.j.h.j.j.b.d.BXPXGX% . s Z.Y.E.z.l.l.J.UXbXMXnXxXgXkX4X,X<X,X*X,XKX4X$XKXkX%XcXpXcX4.%X%X#X#X#X#X$X*X#X$X#X#X#X#X$X$X$X$X&X&X&X$X*X$X&X&X&X&X&X$X#X$X#X#X X#X#X$X",
"b @ f a.c.Z.z.n.Z.A.T.'.T.B.J.E.Q.Q.j.k.h.j.j.N.k.l.E.BXE.i V s.b Z `./.I.E.b.=.n.I.kXvXvXNXlX4X*X$X&X9.5XcX;X:X4.%X:XcX5X*X*X*X3X2X*X3X*Xq.*X*X1X<X$X$X&X*X&X&X#X$X$X$X$X$X$X$X$X$X$X5.#X#X$X#X#X$X$X#X",
"p C c.$.*.l.x.l.K.s.j B.h D K.FXPXZXh.h.j.l.h.j.g.c.Z.t.A U.f.E.m.~.VXVX/.U.Q.M.M.k.n.P.fXNXMXzXhX4X*X$X$X5.$X1X*X1X,X8.<X2X,X$X*X*X,X,Xq.$X$X$X$X8.$X,X&X$X$X,X&X&X&X$X$X&X$X8.*X5X5X5X&X&X$X$X$X$X#X$X",
"o.f.Z.c.E.m.m.K.L.).p . . h Z.Y.ZXc.a.h.j.h.j.j.h.N.k.s.Z.-.x.^.^.`.W.`.VXU.V.Z.s.V.s.K.d.^.UXlXxXhXxXgX4X,X,X6XgX,X<X<X,X,Xq.,Xq.q.<X*X8.,Xq.,X,X*X<X<X<X,X<X,X,X<X3X&X,X$X2XtXtXiX0X0X0XwX;X&X#X#X#X#X",
"$.*.x.`.BX`.Z.G G Z.).p z Z.Z.v.V.V.U.b.g.h.h.N.N.n.f.f.+.&.j.m.n.z.E.VX!.~.GXLXG . b `.-.Q.b.N.I.lXmXnXgX0.4X4XkX8.*Xq.3Xq.3Xq.<Xq.q.q.3X,X$X$X8.$X$X,X&X$X$X$X,X$X,XdX5XuXaXaXsXiX0X0X0X-X=X-X-X$X$X#X",
"~.W.!.`.`.A.A.S Z.U.E.f.o.=.z.$.O.E.^.!.m.b.d.g.K.U.A.U.U.m.g.h.l.j.c.`.E.W.GXFXS 6 s.x.-.Q.M.g.=.N.P.UXlXmXmXmXbX*X9.9.9.8.$Xq.8.8.8.$X$X*X$X$X$X$X#X$X$X$X$X$X$X5X5XuXaXqXiXaXtXqXqX0XwX=X=XoX+XoX9.#X",
"^.FXVXA.A.A.!.!.K.Z.=.@.+.-.h.m.m.!.^.~.BXK.Q.K.v.V.).R.B.n.f.f.h.j.j.j.K.s.V.v.S o.X.h.h.!.M.g.N.N.g.g.n.UXlXMXbXgXhX4X8.8.8.8.8.$X$X8.8.,X*X$X$X8.8.9.<X2X5XiXsXsXaXaXuXwXaXqXqX0X0X0X-X-X=XoXoX|.4.9.",
"M.s.Z D L.!.J.l.h.l.h.h.h.h.n.FX'.c.b Z Z.Q.FXBXW.f G 6 p L.f.k.h.j.j.h.b.$.%.#.a.+.-.-.=.Q.b.d.h.N.N.N.g.+.-.!.bXxXNXNXxXgX*X8.8.8.q.8.q.8.8.8.,X$X5XtXuXsXsXsXDXsXaXaXuXuXqXwXqX-X-XpX0X-X=X=XoXoX|.9.",
"S.A A U.Z.Z.h.h.l.h.h.g.g.l.!.!.z.m.S Z.BXBX~.Y.'.S.$ . h K.b.h.b.g.N.M.l.=.o.X.+.h.h.h.k.IX~.v N a.a.a.j.E.j.M.Q.J.UXvXNXNXvXhX4X9.9.8.$X,X2XuXuXwXyXiXiXtXtXtXtXyXaXuXuX0X9X0X-X-X-X-X-X-X-X=XoXoX[.3.",
"R./.A.W.E.x.j.j.j.l.j.j.l.h.l.h.h.m.~.BXJXFX).b G Z.a.z M m M m.BX^.K.Z.f.k.&.+.l.g.g.g.r.IXY.i s v n N B W.^.K.Q.p.g.z.UXbXvXvXnX:X*X>X+X+XwX9X+X-XiXtXtXtXtX0X-XtXtXtX0X-X;X=X-X-X-X;X;X-X-X;X>X|.|.<.",
"C.s.h x.f.l.g.j.l.h.n.x.N.l.h.z.x.x.K.V.Z.T.'.U.m A !.z t @ u m.^.R.G n Z r.a.a.g.N.p.S g s N r.r.N v s v N N c.Q.N.h.L.rXDXDXAX0XoX+XoXoXoX=X=X=XuXiXtXtXuXtXtXtXtXtX-X-X-X0XtX-X-X-X;X=X=XoX;X+X|.|.|.",
"& . . r.K.l.m.s.b Z.n.g.N.N.l.B.C.C.C.b #.S./.!.BXE.m.BXZ 6 V d.N n b G b v a.a.d.t.v v s t.u.CXCX).Y.N s v i b s.M a.rXDXDXaXoX+X+X+X=XoX=X+X%X=XiXiXuXtXtXuXtXtXtXtXuXtXtXtX5XtXtXtX0X-X-X;XoXoX%X|.|.",
"* @ u z.z.E.!.W.s.K.l.h.h.h.s.A.T._.T.B.`.).n.b.m.k.k.Q.K.@.h.*.b n b n m a.p.a.B n s v b R.HXCXCXCXCXCXe.v i r.v.t g rXsXaXOXXXoX+X+X+X+XoX|.|.+XuXuXuXuXuXuXqXtXtXuXtXpXtXpXtXpXtX0X0XtX-X-X-X=X|.oXoX",
"m a.d +.-.l.;.P.^.-.l.z.-.K.C.j A.T.k & ~.K.l.h.h.d.h.f.f.c.n.x.l.%.m r.`.m.B G g v v v t.e.Y.CXGXCXR.r.v s i S r.i i H.sXaX7X[.@XoX|.|.|.|.|.|.@XuXuXuX0XwXuXuXtXtXpXiXtXtXiXuX0X0XtXtXtXpXtXtX-X=XoXoX",
"Z.=.@.h.h.h.h.=.h.h.g.=.f.E.B p & $ . 6 a.l.g.l.b.^.Q.%.B a.x.s.s.Z.c.M.E.t.v v i i i i b N v Z u.u.b i i s s b r.h h e {.9X7X@X|.|.{.[.{.,.|.|.@X+X-X+X0X0XuXuXiXiXiXiXiXiXtXtXqXpXtXtXtXtXtX5X0X-X;XoX",
"@.+.=.g.-.h.g.h.g.l.z.K.^.B.s.A.$ . p @.d.l.h.g.j.W.e.b b b Z a.f.E.E.=.#.S N s s s i i v s s i g b i s N v i b V.j ` i.{ i.OX@X[.,.G.G.,.,.,.{.{.3.@X+X+X0XyXuXiXiXyXiXiXiXiXiXtX0XtXpXtXpXtXtXtX-X-X;X",
"P.>XI.-.l.-.h.h.h.=.K.`.T.(.U.* a.E.b.o.&.h.g.N.$.b b b b g n a.a.p.%.a.f.;.;.#.m j s s i i s n U.CXe.Z PXSXr.L.A 1 F.{.{ E ` i.G.' ' ,.' ( ` D.,.{.@X+X9X0XwXwXqXrXqXqXiXiXiXiXpXtXyXqXtXpXtXpXtXtXtX;X",
"gX0.hXJ.*.-.&.&.*.&.&.m.S.`.Z.x.!.!.!.b.g.h.g.N.%.v n g g Z `.E.a.a.a.a.B k.Z.P.L.>.M v i n s Z U.C.Z N W.B.B F 1 Q { W E < < l ! W Q ! Q E E E [ {.oX+X9X9X9XwXwXqXqXaXiXiXiXsXiXiXyXyXtXiXtXtXtX5X-X5X",
"J.I.l.=.l.&.f.&.&.&.*.f.K.m.d.M.d.d.&.d.d.h.h.h.f.a.t.s.r.BX~.a.a.k.f.$.c.s.S k.W.AXrXI.#.C b g s n i i i j F m Z G l k k w y w k M c k c < ; < Q ,.XXoXOX+X9XwXwXwXrXqXiXrXiXiXiXiXyXyXyXyXiXtXtXtXtX-X",
"&.O.&.*.$.*.*.a.*.&.&.d.*.$.f.f.k.d.d.f.g.f.d.h.h.d.f.E.k.a.a.d.h.&.k.M.k.#.B a.'.AXeXAXeXI.S.S v n n n ;.s.M S S Z B S #.S a.v.s.%.O.O.#.w 1 c ~ ` G.[.OX7X7X8X8XwXwXwXqXqXqXyXrXqXyXqXyX0XyXtXpXtXtXtX",
"f.f.*.*.g.=.g.=.*.$.$.*.d.f.f.d.f.g.h.f.d.g.d.*.d.d.d.$.f.&.a.*.$.x.c.a.O.%.L.AXAXeXeX_.eX_._.7XP.;.F A._.A.D ;.B B B %.S %.B B %.#.s.%.S k l ( ( ( <.D.XXOX7X7X7X9X8X8XrX8XwXwXqXwXqX0XyXqXqX0XtXtXtXtX",
"h.h.g.g.N.g.g.=.=.$.$.*.f.f.d.*.d.&.d.f.f.&.&.d.f.a.d.f.$.s.f.a.c.x.%.S #./.KXAXAXeX_.AX_.(.(.T.(.8X(._.(.eX_.A.#.#.#.B M B @.M B S #.B #.#.l ) ( ( ` G.G.XXXXXXOXOX7X8X7X7X8X8X9XwXqXqX0XyXqXqXtXtXtXuX",
"g.h.=.N.=.=.+.N.g.+.-.h.d.h.h.=.*.&.h.d.d.d.$.$.$.f.$.O.K.~.m.c.a.%.%.x.SXSXeXeXeX_.AXeX_.T.(.(.(.(.(.eX(._.(.eXcXA Z s.;.J.>.;.%.%.B D F Z.s.~ ~ E E ( ] G.G.F.F.XXXXXXXX7X7X7X7X9XwXqX0XqXqXwX0XtXuXuX",
"-.=.N.=.b.`.Q.BXQ.+.g.=.h.g.g.g.h.d.#.f.$.*.*.$.E.BXW.~.BXm.h.$.f.J.`.LXKXVXAXeX_._._./.(.T.H.C.(.(.].8XeX/.(.SXF + b VX>.<.|.S.B %.#.B.B.s.) ,.i.` W ( ` ' ,.G.G.,.F.F.XXOXOX8X7X7X8XwXwXqXwXwXwXwX0X0X",
"=.-.=.m.^.FX^.N.m.Q.&.m.^.=.g.h.g.h.f.*.f.*.*.f.`.JXFXBXW.I.>.J.JXb A.KXKXSXAXeX_._./.H.T.H.C.V.C.T.(.(.H.H.I.w O F Z.#.M #.x.B S r.m Z V.D ) ' G.G.G.' ) ` ' ' ] ' G.G.F.}.XXOXOX7X7X9X8X8X8XwX8X8XwXwX",
"P.h.+.b.^.M.N.M.^.Q.Q.M.g.-.g.g.g.g.l.f.g.h.f.=.W.VX~.k.UX1.I.Q.IXs.>.F >.eXSXAX_.(.T.T.C.B.y.y.y.B.C.y.T.y.+ $ h M M M $.S M m g g g g h S ' ' ] >.' G.i.( ( ` ' ` ' ,.G.D.D.[.XXXX+XOX7XOX7XOX8X8X>X8X",
"MXlXP.=.g.=.Q.M.M.Q.g.+.=.l.h.g.h.-.-.f.=.=.f.E.R.U.U.R.c.n.h.+.M.Q.n.O.x x ) (.SXeX/.C.B.y.) A D A e.C.c 9 9 h S B M #.%.S s.m $ & t * p M ) ' ' ' ' ' ,.' ( ( ( ` ` ' ] ,.{.F.{.[.}.}.}.XXXXoXoXOX7X(.",
"nXnXnXfXJ.N.Q.Q.Q.+.+.=.-.-.=.-.-.=.g.h.h.=.s.R.R.T.R.C.S p.&.*.&.+.&.+.@.x x x F H.(.(.C.y.D A A ) A f * u M F C M %.S M M M B V t O * z z 1.) ) ' ' ' ' ' ( Q Q ! _ ` ` ] [ ,.,.D.G.G.G.G.}.}.XXXXoXXX",
"lXlXnXvXzXjX].N.@.=.N.g.=.=.=.-.g.f.d.g.h.M.s.r.V.T.e.t V %.f.l.*.*.h.*.&.O.@.x a x l ) U.T.T.T.e.j 6 6 u M M M B #.M x m 6 5 B 9 m h O 3 c 2.~ ( ' ' ` _ _ { Q 1 1 E W { _ _ ' ] ] ' ` ] ,.{.}.XXXXXXXX",
"e w 1.gXxXxXnXjXJ.=.p.g.g.=.h.-.*.f.h.m.E.Z.S x.B.b n u u j y s.*.f.$.*.$.&.$.B o.:.x x l F D A f w 9 5 a a M %.a.M M V 6 4 5 6 3 5 z 6 ~ ~ ~ r < e l Q E E E l E ( ~ 1 2 I W W W W W { [ ,.{.[.XX}.XX}.",
": = - >XxXmXgX4XnXfXJ.=.g.g.N.-.l.f.-.W.A y t e.&.a V a y # * b y m E.U.Z.$.$.$.O.X.7 8 F x k f w 5 3 4 5 5 a V V V #.S u 4 3 O 3 O 9 c I l r .   X < <.G.' i.H.F.H.' e X X 1 { _ ` ,.D.D.,.{.|.}.[.[.F.",
"T Y L R 0.xXfX0.nXxXmXfXn.=.=.g.-.f.-.J.Z.m e.D v &.@.K.s.h h & * V._.C.U.T.x.@.a 7 7 5 5 L.].* `.9 4 4 4 d 5 4 5 z m % $ $ 3 3 3 9 P I r r . o - - e i.F.H.F.G.H.F.G.E 1 X X l ! _ ] {.] ] ] ,.F.[.}.[.",
"^ ^ T L 0 R 0.lXxXxXnXnXhXUXn.+.*.-.x.P.Z.~.^.m.S Z.h.b.m.m.A.u D ).R.U.R.C.m a d 8 7 7 4 X.IXW.E.7 7 x z V 8 d 6 t % @ @ # # O u j w r w   = : q e q ' ,.G.G.G.D.[.D.! , = o 1 _ ! { [ [ ] ] ,.D.{.}.}.",
"6.2.^ ^ P 0 : c >XlXUXfXmXmXmXUX-.x.>.(.~.Y.~.!.!.Z.%.=.c.^.b.z.v.y.A.R.e.y h g 6 d 8 7 7 4 8 x 6 4 a s.V M n.B.i % % % # # @ @ @ u 3 3 O - 0 q I P L W ' ' ' ' ] ' / I , 2 X 1 ] [ _ _ [ D.D.D.D.D.[.|.",
"0.3.6.2.T T P 0 > R ;.N.fXmXxXmXnXUXZ.E.j.m.~.R.~.t.x.a.c.U.Z x.$.L.B.G f t y % $ j p 8 8 7 a 1 l :.X.X.4 %.@.V j & % % % # @ @ 6 6 3 3 3 9 < P q q r q e l ( ( _ _ W 1 1 ; X 1 D.D.{.{.{.@X{.F.G.F.F.}.",
"9.9.5.5.2.^ ^ ^ P K 0 R >XhXnX>X3.MXmXI.*.O.k.K.;.Y.~.Z.K.c.G b b b x.z a S t   t % & s.O.z 8 a x 8 4 d O.A.W.Z.s.s.G t # @ < l u 9 3 x 3 3 s.) ~ e , , : = ; , 1 1 - = X 2 X 1 {.{.@X+X@X@X@X[.XXF.H.XX",
"8.q.<Xq.q.6.2.2.2.T P K q 1.fXhXgXMXvXnXlXI.=.+.n.BX`.).Y.M.!.Z f Z `.&.o.E.x.j y g R.).V.y Z k.7 8 @.h t v #.U.E._.AXB.f e 7.| ] c N ) C ) A k i.) l e q : = o X X X o o = ; l ,.{.@X@X@X@X@X[.G.G.i.G.",
"9.9.9.8.4.5.q.6.2.^ T U L : q 1.fXnXMXvXnXNXlXI.z.m.!./.A.BXE.K.W.^.E.j.l.K.z.n.T.).T.C.R.T.Z.d o.n.B m y * M K.FXJXA h ' | 7.7.7.7.dX} [ m A T.C.y.C.) , 0 > : = X X X o < { ! [ ] ,.@X@X[.D.@XF.XXH.G.",
"4.3.9.4.3.4.4.5.5.2.2.^ T U L > q <.hXnXMXnXnXnXgXP.m.B./.].z.-.c.d.=.h.K.VX!.s.V.R.R.R.U.G a 7 $./.].~.%.a ].LX_.G C z / } | | | 7...H ] _.C.y.H.(.) & = : > : : : - = X = E { _ [ i.{.{.{.i.D.F.F.XXXX",
" X X X4.4.4.4.4.q.5.6.2.2.^ T Y R 0 I <.lXMXxXxXmXnXlX].K.-.-.=.d.g.h.^.Y.Z.E.K.e.C.C.C.G Z a o.o.k.Z.W.@.@.AXAXk * k f  .} } } } } H H ] (._.T.R.) # + = - > > : 0 0 > 0 , : 1 { _ [ ] D.[.@X{.F.F.F.F.",
"4.4.5. X4.4.4.4.@X4. X3.6.6.^ ^ ^ U K : e 0.lXnX0.0.NXnXjXP.-.=.g.g.b.j.c.j e.Z B.A.C C V +.c.Z.^.k.a V FXHXB.j m y _.JXdX} | } } J J J H < c <.G o + X - q K q 0 0 > > > > > : I _ [ [ D.{.i.@XF.[.F.F.",
" X X X4.4..X.X4.5. X5.4..X4.6.6.2.2.T T L 0 R 0.gXxXnXnXnXnXfXJ.g.+.*.l.L.Z.n f f W.k.$.a W.~.d.K.CX`.L.HXA.f & j IXDXAX+X} | 7.| ..J H o   . + + < = , K K K K K 0 0 > > > q q , W _ [ [ [ D.{.G.F.F.F.",
"4. X9.8.5.8.q.8.5.q.8.,X8.8..X.X6.2.2.^ T U K > ~ fXxXmXmXmXmXmXfXJ.k.A.C.(.Y.A Z.BXLXFXFX'.A U.f.E.PXSXC ) F . k KXPXDX@X@X . .| ..2   .   . + X - > P P P I L K K K 0 > K K K > : W [ _ [ ] ] ] G.G.F.",
"5.$X8.8.q.$X8.8.8.8.q.,X.X$Xq.q.q.q.q.6.2.2.^ U L L ~ 4XmXmXxXmXnXMXfXI.W.L.!.E.E.VXHXPXHX~.~.SXW.L.KXy.f k & m #.>.H.HXDX@XdX@X| H         o - , q K L L P L L K K 0 > > > , > , - , W / [ [ [ ' [ ' G.",
"$Xq.$X8..X8.q.dX8..X.X.X.X.X8.,X,X9.9.5.3.2.2.T T Y 0 q 1.fXxXxXnXxXhXmXfXn.-.+.Z.A.cXeXA.E.).!.S.s.C.S.k @ C V x F >.>.<.jXrXdXI   .       ; P U U Y Y T T T U U U U P L L L L K K > , I W / / _ _ _ _ ",
"q.q.,X,Xq.,Xq.8.,Xq.8.8.q.q.,Xq.q.q.8.$X$X$X5.6.2.^ ^ U K L <.gXnX:X<.NXnXnXUXJ.Z.A ].B.r.E.^.^.W.e.;.#.k A.+.z #.F c >.1.w.0.)     # o   o q P Y Y Y Y Y Y Y U U U P L L K K K K 0 0 : - 2 1 I W W W ! "
};
